<svg width="264" height="79" xmlns="http://www.w3.org/2000/svg" xmlns:xlink="http://www.w3.org/1999/xlink"><svg width="91.88" height="15.72" viewBox="-1 -1 91.88 15.72" y="62.78" xmlns="http://www.w3.org/2000/svg"><path data-name="COMPRA AQUÍ" d="M186.957 54.466a4.347 4.347 0 0 0 3.008-1 .576.576 0 0 0 .028-.874.5.5 0 0 0-.816-.243 2.853 2.853 0 0 1-2.034.688c-1.761 0-2.835-1.432-2.835-3.552s1.088-3.423 2.807-3.423a3.2 3.2 0 0 1 1.761.458c.416.2.588.014.745-.43a.546.546 0 0 0-.243-.845A4.431 4.431 0 0 0 187 44.7c-2.606 0-4.382 2.091-4.382 4.9 0 2.975 1.747 4.866 4.339 4.866zm8.319 0c2.636 0 4.311-1.847 4.326-4.941.014-2.936-1.476-4.855-4.225-4.855-2.636 0-4.325 1.848-4.325 4.941 0 2.964 1.475 4.855 4.224 4.855zm.029-1.275c-1.776 0-2.492-1.547-2.535-3.638-.043-2.163.831-3.58 2.592-3.58s2.507 1.475 2.535 3.552c.043 2.175-.845 3.652-2.592 3.666zm6.658 1.06a.446.446 0 0 0 .458-.473c.086-1.676.2-2.993.372-4.239.129-.859.229-1.919.4-2.735h.029c.286.687.6 1.7.888 2.506a75.59 75.59 0 0 1 1.246 4 .676.676 0 0 0 .788.63.7.7 0 0 0 .816-.63c.458-1.69.845-2.922 1.232-4.024.286-.788.615-1.762.9-2.478h.028c.172.816.287 1.89.4 2.764.172 1.232.3 2.621.373 4.211a.446.446 0 0 0 .458.473 2.552 2.552 0 0 0 .874-.043.4.4 0 0 0 .358-.516 54.126 54.126 0 0 0-1.16-7.92 1 1 0 0 0-1.089-.9 1.083 1.083 0 0 0-1.145.773 48.744 48.744 0 0 0-2.005 5.571h-.029a53.974 53.974 0 0 0-1.991-5.571 1.1 1.1 0 0 0-1.146-.773.99.99 0 0 0-1.088.9 49.729 49.729 0 0 0-1.174 7.92.419.419 0 0 0 .358.516 2.418 2.418 0 0 0 .849.038zm11.741-.029a2.942 2.942 0 0 0 1 0 .352.352 0 0 0 .33-.372v-2.922a12.37 12.37 0 0 0 1.289.057c2.32 0 3.866-1.017 3.866-3.122 0-2.019-1.589-3.036-4.038-3.036a15.033 15.033 0 0 0-2.263.114.572.572 0 0 0-.516.63v8.279a.342.342 0 0 0 .328.372zm2.535-4.468a9.5 9.5 0 0 1-1.2-.057v-3.609c.286-.029.63-.043 1.1-.043 1.375-.014 2.364.487 2.364 1.833-.003 1.322-.846 1.876-2.264 1.876zm5.712 4.468a2.948 2.948 0 0 0 1 0 .352.352 0 0 0 .329-.372v-3.208a8.3 8.3 0 0 0 1.046.057 9.969 9.969 0 0 0 2.964 3.423.977.977 0 0 0 1.289-.029c.272-.215.473-.516.143-.745a9.958 9.958 0 0 1-2.75-2.821 2.793 2.793 0 0 0 2.321-2.821c0-1.847-1.59-2.879-3.9-2.879a15.033 15.033 0 0 0-2.263.114.571.571 0 0 0-.515.63v8.279a.342.342 0 0 0 .336.372zm2.549-4.769a7.416 7.416 0 0 1-1.217-.072V46.1c.3-.029.63-.029 1.1-.043 1.217-.029 2.205.5 2.205 1.661s-.827 1.735-2.088 1.735zm6.529 4.869a.407.407 0 0 0 .429-.43c.115-.544.244-1.189.43-1.862h4a16.005 16.005 0 0 1 .429 1.862.4.4 0 0 0 .43.43 2.411 2.411 0 0 0 .645-.072c.515-.115.63-.329.544-.716a34.434 34.434 0 0 0-2.879-7.977 1.2 1.2 0 0 0-1.189-.7 1.167 1.167 0 0 0-1.16.73 32.823 32.823 0 0 0-2.864 7.948c-.086.387.043.587.544.716a2.224 2.224 0 0 0 .641.072zm1.217-3.595a23.556 23.556 0 0 1 1.618-4.211h.058a25.94 25.94 0 0 1 1.6 4.211h-3.28zm10.354 3.596a.408.408 0 0 0 .43-.43c.114-.544.243-1.189.429-1.862h4a16.23 16.23 0 0 1 .43 1.862.4.4 0 0 0 .429.43 2.411 2.411 0 0 0 .645-.072c.515-.115.63-.329.544-.716a34.434 34.434 0 0 0-2.879-7.977 1.2 1.2 0 0 0-1.188-.7 1.165 1.165 0 0 0-1.16.73 32.785 32.785 0 0 0-2.865 7.948c-.086.387.043.587.545.716a2.217 2.217 0 0 0 .64.071zm1.217-3.595a23.554 23.554 0 0 1 1.619-4.211h.057a25.94 25.94 0 0 1 1.6 4.211h-3.28zm15.351 4.34a20.043 20.043 0 0 1-2.449-1.117c1.361-.759 2.148-2.291 2.163-4.425.014-2.936-1.475-4.855-4.225-4.855-2.635 0-4.325 1.848-4.325 4.941 0 2.965 1.475 4.855 4.225 4.855.157 0 .3 0 .444-.014a20.865 20.865 0 0 0 2.821 1.532 1.151 1.151 0 0 0 1.189-.229c.389-.245.556-.545.155-.689zm-7.118-5.514c-.043-2.163.831-3.58 2.593-3.58 1.747-.014 2.506 1.475 2.534 3.552.043 2.177-.845 3.652-2.592 3.666-1.778-.001-2.494-1.548-2.537-3.639zm12.186 4.841c2.291 0 3.552-1.232 3.552-3.495v-5.7a.354.354 0 0 0-.358-.358 2.044 2.044 0 0 0-.931 0 .351.351 0 0 0-.344.358v5.958a1.919 1.919 0 1 1-3.838 0V45.2a.342.342 0 0 0-.344-.358 2.235 2.235 0 0 0-.974 0 .342.342 0 0 0-.344.358v5.7c-.002 2.263 1.245 3.494 3.579 3.494zm5.54-9.868v9.653h1.246v-9.653h-1.246zm1.189-2.191-1.318 1.676h1.017l1.833-1.676h-1.532z" transform="translate(-182.625 -42.344)" style="fill:#fff;fill-rule:evenodd"/></svg><svg width="263.88" height="33.06" viewBox="-1 -1 263.88 33.06" xmlns="http://www.w3.org/2000/svg"><path data-name="*Remoción mecánica por medio del arrastre de las bacterias Esch" d="M31.745 210.143a.141.141 0 0 0 .22-.055l.386-.669.394.661a.143.143 0 0 0 .228.047l.126-.087a.14.14 0 0 0 .024-.228l-.535-.575.748-.181a.145.145 0 0 0 .118-.2l-.055-.134a.135.135 0 0 0-.2-.095l-.693.347.079-.764a.146.146 0 0 0-.157-.173h-.15a.14.14 0 0 0-.157.173l.079.764-.709-.339a.136.136 0 0 0-.2.095l-.047.134a.138.138 0 0 0 .118.2l.756.189-.52.575a.134.134 0 0 0 .024.228zm2.993 3.416a1.042 1.042 0 0 0 .386 0 .157.157 0 0 0 .165-.165v-1.842a5.224 5.224 0 0 0 .756.039 5.126 5.126 0 0 0 1.74 1.929.437.437 0 0 0 .559-.024c.134-.1.2-.228.047-.33a4.748 4.748 0 0 1-1.63-1.654 1.539 1.539 0 0 0 1.354-1.55c0-.984-.858-1.559-2.11-1.559a10.164 10.164 0 0 0-1.189.047.267.267 0 0 0-.236.292v4.652a.151.151 0 0 0 .158.165zm1.33-2.535a5.174 5.174 0 0 1-.779-.039v-2.007c.181-.016.4-.024.709-.024a1.135 1.135 0 0 1 1.377 1.016 1.1 1.1 0 0 1-1.307 1.054zm3.419 2.512h2.684c.157 0 .165-.142.165-.3s-.008-.275-.149-.275H39.92v-1.74h1.905c.134 0 .149-.134.149-.291s0-.283-.157-.283h-1.9v-1.654h2.243c.134 0 .15-.133.15-.291s0-.283-.157-.283h-2.666a.245.245 0 0 0-.276.275v4.566a.246.246 0 0 0 .276.276zm4.206.031a.187.187 0 0 0 .2-.2c.047-.976.126-1.739.236-2.527.079-.519.165-1.1.268-1.6h.016c.189.441.386 1.024.559 1.52.252.708.464 1.424.708 2.314a.33.33 0 0 0 .37.323.336.336 0 0 0 .386-.323c.228-.905.449-1.622.693-2.314.173-.5.378-1.055.575-1.52h.016c.1.5.2 1.095.276 1.614.11.779.189 1.606.236 2.511a.178.178 0 0 0 .2.2 1.047 1.047 0 0 0 .354-.016.184.184 0 0 0 .165-.22 28.383 28.383 0 0 0-.661-4.519.454.454 0 0 0-.488-.4.484.484 0 0 0-.512.338 28.934 28.934 0 0 0-1.212 3.488h-.016a26.852 26.852 0 0 0-1.22-3.488.476.476 0 0 0-.5-.338.441.441 0 0 0-.488.409 25.407 25.407 0 0 0-.669 4.511.175.175 0 0 0 .157.22 1.011 1.011 0 0 0 .351.017zm8.253.126c1.441 0 2.307-1.039 2.314-2.716.008-1.621-.8-2.668-2.275-2.668-1.441 0-2.314 1.039-2.314 2.715 0 1.622.795 2.669 2.275 2.669zm.016-.551c-1.055 0-1.551-.905-1.566-2.141-.016-1.291.52-2.133 1.582-2.133 1.039 0 1.551.889 1.566 2.117.008 1.283-.535 2.157-1.582 2.157zm5.5.543a2.259 2.259 0 0 0 1.606-.559.258.258 0 0 0 .024-.4.222.222 0 0 0-.362-.095 1.717 1.717 0 0 1-1.2.441c-1.039 0-1.692-.834-1.692-2.1a1.778 1.778 0 0 1 1.685-2.054 1.738 1.738 0 0 1 1.023.291c.189.094.26.008.331-.181a.254.254 0 0 0-.118-.386 2.357 2.357 0 0 0-1.275-.323 2.446 2.446 0 0 0-2.361 2.693c-.009 1.65.935 2.673 2.336 2.673zm2.781-.126a1.042 1.042 0 0 0 .386 0 .157.157 0 0 0 .165-.165v-4.849a.153.153 0 0 0-.165-.166 1.086 1.086 0 0 0-.386 0 .147.147 0 0 0-.157.166v4.849a.151.151 0 0 0 .155.165zm3.229-5.5 1.5-.732a.126.126 0 0 0 .063-.189 1.054 1.054 0 0 0-.15-.3.137.137 0 0 0-.2-.048l-1.409.874c-.118.071-.079.158-.031.26.055.141.13.176.224.133zm.614 5.636c1.441 0 2.307-1.039 2.314-2.716.008-1.621-.795-2.668-2.275-2.668-1.441 0-2.314 1.039-2.314 2.715-.003 1.62.789 2.667 2.272 2.667zm.016-.551c-1.055 0-1.551-.905-1.567-2.141-.016-1.291.52-2.133 1.582-2.133 1.039 0 1.551.889 1.567 2.117.005 1.281-.538 2.155-1.584 2.155zm3.482.409a.791.791 0 0 0 .362 0 .156.156 0 0 0 .165-.165v-2.85c0-.362-.016-.771-.031-1.1h.016c.15.26.386.693.59 1l1.905 2.92a.393.393 0 0 0 .354.182h.142a.262.262 0 0 0 .291-.292v-4.683a.15.15 0 0 0-.165-.166.82.82 0 0 0-.362-.008.163.163 0 0 0-.165.174l.008 2.928c0 .346.016.708.024 1.015H70.7c-.126-.22-.346-.653-.543-.952l-1.921-2.944a.386.386 0 0 0-.346-.189h-.183a.262.262 0 0 0-.291.291v4.676a.152.152 0 0 0 .165.161zm6.836.016a.187.187 0 0 0 .2-.2c.047-.976.126-1.739.236-2.527.079-.519.165-1.1.268-1.6h.016c.189.441.386 1.024.559 1.52.252.708.464 1.424.709 2.314a.33.33 0 0 0 .37.323.336.336 0 0 0 .386-.323c.228-.905.449-1.622.693-2.314.173-.5.378-1.055.575-1.52h.016c.1.5.2 1.095.276 1.614.11.779.189 1.606.236 2.511a.178.178 0 0 0 .2.2 1.047 1.047 0 0 0 .354-.016.184.184 0 0 0 .165-.22 28.4 28.4 0 0 0-.661-4.519.454.454 0 0 0-.488-.4.484.484 0 0 0-.512.338 28.951 28.951 0 0 0-1.212 3.488h-.019a26.882 26.882 0 0 0-1.22-3.488.476.476 0 0 0-.5-.338.441.441 0 0 0-.488.409 25.4 25.4 0 0 0-.669 4.511.175.175 0 0 0 .157.22 1.011 1.011 0 0 0 .351.015zm6.616-.031h2.684c.157 0 .165-.142.165-.3s-.008-.275-.15-.275h-2.268v-1.74h1.905c.134 0 .15-.134.15-.291s0-.283-.157-.283h-1.9v-1.654h2.245c.134 0 .15-.133.15-.291s0-.283-.157-.283h-2.669a.245.245 0 0 0-.276.275v4.566a.246.246 0 0 0 .276.274zm5.827.149a2.259 2.259 0 0 0 1.606-.559.258.258 0 0 0 .024-.4.222.222 0 0 0-.362-.095 1.717 1.717 0 0 1-1.2.441c-1.039 0-1.692-.834-1.692-2.1a1.778 1.778 0 0 1 1.685-2.054 1.738 1.738 0 0 1 1.023.291c.189.094.26.008.331-.181a.254.254 0 0 0-.118-.386 2.356 2.356 0 0 0-1.275-.323 2.446 2.446 0 0 0-2.362 2.693c-.008 1.648.937 2.671 2.338 2.671zm3.836-5.628 1.5-.732a.127.127 0 0 0 .063-.189 1.057 1.057 0 0 0-.15-.3.136.136 0 0 0-.2-.048l-1.409.874c-.118.071-.079.158-.032.26.061.141.129.176.229.133zm-1.047 5.549a.177.177 0 0 0 .189-.181c.071-.354.15-.74.26-1.133h2.393c.1.393.189.771.268 1.133a.177.177 0 0 0 .189.181.75.75 0 0 0 .268-.039c.2-.047.26-.134.22-.291a18.028 18.028 0 0 0-1.637-4.558.522.522 0 0 0-.512-.315.514.514 0 0 0-.5.323 16.549 16.549 0 0 0-1.629 4.55c-.039.157.016.244.22.291a.718.718 0 0 0 .269.037zm.59-1.889a13.81 13.81 0 0 1 1.031-2.613h.027a13.816 13.816 0 0 1 1.031 2.613h-2.09zm4.285 1.834a.791.791 0 0 0 .362 0 .156.156 0 0 0 .165-.165v-2.85c0-.362-.016-.771-.032-1.1h.016c.15.26.386.693.59 1l1.9 2.92a.393.393 0 0 0 .354.182h.142a.262.262 0 0 0 .291-.292v-4.683a.15.15 0 0 0-.165-.166.82.82 0 0 0-.362-.008.163.163 0 0 0-.165.174l.008 2.928c0 .346.016.708.024 1.015h-.012c-.126-.22-.346-.653-.543-.952l-1.921-2.944a.386.386 0 0 0-.346-.189h-.182a.262.262 0 0 0-.291.291v4.676a.152.152 0 0 0 .165.161zm5.214.008a1.041 1.041 0 0 0 .386 0 .157.157 0 0 0 .165-.165v-4.849a.153.153 0 0 0-.165-.166 1.086 1.086 0 0 0-.386 0 .147.147 0 0 0-.157.166v4.849a.151.151 0 0 0 .155.163zm3.914.126a2.261 2.261 0 0 0 1.606-.559.259.259 0 0 0 .023-.4.222.222 0 0 0-.362-.095 1.715 1.715 0 0 1-1.2.441c-1.039 0-1.693-.834-1.693-2.1a1.778 1.778 0 0 1 1.685-2.054 1.739 1.739 0 0 1 1.023.291c.189.094.26.008.331-.181a.254.254 0 0 0-.118-.386 2.357 2.357 0 0 0-1.275-.323 2.446 2.446 0 0 0-2.362 2.693c-.006 1.648.939 2.671 2.34 2.671zm2.789-.079a.177.177 0 0 0 .189-.181c.071-.354.149-.74.26-1.133h2.393c.1.393.189.771.267 1.133a.177.177 0 0 0 .189.181.751.751 0 0 0 .268-.039c.2-.047.26-.134.22-.291a18.043 18.043 0 0 0-1.637-4.558.523.523 0 0 0-.512-.315.515.515 0 0 0-.5.323 16.571 16.571 0 0 0-1.629 4.55c-.039.157.016.244.22.291a.722.722 0 0 0 .27.037zm.59-1.889a13.816 13.816 0 0 1 1.032-2.613h.023a13.75 13.75 0 0 1 1.031 2.613h-2.086zm5.7 1.842a1.043 1.043 0 0 0 .386 0 .157.157 0 0 0 .165-.165v-1.685a6.541 6.541 0 0 0 .8.032c1.275 0 2.1-.559 2.1-1.685 0-1.094-.858-1.653-2.189-1.653a10.157 10.157 0 0 0-1.188.047.267.267 0 0 0-.236.292v4.652a.15.15 0 0 0 .155.163zm1.33-2.361a4.989 4.989 0 0 1-.779-.048v-2.18a8.1 8.1 0 0 1 .708-.024c.882-.008 1.465.331 1.465 1.11a1.146 1.146 0 0 1-1.401 1.142zm5.151 2.5c1.441 0 2.306-1.039 2.314-2.716.008-1.621-.8-2.668-2.275-2.668-1.44 0-2.314 1.039-2.314 2.715-.007 1.615.788 2.662 2.268 2.662zm.016-.551c-1.055 0-1.551-.905-1.567-2.141-.015-1.291.52-2.133 1.582-2.133 1.04 0 1.551.889 1.567 2.117.001 1.276-.542 2.15-1.589 2.15zm3.474.417a1.043 1.043 0 0 0 .386 0 .157.157 0 0 0 .165-.165v-1.842a5.222 5.222 0 0 0 .756.039 5.126 5.126 0 0 0 1.74 1.929.437.437 0 0 0 .559-.024c.133-.1.2-.228.047-.33a4.747 4.747 0 0 1-1.63-1.654 1.539 1.539 0 0 0 1.354-1.55c0-.984-.858-1.559-2.109-1.559a10.166 10.166 0 0 0-1.189.047.267.267 0 0 0-.236.292v4.652a.15.15 0 0 0 .152.158zm1.331-2.535a5.183 5.183 0 0 1-.78-.039v-2.007c.181-.016.4-.024.709-.024a1.135 1.135 0 0 1 1.377 1.016 1.1 1.1 0 0 1-1.313 1.047zm4.923 2.543a.186.186 0 0 0 .2-.2c.048-.976.126-1.739.237-2.527.078-.519.165-1.1.267-1.6h.016c.189.441.386 1.024.559 1.52.252.708.464 1.424.708 2.314a.33.33 0 0 0 .37.323.336.336 0 0 0 .386-.323c.228-.905.449-1.622.693-2.314.173-.5.378-1.055.574-1.52h.016c.1.5.2 1.095.276 1.614.11.779.189 1.606.236 2.511a.178.178 0 0 0 .2.2 1.046 1.046 0 0 0 .354-.016.184.184 0 0 0 .165-.22 28.3 28.3 0 0 0-.661-4.519.454.454 0 0 0-.488-.4.484.484 0 0 0-.512.338 28.9 28.9 0 0 0-1.212 3.488h-.016a26.807 26.807 0 0 0-1.22-3.488.476.476 0 0 0-.5-.338.441.441 0 0 0-.488.409 25.389 25.389 0 0 0-.669 4.511.175.175 0 0 0 .157.22 1.014 1.014 0 0 0 .345.01zm6.616-.031h2.684c.157 0 .165-.142.165-.3s-.008-.275-.149-.275H136v-1.74h1.905c.133 0 .149-.134.149-.291s0-.283-.157-.283H136V209h2.243c.134 0 .15-.133.15-.291s0-.283-.158-.283h-2.668a.246.246 0 0 0-.276.275v4.566a.246.246 0 0 0 .277.269zm4.977.063a3.292 3.292 0 0 0 2.031-.567 2.577 2.577 0 0 0 .866-2.118c0-1.677-.9-2.495-2.779-2.495a7.578 7.578 0 0 0-1.031.063.242.242 0 0 0-.221.267v4.5a.248.248 0 0 0 .237.291 7.178 7.178 0 0 0 .89.053zm.165-.583c-.2 0-.385-.008-.6-.024v-3.975a4.96 4.96 0 0 1 .638-.039 1.722 1.722 0 0 1 1.983 1.944 2.172 2.172 0 0 1-.519 1.59 1.982 1.982 0 0 1-1.509.497zm3.876.543a1.043 1.043 0 0 0 .386 0 .157.157 0 0 0 .165-.165v-4.849a.153.153 0 0 0-.165-.166 1.088 1.088 0 0 0-.386 0 .148.148 0 0 0-.158.166v4.849a.151.151 0 0 0 .151.158zm3.842.134c1.441 0 2.307-1.039 2.315-2.716.008-1.621-.795-2.668-2.275-2.668-1.441 0-2.314 1.039-2.314 2.715-.007 1.615.788 2.662 2.267 2.662zm.016-.551c-1.055 0-1.551-.905-1.566-2.141-.016-1.291.519-2.133 1.582-2.133 1.039 0 1.551.889 1.566 2.117.001 1.276-.542 2.15-1.589 2.15zm5.868.457a3.292 3.292 0 0 0 2.031-.567 2.574 2.574 0 0 0 .866-2.118c0-1.677-.9-2.495-2.778-2.495a7.6 7.6 0 0 0-1.032.063.242.242 0 0 0-.22.267v4.5a.248.248 0 0 0 .236.291 7.191 7.191 0 0 0 .89.053zm.166-.583c-.205 0-.386-.008-.6-.024v-3.975a4.984 4.984 0 0 1 .638-.039 1.723 1.723 0 0 1 1.984 1.944 2.168 2.168 0 0 1-.52 1.59 1.979 1.979 0 0 1-1.509.497zm3.993.52h2.685c.157 0 .165-.142.165-.3s-.008-.275-.149-.275H158.9v-1.74h1.905c.134 0 .15-.134.15-.291s0-.283-.157-.283h-1.9V209h2.244c.134 0 .149-.133.149-.291s0-.283-.157-.283h-2.669a.245.245 0 0 0-.275.275v4.566a.246.246 0 0 0 .281.269zm4.12 0h2.676c.165 0 .173-.134.173-.3s-.008-.283-.157-.283h-2.259v-4.392a.157.157 0 0 0-.166-.166 1.083 1.083 0 0 0-.385 0 .151.151 0 0 0-.158.166v4.7a.246.246 0 0 0 .269.268zm5.3.07a.176.176 0 0 0 .189-.181c.071-.354.15-.74.26-1.133h2.393c.1.393.189.771.268 1.133a.176.176 0 0 0 .189.181.746.746 0 0 0 .267-.039c.205-.047.26-.134.221-.291a18.007 18.007 0 0 0-1.638-4.558.521.521 0 0 0-.511-.315.515.515 0 0 0-.5.323 16.573 16.573 0 0 0-1.63 4.55c-.039.157.016.244.221.291a.714.714 0 0 0 .264.032zm.591-1.889a13.75 13.75 0 0 1 1.031-2.613h.023a13.816 13.816 0 0 1 1.032 2.613h-2.086zm4.277 1.842a1.038 1.038 0 0 0 .385 0 .157.157 0 0 0 .166-.165v-1.842a5.216 5.216 0 0 0 .755.039 5.126 5.126 0 0 0 1.74 1.929.437.437 0 0 0 .559-.024c.134-.1.2-.228.047-.33a4.744 4.744 0 0 1-1.629-1.654 1.539 1.539 0 0 0 1.354-1.55c0-.984-.858-1.559-2.11-1.559a10.178 10.178 0 0 0-1.189.047.267.267 0 0 0-.236.292v4.652a.151.151 0 0 0 .151.158zm1.33-2.535a5.168 5.168 0 0 1-.779-.039v-2.007a8.1 8.1 0 0 1 .708-.024 1.136 1.136 0 0 1 1.378 1.016 1.1 1.1 0 0 1-1.314 1.047zm3.3 2.535a1.043 1.043 0 0 0 .386 0 .157.157 0 0 0 .165-.165v-1.842a5.222 5.222 0 0 0 .756.039 5.123 5.123 0 0 0 1.739 1.929.437.437 0 0 0 .558-.027c.134-.1.2-.228.047-.33a4.744 4.744 0 0 1-1.629-1.654 1.539 1.539 0 0 0 1.354-1.55c0-.984-.858-1.559-2.11-1.559a10.157 10.157 0 0 0-1.188.047.267.267 0 0 0-.237.292v4.652a.151.151 0 0 0 .153.161zm1.33-2.535a5.176 5.176 0 0 1-.779-.039v-2.007a8.1 8.1 0 0 1 .708-.024 1.136 1.136 0 0 1 1.378 1.016 1.1 1.1 0 0 1-1.313 1.047zm3.466 2.582a.176.176 0 0 0 .189-.181c.071-.354.15-.74.26-1.133h2.393c.1.393.189.771.268 1.133a.176.176 0 0 0 .189.181.746.746 0 0 0 .267-.039c.2-.047.26-.134.221-.291a18.007 18.007 0 0 0-1.638-4.558.521.521 0 0 0-.511-.315.515.515 0 0 0-.5.323 16.573 16.573 0 0 0-1.63 4.55c-.039.157.016.244.221.291a.717.717 0 0 0 .265.032zm.591-1.889a13.75 13.75 0 0 1 1.031-2.613h.024a13.884 13.884 0 0 1 1.031 2.613h-2.086zm5.741 1.921a1.721 1.721 0 0 0 1.936-1.661 1.161 1.161 0 0 0-.74-1.1c-.527-.26-1.354-.331-1.818-.535a.66.66 0 0 1-.527-.638c-.008-.488.409-.795 1.149-.795a2.168 2.168 0 0 1 1.228.307c.181.1.268.055.338-.158a.258.258 0 0 0-.078-.377 2.658 2.658 0 0 0-1.52-.37c-1.133.007-1.834.559-1.826 1.464a1.152 1.152 0 0 0 .7 1.086 14.515 14.515 0 0 0 1.8.567.745.745 0 0 1 .6.7 1.015 1.015 0 0 1-1.244.914 1.992 1.992 0 0 1-1.441-.559c-.165-.142-.252-.071-.37.165a.284.284 0 0 0 .055.4 2.633 2.633 0 0 0 1.752.583zm4.19-.079a1.087 1.087 0 0 0 .394 0 .15.15 0 0 0 .157-.165V209h1.5c.126 0 .165-.11.165-.307s-.031-.275-.165-.275H191c-.118 0-.165.118-.165.307s.039.275.165.275h1.551v4.393a.15.15 0 0 0 .157.166zm3.277 0a1.043 1.043 0 0 0 .386 0 .157.157 0 0 0 .165-.165v-1.842a5.243 5.243 0 0 0 .756.039 5.126 5.126 0 0 0 1.74 1.929.437.437 0 0 0 .559-.024c.133-.1.2-.228.047-.33a4.755 4.755 0 0 1-1.63-1.654 1.539 1.539 0 0 0 1.354-1.55c0-.984-.858-1.559-2.109-1.559a10.166 10.166 0 0 0-1.189.047.267.267 0 0 0-.236.292v4.652a.15.15 0 0 0 .151.158zm1.331-2.535a5.183 5.183 0 0 1-.78-.039v-2.007c.181-.016.4-.024.709-.024a1.135 1.135 0 0 1 1.377 1.016 1.1 1.1 0 0 1-1.312 1.047zm3.419 2.512h2.684c.157 0 .165-.142.165-.3s-.008-.275-.149-.275h-2.267v-1.74h1.905c.133 0 .149-.134.149-.291s0-.283-.157-.283h-1.9V209h2.243c.134 0 .15-.133.15-.291s0-.283-.158-.283h-2.668a.246.246 0 0 0-.276.275v4.566a.246.246 0 0 0 .273.269zm6.395.063a3.29 3.29 0 0 0 2.03-.567 2.574 2.574 0 0 0 .866-2.118c0-1.677-.9-2.495-2.778-2.495a7.6 7.6 0 0 0-1.032.063.242.242 0 0 0-.22.267v4.5a.248.248 0 0 0 .236.291 7.2 7.2 0 0 0 .892.053zm.165-.583c-.2 0-.386-.008-.6-.024v-3.975a4.956 4.956 0 0 1 .637-.039 1.723 1.723 0 0 1 1.984 1.944 2.168 2.168 0 0 1-.52 1.59 1.979 1.979 0 0 1-1.502.497zm3.994.52h2.684c.157 0 .165-.142.165-.3s-.008-.275-.149-.275h-2.267v-1.74h1.9c.134 0 .15-.134.15-.291s0-.283-.157-.283h-1.9V209h2.243c.134 0 .15-.133.15-.291s0-.283-.158-.283h-2.668a.245.245 0 0 0-.276.275v4.566a.246.246 0 0 0 .277.269zm5.536 0h2.669c.165 0 .173-.134.173-.3s-.008-.283-.157-.283h-2.26v-4.392a.157.157 0 0 0-.165-.166 1.088 1.088 0 0 0-.386 0 .151.151 0 0 0-.157.166v4.7a.246.246 0 0 0 .277.268zm3.962.07a.177.177 0 0 0 .189-.181c.071-.354.15-.74.26-1.133h2.393c.1.393.189.771.267 1.133a.177.177 0 0 0 .189.181.748.748 0 0 0 .268-.039c.2-.047.26-.134.22-.291a18.043 18.043 0 0 0-1.637-4.558.523.523 0 0 0-.512-.315.514.514 0 0 0-.5.323 16.541 16.541 0 0 0-1.63 4.55c-.039.157.016.244.221.291a.714.714 0 0 0 .266.032zm.59-1.889a13.816 13.816 0 0 1 1.032-2.613h.023a13.75 13.75 0 0 1 1.031 2.613h-2.086zm5.742 1.921a1.721 1.721 0 0 0 1.936-1.661 1.162 1.162 0 0 0-.74-1.1c-.527-.26-1.354-.331-1.818-.535a.661.661 0 0 1-.528-.638c-.008-.488.41-.795 1.15-.795a2.168 2.168 0 0 1 1.228.307c.181.1.267.055.338-.158a.257.257 0 0 0-.079-.377 2.655 2.655 0 0 0-1.519-.37c-1.133.007-1.834.559-1.826 1.464a1.153 1.153 0 0 0 .7 1.086 14.528 14.528 0 0 0 1.8.567.744.744 0 0 1 .6.7 1.014 1.014 0 0 1-1.243.914 1.992 1.992 0 0 1-1.441-.559c-.165-.142-.252-.071-.37.165a.283.283 0 0 0 .055.4 2.631 2.631 0 0 0 1.751.583zm5.458-.032c1.354 0 2.165-.456 2.165-1.59a1.124 1.124 0 0 0-.8-1.118v-.015a1.244 1.244 0 0 0 .637-1.15c0-.913-.834-1.322-1.873-1.322a7.077 7.077 0 0 0-1.094.063.243.243 0 0 0-.221.268v4.526a.248.248 0 0 0 .236.291 7.538 7.538 0 0 0 .944.04zm-.5-2.959v-1.661c.22-.024.441-.024.653-.032a.915.915 0 0 1 1.134.85.742.742 0 0 1-.787.843h-1zm.6 2.4a4.991 4.991 0 0 1-.6-.031v-1.811h1.017a.762.762 0 0 1 .929.8 1.111 1.111 0 0 1-1.35 1.035zm3.214.559a.176.176 0 0 0 .189-.181c.071-.354.15-.74.26-1.133h2.393c.1.393.189.771.268 1.133a.176.176 0 0 0 .189.181.746.746 0 0 0 .267-.039c.2-.047.26-.134.221-.291a18.007 18.007 0 0 0-1.638-4.558.521.521 0 0 0-.511-.315.515.515 0 0 0-.5.323 16.573 16.573 0 0 0-1.63 4.55c-.039.157.016.244.221.291a.717.717 0 0 0 .267.032zm.591-1.889a13.75 13.75 0 0 1 1.031-2.613h.024a13.884 13.884 0 0 1 1.031 2.613h-2.086zm6.1 1.968a2.261 2.261 0 0 0 1.606-.559.257.257 0 0 0 .023-.4.222.222 0 0 0-.362-.095 1.715 1.715 0 0 1-1.2.441c-1.039 0-1.693-.834-1.693-2.1a1.778 1.778 0 0 1 1.685-2.054 1.734 1.734 0 0 1 1.023.291c.189.094.26.008.331-.181a.254.254 0 0 0-.118-.386 2.357 2.357 0 0 0-1.275-.323 2.446 2.446 0 0 0-2.362 2.693c-.005 1.643.94 2.666 2.341 2.666zm4.119-.126a1.087 1.087 0 0 0 .394 0 .15.15 0 0 0 .157-.165V209h1.5c.126 0 .165-.11.165-.307s-.031-.275-.165-.275H245c-.118 0-.165.118-.165.307s.037.275.165.275h1.551v4.393a.15.15 0 0 0 .155.166zm3.4-.023h2.684c.158 0 .165-.142.165-.3s-.007-.275-.149-.275h-2.267v-1.74h1.905c.134 0 .149-.134.149-.291s0-.283-.157-.283h-1.9V209h2.243c.134 0 .15-.133.15-.291s0-.283-.158-.283H250.1a.246.246 0 0 0-.276.275v4.566a.246.246 0 0 0 .276.269zm4 .023a1.043 1.043 0 0 0 .386 0 .157.157 0 0 0 .165-.165v-1.842a5.222 5.222 0 0 0 .756.039 5.123 5.123 0 0 0 1.739 1.929.437.437 0 0 0 .559-.024c.134-.1.2-.228.047-.33a4.744 4.744 0 0 1-1.629-1.654 1.539 1.539 0 0 0 1.354-1.55c0-.984-.858-1.559-2.11-1.559a10.157 10.157 0 0 0-1.188.047.267.267 0 0 0-.237.292v4.652a.151.151 0 0 0 .151.158zm1.33-2.535a5.176 5.176 0 0 1-.779-.039v-2.007a8.1 8.1 0 0 1 .708-.024 1.136 1.136 0 0 1 1.378 1.016 1.1 1.1 0 0 1-1.311 1.047zm3.3 2.535a1.043 1.043 0 0 0 .386 0 .157.157 0 0 0 .165-.165v-4.849a.153.153 0 0 0-.165-.166 1.088 1.088 0 0 0-.386 0 .147.147 0 0 0-.157.166v4.849a.15.15 0 0 0 .154.158zm1.977.047a.177.177 0 0 0 .189-.181c.071-.354.149-.74.26-1.133h2.393c.1.393.189.771.267 1.133a.177.177 0 0 0 .189.181.748.748 0 0 0 .268-.039c.205-.047.26-.134.22-.291a18.043 18.043 0 0 0-1.637-4.558.523.523 0 0 0-.512-.315.513.513 0 0 0-.5.323 16.541 16.541 0 0 0-1.63 4.55c-.039.157.016.244.22.291a.722.722 0 0 0 .27.032zm.59-1.889a13.816 13.816 0 0 1 1.032-2.613h.023a13.75 13.75 0 0 1 1.031 2.613h-2.09zm5.742 1.921a1.721 1.721 0 0 0 1.936-1.661 1.162 1.162 0 0 0-.74-1.1c-.527-.26-1.354-.331-1.818-.535a.661.661 0 0 1-.528-.638c-.008-.488.41-.795 1.15-.795a2.168 2.168 0 0 1 1.228.307c.181.1.267.055.338-.158a.257.257 0 0 0-.079-.377 2.655 2.655 0 0 0-1.519-.37c-1.133.007-1.834.559-1.826 1.464a1.153 1.153 0 0 0 .7 1.086 14.528 14.528 0 0 0 1.8.567.744.744 0 0 1 .6.7 1.014 1.014 0 0 1-1.243.914 1.992 1.992 0 0 1-1.441-.559c-.165-.142-.252-.071-.37.165a.283.283 0 0 0 .055.4 2.631 2.631 0 0 0 1.754.583zM19.352 225.6h2.684c.158 0 .165-.142.165-.3s-.008-.276-.149-.276h-2.267v-1.739h1.9c.134 0 .149-.134.149-.292s0-.283-.157-.283h-1.9v-1.653h2.243c.134 0 .15-.134.15-.291s0-.284-.157-.284h-2.661a.246.246 0 0 0-.276.276v4.565a.246.246 0 0 0 .276.277zm5.465.1a1.721 1.721 0 0 0 1.936-1.661 1.164 1.164 0 0 0-.74-1.1c-.527-.259-1.354-.33-1.818-.535a.659.659 0 0 1-.527-.638c-.008-.488.409-.795 1.149-.795a2.167 2.167 0 0 1 1.228.307c.181.1.268.055.338-.157a.259.259 0 0 0-.079-.378 2.656 2.656 0 0 0-1.519-.37c-1.133.008-1.834.559-1.826 1.464a1.155 1.155 0 0 0 .7 1.087 14.351 14.351 0 0 0 1.8.566.746.746 0 0 1 .6.7 1.014 1.014 0 0 1-1.244.913 1.987 1.987 0 0 1-1.44-.559c-.165-.142-.252-.071-.37.165a.284.284 0 0 0 .055.4 2.629 2.629 0 0 0 1.757.591zm4.954.048a2.263 2.263 0 0 0 1.606-.559.259.259 0 0 0 .024-.4.222.222 0 0 0-.362-.094 1.721 1.721 0 0 1-1.2.441c-1.039 0-1.692-.835-1.692-2.1a1.778 1.778 0 0 1 1.685-2.055 1.738 1.738 0 0 1 1.023.291c.189.095.26.008.331-.181a.253.253 0 0 0-.118-.385 2.348 2.348 0 0 0-1.275-.323 2.445 2.445 0 0 0-2.362 2.692c-.006 1.651.938 2.675 2.34 2.675zm6.387-5.306a1.085 1.085 0 0 0-.394 0 .141.141 0 0 0-.149.165v2.1H33.1v-2.1a.153.153 0 0 0-.165-.165 1.042 1.042 0 0 0-.386 0 .147.147 0 0 0-.157.165v4.849a.151.151 0 0 0 .157.166 1.086 1.086 0 0 0 .386 0 .157.157 0 0 0 .165-.166v-2.172h2.511v2.172a.145.145 0 0 0 .149.166 1.131 1.131 0 0 0 .394 0 .151.151 0 0 0 .157-.166v-4.849a.147.147 0 0 0-.154-.163zm1.7 5.156h2.684c.157 0 .165-.142.165-.3s-.008-.276-.149-.276h-2.273v-1.739h1.9c.134 0 .15-.134.15-.292s0-.283-.157-.283h-1.9v-1.653h2.243c.134 0 .15-.134.15-.291s0-.284-.157-.284h-2.662a.246.246 0 0 0-.276.276v4.565a.246.246 0 0 0 .276.279zm4 .024a1.086 1.086 0 0 0 .386 0 .157.157 0 0 0 .165-.166v-1.842a5.038 5.038 0 0 0 .756.04 5.13 5.13 0 0 0 1.74 1.928.436.436 0 0 0 .559-.023c.134-.1.2-.229.047-.331a4.753 4.753 0 0 1-1.63-1.653 1.539 1.539 0 0 0 1.354-1.551c0-.984-.858-1.558-2.11-1.558a9.94 9.94 0 0 0-1.189.047.266.266 0 0 0-.236.291v4.652a.151.151 0 0 0 .154.168zm1.33-2.535a5.311 5.311 0 0 1-.779-.039v-2.008c.181-.016.4-.023.709-.023a1.135 1.135 0 0 1 1.377 1.015 1.1 1.1 0 0 1-1.311 1.057zm3.3 2.535a1.087 1.087 0 0 0 .386 0 .157.157 0 0 0 .165-.166v-4.849a.153.153 0 0 0-.165-.165 1.042 1.042 0 0 0-.386 0 .147.147 0 0 0-.157.165v4.849a.151.151 0 0 0 .154.168zm3.912.128a2.263 2.263 0 0 0 1.6-.559.259.259 0 0 0 .024-.4.222.222 0 0 0-.362-.094 1.721 1.721 0 0 1-1.2.441c-1.039 0-1.692-.835-1.692-2.1a1.778 1.778 0 0 1 1.685-2.055 1.738 1.738 0 0 1 1.023.291c.189.095.26.008.331-.181a.253.253 0 0 0-.118-.385 2.348 2.348 0 0 0-1.275-.323 2.445 2.445 0 0 0-2.362 2.692c-.002 1.649.946 2.673 2.346 2.673zm6.387-5.306a1.085 1.085 0 0 0-.394 0 .141.141 0 0 0-.15.165v2.1h-2.512v-2.1a.153.153 0 0 0-.165-.165 1.042 1.042 0 0 0-.386 0 .147.147 0 0 0-.157.165v4.849a.151.151 0 0 0 .157.166 1.086 1.086 0 0 0 .386 0 .157.157 0 0 0 .165-.166v-2.172h2.511v2.172a.145.145 0 0 0 .15.166 1.131 1.131 0 0 0 .394 0 .151.151 0 0 0 .157-.166v-4.849a.147.147 0 0 0-.158-.165zm1.577 5.18a1.086 1.086 0 0 0 .386 0 .157.157 0 0 0 .165-.166v-4.849a.153.153 0 0 0-.165-.165 1.042 1.042 0 0 0-.386 0 .147.147 0 0 0-.157.165v4.849a.151.151 0 0 0 .155.166zm1.977.047a.178.178 0 0 0 .189-.181c.071-.354.15-.74.26-1.134h2.393c.1.394.189.772.268 1.134a.178.178 0 0 0 .189.181.75.75 0 0 0 .268-.04c.2-.047.26-.133.221-.291a18.028 18.028 0 0 0-1.637-4.558.522.522 0 0 0-.512-.314.514.514 0 0 0-.5.322 16.561 16.561 0 0 0-1.629 4.55c-.039.158.016.244.22.291a.717.717 0 0 0 .268.04zm.59-1.889a13.794 13.794 0 0 1 1.031-2.614h.024a13.794 13.794 0 0 1 1.031 2.614h-2.088zm7.639 1.968a2.263 2.263 0 0 0 1.606-.559.259.259 0 0 0 .024-.4.222.222 0 0 0-.362-.094 1.721 1.721 0 0 1-1.2.441c-1.039 0-1.693-.835-1.693-2.1a1.778 1.778 0 0 1 1.685-2.055 1.738 1.738 0 0 1 1.023.291c.189.095.26.008.331-.181a.253.253 0 0 0-.118-.385 2.348 2.348 0 0 0-1.275-.323 2.445 2.445 0 0 0-2.362 2.692c-.007 1.649.938 2.673 2.339 2.673zm4.576.007c1.441 0 2.306-1.039 2.314-2.715.008-1.622-.8-2.669-2.275-2.669-1.44 0-2.314 1.039-2.314 2.716-.002 1.621.793 2.668 2.273 2.668zm.016-.551c-1.055 0-1.551-.905-1.566-2.141-.016-1.291.52-2.133 1.582-2.133 1.039 0 1.551.889 1.567 2.118.005 1.283-.538 2.156-1.585 2.156zm3.593.394h2.677c.165 0 .173-.134.173-.3s-.008-.284-.157-.284h-2.262v-4.392a.156.156 0 0 0-.165-.165 1.042 1.042 0 0 0-.386 0 .15.15 0 0 0-.157.165v4.7a.246.246 0 0 0 .275.276zm3.875.024a1.086 1.086 0 0 0 .386 0 .157.157 0 0 0 .165-.166v-4.849a.153.153 0 0 0-.165-.165 1.042 1.042 0 0 0-.386 0 .147.147 0 0 0-.157.165v4.849a.151.151 0 0 0 .155.166zm4.67 0a1.086 1.086 0 0 0 .386 0 .157.157 0 0 0 .165-.166v-1.9a8.51 8.51 0 0 0 1.622-2.739c.055-.142-.016-.244-.244-.307s-.37-.04-.433.149A7.256 7.256 0 0 1 85.5 223a7.319 7.319 0 0 1-1.307-2.338c-.055-.2-.189-.212-.433-.157-.173.039-.323.126-.26.315a8.77 8.77 0 0 0 1.637 2.747v1.889a.151.151 0 0 0 .163.168zm6.127.078a1.721 1.721 0 0 0 1.937-1.661 1.164 1.164 0 0 0-.74-1.1c-.527-.259-1.354-.33-1.818-.535a.659.659 0 0 1-.527-.638c-.008-.488.409-.795 1.149-.795a2.167 2.167 0 0 1 1.228.307c.181.1.268.055.338-.157a.259.259 0 0 0-.079-.378 2.656 2.656 0 0 0-1.519-.37c-1.133.008-1.834.559-1.826 1.464a1.155 1.155 0 0 0 .7 1.087 14.351 14.351 0 0 0 1.8.566.746.746 0 0 1 .6.7 1.014 1.014 0 0 1-1.244.913 1.988 1.988 0 0 1-1.441-.559c-.165-.142-.252-.071-.37.165a.284.284 0 0 0 .055.4 2.629 2.629 0 0 0 1.755.589zm4.19-.078a1.131 1.131 0 0 0 .394 0 .151.151 0 0 0 .157-.166v-4.392h1.5c.126 0 .165-.11.165-.307s-.032-.276-.165-.276h-3.761c-.118 0-.165.118-.165.307s.039.276.165.276h1.551v4.392a.151.151 0 0 0 .157.166zm2.655.047a.178.178 0 0 0 .189-.181c.071-.354.15-.74.26-1.134h2.393c.1.394.189.772.268 1.134a.177.177 0 0 0 .189.181.746.746 0 0 0 .267-.04c.2-.047.26-.133.221-.291a18.007 18.007 0 0 0-1.638-4.558.522.522 0 0 0-.511-.314.514.514 0 0 0-.5.322 16.561 16.561 0 0 0-1.63 4.55c-.039.158.016.244.22.291a.717.717 0 0 0 .27.04zm.59-1.889a13.794 13.794 0 0 1 1.031-2.614h.024a13.834 13.834 0 0 1 1.032 2.614h-2.088zm4.277 1.842a1.083 1.083 0 0 0 .385 0 .157.157 0 0 0 .166-.166v-1.684a6.75 6.75 0 0 0 .8.031c1.275 0 2.1-.559 2.1-1.684 0-1.095-.858-1.653-2.188-1.653a9.943 9.943 0 0 0-1.189.047.266.266 0 0 0-.236.291v4.652a.151.151 0 0 0 .161.166zm1.33-2.362a5.119 5.119 0 0 1-.779-.047v-2.181c.181-.015.4-.023.708-.023.882-.008 1.464.33 1.464 1.11a1.145 1.145 0 0 1-1.394 1.141zm6.8-2.818a1.087 1.087 0 0 0-.394 0 .141.141 0 0 0-.149.165v2.1h-2.512v-2.1a.153.153 0 0 0-.165-.165 1.043 1.043 0 0 0-.386 0 .147.147 0 0 0-.157.165v4.849a.151.151 0 0 0 .157.166 1.088 1.088 0 0 0 .386 0 .157.157 0 0 0 .165-.166v-2.172h2.512v2.172a.145.145 0 0 0 .149.166 1.134 1.134 0 0 0 .394 0 .151.151 0 0 0 .157-.166v-4.849a.147.147 0 0 0-.154-.165zm2.86 5.18a1.088 1.088 0 0 0 .386 0 .157.157 0 0 0 .165-.166v-1.9a8.526 8.526 0 0 0 1.622-2.739c.055-.142-.016-.244-.244-.307s-.37-.04-.433.149a7.277 7.277 0 0 1-1.288 2.339 7.3 7.3 0 0 1-1.307-2.338c-.055-.2-.189-.212-.433-.157-.173.039-.323.126-.26.315a8.768 8.768 0 0 0 1.638 2.747v1.889a.151.151 0 0 0 .157.168zm3.364-.024h2.676c.165 0 .173-.134.173-.3s-.008-.284-.157-.284h-2.259v-4.392a.156.156 0 0 0-.166-.165 1.038 1.038 0 0 0-.385 0 .15.15 0 0 0-.158.165v4.7a.246.246 0 0 0 .283.276zm5.63.157c1.441 0 2.307-1.039 2.314-2.715.008-1.622-.8-2.669-2.274-2.669-1.441 0-2.315 1.039-2.315 2.716.003 1.621.798 2.668 2.278 2.668zm.016-.551c-1.055 0-1.551-.905-1.567-2.141-.015-1.291.52-2.133 1.583-2.133 1.039 0 1.55.889 1.566 2.118.011 1.283-.532 2.156-1.579 2.156zm5.5.544a2.262 2.262 0 0 0 1.606-.559.259.259 0 0 0 .024-.4.222.222 0 0 0-.362-.094 1.724 1.724 0 0 1-1.205.441c-1.039 0-1.692-.835-1.692-2.1a1.778 1.778 0 0 1 1.685-2.055 1.739 1.739 0 0 1 1.023.291c.189.095.26.008.33-.181a.252.252 0 0 0-.118-.385 2.344 2.344 0 0 0-1.275-.323 2.445 2.445 0 0 0-2.361 2.692c0 1.649.944 2.673 2.345 2.673zm4.576.007c1.441 0 2.307-1.039 2.315-2.715.008-1.622-.795-2.669-2.275-2.669-1.441 0-2.314 1.039-2.314 2.716 0 1.621.795 2.668 2.274 2.668zm.016-.551c-1.055 0-1.551-.905-1.566-2.141-.016-1.291.519-2.133 1.582-2.133 1.039 0 1.551.889 1.566 2.118.008 1.283-.535 2.156-1.582 2.156zm5.5.544a2.266 2.266 0 0 0 1.606-.559.26.26 0 0 0 .023-.4.222.222 0 0 0-.36-.091 1.721 1.721 0 0 1-1.2.441c-1.039 0-1.693-.835-1.693-2.1a1.778 1.778 0 0 1 1.685-2.055 1.739 1.739 0 0 1 1.023.291c.189.095.26.008.331-.181a.253.253 0 0 0-.118-.385 2.35 2.35 0 0 0-1.276-.323 2.445 2.445 0 0 0-2.361 2.692c-.008 1.646.937 2.67 2.338 2.67zm4.647 0a2.266 2.266 0 0 0 1.606-.559.26.26 0 0 0 .023-.4.222.222 0 0 0-.362-.094 1.721 1.721 0 0 1-1.2.441c-1.039 0-1.693-.835-1.693-2.1a1.778 1.778 0 0 1 1.685-2.055 1.739 1.739 0 0 1 1.023.291c.189.095.26.008.331-.181a.253.253 0 0 0-.118-.385 2.35 2.35 0 0 0-1.276-.323 2.445 2.445 0 0 0-2.361 2.692c-.006 1.649.938 2.673 2.34 2.673zm4.434-.032a1.671 1.671 0 0 0 1.874-1.842v-3.251a.153.153 0 0 0-.166-.165.959.959 0 0 0-.37 0 .146.146 0 0 0-.157.165v3.33a1.181 1.181 0 1 1-2.362 0v-3.33a.152.152 0 0 0-.165-.165 1 1 0 0 0-.378 0 .152.152 0 0 0-.165.165v3.251a1.675 1.675 0 0 0 1.887 1.842zm4.679-.016a1.721 1.721 0 0 0 1.936-1.661 1.163 1.163 0 0 0-.74-1.1c-.527-.259-1.354-.33-1.818-.535a.659.659 0 0 1-.528-.638c-.008-.488.41-.795 1.15-.795a2.168 2.168 0 0 1 1.228.307c.181.1.267.055.338-.157a.258.258 0 0 0-.079-.378 2.655 2.655 0 0 0-1.519-.37c-1.133.008-1.834.559-1.826 1.464a1.155 1.155 0 0 0 .7 1.087 14.355 14.355 0 0 0 1.8.566.745.745 0 0 1 .6.7 1.014 1.014 0 0 1-1.243.913 1.988 1.988 0 0 1-1.441-.559c-.165-.142-.252-.071-.37.165a.284.284 0 0 0 .055.4 2.63 2.63 0 0 0 1.755.589zm4.545-.1h2.684c.157 0 .165-.142.165-.3s-.008-.276-.149-.276h-2.267v-1.739h1.905c.134 0 .149-.134.149-.292s0-.283-.157-.283h-1.9v-1.653h2.243c.134 0 .15-.134.15-.291s0-.284-.158-.284h-2.668a.246.246 0 0 0-.276.276v4.565a.246.246 0 0 0 .277.275zm4 .024a1.088 1.088 0 0 0 .386 0 .157.157 0 0 0 .165-.166v-1.684a6.75 6.75 0 0 0 .8.031c1.275 0 2.1-.559 2.1-1.684 0-1.095-.858-1.653-2.189-1.653a9.934 9.934 0 0 0-1.188.047.266.266 0 0 0-.237.291v4.652a.151.151 0 0 0 .162.164zm1.33-2.362a5.137 5.137 0 0 1-.779-.047v-2.181c.181-.015.4-.023.708-.023.882-.008 1.465.33 1.465 1.11a1.146 1.146 0 0 1-1.395 1.139zm3.2 2.362a1.083 1.083 0 0 0 .385 0 .157.157 0 0 0 .166-.166v-4.849a.153.153 0 0 0-.166-.165 1.038 1.038 0 0 0-.385 0 .147.147 0 0 0-.158.165v4.849a.151.151 0 0 0 .156.164zm2.945.039a3.287 3.287 0 0 0 2.031-.567 2.574 2.574 0 0 0 .866-2.117c0-1.677-.9-2.5-2.779-2.5a7.743 7.743 0 0 0-1.031.063.243.243 0 0 0-.221.268v4.5a.248.248 0 0 0 .236.291 7.424 7.424 0 0 0 .896.06zm.165-.583c-.205 0-.386-.007-.6-.023v-3.975a4.942 4.942 0 0 1 .637-.04 1.723 1.723 0 0 1 1.984 1.945 2.176 2.176 0 0 1-.519 1.59 1.982 1.982 0 0 1-1.504.501zm3.994.52h2.684c.158 0 .165-.142.165-.3s-.007-.276-.149-.276h-2.27v-1.739h1.905c.134 0 .149-.134.149-.292s0-.283-.157-.283h-1.9v-1.653h2.243c.134 0 .15-.134.15-.291s0-.284-.158-.284h-2.668a.246.246 0 0 0-.276.276v4.565a.246.246 0 0 0 .28.275zm4 .024a1.088 1.088 0 0 0 .386 0 .157.157 0 0 0 .165-.166v-1.842a5.036 5.036 0 0 0 .756.04 5.128 5.128 0 0 0 1.739 1.928.436.436 0 0 0 .559-.023c.134-.1.205-.229.048-.331a4.752 4.752 0 0 1-1.63-1.653 1.539 1.539 0 0 0 1.354-1.551c0-.984-.858-1.558-2.11-1.558a9.934 9.934 0 0 0-1.188.047.266.266 0 0 0-.236.291v4.652a.151.151 0 0 0 .156.164zm1.33-2.535a5.313 5.313 0 0 1-.779-.039v-2.008c.181-.016.4-.023.708-.023a1.136 1.136 0 0 1 1.378 1.015 1.1 1.1 0 0 1-1.307 1.053zm3.506 2.542a.187.187 0 0 0 .205-.2c.047-.976.125-1.74.236-2.527.078-.52.165-1.1.267-1.6h.016c.189.441.386 1.023.559 1.519.252.709.464 1.425.708 2.314a.33.33 0 0 0 .37.323.336.336 0 0 0 .386-.323c.228-.905.449-1.621.693-2.314.173-.5.378-1.055.574-1.519h.016c.1.5.2 1.094.276 1.614.11.779.189 1.6.236 2.511a.178.178 0 0 0 .2.2 1.072 1.072 0 0 0 .354-.015.185.185 0 0 0 .165-.221 28.291 28.291 0 0 0-.661-4.518.455.455 0 0 0-.488-.4.484.484 0 0 0-.512.339 29.057 29.057 0 0 0-1.212 3.487h-.016a26.741 26.741 0 0 0-1.22-3.487.475.475 0 0 0-.5-.339.442.442 0 0 0-.488.41 25.469 25.469 0 0 0-.67 4.513.176.176 0 0 0 .157.221 1.04 1.04 0 0 0 .348.01zm6.5-.007a1.088 1.088 0 0 0 .386 0 .157.157 0 0 0 .165-.166v-4.849a.153.153 0 0 0-.165-.165 1.043 1.043 0 0 0-.386 0 .147.147 0 0 0-.158.165v4.849a.151.151 0 0 0 .152.164zm3.433.078a1.721 1.721 0 0 0 1.936-1.661 1.162 1.162 0 0 0-.739-1.1c-.528-.259-1.354-.33-1.819-.535a.658.658 0 0 1-.527-.638c-.008-.488.409-.795 1.149-.795a2.168 2.168 0 0 1 1.228.307c.181.1.268.055.339-.157a.26.26 0 0 0-.079-.378 2.655 2.655 0 0 0-1.519-.37c-1.134.008-1.835.559-1.827 1.464a1.155 1.155 0 0 0 .7 1.087 14.355 14.355 0 0 0 1.8.566.746.746 0 0 1 .6.7 1.014 1.014 0 0 1-1.244.913 1.989 1.989 0 0 1-1.441-.559c-.165-.142-.251-.071-.37.165a.284.284 0 0 0 .056.4 2.628 2.628 0 0 0 1.754.587zm5.4-.039a3.285 3.285 0 0 0 2.031-.567 2.574 2.574 0 0 0 .866-2.117c0-1.677-.9-2.5-2.779-2.5a7.765 7.765 0 0 0-1.031.063.242.242 0 0 0-.22.268v4.5a.248.248 0 0 0 .236.291 7.406 7.406 0 0 0 .897.06zm.166-.583c-.2 0-.386-.007-.6-.023v-3.975a4.958 4.958 0 0 1 .638-.04 1.723 1.723 0 0 1 1.984 1.945 2.176 2.176 0 0 1-.52 1.59 1.978 1.978 0 0 1-1.502.501zm3.995.518h2.685c.157 0 .165-.142.165-.3s-.008-.276-.15-.276h-2.267v-1.739h1.905c.134 0 .15-.134.15-.292s0-.283-.158-.283h-1.9v-1.653h2.244c.134 0 .149-.134.149-.291s0-.284-.157-.284H201a.246.246 0 0 0-.275.276v4.565a.245.245 0 0 0 .275.277zm5.537 0h2.677c.165 0 .173-.134.173-.3s-.008-.284-.158-.284h-2.259v-4.392a.156.156 0 0 0-.165-.165 1.043 1.043 0 0 0-.386 0 .15.15 0 0 0-.157.165v4.7a.245.245 0 0 0 .273.276zm3.962.071a.178.178 0 0 0 .189-.181c.071-.354.149-.74.259-1.134h2.394c.1.394.188.772.267 1.134a.178.178 0 0 0 .189.181.755.755 0 0 0 .268-.04c.2-.047.26-.133.22-.291a18.043 18.043 0 0 0-1.637-4.558.522.522 0 0 0-.512-.314.514.514 0 0 0-.5.322 16.55 16.55 0 0 0-1.636 4.55c-.039.158.016.244.22.291a.721.721 0 0 0 .28.04zm.59-1.889a13.868 13.868 0 0 1 1.031-2.614h.024a13.734 13.734 0 0 1 1.031 2.614h-2.086zm5.7 1.842a1.088 1.088 0 0 0 .386 0 .157.157 0 0 0 .165-.166v-1.684a6.75 6.75 0 0 0 .8.031c1.275 0 2.1-.559 2.1-1.684 0-1.095-.858-1.653-2.189-1.653a9.934 9.934 0 0 0-1.188.047.266.266 0 0 0-.237.291v4.652a.151.151 0 0 0 .156.166zm1.33-2.362a5.137 5.137 0 0 1-.779-.047v-2.181c.181-.015.4-.023.708-.023.882-.008 1.465.33 1.465 1.11a1.146 1.146 0 0 1-1.401 1.141zm3.2 2.362a1.083 1.083 0 0 0 .385 0 .157.157 0 0 0 .166-.166v-4.849a.153.153 0 0 0-.166-.165 1.038 1.038 0 0 0-.385 0 .147.147 0 0 0-.158.165v4.849a.151.151 0 0 0 .15.166zm2.087-.024h2.684c.157 0 .165-.142.165-.3s-.008-.276-.149-.276h-2.267v-1.739h1.905c.134 0 .149-.134.149-.292s0-.283-.157-.283h-1.9v-1.653h2.243c.134 0 .15-.134.15-.291s0-.284-.158-.284H223.4a.246.246 0 0 0-.276.276v4.565a.246.246 0 0 0 .276.277zm4.119 0h2.676c.166 0 .174-.134.174-.3s-.008-.284-.158-.284h-2.267v-4.392a.156.156 0 0 0-.165-.165 1.043 1.043 0 0 0-.386 0 .151.151 0 0 0-.158.165v4.7a.246.246 0 0 0 .276.276zm4.143.047a.439.439 0 0 0 .488-.417v-.047a.43.43 0 0 0-.488-.41.436.436 0 0 0-.5.41v.047a.446.446 0 0 0 .492.417zm3.253-.023a1.083 1.083 0 0 0 .385 0 .157.157 0 0 0 .166-.166v-2.172h1.928c.126 0 .15-.118.15-.292 0-.149 0-.283-.158-.283h-1.928v-1.653h2.267c.134 0 .157-.118.157-.291 0-.15 0-.284-.157-.284h-2.7a.246.246 0 0 0-.276.276v4.7a.151.151 0 0 0 .158.165zm5.174-5.5 1.5-.732a.126.126 0 0 0 .063-.189 1.059 1.059 0 0 0-.149-.3.137.137 0 0 0-.205-.047l-1.409.874c-.118.07-.079.157-.032.259.058.14.129.179.224.132zm.614 5.636c1.44 0 2.306-1.039 2.314-2.715.008-1.622-.795-2.669-2.275-2.669-1.441 0-2.314 1.039-2.314 2.716-.008 1.618.787 2.665 2.266 2.665zm.015-.551c-1.055 0-1.55-.905-1.566-2.141-.016-1.291.519-2.133 1.582-2.133 1.039 0 1.551.889 1.567 2.118-.001 1.28-.544 2.153-1.591 2.153zm3.475.418a1.082 1.082 0 0 0 .385 0 .157.157 0 0 0 .166-.166v-1.842a5.029 5.029 0 0 0 .755.04 5.138 5.138 0 0 0 1.74 1.928.436.436 0 0 0 .559-.023c.134-.1.205-.229.047-.331a4.749 4.749 0 0 1-1.629-1.653 1.54 1.54 0 0 0 1.354-1.551c0-.984-.858-1.558-2.11-1.558a9.954 9.954 0 0 0-1.189.047.266.266 0 0 0-.236.291v4.652a.151.151 0 0 0 .15.163zm1.33-2.535a5.3 5.3 0 0 1-.779-.039v-2.008c.181-.016.4-.023.708-.023a1.136 1.136 0 0 1 1.378 1.015 1.1 1.1 0 0 1-1.315 1.052zm3.506 2.542a.186.186 0 0 0 .2-.2c.047-.976.126-1.74.236-2.527.079-.52.166-1.1.268-1.6h.016c.189.441.385 1.023.559 1.519.252.709.464 1.425.708 2.314a.33.33 0 0 0 .37.323.337.337 0 0 0 .386-.323c.228-.905.449-1.621.693-2.314.173-.5.377-1.055.574-1.519h.016a28.2 28.2 0 0 1 .512 4.125.176.176 0 0 0 .2.2 1.079 1.079 0 0 0 .355-.015.185.185 0 0 0 .165-.221 28.52 28.52 0 0 0-.661-4.518.455.455 0 0 0-.488-.4.484.484 0 0 0-.512.339 28.883 28.883 0 0 0-1.212 3.487h-.02a26.89 26.89 0 0 0-1.22-3.487.476.476 0 0 0-.5-.339.441.441 0 0 0-.488.41 25.377 25.377 0 0 0-.669 4.51.176.176 0 0 0 .157.221 1.038 1.038 0 0 0 .347.012zm8.072.087a1.67 1.67 0 0 0 1.873-1.842v-3.251a.152.152 0 0 0-.165-.165.959.959 0 0 0-.37 0 .146.146 0 0 0-.157.165v3.33a1.181 1.181 0 1 1-2.362 0v-3.33a.152.152 0 0 0-.165-.165 1 1 0 0 0-.378 0 .152.152 0 0 0-.165.165v3.251a1.675 1.675 0 0 0 1.882 1.839zm3.332-.118h2.677c.165 0 .173-.134.173-.3s-.008-.284-.157-.284h-2.26v-4.392a.156.156 0 0 0-.165-.165 1.043 1.043 0 0 0-.386 0 .15.15 0 0 0-.157.165v4.7a.245.245 0 0 0 .267.273zm3.962.071a.178.178 0 0 0 .189-.181c.071-.354.149-.74.26-1.134h2.393c.1.394.189.772.267 1.134a.178.178 0 0 0 .189.181.752.752 0 0 0 .268-.04c.2-.047.26-.133.22-.291a18.043 18.043 0 0 0-1.637-4.558.522.522 0 0 0-.512-.314.512.512 0 0 0-.5.322 16.552 16.552 0 0 0-1.63 4.55c-.039.158.016.244.22.291a.721.721 0 0 0 .265.037zm.59-1.889a13.8 13.8 0 0 1 1.032-2.614h.023a13.734 13.734 0 0 1 1.031 2.614h-2.086zm7.159 1.92a1.722 1.722 0 0 0 1.937-1.661 1.165 1.165 0 0 0-.74-1.1c-.528-.259-1.354-.33-1.819-.535a.659.659 0 0 1-.527-.638c-.008-.488.409-.795 1.149-.795a2.166 2.166 0 0 1 1.228.307c.181.1.268.055.339-.157a.259.259 0 0 0-.079-.378 2.655 2.655 0 0 0-1.519-.37c-1.134.008-1.834.559-1.827 1.464a1.155 1.155 0 0 0 .7 1.087 14.355 14.355 0 0 0 1.8.566.746.746 0 0 1 .6.7 1.014 1.014 0 0 1-1.244.913 1.987 1.987 0 0 1-1.44-.559c-.166-.142-.252-.071-.37.165a.283.283 0 0 0 .055.4 2.629 2.629 0 0 0 1.749.586zm3.01-.078a1.083 1.083 0 0 0 .385 0 .157.157 0 0 0 .166-.166v-4.849a.153.153 0 0 0-.166-.165 1.038 1.038 0 0 0-.385 0 .147.147 0 0 0-.158.165v4.849a.151.151 0 0 0 .15.163zm1.977-.008a.819.819 0 0 0 .362 0 .157.157 0 0 0 .165-.166V222.6c0-.362-.016-.772-.032-1.1h.016c.15.26.386.692.591 1l1.905 2.921a.391.391 0 0 0 .354.181h.142a.262.262 0 0 0 .291-.291v-4.684a.149.149 0 0 0-.166-.165.791.791 0 0 0-.362-.008.162.162 0 0 0-.165.173l.008 2.928c0 .347.016.709.024 1.016h-.016c-.126-.221-.347-.654-.543-.953l-1.921-2.944a.386.386 0 0 0-.346-.189h-.181a.263.263 0 0 0-.292.292v4.675a.153.153 0 0 0 .158.164zm-200.1 12.072a1.042 1.042 0 0 0 .386 0 .157.157 0 0 0 .165-.165v-4.849a.153.153 0 0 0-.165-.166 1.086 1.086 0 0 0-.386 0 .147.147 0 0 0-.157.166v4.849a.151.151 0 0 0 .151.162zm1.977-.008a.791.791 0 0 0 .362 0 .156.156 0 0 0 .165-.165v-2.85c0-.362-.016-.771-.031-1.1h.01c.15.26.386.693.59 1l1.905 2.92a.392.392 0 0 0 .354.181h.142a.262.262 0 0 0 .291-.291v-4.684a.149.149 0 0 0-.165-.165.82.82 0 0 0-.362-.008.163.163 0 0 0-.165.173l.008 2.929c0 .346.016.708.024 1.015h-.016c-.126-.22-.346-.653-.543-.952l-1.921-2.944a.386.386 0 0 0-.346-.189h-.182a.262.262 0 0 0-.291.291v4.676a.153.153 0 0 0 .165.16zm7.206.134a2.877 2.877 0 0 0 1.858-.6.4.4 0 0 0 .165-.37l-.008-1.653a.193.193 0 0 0-.2-.213h-1.766c-.118 0-.165.095-.165.284s.031.283.165.283h1.315l.008 1.252a2.055 2.055 0 0 1-1.307.409c-1.094 0-1.755-.835-1.755-2.11a1.852 1.852 0 0 1 1.842-2.054 1.8 1.8 0 0 1 1.2.378c.165.118.26.039.354-.142a.249.249 0 0 0-.079-.394 2.387 2.387 0 0 0-1.5-.441 2.483 2.483 0 0 0-1.748.693 2.778 2.778 0 0 0-.779 2.031 2.746 2.746 0 0 0 .764 2.015 2.246 2.246 0 0 0 1.63.629zm3.333-.126a1.042 1.042 0 0 0 .386 0 .157.157 0 0 0 .165-.165v-1.842a5.225 5.225 0 0 0 .756.039 5.126 5.126 0 0 0 1.74 1.929.437.437 0 0 0 .559-.024c.134-.1.2-.228.047-.331a4.735 4.735 0 0 1-1.629-1.653 1.539 1.539 0 0 0 1.354-1.55c0-.984-.858-1.559-2.11-1.559a10.165 10.165 0 0 0-1.189.047.267.267 0 0 0-.236.291v4.653a.151.151 0 0 0 .151.162zm1.33-2.535a5.311 5.311 0 0 1-.779-.039v-2.007c.181-.016.4-.024.709-.024a1.135 1.135 0 0 1 1.378 1.015 1.1 1.1 0 0 1-1.314 1.052zm3.419 2.511h2.678c.157 0 .165-.141.165-.3s-.008-.275-.15-.275h-2.266v-1.74h1.9c.134 0 .15-.134.15-.291s0-.284-.157-.284h-1.9v-1.653h2.243c.134 0 .149-.133.149-.291s0-.283-.157-.283H94.3a.245.245 0 0 0-.275.275v4.566a.245.245 0 0 0 .275.273zm4.977.063a3.291 3.291 0 0 0 2.031-.566 2.577 2.577 0 0 0 .866-2.118c0-1.677-.9-2.5-2.779-2.5a7.589 7.589 0 0 0-1.031.063.242.242 0 0 0-.221.267v4.5a.248.248 0 0 0 .236.291 7.019 7.019 0 0 0 .892.06zm.165-.582c-.2 0-.386-.008-.6-.024v-3.975a4.966 4.966 0 0 1 .638-.039 1.722 1.722 0 0 1 1.983 1.944 2.174 2.174 0 0 1-.519 1.59 1.979 1.979 0 0 1-1.508.501zm3.876.543a1.043 1.043 0 0 0 .386 0 .157.157 0 0 0 .165-.165v-4.849a.153.153 0 0 0-.165-.166 1.088 1.088 0 0 0-.386 0 .147.147 0 0 0-.157.166v4.849a.15.15 0 0 0 .151.162zm2.087-.024h2.684c.158 0 .166-.141.166-.3s-.008-.275-.15-.275h-2.267v-1.74h1.905c.134 0 .15-.134.15-.291s0-.284-.158-.284h-1.9v-1.653h2.244c.133 0 .149-.133.149-.291s0-.283-.157-.283H105.4a.245.245 0 0 0-.275.275v4.566a.245.245 0 0 0 .275.273zm4.009.016a.791.791 0 0 0 .362 0 .157.157 0 0 0 .166-.165v-2.85c0-.362-.016-.771-.032-1.1h.016c.149.26.386.693.59 1l1.905 2.92a.393.393 0 0 0 .354.181h.142a.261.261 0 0 0 .291-.291v-4.684a.149.149 0 0 0-.165-.165.82.82 0 0 0-.362-.008.163.163 0 0 0-.165.173l.008 2.929c0 .346.015.708.023 1.015h-.016c-.126-.22-.346-.653-.543-.952l-1.92-2.944a.387.387 0 0 0-.347-.189h-.181a.261.261 0 0 0-.291.291v4.676a.153.153 0 0 0 .159.16zm6.552.008a1.087 1.087 0 0 0 .394 0 .15.15 0 0 0 .157-.165v-4.396h1.5c.126 0 .165-.11.165-.307s-.031-.275-.165-.275h-3.755c-.118 0-.165.118-.165.307s.039.275.165.275h1.551v4.393a.15.15 0 0 0 .147.165zm3.4-.024h2.684c.157 0 .165-.141.165-.3s-.008-.275-.149-.275h-2.267v-1.74h1.899c.133 0 .149-.134.149-.291s0-.284-.157-.284h-1.9v-1.653h2.243c.134 0 .15-.133.15-.291s0-.283-.158-.283h-2.668a.246.246 0 0 0-.276.275v4.566a.246.246 0 0 0 .275.273zm5.465.1a1.721 1.721 0 0 0 1.936-1.661 1.161 1.161 0 0 0-.739-1.1c-.528-.26-1.354-.331-1.819-.536a.658.658 0 0 1-.527-.637c-.008-.488.409-.795 1.149-.795a2.168 2.168 0 0 1 1.228.307c.181.1.268.055.338-.158a.258.258 0 0 0-.078-.377 2.655 2.655 0 0 0-1.519-.37c-1.134.007-1.835.558-1.827 1.464a1.153 1.153 0 0 0 .7 1.086 14.568 14.568 0 0 0 1.8.567.745.745 0 0 1 .6.7 1.015 1.015 0 0 1-1.244.914 2 2 0 0 1-1.441-.559c-.165-.142-.251-.071-.37.165a.283.283 0 0 0 .056.4 2.628 2.628 0 0 0 1.747.59zm4.435-.032a.178.178 0 0 0 .189-.181c.071-.354.149-.74.26-1.133h2.383c.1.393.189.771.267 1.133a.178.178 0 0 0 .189.181.751.751 0 0 0 .268-.039c.2-.047.26-.134.22-.291a18.029 18.029 0 0 0-1.637-4.558.521.521 0 0 0-.512-.315.511.511 0 0 0-.5.323 16.541 16.541 0 0 0-1.63 4.55c-.039.157.016.244.22.291a.722.722 0 0 0 .273.039zm.59-1.889a13.79 13.79 0 0 1 1.032-2.613h.01a13.723 13.723 0 0 1 1.031 2.613h-2.086zm6.1 1.968a2.257 2.257 0 0 0 1.6-.559.258.258 0 0 0 .024-.4.222.222 0 0 0-.362-.1 1.723 1.723 0 0 1-1.2.441c-1.04 0-1.693-.834-1.693-2.1a1.778 1.778 0 0 1 1.685-2.054 1.739 1.739 0 0 1 1.023.291c.189.094.26.008.331-.181a.254.254 0 0 0-.118-.386 2.35 2.35 0 0 0-1.276-.323 2.445 2.445 0 0 0-2.361 2.693c-.005 1.655.939 2.678 2.341 2.678zm4.119-.126a1.087 1.087 0 0 0 .394 0 .15.15 0 0 0 .157-.165v-4.393h1.5c.126 0 .165-.11.165-.307s-.031-.275-.165-.275h-3.755c-.118 0-.165.118-.165.307s.039.275.165.275h1.551v4.393a.15.15 0 0 0 .147.165zm3.277 0a1.043 1.043 0 0 0 .386 0 .157.157 0 0 0 .165-.165v-4.849a.153.153 0 0 0-.165-.166 1.088 1.088 0 0 0-.386 0 .147.147 0 0 0-.157.166v4.849a.15.15 0 0 0 .151.165zm3.63.063a.477.477 0 0 0 .5-.323 16.113 16.113 0 0 0 1.638-4.542.229.229 0 0 0-.221-.3.95.95 0 0 0-.275-.039.172.172 0 0 0-.189.181c-.134.622-.292 1.338-.512 2.031a14.391 14.391 0 0 1-.921 2.267h-.031a13.765 13.765 0 0 1-.914-2.259 19.2 19.2 0 0 1-.527-2.039.171.171 0 0 0-.181-.181.931.931 0 0 0-.3.039.229.229 0 0 0-.221.3 17.361 17.361 0 0 0 1.646 4.558.475.475 0 0 0 .502.307zm4.883.071c1.441 0 2.307-1.039 2.315-2.716.008-1.622-.795-2.668-2.275-2.668-1.441 0-2.315 1.039-2.315 2.715-.006 1.622.79 2.669 2.269 2.669zm.016-.551c-1.055 0-1.551-.9-1.566-2.141-.016-1.291.519-2.134 1.582-2.134 1.039 0 1.551.89 1.566 2.118.002 1.286-.541 2.157-1.588 2.157zm4.939.5a1.721 1.721 0 0 0 1.936-1.661 1.162 1.162 0 0 0-.74-1.1c-.527-.26-1.354-.331-1.818-.536a.658.658 0 0 1-.527-.637c-.008-.488.409-.795 1.149-.795a2.168 2.168 0 0 1 1.228.307c.181.1.267.055.338-.158a.258.258 0 0 0-.078-.377 2.66 2.66 0 0 0-1.52-.37c-1.133.007-1.834.558-1.826 1.464a1.153 1.153 0 0 0 .7 1.086 14.515 14.515 0 0 0 1.8.567.745.745 0 0 1 .6.7 1.016 1.016 0 0 1-1.244.914 2 2 0 0 1-1.441-.559c-.165-.142-.252-.071-.37.165a.283.283 0 0 0 .055.4 2.631 2.631 0 0 0 1.752.586zm4.435-.032a.178.178 0 0 0 .189-.181c.071-.354.149-.74.259-1.133h2.394c.1.393.188.771.267 1.133a.178.178 0 0 0 .189.181.754.754 0 0 0 .268-.039c.2-.047.26-.134.22-.291a18.029 18.029 0 0 0-1.637-4.558.521.521 0 0 0-.512-.315.513.513 0 0 0-.5.323 16.538 16.538 0 0 0-1.629 4.55c-.04.157.016.244.22.291a.722.722 0 0 0 .266.035zm.59-1.889a13.857 13.857 0 0 1 1.031-2.613h.022a13.723 13.723 0 0 1 1.031 2.613h-2.086zm4.285 1.834a.791.791 0 0 0 .362 0 .156.156 0 0 0 .165-.165v-2.85c0-.362-.015-.771-.031-1.1h.016c.149.26.385.693.59 1l1.905 2.92a.393.393 0 0 0 .354.181h.142a.261.261 0 0 0 .291-.291v-4.684a.149.149 0 0 0-.165-.165.82.82 0 0 0-.362-.008.163.163 0 0 0-.165.173l.007 2.929c0 .346.016.708.024 1.015h-.016c-.126-.22-.346-.653-.543-.952l-1.921-2.944a.385.385 0 0 0-.346-.189h-.181a.261.261 0 0 0-.291.291v4.676a.153.153 0 0 0 .159.159zm6.552.008a1.087 1.087 0 0 0 .394 0 .15.15 0 0 0 .157-.165v-4.397h1.5c.126 0 .165-.11.165-.307s-.031-.275-.165-.275h-3.765c-.118 0-.165.118-.165.307s.039.275.165.275h1.551v4.393a.15.15 0 0 0 .157.165zm3.277 0a1.043 1.043 0 0 0 .386 0 .158.158 0 0 0 .166-.165v-4.849a.154.154 0 0 0-.166-.166 1.088 1.088 0 0 0-.386 0 .147.147 0 0 0-.157.166v4.849a.15.15 0 0 0 .151.161zm3 .047c1.354 0 2.165-.456 2.165-1.59a1.124 1.124 0 0 0-.8-1.118v-.015a1.244 1.244 0 0 0 .637-1.15c0-.913-.834-1.322-1.873-1.322a7.077 7.077 0 0 0-1.094.063.242.242 0 0 0-.221.267v4.526a.248.248 0 0 0 .236.291 7.72 7.72 0 0 0 .945.044zm-.5-2.96v-1.66c.22-.024.441-.024.653-.032a.915.915 0 0 1 1.134.85.741.741 0 0 1-.787.842h-1zm.6 2.4a4.991 4.991 0 0 1-.6-.031v-1.811h1.023a.762.762 0 0 1 .929.795 1.112 1.112 0 0 1-1.355 1.044zm3.214.559a.177.177 0 0 0 .189-.181c.071-.354.15-.74.26-1.133h2.393c.1.393.189.771.268 1.133a.176.176 0 0 0 .188.181.748.748 0 0 0 .268-.039c.205-.047.26-.134.221-.291a17.993 17.993 0 0 0-1.638-4.558.521.521 0 0 0-.512-.315.512.512 0 0 0-.5.323 16.541 16.541 0 0 0-1.63 4.55c-.039.157.016.244.221.291a.714.714 0 0 0 .269.036zm.591-1.889a13.723 13.723 0 0 1 1.031-2.613h.023a13.79 13.79 0 0 1 1.032 2.613h-2.086zm6.1 1.968a2.261 2.261 0 0 0 1.606-.559.259.259 0 0 0 .023-.4.222.222 0 0 0-.362-.1 1.719 1.719 0 0 1-1.2.441c-1.039 0-1.693-.834-1.693-2.1a1.778 1.778 0 0 1 1.685-2.054 1.739 1.739 0 0 1 1.023.291c.189.094.26.008.331-.181a.254.254 0 0 0-.118-.386 2.35 2.35 0 0 0-1.276-.323 2.445 2.445 0 0 0-2.361 2.693c-.004 1.652.941 2.675 2.342 2.675zm4.119-.126a1.087 1.087 0 0 0 .394 0 .15.15 0 0 0 .157-.165v-4.396h1.5c.126 0 .165-.11.165-.307s-.031-.275-.165-.275h-3.755c-.118 0-.165.118-.165.307s.039.275.165.275h1.551v4.393a.15.15 0 0 0 .153.165zm3.4-.024h2.684c.157 0 .165-.141.165-.3s-.008-.275-.149-.275h-2.267v-1.74h1.9c.134 0 .15-.134.15-.291s0-.284-.157-.284h-1.9v-1.653h2.243c.134 0 .15-.133.15-.291s0-.283-.158-.283h-2.668a.246.246 0 0 0-.276.275v4.566a.246.246 0 0 0 .279.273zm4 .024a1.038 1.038 0 0 0 .385 0 .157.157 0 0 0 .166-.165v-1.842a5.216 5.216 0 0 0 .755.039 5.126 5.126 0 0 0 1.74 1.929.437.437 0 0 0 .559-.024c.134-.1.205-.228.047-.331a4.732 4.732 0 0 1-1.629-1.653 1.539 1.539 0 0 0 1.354-1.55c0-.984-.858-1.559-2.11-1.559a10.178 10.178 0 0 0-1.189.047.267.267 0 0 0-.236.291v4.653a.151.151 0 0 0 .155.162zm1.33-2.535a5.3 5.3 0 0 1-.779-.039v-2.007a8.1 8.1 0 0 1 .708-.024 1.136 1.136 0 0 1 1.378 1.015 1.1 1.1 0 0 1-1.31 1.052zm3.3 2.535a1.043 1.043 0 0 0 .386 0 .157.157 0 0 0 .165-.165v-4.849a.153.153 0 0 0-.165-.166 1.088 1.088 0 0 0-.386 0 .148.148 0 0 0-.158.166v4.849a.151.151 0 0 0 .156.162zm1.977.047a.178.178 0 0 0 .189-.181c.071-.354.149-.74.259-1.133h2.394c.1.393.188.771.267 1.133a.178.178 0 0 0 .189.181.754.754 0 0 0 .268-.039c.2-.047.26-.134.22-.291a18.029 18.029 0 0 0-1.637-4.558.521.521 0 0 0-.512-.315.513.513 0 0 0-.5.323 16.538 16.538 0 0 0-1.629 4.55c-.04.157.016.244.22.291a.722.722 0 0 0 .27.036zm.59-1.889a13.857 13.857 0 0 1 1.031-2.613h.024a13.723 13.723 0 0 1 1.031 2.613h-2.088zm4.395 1.818h2.677c.165 0 .173-.133.173-.3s-.008-.283-.158-.283h-2.259v-4.393a.157.157 0 0 0-.165-.165 1.088 1.088 0 0 0-.386 0 .15.15 0 0 0-.157.165v4.7a.245.245 0 0 0 .273.273zm3.993 0h2.685c.157 0 .165-.141.165-.3s-.008-.275-.15-.275h-2.27v-1.74h1.905c.134 0 .15-.134.15-.291s0-.284-.158-.284h-1.9v-1.653h2.244c.134 0 .149-.133.149-.291s0-.283-.157-.283h-2.669a.245.245 0 0 0-.275.275v4.566a.245.245 0 0 0 .279.273zm5.466.1a1.721 1.721 0 0 0 1.936-1.661 1.162 1.162 0 0 0-.74-1.1c-.527-.26-1.354-.331-1.818-.536a.659.659 0 0 1-.528-.637c-.007-.488.41-.795 1.15-.795a2.168 2.168 0 0 1 1.228.307c.181.1.267.055.338-.158a.257.257 0 0 0-.079-.377 2.655 2.655 0 0 0-1.519-.37c-1.133.007-1.834.558-1.826 1.464a1.153 1.153 0 0 0 .7 1.086 14.462 14.462 0 0 0 1.8.567.744.744 0 0 1 .6.7 1.014 1.014 0 0 1-1.243.914 2 2 0 0 1-1.441-.559c-.165-.142-.252-.071-.37.165a.283.283 0 0 0 .055.4 2.631 2.631 0 0 0 1.755.59z" transform="translate(-19.063 -206.75)" style="fill:#0e2959;fill-rule:evenodd"/></svg><svg width="174.66" height="15.44" viewBox="-1 -1 174.66 15.44" y="33.06" xmlns="http://www.w3.org/2000/svg"><path data-name="NUEVA MASCARILLA" d="M63.871 88.137a2.007 2.007 0 0 0 .9 0 .392.392 0 0 0 .413-.413v-7.118c0-.9-.039-1.927-.079-2.753h.039c.374.649.963 1.73 1.475 2.5l4.758 7.294a.98.98 0 0 0 .885.452h.358a.654.654 0 0 0 .727-.728v-11.7a.373.373 0 0 0-.413-.413 2.008 2.008 0 0 0-.9-.02.407.407 0 0 0-.413.433l.02 7.314c0 .865.039 1.77.059 2.536h-.043c-.315-.55-.865-1.632-1.357-2.379l-4.8-7.353a.965.965 0 0 0-.865-.472h-.449a.654.654 0 0 0-.727.727v11.68a.382.382 0 0 0 .412.413zm17.144.256c3.028 0 4.679-1.612 4.679-4.6v-8.12a.382.382 0 0 0-.413-.413 2.434 2.434 0 0 0-.924 0 .367.367 0 0 0-.393.413v8.317a2.949 2.949 0 1 1-5.9 0v-8.318a.382.382 0 0 0-.413-.413 2.538 2.538 0 0 0-.944 0 .382.382 0 0 0-.413.413v8.12c.006 2.988 1.654 4.6 4.721 4.6zm8.316-.295h6.7c.393 0 .413-.354.413-.747 0-.373-.02-.688-.373-.688h-5.659v-4.346h4.758c.334 0 .374-.334.374-.728 0-.373 0-.708-.393-.708h-4.739v-4.128h5.6c.334 0 .373-.334.373-.727 0-.374 0-.708-.393-.708h-6.661a.613.613 0 0 0-.688.688v11.4a.614.614 0 0 0 .688.694zm14.135.216a1.194 1.194 0 0 0 1.239-.806 40.213 40.213 0 0 0 4.089-11.344.569.569 0 0 0-.55-.747 2.418 2.418 0 0 0-.688-.1.431.431 0 0 0-.472.452c-.334 1.553-.727 3.342-1.278 5.072a35.791 35.791 0 0 1-2.3 5.662h-.079a34.537 34.537 0 0 1-2.281-5.643 47.772 47.772 0 0 1-1.317-5.092.428.428 0 0 0-.452-.452 2.364 2.364 0 0 0-.747.1.57.57 0 0 0-.55.747 43.4 43.4 0 0 0 4.109 11.384 1.19 1.19 0 0 0 1.277.767zm6.842-.039a.443.443 0 0 0 .472-.452c.177-.885.373-1.848.648-2.831h5.977c.256.983.472 1.927.669 2.831a.443.443 0 0 0 .472.452 1.9 1.9 0 0 0 .668-.1c.511-.118.649-.334.551-.727a45.028 45.028 0 0 0-4.09-11.384 1.3 1.3 0 0 0-1.278-.787 1.284 1.284 0 0 0-1.258.806 41.369 41.369 0 0 0-4.07 11.364c-.1.393.039.609.551.727a1.815 1.815 0 0 0 .688.1zm1.474-4.719a34.472 34.472 0 0 1 2.576-6.528h.059a34.539 34.539 0 0 1 2.576 6.528h-5.211zm14.725 4.62a.468.468 0 0 0 .511-.492 66.72 66.72 0 0 1 .59-6.311c.2-1.3.413-2.753.669-3.991h.039c.472 1.1.963 2.556 1.4 3.795.629 1.77 1.16 3.559 1.769 5.78a.825.825 0 0 0 .925.806.84.84 0 0 0 .963-.806 63.78 63.78 0 0 1 1.73-5.78c.433-1.239.944-2.635 1.435-3.795h.04c.255 1.239.491 2.733.688 4.03.275 1.946.472 4.011.59 6.272a.444.444 0 0 0 .491.492 2.658 2.658 0 0 0 .885-.039.461.461 0 0 0 .413-.55 70.906 70.906 0 0 0-1.656-11.287 1.135 1.135 0 0 0-1.219-1 1.208 1.208 0 0 0-1.278.845 72.283 72.283 0 0 0-3.027 8.71h-.04a66.946 66.946 0 0 0-3.047-8.71 1.189 1.189 0 0 0-1.239-.845 1.1 1.1 0 0 0-1.219 1.022 63.425 63.425 0 0 0-1.671 11.266.438.438 0 0 0 .393.55 2.563 2.563 0 0 0 .865.038zm16.239.1a.442.442 0 0 0 .472-.452c.177-.885.374-1.848.649-2.831h5.977c.256.983.472 1.927.668 2.831a.443.443 0 0 0 .472.452 1.9 1.9 0 0 0 .669-.1c.511-.118.649-.334.55-.727a44.986 44.986 0 0 0-4.089-11.384 1.3 1.3 0 0 0-1.278-.787 1.282 1.282 0 0 0-1.258.806 41.3 41.3 0 0 0-4.07 11.364c-.1.393.039.609.55.727a1.818 1.818 0 0 0 .688.099zm1.475-4.719a34.472 34.472 0 0 1 2.575-6.528h.059a34.406 34.406 0 0 1 2.576 6.528h-5.21zm14.332 4.8c2.733-.02 4.9-1.573 4.837-4.148a2.906 2.906 0 0 0-1.849-2.753c-1.317-.649-3.381-.826-4.541-1.337a1.647 1.647 0 0 1-1.318-1.593c-.019-1.219 1.023-1.986 2.871-1.986a5.409 5.409 0 0 1 3.067.767c.452.256.669.138.845-.393a.645.645 0 0 0-.2-.944 6.643 6.643 0 0 0-3.8-.924c-2.831.02-4.581 1.4-4.561 3.657a2.881 2.881 0 0 0 1.75 2.713c1.4.747 3.106.885 4.5 1.416a1.861 1.861 0 0 1 1.494 1.75c.02 1.376-1.061 2.261-3.106 2.281a4.967 4.967 0 0 1-3.6-1.4c-.413-.354-.629-.177-.924.413a.707.707 0 0 0 .137 1 6.579 6.579 0 0 0 4.398 1.477zm12.366.118a5.646 5.646 0 0 0 4.011-1.4.646.646 0 0 0 .059-1 .555.555 0 0 0-.905-.236 4.294 4.294 0 0 1-3.008 1.1c-2.595 0-4.227-2.084-4.227-5.249 0-3.126 1.671-5.132 4.208-5.132a4.339 4.339 0 0 1 2.556.727c.471.236.648.02.825-.452a.633.633 0 0 0-.295-.963 5.869 5.869 0 0 0-3.185-.806c-3.48 0-5.9 2.831-5.9 6.724.002 4.127 2.361 6.683 5.861 6.683zm6.959-.2a.443.443 0 0 0 .472-.452c.177-.885.374-1.848.649-2.831h5.977c.255.983.472 1.927.668 2.831a.443.443 0 0 0 .472.452 1.905 1.905 0 0 0 .669-.1c.511-.118.648-.334.55-.727a45.025 45.025 0 0 0-4.089-11.384 1.3 1.3 0 0 0-1.278-.787 1.284 1.284 0 0 0-1.259.806 41.334 41.334 0 0 0-4.069 11.364c-.1.393.039.609.55.727a1.818 1.818 0 0 0 .688.1zm1.475-4.719a34.472 34.472 0 0 1 2.575-6.528h.059a34.472 34.472 0 0 1 2.576 6.528h-5.21zm10.675 4.6a2.641 2.641 0 0 0 .963 0 .392.392 0 0 0 .413-.413v-4.6a12.793 12.793 0 0 0 1.888.1 12.8 12.8 0 0 0 4.345 4.817 1.09 1.09 0 0 0 1.4-.059c.334-.256.511-.57.118-.826a11.853 11.853 0 0 1-4.07-4.129 3.845 3.845 0 0 0 3.381-3.873c0-2.458-2.143-3.893-5.269-3.893a25.093 25.093 0 0 0-2.969.118.665.665 0 0 0-.589.728v11.62a.376.376 0 0 0 .389.41zm3.323-6.331a13.084 13.084 0 0 1-1.947-.1v-5.011c.452-.039 1-.059 1.77-.059 2-.039 3.44.865 3.44 2.536 0 1.691-1.278 2.634-3.263 2.634zm8.237 6.331a2.641 2.641 0 0 0 .963 0 .392.392 0 0 0 .413-.413V75.632a.382.382 0 0 0-.413-.413 2.641 2.641 0 0 0-.963 0 .367.367 0 0 0-.393.413v12.111a.376.376 0 0 0 .393.413zm5.21-.059h6.684c.413 0 .433-.334.433-.747 0-.393-.02-.708-.393-.708h-5.643v-10.97a.392.392 0 0 0-.413-.413 2.641 2.641 0 0 0-.963 0 .376.376 0 0 0-.393.413v11.737a.614.614 0 0 0 .69.691zm9.967 0h6.685c.413 0 .432-.334.432-.747 0-.393-.019-.708-.393-.708h-5.643v-10.97a.391.391 0 0 0-.412-.413 2.647 2.647 0 0 0-.964 0 .376.376 0 0 0-.393.413v11.737a.614.614 0 0 0 .688.691zm9.889.177a.443.443 0 0 0 .472-.452c.177-.885.373-1.848.648-2.831h5.977c.256.983.472 1.927.669 2.831a.442.442 0 0 0 .472.452 1.9 1.9 0 0 0 .668-.1c.511-.118.649-.334.551-.727a45.028 45.028 0 0 0-4.09-11.384 1.3 1.3 0 0 0-1.278-.787 1.283 1.283 0 0 0-1.258.806 41.369 41.369 0 0 0-4.07 11.364c-.1.393.039.609.551.727a1.812 1.812 0 0 0 .688.101zm1.474-4.719a34.472 34.472 0 0 1 2.576-6.528h.059a34.472 34.472 0 0 1 2.575 6.528h-5.21z" transform="translate(-63.469 -75.031)" style="fill:#001f53;fill-rule:evenodd"/></svg><svg width="131.78" height="14.28" viewBox="-1 -1 131.78 14.28" y="48.5" xmlns="http://www.w3.org/2000/svg"><path data-name="proactive care™" d="M11.4 78.469a2.273 2.273 0 0 0 .824 0 .334.334 0 0 0 .353-.351v-3.581a14.282 14.282 0 0 0 1.715.067c2.725 0 4.491-1.188 4.491-3.581 0-2.326-1.833-3.514-4.676-3.514a21.546 21.546 0 0 0-2.54.1.567.567 0 0 0-.5.619v9.89a.321.321 0 0 0 .333.351zm2.842-5.02a10.881 10.881 0 0 1-1.665-.1v-4.636c.387-.034.858-.05 1.514-.05 1.884-.017 3.128.7 3.128 2.359s-1.096 2.427-2.98 2.427zm6.831 5.02a2.273 2.273 0 0 0 .824 0 .334.334 0 0 0 .353-.351V74.2a10.99 10.99 0 0 0 1.615.084 10.916 10.916 0 0 0 3.717 4.1.935.935 0 0 0 1.194-.05c.286-.218.437-.485.1-.7a10.12 10.12 0 0 1-3.481-3.514 3.278 3.278 0 0 0 2.893-3.3c0-2.092-1.833-3.313-4.507-3.313a21.545 21.545 0 0 0-2.54.1.567.567 0 0 0-.5.619v9.89a.321.321 0 0 0 .329.353zm2.842-5.388A11.246 11.246 0 0 1 22.247 73v-4.27c.387-.033.858-.05 1.514-.05 1.716-.034 2.943.736 2.943 2.159-.004 1.439-1.093 2.242-2.792 2.242zM34.8 78.754c3.078 0 4.928-2.209 4.945-5.773.017-3.447-1.7-5.673-4.861-5.673-3.078 0-4.945 2.209-4.945 5.773-.003 3.447 1.696 5.673 4.861 5.673zm.034-1.171c-2.254 0-3.313-1.924-3.347-4.551-.034-2.744 1.11-4.535 3.381-4.535 2.22 0 3.313 1.891 3.347 4.5.012 2.728-1.148 4.585-3.385 4.585zm7.185.987a.378.378 0 0 0 .4-.385c.151-.753.32-1.573.555-2.41h5.113c.219.837.4 1.64.572 2.41a.378.378 0 0 0 .4.385 1.631 1.631 0 0 0 .572-.084c.437-.1.555-.284.471-.619a38.186 38.186 0 0 0-3.5-9.689 1.115 1.115 0 0 0-1.093-.669 1.1 1.1 0 0 0-1.076.686 35.077 35.077 0 0 0-3.481 9.672c-.084.335.034.519.471.619a1.559 1.559 0 0 0 .592.083zm1.261-4.016A29.258 29.258 0 0 1 45.479 69h.05a29.258 29.258 0 0 1 2.2 5.555h-4.453zm13.037 4.184a4.844 4.844 0 0 0 3.431-1.188.548.548 0 0 0 .05-.853.476.476 0 0 0-.774-.2 3.686 3.686 0 0 1-2.573.937c-2.22 0-3.616-1.774-3.616-4.468 0-2.661 1.43-4.367 3.6-4.367a3.725 3.725 0 0 1 2.186.619c.4.2.555.017.706-.385a.538.538 0 0 0-.252-.82 5.041 5.041 0 0 0-2.725-.686c-2.977 0-5.046 2.41-5.046 5.723-.004 3.511 2.015 5.687 5.009 5.687zm8.8-.268a2.366 2.366 0 0 0 .841 0 .321.321 0 0 0 .336-.351V68.78h3.2c.269 0 .353-.234.353-.653 0-.4-.067-.586-.353-.586h-8.032c-.252 0-.353.251-.353.653s.084.586.353.586h3.313v9.337a.321.321 0 0 0 .336.352zm7 0a2.273 2.273 0 0 0 .824 0 .334.334 0 0 0 .353-.351V67.81a.326.326 0 0 0-.353-.351 2.273 2.273 0 0 0-.824 0 .313.313 0 0 0-.336.351v10.308a.321.321 0 0 0 .33.351zm7.748.13a1.021 1.021 0 0 0 1.06-.686 34.141 34.141 0 0 0 3.5-9.655.486.486 0 0 0-.471-.636 2.079 2.079 0 0 0-.589-.084.368.368 0 0 0-.4.385c-.286 1.322-.622 2.845-1.093 4.317a30.365 30.365 0 0 1-1.972 4.822h-.069a29.242 29.242 0 0 1-1.951-4.8 40.308 40.308 0 0 1-1.127-4.334.366.366 0 0 0-.387-.385 2.034 2.034 0 0 0-.639.084.485.485 0 0 0-.471.636 36.813 36.813 0 0 0 3.515 9.689 1.018 1.018 0 0 0 1.094.647zm7.1-.184H92.7c.336 0 .353-.3.353-.636 0-.318-.017-.586-.32-.586H87.89V73.5h4.07c.286 0 .32-.284.32-.619 0-.318 0-.6-.336-.6H87.89v-3.517h4.793c.286 0 .319-.284.319-.619 0-.318 0-.6-.336-.6h-5.7a.524.524 0 0 0-.589.586v9.706a.524.524 0 0 0 .588.582zm15.728.318a4.843 4.843 0 0 0 3.431-1.188.548.548 0 0 0 .051-.853.476.476 0 0 0-.774-.2 3.686 3.686 0 0 1-2.573.937c-2.22 0-3.616-1.774-3.616-4.468 0-2.661 1.429-4.367 3.6-4.367a3.722 3.722 0 0 1 2.186.619c.4.2.555.017.707-.385a.538.538 0 0 0-.252-.82 5.044 5.044 0 0 0-2.725-.686c-2.977 0-5.046 2.41-5.046 5.723-.001 3.515 2.018 5.691 5.011 5.691zm5.957-.167a.378.378 0 0 0 .4-.385c.152-.753.32-1.573.555-2.41h5.113c.219.837.4 1.64.572 2.41a.378.378 0 0 0 .4.385 1.625 1.625 0 0 0 .571-.084c.438-.1.555-.284.471-.619a38.166 38.166 0 0 0-3.5-9.689 1.115 1.115 0 0 0-1.093-.669 1.1 1.1 0 0 0-1.077.686 35.1 35.1 0 0 0-3.481 9.672c-.084.335.034.519.471.619a1.558 1.558 0 0 0 .598.086zm1.261-4.016a29.278 29.278 0 0 1 2.2-5.555h.051a29.278 29.278 0 0 1 2.2 5.555h-4.457zm9.135 3.916a2.273 2.273 0 0 0 .824 0 .334.334 0 0 0 .353-.351V74.2a10.994 10.994 0 0 0 1.615.084 10.919 10.919 0 0 0 3.717 4.1.935.935 0 0 0 1.194-.05c.286-.218.437-.485.1-.7a10.123 10.123 0 0 1-3.482-3.514 3.278 3.278 0 0 0 2.893-3.3c0-2.092-1.833-3.313-4.507-3.313a21.555 21.555 0 0 0-2.54.1.567.567 0 0 0-.5.619v9.89a.321.321 0 0 0 .333.353zm2.842-5.388a11.252 11.252 0 0 1-1.665-.079v-4.27c.387-.033.858-.05 1.514-.05 1.715-.034 2.943.736 2.943 2.159 0 1.439-1.093 2.242-2.792 2.242zm7.3 5.338h5.735c.337 0 .353-.3.353-.636 0-.318-.016-.586-.319-.586h-4.844V73.5h4.07c.286 0 .32-.284.32-.619 0-.318 0-.6-.337-.6h-4.053v-3.517h4.793c.286 0 .32-.284.32-.619 0-.318 0-.6-.336-.6h-5.7a.524.524 0 0 0-.589.586v9.706a.524.524 0 0 0 .589.582zm7.747-9.5a.524.524 0 0 0 .246 0 .122.122 0 0 0 .108-.147v-1.89h.611c.1 0 .147-.078.147-.215a.156.156 0 0 0-.147-.2h-1.7c-.108 0-.148.088-.148.215s.04.2.148.2h.618v1.894a.128.128 0 0 0 .119.147zm1.482.01a.149.149 0 0 0 .157-.156 9.2 9.2 0 0 1 .118-1.132l.059-.449h.019c.039.127.1.283.147.429.108.3.206.625.324 1.044a.2.2 0 0 0 .236.186.219.219 0 0 0 .245-.186c.108-.42.206-.732.3-1.035l.157-.449h.02c.029.146.049.322.068.469a9.529 9.529 0 0 1 .108 1.123.161.161 0 0 0 .157.156.4.4 0 0 0 .187-.01.139.139 0 0 0 .127-.176 12.75 12.75 0 0 0-.294-2.04.28.28 0 0 0-.294-.234.286.286 0 0 0-.3.2 12.2 12.2 0 0 0-.481 1.328c-.147-.459-.3-.9-.49-1.328a.286.286 0 0 0-.295-.2.268.268 0 0 0-.284.234 10.714 10.714 0 0 0-.3 2.04.144.144 0 0 0 .127.176.369.369 0 0 0 .184.013z" transform="translate(-11.063 -66.469)" style="fill:#001f53;fill-rule:evenodd"/></svg></svg>