<svg width="246" height="92" xmlns="http://www.w3.org/2000/svg" xmlns:xlink="http://www.w3.org/1999/xlink"><svg width="126.56" height="21.12" viewBox="-1 -1 126.56 21.12" y="69.9" xmlns="http://www.w3.org/2000/svg"><path data-name="COMPRA AQUÍ" d="M94.147 181.614a5.744 5.744 0 0 0 4.081-1.42.657.657 0 0 0 .06-1.02.565.565 0 0 0-.92-.24 4.372 4.372 0 0 1-3.061 1.12c-2.641 0-4.3-2.12-4.3-5.341 0-3.181 1.7-5.221 4.281-5.221a4.414 4.414 0 0 1 2.6.74c.48.24.66.02.84-.46a.644.644 0 0 0-.3-.98 5.974 5.974 0 0 0-3.241-.82c-3.541 0-6 2.88-6 6.841-.001 4.201 2.399 6.801 5.96 6.801zm11.62.02c3.661 0 5.861-2.64 5.881-6.9.02-4.121-2.02-6.781-5.781-6.781-3.661 0-5.881 2.64-5.881 6.9 0 4.121 2.02 6.781 5.781 6.781zm.04-1.4c-2.681 0-3.941-2.3-3.981-5.441-.04-3.281 1.32-5.421 4.021-5.421 2.641 0 3.941 2.26 3.981 5.381.02 3.261-1.36 5.481-4.021 5.481zm9.039 1.08a.476.476 0 0 0 .52-.5c.12-2.48.32-4.421.6-6.421.2-1.32.42-2.8.68-4.061h.04c.481 1.12.981 2.6 1.421 3.861.64 1.8 1.18 3.621 1.8 5.881a.838.838 0 0 0 .94.82.856.856 0 0 0 .981-.82c.58-2.3 1.14-4.121 1.76-5.881.44-1.26.96-2.681 1.46-3.861h.04c.26 1.26.5 2.781.7 4.1.28 1.98.48 4.081.6 6.381a.452.452 0 0 0 .5.5 2.7 2.7 0 0 0 .9-.04.468.468 0 0 0 .42-.56 72.133 72.133 0 0 0-1.68-11.482 1.156 1.156 0 0 0-1.241-1.02 1.229 1.229 0 0 0-1.3.86 73.7 73.7 0 0 0-3.081 8.862h-.04a68.145 68.145 0 0 0-3.1-8.862 1.21 1.21 0 0 0-1.261-.86 1.12 1.12 0 0 0-1.24 1.04 64.528 64.528 0 0 0-1.7 11.462.446.446 0 0 0 .4.56 2.608 2.608 0 0 0 .881.041zm16.5-.02a2.69 2.69 0 0 0 .98 0 .4.4 0 0 0 .42-.42v-4.281a16.9 16.9 0 0 0 2.041.08c3.24 0 5.341-1.42 5.341-4.281 0-2.78-2.181-4.2-5.561-4.2a25.518 25.518 0 0 0-3.021.12.677.677 0 0 0-.6.74v11.822a.382.382 0 0 0 .4.42zm3.381-6a12.877 12.877 0 0 1-1.981-.12v-5.541c.46-.04 1.02-.06 1.8-.06 2.24-.02 3.72.84 3.72 2.82s-1.299 2.9-3.539 2.9zm8.119 6a2.69 2.69 0 0 0 .98 0 .4.4 0 0 0 .42-.42v-4.681a13.012 13.012 0 0 0 1.921.1 13.021 13.021 0 0 0 4.42 4.9 1.11 1.11 0 0 0 1.421-.06c.34-.26.52-.58.12-.84a12.056 12.056 0 0 1-4.141-4.2 3.912 3.912 0 0 0 3.441-3.941c0-2.5-2.181-3.96-5.361-3.96a25.518 25.518 0 0 0-3.021.12.677.677 0 0 0-.6.74v11.822a.382.382 0 0 0 .4.42zm3.381-6.441a13.308 13.308 0 0 1-1.981-.1v-5.1c.46-.04 1.02-.06 1.8-.06 2.04-.04 3.5.88 3.5 2.58.001 1.72-1.299 2.68-3.319 2.68zm8.8 6.561a.451.451 0 0 0 .48-.46c.18-.9.38-1.88.66-2.88h6.081c.26 1 .48 1.96.68 2.88a.451.451 0 0 0 .48.46 1.934 1.934 0 0 0 .68-.1c.521-.12.661-.34.561-.74a45.828 45.828 0 0 0-4.161-11.582 1.326 1.326 0 0 0-1.3-.8 1.306 1.306 0 0 0-1.28.82 42.062 42.062 0 0 0-4.141 11.562c-.1.4.04.62.56.74a1.851 1.851 0 0 0 .699.1zm1.5-4.8a35.085 35.085 0 0 1 2.62-6.641h.06a35.018 35.018 0 0 1 2.621 6.641h-5.3zm14.479 4.8a.451.451 0 0 0 .48-.46c.18-.9.38-1.88.66-2.88h6.082c.26 1 .48 1.96.68 2.88a.451.451 0 0 0 .48.46 1.934 1.934 0 0 0 .68-.1c.52-.12.66-.34.56-.74a45.751 45.751 0 0 0-4.161-11.582 1.326 1.326 0 0 0-1.3-.8 1.306 1.306 0 0 0-1.28.82 42.03 42.03 0 0 0-4.141 11.562c-.1.4.04.62.56.74a1.849 1.849 0 0 0 .699.1zm1.5-4.8a35.152 35.152 0 0 1 2.621-6.641h.06a35.152 35.152 0 0 1 2.621 6.641h-5.3zm21.642 6.1a23.252 23.252 0 0 1-3.56-1.7c1.98-1.02 3.1-3.24 3.12-6.281.02-4.121-2.02-6.781-5.781-6.781-3.661 0-5.881 2.64-5.881 6.9 0 4.121 2.02 6.781 5.781 6.781a6.291 6.291 0 0 0 .88-.06 24.023 24.023 0 0 0 3.921 2.141 1.333 1.333 0 0 0 1.38-.24c.399-.274.599-.574.139-.759zm-10.262-7.922c-.04-3.281 1.32-5.421 4.021-5.421 2.641 0 3.941 2.26 3.981 5.381.02 3.261-1.36 5.481-4.021 5.481-2.682.001-3.942-2.299-3.982-5.44zm17.4 6.741c3.08 0 4.761-1.64 4.761-4.681v-8.261a.389.389 0 0 0-.42-.42 2.482 2.482 0 0 0-.941 0 .373.373 0 0 0-.4.42v8.461a3 3 0 1 1-6 0v-8.461a.389.389 0 0 0-.42-.42 2.582 2.582 0 0 0-.96 0 .389.389 0 0 0-.42.42v8.261c-.001 3.042 1.679 4.682 4.8 4.682zm7.679-13.783v13.483h1.74v-13.482h-1.74zm1.66-3.06-1.84 2.34h1.42l2.56-2.34h-2.14z" transform="translate(-88.188 -164.688)" style="fill:#fff;fill-rule:evenodd"/></svg><svg width="178.34" height="9.03" viewBox="-1 -1 178.34 9.03" y="60.87" xmlns="http://www.w3.org/2000/svg"><path data-name="*vs. una toalla de mano regular de algodón" d="M61.875 218.082a.142.142 0 0 0 .224-.056l.392-.679.4.671a.145.145 0 0 0 .232.048l.128-.087a.143.143 0 0 0 .024-.232l-.544-.584.76-.184a.148.148 0 0 0 .12-.208l-.056-.136a.137.137 0 0 0-.208-.1l-.7.352.08-.775a.149.149 0 0 0-.16-.176h-.156a.143.143 0 0 0-.16.176l.08.775-.72-.344a.138.138 0 0 0-.208.1l-.048.136a.141.141 0 0 0 .12.2l.767.192-.528.584a.136.136 0 0 0 .024.232zm4.727 3.535a.485.485 0 0 0 .5-.328 16.384 16.384 0 0 0 1.663-4.614.232.232 0 0 0-.224-.3.984.984 0 0 0-.28-.04.175.175 0 0 0-.192.184c-.136.632-.3 1.36-.52 2.063a14.54 14.54 0 0 1-.936 2.3h-.027a14.006 14.006 0 0 1-.927-2.295 19.268 19.268 0 0 1-.536-2.071.174.174 0 0 0-.184-.184.962.962 0 0 0-.3.04.232.232 0 0 0-.224.3 17.666 17.666 0 0 0 1.671 4.63.484.484 0 0 0 .514.315zm4.7.016a1.749 1.749 0 0 0 1.967-1.688 1.182 1.182 0 0 0-.752-1.119c-.536-.264-1.375-.336-1.847-.544a.669.669 0 0 1-.536-.647c-.008-.5.416-.808 1.167-.808a2.2 2.2 0 0 1 1.247.312c.184.1.272.056.344-.16a.263.263 0 0 0-.08-.384 2.7 2.7 0 0 0-1.543-.376c-1.151.008-1.863.568-1.855 1.488a1.172 1.172 0 0 0 .712 1.1 14.643 14.643 0 0 0 1.831.576.757.757 0 0 1 .608.711 1.03 1.03 0 0 1-1.263.928 2.019 2.019 0 0 1-1.463-.568c-.168-.144-.256-.072-.376.168a.288.288 0 0 0 .056.408 2.673 2.673 0 0 0 1.787.603zm3.169-.056a.446.446 0 0 0 .5-.424v-.048a.436.436 0 0 0-.5-.416.443.443 0 0 0-.5.416v.048a.453.453 0 0 0 .504.424zm4.983.071a1.7 1.7 0 0 0 1.9-1.87v-3.3a.155.155 0 0 0-.168-.168.989.989 0 0 0-.376 0 .149.149 0 0 0-.16.168v3.382a1.2 1.2 0 1 1-2.4 0v-3.382a.155.155 0 0 0-.168-.168 1.032 1.032 0 0 0-.384 0 .155.155 0 0 0-.168.168v3.3a1.7 1.7 0 0 0 1.928 1.87zm3.273-.1a.816.816 0 0 0 .368 0 .159.159 0 0 0 .168-.168v-2.9c0-.368-.016-.783-.032-1.119h.016c.152.264.392.7.6 1.015l1.935 2.967a.4.4 0 0 0 .36.184h.144a.266.266 0 0 0 .3-.3v-4.758a.152.152 0 0 0-.168-.168.816.816 0 0 0-.368-.008.166.166 0 0 0-.168.176l.008 2.975c0 .352.016.719.024 1.031H85.9c-.128-.224-.352-.663-.552-.967l-1.951-2.991a.392.392 0 0 0-.352-.192h-.186a.266.266 0 0 0-.3.3v4.75a.155.155 0 0 0 .172.17zm5.3.056a.18.18 0 0 0 .192-.184c.072-.36.152-.752.264-1.152h2.431c.1.4.192.784.272 1.152a.18.18 0 0 0 .192.184.773.773 0 0 0 .272-.04c.208-.048.264-.136.224-.3a18.32 18.32 0 0 0-1.663-4.63.53.53 0 0 0-.52-.32.522.522 0 0 0-.512.328 16.827 16.827 0 0 0-1.655 4.622c-.04.16.016.248.224.3a.739.739 0 0 0 .287.036zm.6-1.919a14.019 14.019 0 0 1 1.047-2.655h.024a14.019 14.019 0 0 1 1.047 2.655h-2.11zm7.143 1.871a1.119 1.119 0 0 0 .4 0 .153.153 0 0 0 .16-.168v-4.462h1.519c.128 0 .168-.112.168-.312s-.032-.28-.168-.28h-3.806c-.12 0-.168.12-.168.312s.04.28.168.28h1.575v4.462a.153.153 0 0 0 .16.165zm4.992.135c1.463 0 2.343-1.055 2.351-2.758.008-1.647-.808-2.711-2.311-2.711-1.463 0-2.351 1.056-2.351 2.759.008 1.644.816 2.707 2.319 2.707zm.016-.559c-1.072 0-1.575-.92-1.591-2.175-.016-1.311.528-2.167 1.607-2.167 1.055 0 1.575.9 1.591 2.151.015 1.3-.536 2.188-1.599 2.188zm3.422.468a.18.18 0 0 0 .192-.184c.072-.36.152-.752.264-1.152h2.43c.1.4.192.784.272 1.152a.18.18 0 0 0 .192.184.774.774 0 0 0 .272-.04c.208-.048.264-.136.224-.3a18.351 18.351 0 0 0-1.663-4.63.53.53 0 0 0-.52-.32.522.522 0 0 0-.512.328 16.853 16.853 0 0 0-1.655 4.622c-.04.16.016.248.224.3a.74.74 0 0 0 .28.04zm.6-1.919a13.953 13.953 0 0 1 1.047-2.655h.024a13.953 13.953 0 0 1 1.047 2.655H104.8zm4.464 1.847h2.718c.168 0 .176-.136.176-.3s-.008-.288-.16-.288h-2.294v-4.462a.159.159 0 0 0-.168-.168 1.076 1.076 0 0 0-.392 0 .153.153 0 0 0-.16.168v4.774a.25.25 0 0 0 .283.277zm4.056 0h2.718c.168 0 .176-.136.176-.3s-.008-.288-.16-.288h-2.3v-4.462a.159.159 0 0 0-.167-.168 1.076 1.076 0 0 0-.392 0 .153.153 0 0 0-.16.168v4.774a.25.25 0 0 0 .288.277zm4.024.072a.18.18 0 0 0 .192-.184c.071-.36.151-.752.263-1.152h2.431c.1.4.192.784.272 1.152a.18.18 0 0 0 .192.184.774.774 0 0 0 .272-.04c.208-.048.263-.136.224-.3a18.315 18.315 0 0 0-1.664-4.63.529.529 0 0 0-.519-.32.522.522 0 0 0-.512.328 16.82 16.82 0 0 0-1.655 4.622c-.04.16.016.248.224.3a.74.74 0 0 0 .283.04zm.6-1.919a14.019 14.019 0 0 1 1.048-2.655h.024a14.087 14.087 0 0 1 1.047 2.655h-2.119zm6.776 1.911a3.34 3.34 0 0 0 2.063-.576 2.618 2.618 0 0 0 .879-2.151c0-1.7-.911-2.535-2.822-2.535a7.821 7.821 0 0 0-1.048.064.246.246 0 0 0-.223.272v4.574a.252.252 0 0 0 .239.3 7.424 7.424 0 0 0 .914.053zm.17-.592c-.208 0-.392-.008-.608-.024v-4.038a5.112 5.112 0 0 1 .648-.04 1.75 1.75 0 0 1 2.015 1.975 2.206 2.206 0 0 1-.528 1.615 2.01 2.01 0 0 1-1.527.512zm4.056.528h2.727c.16 0 .168-.144.168-.3s-.008-.28-.152-.28h-2.3v-1.767h1.935c.136 0 .152-.136.152-.3s0-.288-.16-.288h-1.927v-1.679h2.279c.136 0 .152-.136.152-.3s0-.288-.16-.288h-2.711a.249.249 0 0 0-.279.28v4.638a.249.249 0 0 0 .276.285zm5.712.032a.19.19 0 0 0 .208-.2c.048-.992.128-1.767.24-2.567.08-.528.168-1.119.272-1.623h.016c.192.448.392 1.039.567 1.543.256.72.472 1.447.72 2.351a.335.335 0 0 0 .376.328.342.342 0 0 0 .392-.328 28.044 28.044 0 0 1 1.284-3.894h.016c.1.5.2 1.111.28 1.639.112.792.192 1.631.24 2.551a.181.181 0 0 0 .2.2 1.075 1.075 0 0 0 .359-.016.187.187 0 0 0 .168-.224 28.933 28.933 0 0 0-.671-4.59.462.462 0 0 0-.5-.408.491.491 0 0 0-.52.344 29.447 29.447 0 0 0-1.231 3.542h-.016a27.438 27.438 0 0 0-1.239-3.542.484.484 0 0 0-.5-.344.448.448 0 0 0-.5.416 25.779 25.779 0 0 0-.68 4.582.179.179 0 0 0 .16.224 1.043 1.043 0 0 0 .359.017zm6.608.04a.18.18 0 0 0 .192-.184c.072-.36.152-.752.264-1.152h2.431c.1.4.192.784.272 1.152a.18.18 0 0 0 .191.184.774.774 0 0 0 .272-.04c.208-.048.264-.136.224-.3a18.312 18.312 0 0 0-1.663-4.63.53.53 0 0 0-.52-.32.522.522 0 0 0-.511.328 16.787 16.787 0 0 0-1.655 4.622c-.04.16.016.248.223.3a.74.74 0 0 0 .28.04zm.6-1.919a14.087 14.087 0 0 1 1.047-2.655h.024a14.019 14.019 0 0 1 1.048 2.655h-2.119zm4.352 1.863a.817.817 0 0 0 .368 0 .159.159 0 0 0 .168-.168v-2.9c0-.368-.016-.783-.032-1.119h.016c.152.264.392.7.6 1.015l1.935 2.967a.4.4 0 0 0 .359.184h.144a.266.266 0 0 0 .3-.3v-4.758a.152.152 0 0 0-.168-.168.817.817 0 0 0-.368-.008.166.166 0 0 0-.168.176l.008 2.975c0 .352.016.719.024 1.031h-.016c-.127-.224-.351-.663-.551-.967l-1.951-2.991a.392.392 0 0 0-.352-.192h-.184a.266.266 0 0 0-.3.3v4.75a.155.155 0 0 0 .168.174zm7.2.143c1.463 0 2.343-1.055 2.351-2.758.008-1.647-.808-2.711-2.311-2.711-1.463 0-2.351 1.056-2.351 2.759-.001 1.648.807 2.711 2.31 2.711zm.016-.559c-1.071 0-1.575-.92-1.591-2.175-.016-1.311.528-2.167 1.607-2.167 1.056 0 1.575.9 1.591 2.151.007 1.304-.541 2.192-1.608 2.192zm4.969.424a1.076 1.076 0 0 0 .392 0 .159.159 0 0 0 .168-.168v-1.871a5.2 5.2 0 0 0 .767.04 5.22 5.22 0 0 0 1.767 1.959.445.445 0 0 0 .568-.024c.136-.1.208-.232.048-.336a4.83 4.83 0 0 1-1.655-1.679 1.563 1.563 0 0 0 1.375-1.575c0-1-.871-1.584-2.143-1.584a10.2 10.2 0 0 0-1.207.048.271.271 0 0 0-.24.3v4.726a.153.153 0 0 0 .157.165zm1.351-2.575a5.314 5.314 0 0 1-.791-.04V216.9c.184-.016.408-.024.719-.024a1.154 1.154 0 0 1 1.4 1.032 1.122 1.122 0 0 1-1.329 1.07zm3.473 2.551h2.727c.159 0 .167-.144.167-.3s-.008-.28-.151-.28h-2.3v-1.767h1.93c.136 0 .152-.136.152-.3s0-.288-.16-.288h-1.927v-1.679h2.279c.135 0 .151-.136.151-.3s0-.288-.159-.288h-2.711a.25.25 0 0 0-.28.28v4.638a.25.25 0 0 0 .281.285zm5.967.151a2.918 2.918 0 0 0 1.887-.607.406.406 0 0 0 .168-.376l-.008-1.679a.2.2 0 0 0-.208-.216h-1.783c-.12 0-.168.1-.168.288s.032.288.168.288h1.335l.008 1.271a2.084 2.084 0 0 1-1.327.416c-1.111 0-1.783-.848-1.783-2.143a1.882 1.882 0 0 1 1.871-2.087 1.834 1.834 0 0 1 1.223.384c.168.12.264.04.36-.144a.253.253 0 0 0-.08-.4 2.422 2.422 0 0 0-1.527-.448 2.521 2.521 0 0 0-1.775.7 2.82 2.82 0 0 0-.792 2.063 2.792 2.792 0 0 0 .776 2.047 2.278 2.278 0 0 0 1.654.644zm5.064-.032a1.7 1.7 0 0 0 1.9-1.87v-3.3a.155.155 0 0 0-.168-.168.991.991 0 0 0-.376 0 .149.149 0 0 0-.16.168v3.382a1.2 1.2 0 1 1-2.4 0v-3.382a.155.155 0 0 0-.168-.168 1.033 1.033 0 0 0-.384 0 .155.155 0 0 0-.168.168v3.3a1.7 1.7 0 0 0 1.923 1.871zm3.385-.119h2.718c.168 0 .176-.136.176-.3s-.008-.288-.16-.288h-2.294v-4.462a.159.159 0 0 0-.168-.168 1.076 1.076 0 0 0-.392 0 .153.153 0 0 0-.16.168v4.774a.25.25 0 0 0 .279.277zm4.024.072a.18.18 0 0 0 .192-.184c.072-.36.152-.752.264-1.152h2.43c.1.4.192.784.272 1.152a.18.18 0 0 0 .192.184.774.774 0 0 0 .272-.04c.208-.048.264-.136.224-.3a18.351 18.351 0 0 0-1.663-4.63.53.53 0 0 0-.52-.32.522.522 0 0 0-.512.328 16.853 16.853 0 0 0-1.655 4.622c-.04.16.016.248.224.3a.74.74 0 0 0 .279.04zm.6-1.919a13.953 13.953 0 0 1 1.047-2.655h.024a13.953 13.953 0 0 1 1.047 2.655h-2.118zm4.344 1.871a1.076 1.076 0 0 0 .392 0 .159.159 0 0 0 .167-.168v-1.871a5.2 5.2 0 0 0 .768.04 5.212 5.212 0 0 0 1.767 1.959.445.445 0 0 0 .568-.024c.136-.1.208-.232.048-.336a4.821 4.821 0 0 1-1.655-1.679 1.564 1.564 0 0 0 1.375-1.575c0-1-.872-1.584-2.143-1.584a10.184 10.184 0 0 0-1.207.048.271.271 0 0 0-.24.3v4.726a.153.153 0 0 0 .159.165zm1.351-2.575a5.32 5.32 0 0 1-.792-.04V216.9c.184-.016.408-.024.72-.024a1.153 1.153 0 0 1 1.4 1.032 1.121 1.121 0 0 1-1.329 1.07zm5.784 2.615a3.338 3.338 0 0 0 2.063-.576 2.616 2.616 0 0 0 .88-2.151c0-1.7-.912-2.535-2.823-2.535a7.794 7.794 0 0 0-1.047.064.246.246 0 0 0-.224.272v4.574a.252.252 0 0 0 .24.3 7.394 7.394 0 0 0 .91.053zm.168-.592c-.208 0-.392-.008-.608-.024v-4.038a5.112 5.112 0 0 1 .648-.04 1.75 1.75 0 0 1 2.015 1.975 2.206 2.206 0 0 1-.528 1.615 2.009 2.009 0 0 1-1.528.512zm4.057.528h2.729c.16 0 .168-.144.168-.3s-.008-.28-.152-.28h-2.3v-1.767h1.935c.136 0 .152-.136.152-.3s0-.288-.16-.288h-1.927v-1.679h2.279c.136 0 .152-.136.152-.3s0-.288-.16-.288h-2.71a.25.25 0 0 0-.28.28v4.638a.25.25 0 0 0 .273.285zm5.512.072a.18.18 0 0 0 .191-.184c.072-.36.152-.752.264-1.152h2.431c.1.4.192.784.272 1.152a.18.18 0 0 0 .192.184.774.774 0 0 0 .272-.04c.207-.048.263-.136.223-.3a18.274 18.274 0 0 0-1.663-4.63.53.53 0 0 0-.519-.32.522.522 0 0 0-.512.328 16.82 16.82 0 0 0-1.655 4.622c-.04.16.016.248.224.3a.74.74 0 0 0 .279.04zm.6-1.919a14.019 14.019 0 0 1 1.048-2.655h.024a14.087 14.087 0 0 1 1.047 2.655h-2.119zm4.464 1.847h2.719c.168 0 .176-.136.176-.3s-.008-.288-.16-.288h-2.295v-4.462a.159.159 0 0 0-.168-.168 1.076 1.076 0 0 0-.392 0 .152.152 0 0 0-.159.168v4.774a.249.249 0 0 0 .277.277zm5.839.151a2.918 2.918 0 0 0 1.887-.607.406.406 0 0 0 .168-.376l-.008-1.679a.2.2 0 0 0-.208-.216h-1.785c-.12 0-.168.1-.168.288s.032.288.168.288h1.335l.008 1.271a2.082 2.082 0 0 1-1.327.416c-1.111 0-1.783-.848-1.783-2.143a1.882 1.882 0 0 1 1.871-2.087 1.832 1.832 0 0 1 1.223.384c.168.12.264.04.36-.144a.253.253 0 0 0-.08-.4 2.42 2.42 0 0 0-1.527-.448 2.523 2.523 0 0 0-1.775.7 2.82 2.82 0 0 0-.791 2.063 2.791 2.791 0 0 0 .775 2.047 2.28 2.28 0 0 0 1.655.644zm5.288.008c1.463 0 2.343-1.055 2.351-2.758.008-1.647-.808-2.711-2.311-2.711-1.463 0-2.35 1.056-2.35 2.759-.002 1.648.805 2.711 2.308 2.711zm.016-.559c-1.071 0-1.575-.92-1.591-2.175-.016-1.311.528-2.167 1.607-2.167 1.056 0 1.575.9 1.591 2.151.003 1.304-.545 2.192-1.609 2.192zm4.521.464a3.34 3.34 0 0 0 2.063-.576 2.618 2.618 0 0 0 .879-2.151c0-1.7-.911-2.535-2.822-2.535a7.821 7.821 0 0 0-1.048.064.246.246 0 0 0-.224.272v4.574a.252.252 0 0 0 .24.3 7.424 7.424 0 0 0 .91.053zm.168-.592c-.208 0-.392-.008-.608-.024v-4.038a5.112 5.112 0 0 1 .648-.04 1.75 1.75 0 0 1 2.015 1.975 2.206 2.206 0 0 1-.528 1.615 2.01 2.01 0 0 1-1.529.512zm5.295-5.037 1.52-.744a.128.128 0 0 0 .064-.192 1.081 1.081 0 0 0-.152-.3.139.139 0 0 0-.208-.048l-1.431.888c-.12.072-.08.16-.032.264.07.141.142.181.237.133zm.624 5.724c1.463 0 2.343-1.055 2.351-2.758.008-1.647-.808-2.711-2.311-2.711-1.463 0-2.351 1.056-2.351 2.759-.002 1.648.806 2.711 2.313 2.711zm.016-.559c-1.071 0-1.575-.92-1.591-2.175-.016-1.311.528-2.167 1.607-2.167 1.056 0 1.575.9 1.591 2.151.006 1.304-.545 2.192-1.609 2.192zm3.537.416a.817.817 0 0 0 .368 0 .159.159 0 0 0 .168-.168v-2.9c0-.368-.016-.783-.032-1.119h.016c.152.264.392.7.6 1.015l1.935 2.967a.4.4 0 0 0 .359.184h.144a.266.266 0 0 0 .3-.3v-4.758a.152.152 0 0 0-.168-.168.817.817 0 0 0-.368-.008.166.166 0 0 0-.168.176l.008 2.975c0 .352.016.719.024 1.031h-.016c-.127-.224-.351-.663-.551-.967l-1.951-2.991a.392.392 0 0 0-.352-.192h-.184a.266.266 0 0 0-.3.3v4.75a.155.155 0 0 0 .166.174z" transform="translate(-61.344 -214.656)" style="fill:#001f53;fill-rule:evenodd"/></svg><svg width="245.03" height="39.06" viewBox="-1 -1 245.03 39.06" xmlns="http://www.w3.org/2000/svg"><path data-name="NUEVAS TOALLAS de manos DESECHABLES" d="M66.347 198.278a2.247 2.247 0 0 0 1.012 0 .438.438 0 0 0 .462-.462v-7.965c0-1.012-.044-2.156-.088-3.08h.044c.418.726 1.078 1.936 1.65 2.794l5.325 8.163a1.1 1.1 0 0 0 .99.506h.4a.732.732 0 0 0 .814-.814v-13.092a.418.418 0 0 0-.462-.462 2.248 2.248 0 0 0-1.012-.022.455.455 0 0 0-.462.484l.022 8.186c0 .968.044 1.98.066 2.838h-.047c-.352-.616-.968-1.826-1.518-2.662l-5.369-8.23a1.08 1.08 0 0 0-.968-.528H66.7a.732.732 0 0 0-.814.814v13.07a.427.427 0 0 0 .461.462zm19.185.286c3.388 0 5.237-1.8 5.237-5.148v-9.088a.427.427 0 0 0-.462-.462 2.724 2.724 0 0 0-1.034 0 .411.411 0 0 0-.44.462v9.308a3.3 3.3 0 0 1-6.6 0v-9.308a.427.427 0 0 0-.462-.462 2.841 2.841 0 0 0-1.056 0 .427.427 0 0 0-.462.462v9.088c-.002 3.344 1.847 5.148 5.279 5.148zm9.305-.33h7.5c.44 0 .462-.4.462-.836 0-.418-.022-.77-.418-.77h-6.334v-4.863h5.325c.374 0 .418-.374.418-.814 0-.418 0-.792-.44-.792h-5.3v-4.62h6.271c.374 0 .418-.375.418-.815 0-.418 0-.792-.44-.792h-7.462a.687.687 0 0 0-.77.77v12.762a.687.687 0 0 0 .77.77zm15.819.242a1.335 1.335 0 0 0 1.386-.9 45.067 45.067 0 0 0 4.577-12.7.638.638 0 0 0-.617-.836 2.707 2.707 0 0 0-.77-.11.483.483 0 0 0-.528.506c-.374 1.739-.814 3.741-1.43 5.677a39.993 39.993 0 0 1-2.574 6.337h-.088a38.527 38.527 0 0 1-2.553-6.315 53.161 53.161 0 0 1-1.474-5.7.479.479 0 0 0-.506-.506 2.647 2.647 0 0 0-.836.11.638.638 0 0 0-.616.836 48.559 48.559 0 0 0 4.6 12.74 1.333 1.333 0 0 0 1.429.861zm7.655-.044a.5.5 0 0 0 .528-.506c.2-.99.418-2.068.726-3.168h6.689c.286 1.1.528 2.156.748 3.168a.5.5 0 0 0 .528.506 2.128 2.128 0 0 0 .748-.11c.572-.132.727-.374.617-.814a50.435 50.435 0 0 0-4.577-12.74 1.458 1.458 0 0 0-1.43-.88 1.438 1.438 0 0 0-1.409.9 46.289 46.289 0 0 0-4.554 12.718c-.11.44.044.682.616.814a2.034 2.034 0 0 0 .77.112zm1.65-5.28a38.5 38.5 0 0 1 2.883-7.3h.066a38.566 38.566 0 0 1 2.882 7.3h-5.831zM136 198.52c3.059-.022 5.479-1.76 5.413-4.642a3.252 3.252 0 0 0-2.068-3.081c-1.474-.726-3.785-.924-5.083-1.5a1.842 1.842 0 0 1-1.474-1.782c-.022-1.364 1.144-2.222 3.212-2.222a6.056 6.056 0 0 1 3.433.858c.506.286.748.154.946-.44a.724.724 0 0 0-.22-1.057 7.434 7.434 0 0 0-4.247-1.034c-3.168.022-5.126 1.562-5.1 4.093a3.223 3.223 0 0 0 1.958 3.036c1.562.836 3.476.99 5.039 1.585a2.083 2.083 0 0 1 1.672 1.958c.022 1.54-1.188 2.53-3.477 2.552a5.558 5.558 0 0 1-4.026-1.562c-.462-.4-.7-.2-1.034.462a.791.791 0 0 0 .154 1.122A7.357 7.357 0 0 0 136 198.52zm16.1-.22a3.08 3.08 0 0 0 1.1 0 .421.421 0 0 0 .44-.462v-12.277h4.181c.352 0 .462-.308.462-.859 0-.528-.088-.77-.462-.77h-10.5c-.33 0-.462.33-.462.858s.11.771.462.771h4.335v12.277a.421.421 0 0 0 .444.462zm13.728.374c4.027 0 6.447-2.9 6.469-7.591.022-4.532-2.222-7.459-6.359-7.459-4.026 0-6.469 2.905-6.469 7.591.003 4.533 2.231 7.459 6.362 7.459zm.044-1.54c-2.948 0-4.334-2.53-4.378-5.985-.044-3.608 1.452-5.963 4.422-5.963 2.905 0 4.335 2.487 4.379 5.919.025 3.587-1.495 6.029-4.42 6.029zm9.393 1.3a.5.5 0 0 0 .528-.506c.2-.99.419-2.068.727-3.168h6.689c.286 1.1.528 2.156.748 3.168a.5.5 0 0 0 .528.506 2.128 2.128 0 0 0 .748-.11c.572-.132.726-.374.616-.814a50.358 50.358 0 0 0-4.577-12.74 1.458 1.458 0 0 0-1.43-.88 1.436 1.436 0 0 0-1.408.9 46.292 46.292 0 0 0-4.555 12.718c-.11.44.044.682.616.814a2.034 2.034 0 0 0 .773.11zm1.651-5.28a38.566 38.566 0 0 1 2.882-7.3h.066a38.566 38.566 0 0 1 2.882 7.3h-5.83zm12.275 5.082h7.481c.462 0 .484-.374.484-.836 0-.44-.022-.792-.44-.792H190.4v-12.28a.438.438 0 0 0-.462-.462 2.959 2.959 0 0 0-1.078 0 .421.421 0 0 0-.44.462v13.136a.687.687 0 0 0 .774.77zm11.154 0h7.481c.462 0 .484-.374.484-.836 0-.44-.022-.792-.44-.792h-6.315v-12.28a.438.438 0 0 0-.462-.462 2.959 2.959 0 0 0-1.078 0 .421.421 0 0 0-.44.462v13.136a.687.687 0 0 0 .773.77zm11.066.2a.5.5 0 0 0 .528-.506c.2-.99.418-2.068.726-3.168h6.689c.286 1.1.528 2.156.748 3.168a.5.5 0 0 0 .528.506 2.128 2.128 0 0 0 .748-.11c.572-.132.726-.374.616-.814a50.358 50.358 0 0 0-4.577-12.74 1.458 1.458 0 0 0-1.43-.88 1.436 1.436 0 0 0-1.408.9 46.292 46.292 0 0 0-4.555 12.718c-.11.44.044.682.616.814a2.036 2.036 0 0 0 .774.108zm1.65-5.28a38.566 38.566 0 0 1 2.882-7.3h.066a38.633 38.633 0 0 1 2.883 7.3h-5.831zm16.039 5.364c3.058-.022 5.479-1.76 5.413-4.642a3.251 3.251 0 0 0-2.069-3.081c-1.474-.726-3.784-.924-5.082-1.5a1.842 1.842 0 0 1-1.475-1.782c-.022-1.364 1.145-2.222 3.213-2.222a6.053 6.053 0 0 1 3.432.858c.506.286.748.154.946-.44a.723.723 0 0 0-.22-1.057 7.433 7.433 0 0 0-4.246-1.034c-3.169.022-5.127 1.562-5.105 4.093a3.223 3.223 0 0 0 1.958 3.036c1.563.836 3.477.99 5.039 1.585a2.083 2.083 0 0 1 1.672 1.958c.022 1.54-1.188 2.53-3.476 2.552a5.56 5.56 0 0 1-4.027-1.562c-.462-.4-.7-.2-1.034.462a.791.791 0 0 0 .154 1.122 7.36 7.36 0 0 0 4.907 1.654zM31.841 220.41a9.19 9.19 0 0 0 5.677-1.584c1.518-1.21 2.42-3.19 2.42-5.919 0-4.686-2.508-6.975-7.767-6.975a21.513 21.513 0 0 0-2.882.176.678.678 0 0 0-.616.748v12.586a.694.694 0 0 0 .66.814 20.423 20.423 0 0 0 2.508.154zm.462-1.628c-.572 0-1.078-.022-1.672-.066v-11.111a14.062 14.062 0 0 1 1.782-.11c3.785 0 5.5 1.76 5.545 5.434a6.072 6.072 0 0 1-1.452 4.445 5.533 5.533 0 0 1-4.206 1.408zm11.154 1.452h7.5c.44 0 .462-.4.462-.836 0-.418-.022-.77-.418-.77h-6.334v-4.863h5.325c.374 0 .418-.374.418-.814 0-.418 0-.792-.44-.792h-5.3v-4.62h6.271c.374 0 .418-.375.418-.815 0-.418 0-.792-.44-.792h-7.462a.687.687 0 0 0-.77.77v12.762a.687.687 0 0 0 .77.77zm15.708.088a.523.523 0 0 0 .572-.55 74.62 74.62 0 0 1 .66-7.063c.22-1.452.462-3.08.748-4.466h.044c.528 1.232 1.078 2.86 1.562 4.246.7 1.981 1.3 3.983 1.98 6.469a.922.922 0 0 0 1.034.9.94.94 0 0 0 1.078-.9 71.401 71.401 0 0 1 1.936-6.469c.484-1.386 1.056-2.948 1.606-4.246h.045c.286 1.386.55 3.058.77 4.51.308 2.179.528 4.489.66 7.019a.5.5 0 0 0 .55.55 2.974 2.974 0 0 0 .99-.044.515.515 0 0 0 .462-.616 79.361 79.361 0 0 0-1.848-12.63 1.27 1.27 0 0 0-1.364-1.122 1.352 1.352 0 0 0-1.43.946 80.923 80.923 0 0 0-3.389 9.748h-.044a75 75 0 0 0-3.41-9.748 1.33 1.33 0 0 0-1.386-.946 1.233 1.233 0 0 0-1.364 1.144 70.992 70.992 0 0 0-1.87 12.608.49.49 0 0 0 .44.616 2.869 2.869 0 0 0 .967.044zm18.172.11a.5.5 0 0 0 .528-.506c.2-.99.418-2.068.726-3.168h6.689c.286 1.1.528 2.156.748 3.168a.5.5 0 0 0 .528.506 2.128 2.128 0 0 0 .748-.11c.572-.132.726-.374.616-.814a50.388 50.388 0 0 0-4.577-12.74 1.458 1.458 0 0 0-1.43-.88 1.436 1.436 0 0 0-1.408.9 46.284 46.284 0 0 0-4.555 12.718c-.11.44.044.682.616.814a2.034 2.034 0 0 0 .77.112zm1.65-5.28a38.559 38.559 0 0 1 2.882-7.3h.066a38.566 38.566 0 0 1 2.882 7.3h-5.83zm11.967 5.126a2.247 2.247 0 0 0 1.012 0 .438.438 0 0 0 .462-.462v-7.965c0-1.012-.044-2.156-.088-3.08h.044c.418.726 1.078 1.936 1.65 2.794l5.325 8.163a1.1 1.1 0 0 0 .99.506h.4a.732.732 0 0 0 .814-.814v-13.092a.417.417 0 0 0-.462-.462 2.247 2.247 0 0 0-1.012-.022.455.455 0 0 0-.462.484l.022 8.186c0 .968.044 1.98.066 2.838h-.048c-.352-.616-.968-1.826-1.518-2.662l-5.369-8.23a1.079 1.079 0 0 0-.968-.528h-.506a.732.732 0 0 0-.814.814v13.07a.427.427 0 0 0 .462.462zm19.8.4c4.026 0 6.447-2.9 6.469-7.591.022-4.532-2.223-7.459-6.359-7.459-4.027 0-6.469 2.905-6.469 7.591.005 4.529 2.223 7.455 6.36 7.455zm.044-1.54c-2.949 0-4.335-2.53-4.379-5.985-.044-3.608 1.452-5.963 4.423-5.963 2.9 0 4.334 2.487 4.378 5.919.023 3.583-1.495 6.025-4.42 6.025zm13.793 1.386c3.059-.022 5.479-1.76 5.413-4.642a3.252 3.252 0 0 0-2.068-3.081c-1.474-.726-3.785-.924-5.083-1.5a1.842 1.842 0 0 1-1.474-1.782c-.022-1.364 1.144-2.222 3.212-2.222a6.054 6.054 0 0 1 3.433.858c.506.286.748.154.946-.44a.724.724 0 0 0-.22-1.057 7.434 7.434 0 0 0-4.247-1.034c-3.168.022-5.126 1.562-5.1 4.093a3.223 3.223 0 0 0 1.958 3.036c1.562.836 3.476.99 5.039 1.585a2.083 2.083 0 0 1 1.672 1.958c.022 1.54-1.188 2.53-3.477 2.552a5.558 5.558 0 0 1-4.026-1.562c-.462-.4-.7-.2-1.034.462a.791.791 0 0 0 .154 1.122 7.357 7.357 0 0 0 4.903 1.65zm15.092-.11a9.191 9.191 0 0 0 5.677-1.584c1.518-1.21 2.42-3.19 2.42-5.919 0-4.686-2.508-6.975-7.767-6.975a21.507 21.507 0 0 0-2.882.176.678.678 0 0 0-.617.748v12.586a.694.694 0 0 0 .661.814 20.417 20.417 0 0 0 2.509.15zm.462-1.628c-.572 0-1.078-.022-1.672-.066v-11.115a14.058 14.058 0 0 1 1.782-.11c3.785 0 5.5 1.76 5.545 5.434a6.073 6.073 0 0 1-1.452 4.445 5.535 5.535 0 0 1-4.202 1.408zm11.153 1.452h7.5c.441 0 .463-.4.463-.836 0-.418-.022-.77-.419-.77h-6.332v-4.863h5.324c.374 0 .418-.374.418-.814 0-.418 0-.792-.44-.792h-5.3v-4.62h6.27c.375 0 .419-.375.419-.815 0-.418 0-.792-.441-.792h-7.46a.687.687 0 0 0-.77.77v12.762a.687.687 0 0 0 .77.766zm15.269.286c3.058-.022 5.479-1.76 5.413-4.642a3.251 3.251 0 0 0-2.069-3.081c-1.474-.726-3.784-.924-5.082-1.5a1.842 1.842 0 0 1-1.475-1.782c-.022-1.364 1.145-2.222 3.213-2.222a6.053 6.053 0 0 1 3.432.858c.506.286.748.154.946-.44a.723.723 0 0 0-.22-1.057 7.433 7.433 0 0 0-4.246-1.034c-3.169.022-5.127 1.562-5.1 4.093a3.223 3.223 0 0 0 1.958 3.036c1.563.836 3.477.99 5.039 1.585a2.083 2.083 0 0 1 1.672 1.958c.022 1.54-1.188 2.53-3.476 2.552a5.56 5.56 0 0 1-4.027-1.562c-.462-.4-.7-.2-1.034.462a.791.791 0 0 0 .154 1.122 7.36 7.36 0 0 0 4.903 1.65zm8.733-.286h7.5c.44 0 .462-.4.462-.836 0-.418-.022-.77-.418-.77h-6.337v-4.863h5.325c.374 0 .418-.374.418-.814 0-.418 0-.792-.44-.792h-5.3v-4.62h6.271c.374 0 .418-.375.418-.815 0-.418 0-.792-.44-.792H175.3a.687.687 0 0 0-.77.77v12.762a.687.687 0 0 0 .77.766zm16.281.418a6.316 6.316 0 0 0 4.488-1.562.723.723 0 0 0 .066-1.122.621.621 0 0 0-1.012-.264 4.807 4.807 0 0 1-3.366 1.232c-2.905 0-4.731-2.332-4.731-5.875 0-3.5 1.87-5.742 4.709-5.742a4.854 4.854 0 0 1 2.86.814c.528.264.726.022.924-.506a.71.71 0 0 0-.33-1.079 6.57 6.57 0 0 0-3.564-.9c-3.9 0-6.6 3.169-6.6 7.525 0 4.615 2.64 7.475 6.557 7.475zm17.842-14.83a3.08 3.08 0 0 0-1.1 0 .4.4 0 0 0-.418.462v5.875h-7.019v-5.875a.427.427 0 0 0-.462-.462 2.959 2.959 0 0 0-1.078 0 .411.411 0 0 0-.44.462v13.554a.421.421 0 0 0 .44.462 2.959 2.959 0 0 0 1.078 0 .438.438 0 0 0 .462-.462v-6.073h7.019v6.073a.4.4 0 0 0 .418.462 3.08 3.08 0 0 0 1.1 0 .421.421 0 0 0 .44-.462v-13.558a.411.411 0 0 0-.439-.462zm4.421 14.61a.5.5 0 0 0 .528-.506c.2-.99.418-2.068.726-3.168h6.689c.286 1.1.528 2.156.748 3.168a.5.5 0 0 0 .528.506 2.128 2.128 0 0 0 .748-.11c.572-.132.726-.374.616-.814a50.358 50.358 0 0 0-4.577-12.74 1.458 1.458 0 0 0-1.43-.88 1.436 1.436 0 0 0-1.408.9 46.292 46.292 0 0 0-4.555 12.718c-.11.44.044.682.616.814a2.039 2.039 0 0 0 .772.108zm1.65-5.28a38.566 38.566 0 0 1 2.882-7.3h.066a38.566 38.566 0 0 1 2.883 7.3H215.5zm14.828 5.28c3.784 0 6.051-1.276 6.051-4.444a3.141 3.141 0 0 0-2.245-3.125v-.044a3.477 3.477 0 0 0 1.783-3.212c0-2.553-2.333-3.7-5.237-3.7a19.734 19.734 0 0 0-3.059.176.678.678 0 0 0-.616.748v12.652a.694.694 0 0 0 .66.814 21.377 21.377 0 0 0 2.664.131zm-1.386-8.273v-4.642c.616-.066 1.232-.066 1.826-.088 1.936-.044 3.168.77 3.168 2.376a2.072 2.072 0 0 1-2.2 2.354h-2.794zm1.672 6.711a14.19 14.19 0 0 1-1.672-.088v-5.061h2.86c2.09 0 2.6 1.079 2.6 2.223-.003 1.866-1.367 2.922-3.787 2.922zm9.283 1.364h7.481c.462 0 .484-.374.484-.836 0-.44-.022-.792-.44-.792H241.1v-12.282a.438.438 0 0 0-.462-.462 2.959 2.959 0 0 0-1.078 0 .421.421 0 0 0-.44.462v13.136a.687.687 0 0 0 .772.77zm11.154 0h7.5c.44 0 .462-.4.462-.836 0-.418-.022-.77-.418-.77h-6.337v-4.863h5.325c.374 0 .418-.374.418-.814 0-.418 0-.792-.44-.792h-5.3v-4.62h6.271c.374 0 .418-.375.418-.815 0-.418 0-.792-.44-.792h-7.459a.687.687 0 0 0-.77.77v12.762a.687.687 0 0 0 .771.766zm15.268.286c3.059-.022 5.479-1.76 5.413-4.642a3.252 3.252 0 0 0-2.068-3.081c-1.474-.726-3.785-.924-5.083-1.5a1.842 1.842 0 0 1-1.474-1.782c-.022-1.364 1.144-2.222 3.212-2.222a6.054 6.054 0 0 1 3.433.858c.506.286.748.154.946-.44a.724.724 0 0 0-.22-1.057 7.434 7.434 0 0 0-4.247-1.034c-3.168.022-5.126 1.562-5.1 4.093a3.223 3.223 0 0 0 1.958 3.036c1.562.836 3.476.99 5.039 1.585a2.083 2.083 0 0 1 1.672 1.958c.022 1.54-1.188 2.53-3.477 2.552a5.558 5.558 0 0 1-4.026-1.562c-.462-.4-.7-.2-1.034.462a.791.791 0 0 0 .154 1.122 7.357 7.357 0 0 0 4.903 1.65z" transform="translate(-28.688 -183.625)" style="fill:#001f53;fill-rule:evenodd"/></svg><svg width="210.28" height="21.81" viewBox="-1 -1 210.28 21.81" y="39.06" xmlns="http://www.w3.org/2000/svg"><path data-name="proactive care™" d="M46.245 136.315a3.629 3.629 0 0 0 1.323 0 .537.537 0 0 0 .567-.566v-5.777a22.792 22.792 0 0 0 2.753.108c4.373 0 7.207-1.916 7.207-5.776 0-3.752-2.942-5.669-7.5-5.669a34.418 34.418 0 0 0-4.076.162.914.914 0 0 0-.81 1v15.953a.516.516 0 0 0 .536.565zm4.562-8.1a17.367 17.367 0 0 1-2.672-.162v-7.477c.621-.054 1.377-.081 2.429-.081 3.023-.027 5.021 1.133 5.021 3.806s-1.755 3.917-4.778 3.917zm10.963 8.1a3.629 3.629 0 0 0 1.323 0 .537.537 0 0 0 .567-.566v-6.317a17.548 17.548 0 0 0 2.591.135 17.575 17.575 0 0 0 5.966 6.613 1.5 1.5 0 0 0 1.916-.081c.459-.35.7-.782.162-1.133a16.285 16.285 0 0 1-5.588-5.669c2.834-.594 4.643-2.483 4.643-5.317 0-3.374-2.942-5.345-7.234-5.345a34.418 34.418 0 0 0-4.076.162.914.914 0 0 0-.81 1v15.953a.516.516 0 0 0 .54.565zm4.562-8.691a17.947 17.947 0 0 1-2.672-.135v-6.883c.621-.054 1.377-.081 2.429-.081 2.753-.054 4.724 1.187 4.724 3.482 0 2.321-1.755 3.617-4.481 3.617zm17.469 9.15c4.94 0 7.909-3.563 7.936-9.312.027-5.561-2.726-9.151-7.8-9.151-4.94 0-7.936 3.563-7.936 9.313-.001 5.56 2.725 9.15 7.799 9.15zm.054-1.889c-3.617 0-5.318-3.1-5.372-7.342-.054-4.427 1.782-7.315 5.426-7.315 3.563 0 5.318 3.05 5.371 7.261.027 4.4-1.835 7.396-5.425 7.396zm11.531 1.592a.608.608 0 0 0 .648-.621c.243-1.214.513-2.537.891-3.886h8.206c.351 1.349.648 2.645.918 3.886a.608.608 0 0 0 .647.621 2.611 2.611 0 0 0 .918-.135c.7-.162.891-.459.756-1a61.782 61.782 0 0 0-5.615-15.629 1.787 1.787 0 0 0-1.754-1.08 1.762 1.762 0 0 0-1.728 1.107 56.763 56.763 0 0 0-5.588 15.6c-.135.539.054.836.756 1a2.5 2.5 0 0 0 .944.137zM97.41 130a47.356 47.356 0 0 1 3.536-8.962h.081a47.356 47.356 0 0 1 3.536 8.962H97.41zm20.923 6.748a7.753 7.753 0 0 0 5.507-1.916.887.887 0 0 0 .081-1.377.762.762 0 0 0-1.242-.324 5.9 5.9 0 0 1-4.13 1.512c-3.563 0-5.8-2.861-5.8-7.207 0-4.292 2.294-7.045 5.776-7.045a5.952 5.952 0 0 1 3.509 1c.648.324.891.027 1.134-.62a.87.87 0 0 0-.405-1.323 8.059 8.059 0 0 0-4.373-1.107c-4.777 0-8.1 3.887-8.1 9.232-.001 5.665 3.239 9.174 8.043 9.174zm14.122-.432a3.775 3.775 0 0 0 1.349 0 .516.516 0 0 0 .54-.566v-15.063h5.129c.432 0 .567-.378.567-1.053 0-.648-.108-.945-.567-.945H126.6c-.405 0-.567.405-.567 1.053s.135.945.567.945h5.318v15.062a.516.516 0 0 0 .537.566zm11.233 0a3.626 3.626 0 0 0 1.322 0 .537.537 0 0 0 .567-.566v-16.629a.524.524 0 0 0-.567-.567 3.626 3.626 0 0 0-1.322 0 .5.5 0 0 0-.54.567v16.628a.516.516 0 0 0 .54.566zm12.445.216a1.639 1.639 0 0 0 1.7-1.106 55.249 55.249 0 0 0 5.614-15.575.783.783 0 0 0-.755-1.026 3.322 3.322 0 0 0-.945-.135.592.592 0 0 0-.648.621c-.459 2.132-1 4.589-1.755 6.964a49 49 0 0 1-3.158 7.774h-.108a47.377 47.377 0 0 1-3.131-7.747 65.255 65.255 0 0 1-1.808-6.991.588.588 0 0 0-.621-.621 3.248 3.248 0 0 0-1.026.135.783.783 0 0 0-.756 1.026 59.579 59.579 0 0 0 5.642 15.629 1.634 1.634 0 0 0 1.755 1.051zm11.4-.3h9.2c.54 0 .567-.485.567-1.025 0-.513-.027-.945-.513-.945h-7.774V128.3h6.532c.459 0 .513-.458.513-1 0-.513 0-.972-.54-.972h-6.5v-5.668h7.693c.459 0 .513-.459.513-1 0-.513 0-.972-.54-.972h-9.15a.843.843 0 0 0-.945.945v15.657a.842.842 0 0 0 .94.944zm25.243.513a7.751 7.751 0 0 0 5.506-1.916.887.887 0 0 0 .081-1.377.762.762 0 0 0-1.242-.324 5.9 5.9 0 0 1-4.129 1.512c-3.563 0-5.8-2.861-5.8-7.207 0-4.292 2.3-7.045 5.777-7.045a5.956 5.956 0 0 1 3.509 1c.647.324.89.027 1.133-.62a.87.87 0 0 0-.405-1.323 8.055 8.055 0 0 0-4.372-1.107c-4.778 0-8.1 3.887-8.1 9.232-.006 5.668 3.233 9.177 8.038 9.177zm9.559-.27a.608.608 0 0 0 .648-.621c.243-1.214.513-2.537.891-3.886h8.206c.35 1.349.647 2.645.917 3.886a.608.608 0 0 0 .648.621 2.611 2.611 0 0 0 .918-.135c.7-.162.891-.459.756-1a61.782 61.782 0 0 0-5.615-15.629 1.789 1.789 0 0 0-1.754-1.08 1.763 1.763 0 0 0-1.728 1.107 56.749 56.749 0 0 0-5.587 15.6c-.135.539.054.836.755 1a2.5 2.5 0 0 0 .941.139zm2.021-6.475a47.289 47.289 0 0 1 3.536-8.962h.081a47.423 47.423 0 0 1 3.536 8.962h-7.153zm14.661 6.316a3.626 3.626 0 0 0 1.322 0 .537.537 0 0 0 .567-.566v-6.317a17.557 17.557 0 0 0 2.592.135 17.573 17.573 0 0 0 5.965 6.613 1.5 1.5 0 0 0 1.917-.081c.458-.35.7-.782.161-1.133a16.291 16.291 0 0 1-5.587-5.669c2.834-.594 4.643-2.483 4.643-5.317 0-3.374-2.942-5.345-7.234-5.345a34.418 34.418 0 0 0-4.076.162.914.914 0 0 0-.81 1v15.953a.516.516 0 0 0 .54.564zm4.562-8.691a17.957 17.957 0 0 1-2.673-.135v-6.883c.621-.054 1.377-.081 2.43-.081 2.753-.054 4.723 1.187 4.723 3.482 0 2.32-1.754 3.616-4.48 3.616zm11.719 8.61h9.2c.54 0 .567-.485.567-1.025 0-.513-.027-.945-.513-.945h-7.774V128.3h6.533c.458 0 .512-.458.512-1 0-.513 0-.972-.539-.972h-6.506v-5.668h7.693c.459 0 .513-.459.513-1 0-.513 0-.972-.54-.972H235.3a.843.843 0 0 0-.945.945v15.657a.842.842 0 0 0 .945.944zm12.434-15.321a.816.816 0 0 0 .393 0 .2.2 0 0 0 .173-.236v-3.055h.977c.157 0 .236-.126.236-.347a.252.252 0 0 0-.236-.314h-2.724c-.174 0-.237.141-.237.346s.063.315.237.315h.992v3.055a.206.206 0 0 0 .189.235zm2.377.016a.24.24 0 0 0 .252-.252 15.046 15.046 0 0 1 .189-1.827l.095-.724h.031c.063.2.158.456.236.693.174.488.331 1.008.52 1.685a.329.329 0 0 0 .378.3.352.352 0 0 0 .394-.3c.173-.677.33-1.181.488-1.67l.252-.724h.031c.048.236.079.52.111.756a15.934 15.934 0 0 1 .173 1.811.26.26 0 0 0 .252.252.622.622 0 0 0 .3-.016.225.225 0 0 0 .2-.283 20.741 20.741 0 0 0-.473-3.292.448.448 0 0 0-.472-.377.46.46 0 0 0-.473.314 19.622 19.622 0 0 0-.771 2.142 22.773 22.773 0 0 0-.788-2.142.458.458 0 0 0-.472-.314.431.431 0 0 0-.457.377 17.409 17.409 0 0 0-.488 3.292.232.232 0 0 0 .2.283.577.577 0 0 0 .292.015z" transform="translate(-45.719 -116.969)" style="fill:#001f53;fill-rule:evenodd"/></svg></svg>