<svg width="262" height="65" xmlns="http://www.w3.org/2000/svg" xmlns:xlink="http://www.w3.org/1999/xlink"><svg width="91.88" height="15.72" viewBox="-1 -1 91.88 15.72" y="49.19" xmlns="http://www.w3.org/2000/svg"><path data-name="COMPRA AQUÍ" d="M186.957 54.466a4.347 4.347 0 0 0 3.008-1 .576.576 0 0 0 .028-.874.5.5 0 0 0-.816-.243 2.853 2.853 0 0 1-2.034.688c-1.761 0-2.835-1.432-2.835-3.552s1.088-3.423 2.807-3.423a3.2 3.2 0 0 1 1.761.458c.416.2.588.014.745-.43a.546.546 0 0 0-.243-.845A4.431 4.431 0 0 0 187 44.7c-2.606 0-4.382 2.091-4.382 4.9 0 2.975 1.747 4.866 4.339 4.866zm8.319 0c2.636 0 4.311-1.847 4.326-4.941.014-2.936-1.476-4.855-4.225-4.855-2.636 0-4.325 1.848-4.325 4.941 0 2.964 1.475 4.855 4.224 4.855zm.029-1.275c-1.776 0-2.492-1.547-2.535-3.638-.043-2.163.831-3.58 2.592-3.58s2.507 1.475 2.535 3.552c.043 2.175-.845 3.652-2.592 3.666zm6.658 1.06a.446.446 0 0 0 .458-.473c.086-1.676.2-2.993.372-4.239.129-.859.229-1.919.4-2.735h.029c.286.687.6 1.7.888 2.506a75.59 75.59 0 0 1 1.246 4 .676.676 0 0 0 .788.63.7.7 0 0 0 .816-.63c.458-1.69.845-2.922 1.232-4.024.286-.788.615-1.762.9-2.478h.028c.172.816.287 1.89.4 2.764.172 1.232.3 2.621.373 4.211a.446.446 0 0 0 .458.473 2.552 2.552 0 0 0 .874-.043.4.4 0 0 0 .358-.516 54.126 54.126 0 0 0-1.16-7.92 1 1 0 0 0-1.089-.9 1.083 1.083 0 0 0-1.145.773 48.744 48.744 0 0 0-2.005 5.571h-.029a53.974 53.974 0 0 0-1.991-5.571 1.1 1.1 0 0 0-1.146-.773.99.99 0 0 0-1.088.9 49.729 49.729 0 0 0-1.174 7.92.419.419 0 0 0 .358.516 2.418 2.418 0 0 0 .849.038zm11.741-.029a2.942 2.942 0 0 0 1 0 .352.352 0 0 0 .33-.372v-2.922a12.37 12.37 0 0 0 1.289.057c2.32 0 3.866-1.017 3.866-3.122 0-2.019-1.589-3.036-4.038-3.036a15.033 15.033 0 0 0-2.263.114.572.572 0 0 0-.516.63v8.279a.342.342 0 0 0 .328.372zm2.535-4.468a9.5 9.5 0 0 1-1.2-.057v-3.609c.286-.029.63-.043 1.1-.043 1.375-.014 2.364.487 2.364 1.833-.003 1.322-.846 1.876-2.264 1.876zm5.712 4.468a2.948 2.948 0 0 0 1 0 .352.352 0 0 0 .329-.372v-3.208a8.3 8.3 0 0 0 1.046.057 9.969 9.969 0 0 0 2.964 3.423.977.977 0 0 0 1.289-.029c.272-.215.473-.516.143-.745a9.958 9.958 0 0 1-2.75-2.821 2.793 2.793 0 0 0 2.321-2.821c0-1.847-1.59-2.879-3.9-2.879a15.033 15.033 0 0 0-2.263.114.571.571 0 0 0-.515.63v8.279a.342.342 0 0 0 .336.372zm2.549-4.769a7.416 7.416 0 0 1-1.217-.072V46.1c.3-.029.63-.029 1.1-.043 1.217-.029 2.205.5 2.205 1.661s-.827 1.735-2.088 1.735zm6.529 4.869a.407.407 0 0 0 .429-.43c.115-.544.244-1.189.43-1.862h4a16.005 16.005 0 0 1 .429 1.862.4.4 0 0 0 .43.43 2.411 2.411 0 0 0 .645-.072c.515-.115.63-.329.544-.716a34.434 34.434 0 0 0-2.879-7.977 1.2 1.2 0 0 0-1.189-.7 1.167 1.167 0 0 0-1.16.73 32.823 32.823 0 0 0-2.864 7.948c-.086.387.043.587.544.716a2.224 2.224 0 0 0 .641.072zm1.217-3.595a23.556 23.556 0 0 1 1.618-4.211h.058a25.94 25.94 0 0 1 1.6 4.211h-3.28zm10.354 3.596a.408.408 0 0 0 .43-.43c.114-.544.243-1.189.429-1.862h4a16.23 16.23 0 0 1 .43 1.862.4.4 0 0 0 .429.43 2.411 2.411 0 0 0 .645-.072c.515-.115.63-.329.544-.716a34.434 34.434 0 0 0-2.879-7.977 1.2 1.2 0 0 0-1.188-.7 1.165 1.165 0 0 0-1.16.73 32.785 32.785 0 0 0-2.865 7.948c-.086.387.043.587.545.716a2.217 2.217 0 0 0 .64.071zm1.217-3.595a23.554 23.554 0 0 1 1.619-4.211h.057a25.94 25.94 0 0 1 1.6 4.211h-3.28zm15.351 4.34a20.043 20.043 0 0 1-2.449-1.117c1.361-.759 2.148-2.291 2.163-4.425.014-2.936-1.475-4.855-4.225-4.855-2.635 0-4.325 1.848-4.325 4.941 0 2.965 1.475 4.855 4.225 4.855.157 0 .3 0 .444-.014a20.865 20.865 0 0 0 2.821 1.532 1.151 1.151 0 0 0 1.189-.229c.389-.245.556-.545.155-.689zm-7.118-5.514c-.043-2.163.831-3.58 2.593-3.58 1.747-.014 2.506 1.475 2.534 3.552.043 2.177-.845 3.652-2.592 3.666-1.778-.001-2.494-1.548-2.537-3.639zm12.186 4.841c2.291 0 3.552-1.232 3.552-3.495v-5.7a.354.354 0 0 0-.358-.358 2.044 2.044 0 0 0-.931 0 .351.351 0 0 0-.344.358v5.958a1.919 1.919 0 1 1-3.838 0V45.2a.342.342 0 0 0-.344-.358 2.235 2.235 0 0 0-.974 0 .342.342 0 0 0-.344.358v5.7c-.002 2.263 1.245 3.494 3.579 3.494zm5.54-9.868v9.653h1.246v-9.653h-1.246zm1.189-2.191-1.318 1.676h1.017l1.833-1.676h-1.532z" transform="translate(-182.625 -42.344)" style="fill:#fff;fill-rule:evenodd"/></svg><svg width="261.5" height="15.25" viewBox="-1 -1 261.5 15.25" xmlns="http://www.w3.org/2000/svg"><path data-name="*Remoción mecánica por medio del arrastre de las bacterias Esch" d="M32.585 82.272a.107.107 0 0 0 .168-.042l.294-.51.3.5a.109.109 0 0 0 .174.036l.1-.066a.107.107 0 0 0 .018-.174l-.408-.438.57-.138a.111.111 0 0 0 .09-.156l-.042-.1a.1.1 0 0 0-.156-.072l-.528.264.06-.582a.112.112 0 0 0-.12-.132h-.118a.107.107 0 0 0-.12.132l.06.582-.54-.258a.1.1 0 0 0-.156.072l-.036.1a.106.106 0 0 0 .09.15l.576.144-.4.438a.1.1 0 0 0 .018.174zm2.28 2.6a.806.806 0 0 0 .294 0 .119.119 0 0 0 .126-.126v-1.4a3.9 3.9 0 0 0 .576.03 3.906 3.906 0 0 0 1.325 1.469.333.333 0 0 0 .426-.018c.1-.078.156-.174.036-.252a3.619 3.619 0 0 1-1.241-1.259 1.173 1.173 0 0 0 1.032-1.181c0-.749-.654-1.187-1.607-1.187a7.645 7.645 0 0 0-.905.036.2.2 0 0 0-.18.222v3.544a.115.115 0 0 0 .119.124zm1.013-1.931a3.988 3.988 0 0 1-.594-.03v-1.527c.138-.012.306-.018.54-.018a.865.865 0 0 1 1.049.773.841.841 0 0 1-.994.805zm2.6 1.913h2.045c.12 0 .126-.108.126-.228s-.006-.21-.114-.21h-1.722v-1.323h1.451c.1 0 .114-.1.114-.222s0-.216-.12-.216h-1.445V81.4h1.709c.1 0 .114-.1.114-.222s0-.216-.12-.216h-2.033a.187.187 0 0 0-.21.21v3.478a.187.187 0 0 0 .21.206zm3.2.024a.143.143 0 0 0 .156-.15c.036-.744.1-1.325.18-1.925.06-.4.126-.84.2-1.217h.012c.144.336.294.78.426 1.157.192.54.354 1.085.54 1.763a.251.251 0 0 0 .282.246.256.256 0 0 0 .294-.246c.174-.69.342-1.235.528-1.763.132-.378.288-.8.438-1.157h.012c.078.378.15.834.21 1.229.084.594.144 1.223.18 1.913a.136.136 0 0 0 .15.15.81.81 0 0 0 .27-.012.14.14 0 0 0 .126-.168 21.61 21.61 0 0 0-.5-3.442.346.346 0 0 0-.372-.306.368.368 0 0 0-.39.258 22.066 22.066 0 0 0-.923 2.657h-.005a20.449 20.449 0 0 0-.93-2.657.363.363 0 0 0-.378-.258.336.336 0 0 0-.372.312A19.332 19.332 0 0 0 41.3 84.7a.134.134 0 0 0 .12.168.781.781 0 0 0 .267.012zm6.287.1a1.79 1.79 0 0 0 1.763-2.069A1.739 1.739 0 0 0 48 80.875a1.787 1.787 0 0 0-1.763 2.069 1.742 1.742 0 0 0 1.738 2.032zm.012-.42c-.8 0-1.181-.69-1.193-1.631-.012-.984.4-1.625 1.205-1.625.792 0 1.181.678 1.193 1.613.018.976-.398 1.642-1.195 1.642zm4.188.414a1.721 1.721 0 0 0 1.223-.426.2.2 0 0 0 .018-.306.169.169 0 0 0-.276-.072 1.31 1.31 0 0 1-.918.336 1.375 1.375 0 0 1-1.289-1.6 1.354 1.354 0 0 1 1.283-1.565 1.322 1.322 0 0 1 .779.222c.144.072.2.006.252-.138a.193.193 0 0 0-.09-.294 1.791 1.791 0 0 0-.971-.246 1.863 1.863 0 0 0-1.8 2.051 1.8 1.8 0 0 0 1.799 2.036zm2.119-.1a.806.806 0 0 0 .294 0 .119.119 0 0 0 .126-.126v-3.691a.116.116 0 0 0-.126-.126.806.806 0 0 0-.294 0 .112.112 0 0 0-.12.126v3.694a.115.115 0 0 0 .129.125zm2.459-4.192 1.139-.558a.1.1 0 0 0 .048-.144.812.812 0 0 0-.114-.228.1.1 0 0 0-.156-.036l-1.073.666c-.09.054-.06.12-.024.2.064.109.118.139.19.103zm.468 4.294a1.79 1.79 0 0 0 1.763-2.069 1.739 1.739 0 0 0-1.733-2.033 1.787 1.787 0 0 0-1.763 2.069 1.742 1.742 0 0 0 1.743 2.035zm.012-.42c-.8 0-1.181-.69-1.193-1.631-.012-.984.4-1.625 1.205-1.625.792 0 1.181.678 1.193 1.613.016.98-.398 1.646-1.195 1.646zm2.653.312a.612.612 0 0 0 .276 0 .119.119 0 0 0 .126-.126v-2.168c0-.276-.012-.588-.024-.84h.012c.114.2.294.528.45.761l1.451 2.225a.3.3 0 0 0 .27.138h.108a.2.2 0 0 0 .222-.222v-3.567a.114.114 0 0 0-.126-.126.612.612 0 0 0-.276-.006.124.124 0 0 0-.126.132l.015 2.233c0 .264.012.54.018.774h-.012c-.1-.168-.264-.5-.414-.726L60.383 81.1a.294.294 0 0 0-.264-.144h-.138a.2.2 0 0 0-.222.222v3.562a.116.116 0 0 0 .126.128zm5.208.012a.143.143 0 0 0 .156-.15c.036-.744.1-1.325.18-1.925.06-.4.126-.84.2-1.217h.012c.144.336.294.78.426 1.157.192.54.354 1.085.54 1.763a.251.251 0 0 0 .282.246.256.256 0 0 0 .294-.246c.174-.69.342-1.235.528-1.763.132-.378.288-.8.438-1.157h.012c.078.378.15.834.21 1.229.084.594.144 1.223.18 1.913a.136.136 0 0 0 .15.15.81.81 0 0 0 .27-.012.14.14 0 0 0 .138-.166 21.622 21.622 0 0 0-.5-3.442.346.346 0 0 0-.372-.306.368.368 0 0 0-.39.258 22.049 22.049 0 0 0-.923 2.657H66.9a20.449 20.449 0 0 0-.93-2.657.363.363 0 0 0-.378-.258.336.336 0 0 0-.372.312 19.332 19.332 0 0 0-.51 3.436.134.134 0 0 0 .12.168.782.782 0 0 0 .263.012zm5.04-.024h2.045c.12 0 .126-.108.126-.228s-.006-.21-.114-.21h-1.718v-1.323h1.451c.1 0 .114-.1.114-.222s0-.216-.12-.216h-1.445V81.4h1.709c.1 0 .114-.1.114-.222s0-.216-.12-.216h-2.033a.187.187 0 0 0-.21.21v3.478a.187.187 0 0 0 .21.206zm4.439.114a1.721 1.721 0 0 0 1.223-.426.2.2 0 0 0 .018-.306.169.169 0 0 0-.276-.072 1.31 1.31 0 0 1-.917.336 1.375 1.375 0 0 1-1.289-1.6 1.354 1.354 0 0 1 1.283-1.565 1.323 1.323 0 0 1 .78.222c.144.072.2.006.252-.138a.193.193 0 0 0-.09-.294 1.791 1.791 0 0 0-.971-.246 1.863 1.863 0 0 0-1.8 2.051 1.8 1.8 0 0 0 1.796 2.04zm2.922-4.288 1.139-.558a.1.1 0 0 0 .048-.144.812.812 0 0 0-.114-.228.1.1 0 0 0-.156-.036l-1.073.666c-.09.054-.06.12-.024.2.064.109.118.139.19.103zm-.785 4.23a.135.135 0 0 0 .144-.138c.054-.27.114-.564.2-.863h1.823c.078.3.144.588.2.863a.135.135 0 0 0 .144.138.58.58 0 0 0 .2-.03c.156-.036.2-.1.168-.222a13.729 13.729 0 0 0-1.247-3.472.4.4 0 0 0-.39-.24.392.392 0 0 0-.384.246 12.607 12.607 0 0 0-1.241 3.466c-.03.12.012.186.168.222a.554.554 0 0 0 .215.03zm.45-1.439a10.513 10.513 0 0 1 .786-1.991h.018a10.513 10.513 0 0 1 .785 1.991h-1.592zm3.264 1.4a.612.612 0 0 0 .276 0 .119.119 0 0 0 .126-.126v-2.173c0-.276-.012-.588-.024-.84h.008c.114.2.294.528.45.761l1.45 2.226a.3.3 0 0 0 .27.138h.11a.2.2 0 0 0 .222-.222v-3.568a.114.114 0 0 0-.126-.126.612.612 0 0 0-.276-.006.124.124 0 0 0-.126.132l.006 2.233c0 .264.012.54.018.774h-.012c-.1-.168-.264-.5-.414-.726L80.909 81.1a.294.294 0 0 0-.264-.144h-.138a.2.2 0 0 0-.222.222v3.562a.116.116 0 0 0 .126.128zm3.972.006a.806.806 0 0 0 .294 0 .119.119 0 0 0 .126-.126v-3.696a.116.116 0 0 0-.126-.126.806.806 0 0 0-.294 0 .112.112 0 0 0-.12.126v3.694a.115.115 0 0 0 .117.125zm2.981.1a1.722 1.722 0 0 0 1.223-.426.2.2 0 0 0 .018-.306.169.169 0 0 0-.276-.072 1.31 1.31 0 0 1-.918.336 1.375 1.375 0 0 1-1.289-1.6 1.354 1.354 0 0 1 1.283-1.565 1.323 1.323 0 0 1 .78.222c.144.072.2.006.252-.138a.193.193 0 0 0-.09-.294 1.791 1.791 0 0 0-.972-.246 1.863 1.863 0 0 0-1.8 2.051 1.8 1.8 0 0 0 1.786 2.031zm2.125-.06a.135.135 0 0 0 .144-.138c.054-.27.114-.564.2-.863h1.823c.078.3.144.588.2.863a.135.135 0 0 0 .141.131.58.58 0 0 0 .2-.03c.156-.036.2-.1.168-.222a13.729 13.729 0 0 0-1.247-3.472.4.4 0 0 0-.39-.24.392.392 0 0 0-.384.246 12.61 12.61 0 0 0-1.241 3.466c-.03.12.012.186.168.222a.554.554 0 0 0 .215.03zm.45-1.439a10.513 10.513 0 0 1 .785-1.991h.018a10.52 10.52 0 0 1 .786 1.991h-1.592zm4.338 1.4a.806.806 0 0 0 .294 0 .119.119 0 0 0 .126-.126v-1.287a5.061 5.061 0 0 0 .612.024 1.334 1.334 0 0 0 1.6-1.283c0-.834-.654-1.259-1.667-1.259a7.644 7.644 0 0 0-.906.036.2.2 0 0 0-.18.222v3.544a.115.115 0 0 0 .118.125zm1.013-1.8a3.857 3.857 0 0 1-.594-.036v-1.664c.138-.012.306-.018.54-.018a.9.9 0 0 1 1.115.846.872.872 0 0 1-1.064.869zm3.924 1.9a1.791 1.791 0 0 0 1.763-2.069 1.739 1.739 0 0 0-1.733-2.033 1.787 1.787 0 0 0-1.763 2.069 1.742 1.742 0 0 0 1.73 2.031zm.012-.42c-.8 0-1.181-.69-1.193-1.631-.012-.984.4-1.625 1.205-1.625.792 0 1.181.678 1.193 1.613.003.976-.41 1.642-1.208 1.642zm2.647.318a.807.807 0 0 0 .294 0 .119.119 0 0 0 .126-.126v-1.4a3.885 3.885 0 0 0 .575.03 3.907 3.907 0 0 0 1.326 1.469.331.331 0 0 0 .425-.018c.1-.078.156-.174.036-.252a3.625 3.625 0 0 1-1.241-1.259 1.172 1.172 0 0 0 1.031-1.181c0-.749-.653-1.187-1.607-1.187a7.644 7.644 0 0 0-.9.036.2.2 0 0 0-.18.222v3.544a.115.115 0 0 0 .112.12zm1.013-1.931a3.976 3.976 0 0 1-.593-.03v-1.531c.138-.012.3-.018.539-.018a.866.866 0 0 1 1.05.773.841.841 0 0 1-.999.805zm3.751 1.937a.143.143 0 0 0 .156-.15c.036-.744.1-1.325.18-1.925.059-.4.125-.84.2-1.217h.012c.144.336.294.78.426 1.157.192.54.354 1.085.54 1.763a.251.251 0 0 0 .282.246.256.256 0 0 0 .294-.246c.173-.69.341-1.235.527-1.763.132-.378.288-.8.438-1.157h.012c.078.378.15.834.21 1.229.084.594.144 1.223.18 1.913a.136.136 0 0 0 .15.15.811.811 0 0 0 .27-.012.14.14 0 0 0 .125-.168 21.5 21.5 0 0 0-.5-3.442.346.346 0 0 0-.372-.306.369.369 0 0 0-.39.258 22.046 22.046 0 0 0-.923 2.657h-.012a20.436 20.436 0 0 0-.93-2.657.363.363 0 0 0-.378-.258.336.336 0 0 0-.371.312 19.331 19.331 0 0 0-.51 3.436.134.134 0 0 0 .12.168.782.782 0 0 0 .261.01zm5.04-.024h2.045c.12 0 .126-.108.126-.228s-.006-.21-.114-.21h-1.727v-1.327h1.451c.1 0 .114-.1.114-.222s0-.216-.12-.216h-1.445V81.4h1.709c.1 0 .114-.1.114-.222s0-.216-.12-.216h-2.033a.187.187 0 0 0-.21.21v3.478a.187.187 0 0 0 .207.206zm3.791.048a2.5 2.5 0 0 0 1.547-.432 1.961 1.961 0 0 0 .66-1.613c0-1.277-.684-1.9-2.117-1.9a5.85 5.85 0 0 0-.785.048.185.185 0 0 0-.168.2v3.43a.189.189 0 0 0 .18.222 5.551 5.551 0 0 0 .68.039zm.126-.444c-.156 0-.294-.006-.455-.018v-3.03a3.807 3.807 0 0 1 .485-.03 1.312 1.312 0 0 1 1.511 1.481 1.659 1.659 0 0 1-.4 1.211 1.509 1.509 0 0 1-1.144.385zm2.953.414a.807.807 0 0 0 .294 0 .119.119 0 0 0 .125-.126v-3.695a.116.116 0 0 0-.125-.126.807.807 0 0 0-.294 0 .112.112 0 0 0-.12.126v3.694a.115.115 0 0 0 .117.125zm2.927.1a1.791 1.791 0 0 0 1.763-2.069 1.739 1.739 0 0 0-1.733-2.033 1.787 1.787 0 0 0-1.763 2.069 1.742 1.742 0 0 0 1.73 2.033zm.012-.42c-.8 0-1.181-.69-1.193-1.631-.012-.984.395-1.625 1.2-1.625.791 0 1.181.678 1.193 1.613.011.978-.406 1.644-1.203 1.644zm4.47.348a2.5 2.5 0 0 0 1.547-.432 1.961 1.961 0 0 0 .66-1.613c0-1.277-.684-1.9-2.117-1.9a5.85 5.85 0 0 0-.785.048.185.185 0 0 0-.168.2v3.43a.189.189 0 0 0 .18.222 5.538 5.538 0 0 0 .68.041zm.126-.444c-.156 0-.294-.006-.456-.018v-3.028a3.835 3.835 0 0 1 .486-.03 1.312 1.312 0 0 1 1.511 1.481 1.659 1.659 0 0 1-.4 1.211 1.509 1.509 0 0 1-1.144.385zm3.043.4h2.044c.12 0 .126-.108.126-.228s-.006-.21-.114-.21h-1.727v-1.329h1.452c.1 0 .114-.1.114-.222s0-.216-.12-.216h-1.446V81.4h1.709c.1 0 .114-.1.114-.222s0-.216-.12-.216h-2.032a.187.187 0 0 0-.21.21v3.478a.187.187 0 0 0 .207.206zm3.138 0h2.034c.126 0 .132-.1.132-.228s-.006-.216-.12-.216h-1.721v-3.349a.119.119 0 0 0-.126-.126.8.8 0 0 0-.293 0 .115.115 0 0 0-.12.126v3.58a.187.187 0 0 0 .211.209zm4.034.05a.135.135 0 0 0 .144-.138c.054-.27.114-.564.2-.863h1.823c.078.3.144.588.2.863a.135.135 0 0 0 .144.138.58.58 0 0 0 .2-.03c.156-.036.2-.1.168-.222a13.759 13.759 0 0 0-1.247-3.472.4.4 0 0 0-.39-.24.392.392 0 0 0-.384.246 12.6 12.6 0 0 0-1.241 3.466c-.03.12.012.186.168.222a.552.552 0 0 0 .215.03zm.45-1.439a10.513 10.513 0 0 1 .786-1.991h.018a10.514 10.514 0 0 1 .785 1.991h-1.589zm3.258 1.4a.807.807 0 0 0 .294 0 .119.119 0 0 0 .126-.126v-1.4a3.9 3.9 0 0 0 .576.03 3.9 3.9 0 0 0 1.325 1.469.333.333 0 0 0 .426-.018c.1-.078.156-.174.036-.252a3.608 3.608 0 0 1-1.241-1.259 1.173 1.173 0 0 0 1.031-1.181c0-.749-.654-1.187-1.607-1.187a7.653 7.653 0 0 0-.906.036.2.2 0 0 0-.18.222v3.544a.115.115 0 0 0 .12.125zm1.014-1.931a3.99 3.99 0 0 1-.594-.03v-1.526c.138-.012.306-.018.54-.018a.865.865 0 0 1 1.049.773.84.84 0 0 1-.995.805zm2.514 1.931a.807.807 0 0 0 .294 0 .119.119 0 0 0 .126-.126v-1.4a3.9 3.9 0 0 0 .576.03 3.9 3.9 0 0 0 1.325 1.469.333.333 0 0 0 .426-.018c.1-.078.156-.174.036-.252a3.608 3.608 0 0 1-1.241-1.259 1.173 1.173 0 0 0 1.031-1.181c0-.749-.654-1.187-1.607-1.187a7.653 7.653 0 0 0-.906.036.2.2 0 0 0-.18.222v3.544a.115.115 0 0 0 .12.125zm1.014-1.931a3.99 3.99 0 0 1-.594-.03v-1.526c.138-.012.306-.018.54-.018a.865.865 0 0 1 1.049.773.841.841 0 0 1-.995.805zm2.64 1.967a.135.135 0 0 0 .144-.138c.054-.27.114-.564.2-.863h1.823c.078.3.144.588.2.863a.135.135 0 0 0 .144.138.58.58 0 0 0 .2-.03c.156-.036.2-.1.168-.222a13.723 13.723 0 0 0-1.248-3.472.4.4 0 0 0-.389-.24.392.392 0 0 0-.384.246 12.606 12.606 0 0 0-1.242 3.466c-.029.12.012.186.168.222a.555.555 0 0 0 .216.033zm.45-1.439a10.513 10.513 0 0 1 .786-1.991h.018a10.581 10.581 0 0 1 .785 1.991h-1.589zm4.374 1.463a1.311 1.311 0 0 0 1.475-1.265.886.886 0 0 0-.564-.84c-.4-.2-1.031-.252-1.385-.408a.5.5 0 0 1-.4-.486c-.006-.372.312-.606.876-.606a1.649 1.649 0 0 1 .935.234c.138.078.2.042.258-.12a.2.2 0 0 0-.06-.288 2.027 2.027 0 0 0-1.157-.282 1.179 1.179 0 0 0-1.392 1.12.879.879 0 0 0 .534.828 11.047 11.047 0 0 0 1.373.432.568.568 0 0 1 .456.534.772.772 0 0 1-.947.7 1.517 1.517 0 0 1-1.1-.426c-.126-.108-.192-.054-.282.126a.216.216 0 0 0 .042.306 2.007 2.007 0 0 0 1.338.444zm3.192-.06a.84.84 0 0 0 .3 0 .114.114 0 0 0 .119-.126V81.4h1.14c.1 0 .126-.084.126-.234s-.024-.21-.126-.21H153.9c-.09 0-.126.09-.126.234s.03.21.126.21h1.182v3.346a.115.115 0 0 0 .124.128zm2.5 0a.807.807 0 0 0 .294 0 .119.119 0 0 0 .126-.126v-1.4a3.9 3.9 0 0 0 .576.03 3.9 3.9 0 0 0 1.325 1.469.333.333 0 0 0 .426-.018c.1-.078.156-.174.036-.252a3.619 3.619 0 0 1-1.242-1.259 1.173 1.173 0 0 0 1.032-1.181c0-.749-.654-1.187-1.607-1.187a7.653 7.653 0 0 0-.906.036.2.2 0 0 0-.18.222v3.544a.115.115 0 0 0 .114.125zm1.014-1.931a3.99 3.99 0 0 1-.594-.03v-1.526c.138-.012.306-.018.54-.018a.865.865 0 0 1 1.049.773.841.841 0 0 1-.999.805zm2.6 1.913h2.045c.12 0 .126-.108.126-.228s-.006-.21-.114-.21h-1.727v-1.322h1.45c.1 0 .114-.1.114-.222s0-.216-.12-.216h-1.444V81.4h1.709c.1 0 .114-.1.114-.222s0-.216-.12-.216h-2.033a.187.187 0 0 0-.21.21v3.478a.187.187 0 0 0 .21.206zm4.872.048a2.506 2.506 0 0 0 1.547-.432 1.961 1.961 0 0 0 .66-1.613c0-1.277-.684-1.9-2.117-1.9a5.866 5.866 0 0 0-.786.048.185.185 0 0 0-.168.2v3.43a.189.189 0 0 0 .18.222 5.568 5.568 0 0 0 .684.044zm.126-.444c-.156 0-.294-.006-.456-.018v-3.025a3.835 3.835 0 0 1 .486-.03 1.312 1.312 0 0 1 1.511 1.481 1.655 1.655 0 0 1-.4 1.211 1.508 1.508 0 0 1-1.141.385zm3.042.4h2.045c.12 0 .126-.108.126-.228s-.006-.21-.114-.21h-1.727v-1.326h1.451c.1 0 .114-.1.114-.222s0-.216-.12-.216h-1.445V81.4h1.71c.1 0 .114-.1.114-.222s0-.216-.12-.216h-2.034a.187.187 0 0 0-.21.21v3.478a.187.187 0 0 0 .21.206zm4.218 0h2.039c.126 0 .132-.1.132-.228s-.006-.216-.12-.216h-1.721v-3.346a.119.119 0 0 0-.126-.126.807.807 0 0 0-.294 0 .115.115 0 0 0-.12.126v3.58a.187.187 0 0 0 .21.209zm3.022.053a.135.135 0 0 0 .144-.138c.054-.27.114-.564.2-.863h1.823c.078.3.144.588.2.863a.135.135 0 0 0 .144.138.575.575 0 0 0 .2-.03c.156-.036.2-.1.168-.222a13.72 13.72 0 0 0-1.247-3.472.4.4 0 0 0-.39-.24.392.392 0 0 0-.384.246 12.636 12.636 0 0 0-1.241 3.466c-.03.12.012.186.168.222a.555.555 0 0 0 .215.03zm.45-1.439a10.514 10.514 0 0 1 .785-1.991h.018a10.513 10.513 0 0 1 .786 1.991h-1.589zm4.373 1.463a1.311 1.311 0 0 0 1.475-1.265.885.885 0 0 0-.563-.84c-.4-.2-1.032-.252-1.385-.408a.5.5 0 0 1-.4-.486c-.006-.372.312-.606.875-.606a1.651 1.651 0 0 1 .936.234c.138.078.2.042.258-.12a.2.2 0 0 0-.06-.288 2.028 2.028 0 0 0-1.158-.282A1.179 1.179 0 0 0 180 81.99a.879.879 0 0 0 .534.828 10.994 10.994 0 0 0 1.373.432.568.568 0 0 1 .456.534.773.773 0 0 1-.948.7 1.515 1.515 0 0 1-1.1-.426c-.126-.108-.192-.054-.282.126a.216.216 0 0 0 .042.306 2.006 2.006 0 0 0 1.344.444zm4.158-.024c1.032 0 1.649-.348 1.649-1.211a.855.855 0 0 0-.611-.852v-.011a.947.947 0 0 0 .486-.876 1.178 1.178 0 0 0-1.428-1.007 5.364 5.364 0 0 0-.833.048.185.185 0 0 0-.168.2v3.448a.189.189 0 0 0 .18.222 5.81 5.81 0 0 0 .721.039zm-.381-2.254V81.39c.167-.018.335-.018.5-.024a.7.7 0 0 1 .864.648.565.565 0 0 1-.6.642h-.764zm.455 1.829a3.842 3.842 0 0 1-.455-.024v-1.38h.779a.58.58 0 0 1 .708.606.847.847 0 0 1-1.032.798zm2.445.425a.135.135 0 0 0 .144-.138c.054-.27.114-.564.2-.863h1.823c.078.3.143.588.2.863a.135.135 0 0 0 .144.138.58.58 0 0 0 .2-.03c.156-.036.2-.1.168-.222a13.72 13.72 0 0 0-1.247-3.472.4.4 0 0 0-.39-.24.392.392 0 0 0-.384.246 12.636 12.636 0 0 0-1.241 3.466c-.03.12.012.186.168.222a.555.555 0 0 0 .215.03zm.449-1.439a10.513 10.513 0 0 1 .786-1.991h.018a10.513 10.513 0 0 1 .786 1.991h-1.59zm4.65 1.5a1.72 1.72 0 0 0 1.223-.426.2.2 0 0 0 .018-.306.169.169 0 0 0-.276-.072 1.309 1.309 0 0 1-.917.336 1.375 1.375 0 0 1-1.289-1.6 1.354 1.354 0 0 1 1.283-1.565 1.318 1.318 0 0 1 .779.222c.144.072.2.006.252-.138a.193.193 0 0 0-.09-.294 1.789 1.789 0 0 0-.971-.246 1.862 1.862 0 0 0-1.8 2.051 1.8 1.8 0 0 0 1.789 2.037zm3.138-.1a.84.84 0 0 0 .3 0 .115.115 0 0 0 .12-.126V81.4h1.143c.1 0 .126-.084.126-.234s-.024-.21-.126-.21h-2.86c-.09 0-.126.09-.126.234s.03.21.126.21h1.181v3.346a.115.115 0 0 0 .12.128zm2.587-.018h2.044c.12 0 .126-.108.126-.228s-.006-.21-.114-.21h-1.727v-1.322h1.452c.1 0 .114-.1.114-.222s0-.216-.12-.216h-1.446V81.4h1.709c.1 0 .114-.1.114-.222s0-.216-.12-.216h-2.032a.187.187 0 0 0-.21.21v3.478a.187.187 0 0 0 .214.206zm3.048.018a.8.8 0 0 0 .293 0 .119.119 0 0 0 .126-.126v-1.4a3.9 3.9 0 0 0 .576.03 3.913 3.913 0 0 0 1.325 1.469.333.333 0 0 0 .426-.018c.1-.078.156-.174.036-.252a3.616 3.616 0 0 1-1.241-1.259 1.173 1.173 0 0 0 1.031-1.181c0-.749-.653-1.187-1.607-1.187a7.621 7.621 0 0 0-.905.036.2.2 0 0 0-.18.222v3.544a.115.115 0 0 0 .124.125zm1.013-1.931a3.99 3.99 0 0 1-.594-.03v-1.526c.138-.012.306-.018.54-.018a.865.865 0 0 1 1.049.773.84.84 0 0 1-.991.805zm2.515 1.931a.8.8 0 0 0 .293 0 .119.119 0 0 0 .126-.126v-3.69a.117.117 0 0 0-.126-.126.8.8 0 0 0-.293 0 .112.112 0 0 0-.12.126v3.694a.115.115 0 0 0 .12.125zm1.506.036a.134.134 0 0 0 .143-.138c.054-.27.114-.564.2-.863h1.823c.078.3.144.588.2.863a.135.135 0 0 0 .144.138.58.58 0 0 0 .2-.03c.156-.036.2-.1.168-.222a13.759 13.759 0 0 0-1.247-3.472.4.4 0 0 0-.39-.24.392.392 0 0 0-.384.246 12.6 12.6 0 0 0-1.241 3.466c-.03.12.012.186.168.222a.555.555 0 0 0 .22.033zm.449-1.439a10.513 10.513 0 0 1 .786-1.991h.018a10.447 10.447 0 0 1 .785 1.991h-1.589zm4.374 1.463a1.311 1.311 0 0 0 1.475-1.265.886.886 0 0 0-.564-.84c-.4-.2-1.031-.252-1.385-.408a.5.5 0 0 1-.4-.486c-.006-.372.312-.606.876-.606a1.645 1.645 0 0 1 .935.234c.138.078.2.042.258-.12a.2.2 0 0 0-.06-.288 2.024 2.024 0 0 0-1.157-.282 1.178 1.178 0 0 0-1.391 1.115.879.879 0 0 0 .533.828 11.008 11.008 0 0 0 1.374.432.568.568 0 0 1 .455.534.772.772 0 0 1-.947.7 1.517 1.517 0 0 1-1.1-.426c-.125-.108-.191-.054-.281.126a.216.216 0 0 0 .042.306 2 2 0 0 0 1.341.449zm3.462-.078h2.045c.12 0 .126-.108.126-.228s-.006-.21-.114-.21h-1.727v-1.322h1.451c.1 0 .114-.1.114-.222s0-.216-.12-.216h-1.445V81.4h1.709c.1 0 .114-.1.114-.222s0-.216-.12-.216H215.3a.187.187 0 0 0-.21.21v3.478a.187.187 0 0 0 .21.206zm4.164.078a1.311 1.311 0 0 0 1.475-1.265.886.886 0 0 0-.564-.84c-.4-.2-1.031-.252-1.385-.408a.5.5 0 0 1-.4-.486c-.006-.372.312-.606.876-.606a1.647 1.647 0 0 1 .935.234c.138.078.2.042.258-.12a.2.2 0 0 0-.06-.288 2.024 2.024 0 0 0-1.157-.282 1.178 1.178 0 0 0-1.391 1.115.878.878 0 0 0 .533.828 11.008 11.008 0 0 0 1.374.432.568.568 0 0 1 .455.534.772.772 0 0 1-.947.7 1.517 1.517 0 0 1-1.1-.426c-.126-.108-.192-.054-.281.126a.216.216 0 0 0 .042.306 2 2 0 0 0 1.341.449zm3.774.036a1.722 1.722 0 0 0 1.223-.426.2.2 0 0 0 .018-.306.169.169 0 0 0-.276-.072 1.311 1.311 0 0 1-.917.336 1.375 1.375 0 0 1-1.29-1.6 1.355 1.355 0 0 1 1.284-1.565 1.323 1.323 0 0 1 .779.222c.144.072.2.006.252-.138a.193.193 0 0 0-.09-.294 1.791 1.791 0 0 0-.971-.246 1.862 1.862 0 0 0-1.8 2.051 1.8 1.8 0 0 0 1.792 2.041zm4.865-4.042a.84.84 0 0 0-.3 0 .108.108 0 0 0-.114.126v1.6h-1.913v-1.6a.117.117 0 0 0-.126-.126.807.807 0 0 0-.294 0 .112.112 0 0 0-.12.126v3.694a.115.115 0 0 0 .12.126.807.807 0 0 0 .294 0 .119.119 0 0 0 .126-.126v-1.652h1.913v1.655a.11.11 0 0 0 .114.126.84.84 0 0 0 .3 0 .115.115 0 0 0 .12-.126v-3.693a.112.112 0 0 0-.114-.126zm1.291 3.928h2.045c.12 0 .126-.108.126-.228s-.006-.21-.114-.21h-1.727v-1.322h1.451c.1 0 .114-.1.114-.222s0-.216-.12-.216h-1.445V81.4h1.709c.1 0 .114-.1.114-.222s0-.216-.12-.216h-2.033a.187.187 0 0 0-.21.21v3.478a.187.187 0 0 0 .214.206zm3.048.018a.807.807 0 0 0 .294 0 .119.119 0 0 0 .126-.126v-1.4a3.9 3.9 0 0 0 .576.03 3.9 3.9 0 0 0 1.325 1.469.333.333 0 0 0 .426-.018c.1-.078.156-.174.036-.252a3.619 3.619 0 0 1-1.242-1.259 1.173 1.173 0 0 0 1.032-1.181c0-.749-.654-1.187-1.607-1.187a7.653 7.653 0 0 0-.906.036.2.2 0 0 0-.18.222v3.544a.115.115 0 0 0 .124.125zm1.014-1.931a3.99 3.99 0 0 1-.594-.03v-1.526c.138-.012.306-.018.54-.018a.865.865 0 0 1 1.049.773.841.841 0 0 1-.991.805zm2.514 1.931a.807.807 0 0 0 .294 0 .119.119 0 0 0 .126-.126v-3.69a.117.117 0 0 0-.126-.126.807.807 0 0 0-.294 0 .112.112 0 0 0-.12.126v3.694a.115.115 0 0 0 .124.125zm2.981.1a1.723 1.723 0 0 0 1.224-.426.2.2 0 0 0 .018-.306.169.169 0 0 0-.276-.072 1.311 1.311 0 0 1-.918.336 1.375 1.375 0 0 1-1.289-1.6 1.355 1.355 0 0 1 1.283-1.565 1.324 1.324 0 0 1 .78.222c.144.072.2.006.252-.138a.193.193 0 0 0-.09-.294 1.793 1.793 0 0 0-.972-.246 1.863 1.863 0 0 0-1.8 2.051 1.8 1.8 0 0 0 1.792 2.037zm4.866-4.042a.84.84 0 0 0-.3 0 .108.108 0 0 0-.114.126v1.6h-1.913v-1.6a.117.117 0 0 0-.126-.126.807.807 0 0 0-.294 0 .112.112 0 0 0-.12.126v3.694a.115.115 0 0 0 .12.126.807.807 0 0 0 .294 0 .119.119 0 0 0 .126-.126v-1.656h1.919v1.655a.11.11 0 0 0 .114.126.84.84 0 0 0 .3 0 .115.115 0 0 0 .12-.126v-3.693a.112.112 0 0 0-.122-.126zm1.2 3.946a.807.807 0 0 0 .294 0 .119.119 0 0 0 .126-.126v-3.694a.117.117 0 0 0-.126-.126.807.807 0 0 0-.294 0 .112.112 0 0 0-.12.126v3.694a.115.115 0 0 0 .125.125zm1.506.036a.135.135 0 0 0 .144-.138c.054-.27.114-.564.2-.863h1.823c.078.3.144.588.2.863a.135.135 0 0 0 .144.138.58.58 0 0 0 .2-.03c.155-.036.2-.1.167-.222a13.682 13.682 0 0 0-1.247-3.472.4.4 0 0 0-.39-.24.39.39 0 0 0-.383.246 12.606 12.606 0 0 0-1.242 3.466c-.03.12.012.186.168.222a.555.555 0 0 0 .221.029zm.45-1.439a10.581 10.581 0 0 1 .785-1.991h.018a10.513 10.513 0 0 1 .786 1.991h-1.589zm5.819 1.5a1.719 1.719 0 0 0 1.223-.426.2.2 0 0 0 .018-.306.168.168 0 0 0-.275-.072 1.311 1.311 0 0 1-.918.336 1.375 1.375 0 0 1-1.289-1.6 1.355 1.355 0 0 1 1.283-1.565 1.324 1.324 0 0 1 .78.222c.144.072.2.006.252-.138a.193.193 0 0 0-.09-.294 1.793 1.793 0 0 0-.972-.246 1.863 1.863 0 0 0-1.8 2.051 1.8 1.8 0 0 0 1.793 2.036zm3.486.006a1.79 1.79 0 0 0 1.763-2.069 1.738 1.738 0 0 0-1.733-2.033 1.787 1.787 0 0 0-1.763 2.069 1.742 1.742 0 0 0 1.738 2.031zm.012-.42c-.8 0-1.181-.69-1.193-1.631-.012-.984.4-1.625 1.205-1.625.792 0 1.181.678 1.193 1.613.014.976-.402 1.642-1.2 1.642zm2.737.3h2.039c.126 0 .132-.1.132-.228s-.006-.216-.12-.216h-1.721v-3.347a.119.119 0 0 0-.126-.126.807.807 0 0 0-.294 0 .115.115 0 0 0-.12.126v3.58a.187.187 0 0 0 .215.209zm2.952.018a.807.807 0 0 0 .294 0 .119.119 0 0 0 .126-.126v-3.695a.117.117 0 0 0-.126-.126.807.807 0 0 0-.294 0 .112.112 0 0 0-.12.126v3.694a.115.115 0 0 0 .125.125zm3.557 0a.807.807 0 0 0 .294 0 .119.119 0 0 0 .126-.126V83.3a6.464 6.464 0 0 0 1.235-2.087c.042-.108-.012-.186-.186-.234s-.281-.03-.329.114a5.528 5.528 0 0 1-.984 1.781 5.571 5.571 0 0 1-1-1.781c-.042-.15-.144-.162-.33-.12-.132.03-.246.1-.2.24a6.7 6.7 0 0 0 1.247 2.093v1.439a.115.115 0 0 0 .132.129zM21.323 92.934a1.311 1.311 0 0 0 1.477-1.265.886.886 0 0 0-.564-.84c-.4-.2-1.032-.252-1.385-.408a.5.5 0 0 1-.4-.486c-.006-.372.312-.606.876-.606a1.649 1.649 0 0 1 .935.234c.138.078.2.042.258-.12a.2.2 0 0 0-.06-.288 2.026 2.026 0 0 0-1.157-.282 1.179 1.179 0 0 0-1.391 1.115.879.879 0 0 0 .534.828 10.992 10.992 0 0 0 1.373.432.568.568 0 0 1 .456.534.773.773 0 0 1-.947.7 1.515 1.515 0 0 1-1.1-.426c-.126-.108-.192-.054-.282.126a.216.216 0 0 0 .042.306 2.005 2.005 0 0 0 1.335.446zm3.192-.06a.839.839 0 0 0 .3 0 .115.115 0 0 0 .12-.126V89.4h1.139c.1 0 .126-.084.126-.234s-.024-.21-.126-.21h-2.86c-.09 0-.126.09-.126.234s.03.21.126.21h1.181v3.346a.115.115 0 0 0 .12.128zm2.023.036a.135.135 0 0 0 .144-.138c.054-.27.114-.564.2-.863H28.7c.078.3.144.588.2.863a.135.135 0 0 0 .144.138.58.58 0 0 0 .2-.03c.156-.036.2-.1.168-.222a13.729 13.729 0 0 0-1.247-3.472.4.4 0 0 0-.39-.24.392.392 0 0 0-.384.246 12.61 12.61 0 0 0-1.241 3.466c-.03.12.012.186.168.222a.554.554 0 0 0 .219.03zm.45-1.439a10.52 10.52 0 0 1 .786-1.991h.018a10.52 10.52 0 0 1 .786 1.991h-1.591zm3.258 1.4a.806.806 0 0 0 .294 0 .119.119 0 0 0 .126-.126v-1.28a5.062 5.062 0 0 0 .612.024 1.334 1.334 0 0 0 1.6-1.283c0-.834-.654-1.259-1.667-1.259a7.644 7.644 0 0 0-.905.036.2.2 0 0 0-.18.222v3.544a.115.115 0 0 0 .119.125zm1.014-1.8a3.857 3.857 0 0 1-.594-.036v-1.657c.138-.012.306-.018.54-.018a.9.9 0 0 1 1.115.846.872.872 0 0 1-1.062.869zm5.183-2.147a.839.839 0 0 0-.3 0 .108.108 0 0 0-.114.126v1.6h-1.914v-1.6a.117.117 0 0 0-.126-.126.806.806 0 0 0-.294 0 .112.112 0 0 0-.12.126v3.694a.115.115 0 0 0 .12.126.806.806 0 0 0 .294 0 .119.119 0 0 0 .126-.126v-1.651h1.913v1.655a.11.11 0 0 0 .114.126.839.839 0 0 0 .3 0 .115.115 0 0 0 .12-.126v-3.693a.112.112 0 0 0-.12-.126zm2.179 3.946a.806.806 0 0 0 .294 0 .119.119 0 0 0 .126-.126V91.3a6.487 6.487 0 0 0 1.235-2.087c.042-.108-.012-.186-.186-.234s-.282-.03-.33.114a5.528 5.528 0 0 1-.983 1.781 5.574 5.574 0 0 1-1-1.781c-.042-.15-.144-.162-.33-.12-.132.03-.246.1-.2.24a6.68 6.68 0 0 0 1.252 2.096v1.439a.115.115 0 0 0 .121.126zm2.563-.018h2.039c.126 0 .132-.1.132-.228s-.006-.216-.12-.216h-1.723v-3.341a.119.119 0 0 0-.126-.126.806.806 0 0 0-.294 0 .115.115 0 0 0-.12.126v3.58a.187.187 0 0 0 .21.209zm4.289.12a1.79 1.79 0 0 0 1.763-2.069 1.739 1.739 0 0 0-1.737-2.028 1.787 1.787 0 0 0-1.763 2.069 1.742 1.742 0 0 0 1.735 2.032zm.012-.42c-.8 0-1.181-.69-1.193-1.631-.012-.984.4-1.625 1.205-1.625.791 0 1.181.678 1.193 1.613.009.982-.409 1.648-1.207 1.648zm4.188.414a1.721 1.721 0 0 0 1.223-.426.2.2 0 0 0 .018-.306.169.169 0 0 0-.276-.072 1.31 1.31 0 0 1-.917.336 1.375 1.375 0 0 1-1.289-1.6 1.354 1.354 0 0 1 1.283-1.565 1.323 1.323 0 0 1 .78.222c.144.072.2.006.252-.138a.193.193 0 0 0-.09-.294 1.791 1.791 0 0 0-.971-.246 1.863 1.863 0 0 0-1.8 2.051 1.8 1.8 0 0 0 1.785 2.042zm3.486.006a1.79 1.79 0 0 0 1.763-2.069 1.739 1.739 0 0 0-1.733-2.033 1.787 1.787 0 0 0-1.763 2.069 1.741 1.741 0 0 0 1.731 2.037zm.012-.42c-.8 0-1.181-.69-1.193-1.631-.012-.984.4-1.625 1.205-1.625.792 0 1.181.678 1.193 1.613.004.982-.409 1.648-1.207 1.648zm4.188.414a1.722 1.722 0 0 0 1.223-.426.2.2 0 0 0 .018-.306.169.169 0 0 0-.276-.072 1.31 1.31 0 0 1-.918.336 1.375 1.375 0 0 1-1.289-1.6 1.354 1.354 0 0 1 1.282-1.562 1.323 1.323 0 0 1 .78.222c.144.072.2.006.252-.138a.193.193 0 0 0-.09-.294 1.791 1.791 0 0 0-.972-.246 1.863 1.863 0 0 0-1.8 2.051 1.8 1.8 0 0 0 1.788 2.039zm3.54 0a1.722 1.722 0 0 0 1.223-.426.2.2 0 0 0 .018-.306.169.169 0 0 0-.276-.072 1.31 1.31 0 0 1-.918.336 1.375 1.375 0 0 1-1.289-1.6 1.354 1.354 0 0 1 1.283-1.565 1.323 1.323 0 0 1 .78.222c.144.072.2.006.252-.138a.193.193 0 0 0-.09-.294 1.791 1.791 0 0 0-.972-.246 1.863 1.863 0 0 0-1.8 2.051A1.8 1.8 0 0 0 60.9 92.97zm3.378-.024a1.272 1.272 0 0 0 1.427-1.4v-2.475a.116.116 0 0 0-.126-.126.742.742 0 0 0-.282 0 .112.112 0 0 0-.12.126V91.6a.9.9 0 1 1-1.8 0v-2.533a.116.116 0 0 0-.126-.126.774.774 0 0 0-.288 0 .116.116 0 0 0-.126.126v2.477a1.276 1.276 0 0 0 1.439 1.402zm3.564-.012a1.311 1.311 0 0 0 1.475-1.265.886.886 0 0 0-.564-.84c-.4-.2-1.031-.252-1.385-.408a.5.5 0 0 1-.4-.486c-.006-.372.312-.606.876-.606a1.649 1.649 0 0 1 .935.234c.138.078.2.042.258-.12a.2.2 0 0 0-.06-.288 2.026 2.026 0 0 0-1.157-.282 1.179 1.179 0 0 0-1.391 1.115.879.879 0 0 0 .534.828 11 11 0 0 0 1.373.432.568.568 0 0 1 .456.534.773.773 0 0 1-.947.7 1.515 1.515 0 0 1-1.1-.426c-.126-.108-.192-.054-.282.126a.216.216 0 0 0 .042.306 2 2 0 0 0 1.335.45zm3.462-.078h2.045c.12 0 .126-.108.126-.228s-.006-.21-.114-.21h-1.729v-1.321h1.451c.1 0 .114-.1.114-.222s0-.216-.12-.216h-1.445V89.4h1.709c.1 0 .114-.1.114-.222s0-.216-.12-.216H71.3a.187.187 0 0 0-.21.21v3.478a.187.187 0 0 0 .21.206zm3.048.018a.806.806 0 0 0 .294 0 .119.119 0 0 0 .126-.126v-1.279a5.062 5.062 0 0 0 .612.024 1.334 1.334 0 0 0 1.6-1.283c0-.834-.654-1.259-1.667-1.259a7.645 7.645 0 0 0-.906.036.2.2 0 0 0-.18.222v3.544a.115.115 0 0 0 .12.125zm1.013-1.8a3.857 3.857 0 0 1-.594-.036v-1.656c.138-.012.306-.018.54-.018a.9.9 0 0 1 1.115.846.872.872 0 0 1-1.062.869zm2.437 1.8a.806.806 0 0 0 .294 0 .119.119 0 0 0 .126-.126v-3.689a.116.116 0 0 0-.126-.126.806.806 0 0 0-.294 0 .112.112 0 0 0-.12.126v3.694a.115.115 0 0 0 .118.125zm2.244.03a2.5 2.5 0 0 0 1.547-.432 1.962 1.962 0 0 0 .66-1.613c0-1.277-.684-1.9-2.117-1.9a5.859 5.859 0 0 0-.786.048.185.185 0 0 0-.168.2v3.43a.189.189 0 0 0 .18.222 5.563 5.563 0 0 0 .682.045zm.126-.444c-.156 0-.294-.006-.456-.018v-3.024a3.83 3.83 0 0 1 .486-.03 1.312 1.312 0 0 1 1.511 1.481 1.655 1.655 0 0 1-.4 1.211 1.508 1.508 0 0 1-1.143.385zm3.042.4h2.045c.12 0 .126-.108.126-.228s-.006-.21-.114-.21h-1.729v-1.325h1.451c.1 0 .114-.1.114-.222s0-.216-.12-.216h-1.445V89.4h1.709c.1 0 .114-.1.114-.222s0-.216-.12-.216h-2.032a.187.187 0 0 0-.21.21v3.478a.187.187 0 0 0 .21.206zm3.048.018a.806.806 0 0 0 .294 0 .119.119 0 0 0 .126-.126v-1.4a3.9 3.9 0 0 0 .576.03 3.906 3.906 0 0 0 1.325 1.469.332.332 0 0 0 .426-.018c.1-.078.156-.174.036-.252a3.618 3.618 0 0 1-1.245-1.262 1.173 1.173 0 0 0 1.031-1.181c0-.749-.654-1.187-1.607-1.187a7.645 7.645 0 0 0-.906.036.2.2 0 0 0-.18.222v3.544a.115.115 0 0 0 .123.125zm1.013-1.931a3.986 3.986 0 0 1-.594-.03v-1.529c.138-.012.306-.018.54-.018a.865.865 0 0 1 1.049.773.841.841 0 0 1-.996.805zm2.671 1.937a.143.143 0 0 0 .156-.15c.036-.744.1-1.325.18-1.925.06-.4.126-.84.2-1.217h.018c.144.336.294.78.426 1.157.192.54.354 1.085.54 1.763a.251.251 0 0 0 .282.246.256.256 0 0 0 .294-.246c.174-.69.342-1.235.528-1.763.132-.378.288-.8.438-1.157h.012c.078.378.15.834.21 1.229.084.594.144 1.223.18 1.913a.136.136 0 0 0 .15.15.81.81 0 0 0 .27-.012.14.14 0 0 0 .12-.168 21.622 21.622 0 0 0-.5-3.442.346.346 0 0 0-.372-.306.368.368 0 0 0-.39.258 22.031 22.031 0 0 0-.924 2.657h-.014a20.449 20.449 0 0 0-.93-2.657.363.363 0 0 0-.378-.258.336.336 0 0 0-.372.312 19.332 19.332 0 0 0-.51 3.436.134.134 0 0 0 .12.168.782.782 0 0 0 .265.012zm4.95-.006a.806.806 0 0 0 .294 0 .119.119 0 0 0 .126-.126v-3.693a.116.116 0 0 0-.126-.126.806.806 0 0 0-.294 0 .112.112 0 0 0-.12.126v3.694a.115.115 0 0 0 .119.125zm2.615.06a1.311 1.311 0 0 0 1.475-1.265.886.886 0 0 0-.564-.84c-.4-.2-1.031-.252-1.385-.408a.5.5 0 0 1-.4-.486c-.006-.372.312-.606.876-.606a1.649 1.649 0 0 1 .936.234c.138.078.2.042.258-.12a.2.2 0 0 0-.06-.288 2.026 2.026 0 0 0-1.157-.282 1.179 1.179 0 0 0-1.391 1.115.879.879 0 0 0 .534.828 11 11 0 0 0 1.367.433.568.568 0 0 1 .456.534.773.773 0 0 1-.948.7 1.516 1.516 0 0 1-1.1-.426c-.126-.108-.192-.054-.282.126a.216.216 0 0 0 .042.306 2 2 0 0 0 1.342.445zm4.116-.03a2.5 2.5 0 0 0 1.547-.432 1.961 1.961 0 0 0 .66-1.613c0-1.277-.684-1.9-2.117-1.9a5.866 5.866 0 0 0-.786.048.184.184 0 0 0-.167.2v3.43a.189.189 0 0 0 .179.222 5.568 5.568 0 0 0 .683.041zm.126-.444c-.156 0-.294-.006-.456-.018v-3.028a3.835 3.835 0 0 1 .486-.03 1.312 1.312 0 0 1 1.511 1.481 1.655 1.655 0 0 1-.4 1.211 1.507 1.507 0 0 1-1.142.385zm3.042.4h2.045c.12 0 .126-.108.126-.228s-.006-.21-.114-.21h-1.727v-1.329h1.451c.1 0 .114-.1.114-.222s0-.216-.12-.216h-1.445V89.4h1.709c.1 0 .114-.1.114-.222s0-.216-.12-.216h-2.033a.187.187 0 0 0-.21.21v3.478a.187.187 0 0 0 .209.206zm4.218 0h2.039c.126 0 .132-.1.132-.228s-.006-.216-.12-.216h-1.721v-3.349a.119.119 0 0 0-.126-.126.807.807 0 0 0-.294 0 .115.115 0 0 0-.12.126v3.58a.187.187 0 0 0 .209.209zm3.018.054a.135.135 0 0 0 .144-.138c.054-.27.114-.564.2-.863h1.825c.078.3.144.588.2.863a.135.135 0 0 0 .144.138.58.58 0 0 0 .2-.03c.156-.036.2-.1.168-.222a13.723 13.723 0 0 0-1.248-3.472.4.4 0 0 0-.389-.24.392.392 0 0 0-.384.246 12.606 12.606 0 0 0-1.242 3.466c-.03.12.012.186.168.222a.555.555 0 0 0 .213.026zm.45-1.439a10.513 10.513 0 0 1 .786-1.991h.018a10.581 10.581 0 0 1 .785 1.991h-1.59zm4.338 1.4a.807.807 0 0 0 .294 0 .119.119 0 0 0 .126-.126v-1.284a5.067 5.067 0 0 0 .612.024 1.334 1.334 0 0 0 1.6-1.283c0-.834-.654-1.259-1.667-1.259a7.653 7.653 0 0 0-.906.036.2.2 0 0 0-.18.222v3.544a.115.115 0 0 0 .12.125zm1.014-1.8a3.861 3.861 0 0 1-.594-.036v-1.661c.138-.012.306-.018.54-.018a.9.9 0 0 1 1.115.846.872.872 0 0 1-1.062.869zm2.436 1.8a.807.807 0 0 0 .294 0 .119.119 0 0 0 .126-.126v-3.694a.117.117 0 0 0-.126-.126.807.807 0 0 0-.294 0 .112.112 0 0 0-.12.126v3.694a.115.115 0 0 0 .119.125zm1.59-.018h2.041c.12 0 .126-.108.126-.228s-.006-.21-.114-.21h-1.727v-1.326h1.451c.1 0 .114-.1.114-.222s0-.216-.12-.216h-1.445V89.4h1.715c.1 0 .114-.1.114-.222s0-.216-.12-.216h-2.033a.187.187 0 0 0-.21.21v3.478a.187.187 0 0 0 .207.206zm3.138 0h2.039c.126 0 .132-.1.132-.228s-.006-.216-.12-.216h-1.721v-3.346a.119.119 0 0 0-.126-.126.807.807 0 0 0-.294 0 .115.115 0 0 0-.12.126v3.58a.187.187 0 0 0 .213.209zm3.156.036a.335.335 0 0 0 .372-.318v-.036a.327.327 0 0 0-.372-.312.332.332 0 0 0-.378.312v.036a.34.34 0 0 0 .377.317zm2.478-.018a.807.807 0 0 0 .294 0 .119.119 0 0 0 .126-.126v-1.656h1.475c.1 0 .114-.09.114-.222 0-.114 0-.216-.12-.216h-1.47V89.4h1.727c.1 0 .12-.09.12-.222 0-.114 0-.216-.12-.216h-2.057a.187.187 0 0 0-.21.21v3.58a.115.115 0 0 0 .12.122zm3.941-4.192 1.14-.558a.1.1 0 0 0 .048-.144.812.812 0 0 0-.114-.228.1.1 0 0 0-.156-.036l-1.074.666c-.089.054-.06.12-.024.2.053.106.108.136.179.1zm.468 4.294a1.79 1.79 0 0 0 1.763-2.069 1.739 1.739 0 0 0-1.733-2.033 1.787 1.787 0 0 0-1.763 2.069 1.742 1.742 0 0 0 1.732 2.032zm.012-.42c-.8 0-1.181-.69-1.193-1.631-.012-.984.4-1.625 1.2-1.625.792 0 1.181.678 1.193 1.613.01.977-.403 1.643-1.201 1.643zm2.647.318a.807.807 0 0 0 .294 0 .119.119 0 0 0 .126-.126v-1.4a3.9 3.9 0 0 0 .575.03 3.907 3.907 0 0 0 1.326 1.469.331.331 0 0 0 .425-.018c.1-.078.156-.174.036-.252a3.625 3.625 0 0 1-1.241-1.259 1.172 1.172 0 0 0 1.031-1.181c0-.749-.653-1.187-1.607-1.187a7.644 7.644 0 0 0-.905.036.2.2 0 0 0-.18.222v3.544a.115.115 0 0 0 .121.121zm1.013-1.931a3.976 3.976 0 0 1-.593-.03v-1.53c.138-.012.306-.018.539-.018a.866.866 0 0 1 1.05.773.841.841 0 0 1-.997.805zm2.671 1.937a.143.143 0 0 0 .156-.15c.036-.744.1-1.325.18-1.925.06-.4.126-.84.2-1.217h.012c.143.336.293.78.425 1.157.192.54.354 1.085.54 1.763a.251.251 0 0 0 .282.246.256.256 0 0 0 .294-.246c.174-.69.341-1.235.527-1.763.132-.378.288-.8.438-1.157h.012c.078.378.15.834.21 1.229.084.594.144 1.223.18 1.913a.136.136 0 0 0 .15.15.811.811 0 0 0 .27-.012.14.14 0 0 0 .126-.168 21.61 21.61 0 0 0-.5-3.442.346.346 0 0 0-.372-.306.369.369 0 0 0-.39.258 22.046 22.046 0 0 0-.923 2.657h-.012a20.436 20.436 0 0 0-.93-2.657.362.362 0 0 0-.377-.258.336.336 0 0 0-.372.312A19.331 19.331 0 0 0 141 92.7a.134.134 0 0 0 .12.168.782.782 0 0 0 .262.012zm6.149.066a1.272 1.272 0 0 0 1.427-1.4v-2.48a.116.116 0 0 0-.125-.126.743.743 0 0 0-.282 0 .112.112 0 0 0-.12.126V91.6a.9.9 0 1 1-1.8 0v-2.533a.117.117 0 0 0-.126-.126.775.775 0 0 0-.288 0 .117.117 0 0 0-.126.126v2.477a1.276 1.276 0 0 0 1.439 1.402zm2.539-.09h2.039c.126 0 .132-.1.132-.228s-.006-.216-.12-.216H150.4v-3.346a.119.119 0 0 0-.126-.126.807.807 0 0 0-.294 0 .115.115 0 0 0-.12.126v3.58a.187.187 0 0 0 .21.209zm3.018.054a.135.135 0 0 0 .144-.138c.054-.27.114-.564.2-.863h1.823c.078.3.144.588.2.863a.135.135 0 0 0 .144.138.58.58 0 0 0 .2-.03c.156-.036.2-.1.168-.222a13.72 13.72 0 0 0-1.247-3.472.4.4 0 0 0-.39-.24.392.392 0 0 0-.384.246 12.636 12.636 0 0 0-1.241 3.466c-.03.12.012.186.168.222a.555.555 0 0 0 .214.029zm.45-1.439a10.447 10.447 0 0 1 .785-1.991h.018a10.513 10.513 0 0 1 .786 1.991h-1.589zm5.453 1.463a1.311 1.311 0 0 0 1.475-1.265.886.886 0 0 0-.563-.84c-.4-.2-1.032-.252-1.386-.408a.5.5 0 0 1-.4-.486c-.006-.372.311-.606.875-.606a1.651 1.651 0 0 1 .936.234c.137.078.2.042.257-.12a.2.2 0 0 0-.06-.288 2.022 2.022 0 0 0-1.157-.282 1.179 1.179 0 0 0-1.391 1.115.879.879 0 0 0 .534.828 10.942 10.942 0 0 0 1.373.432.568.568 0 0 1 .456.534.773.773 0 0 1-.948.7 1.513 1.513 0 0 1-1.1-.426c-.126-.108-.192-.054-.282.126a.216.216 0 0 0 .042.306 2 2 0 0 0 1.338.445zm2.293-.06a.8.8 0 0 0 .293 0 .119.119 0 0 0 .126-.126v-3.694a.117.117 0 0 0-.126-.126.8.8 0 0 0-.293 0 .112.112 0 0 0-.12.126v3.694a.115.115 0 0 0 .119.125zm1.506-.006a.608.608 0 0 0 .275 0 .119.119 0 0 0 .126-.126v-2.171c0-.276-.012-.588-.024-.84h.012c.114.2.294.528.45.761l1.451 2.225a.3.3 0 0 0 .27.138h.108a.2.2 0 0 0 .222-.222v-3.567a.114.114 0 0 0-.126-.126.613.613 0 0 0-.276-.006.124.124 0 0 0-.126.132l.006 2.231c0 .264.012.54.018.774h-.012c-.1-.168-.264-.5-.413-.726l-1.465-2.246a.294.294 0 0 0-.264-.144h-.137a.2.2 0 0 0-.222.222v3.562a.116.116 0 0 0 .126.128zm5.052.006a.8.8 0 0 0 .293 0 .119.119 0 0 0 .126-.126v-3.694a.117.117 0 0 0-.126-.126.8.8 0 0 0-.293 0 .112.112 0 0 0-.12.126v3.694a.115.115 0 0 0 .119.125zm1.506-.006a.608.608 0 0 0 .275 0 .119.119 0 0 0 .126-.126v-2.171c0-.276-.012-.588-.024-.84h.012c.114.2.294.528.45.761l1.451 2.225a.3.3 0 0 0 .27.138h.108a.2.2 0 0 0 .222-.222v-3.567a.114.114 0 0 0-.126-.126.613.613 0 0 0-.276-.006.124.124 0 0 0-.126.132l.006 2.231c0 .264.012.54.018.774h-.012c-.1-.168-.264-.5-.414-.726l-1.464-2.246a.294.294 0 0 0-.264-.144h-.138a.2.2 0 0 0-.221.222v3.562a.116.116 0 0 0 .126.128zm5.489.1a2.191 2.191 0 0 0 1.415-.456.3.3 0 0 0 .126-.282l-.006-1.259a.147.147 0 0 0-.156-.162h-1.337c-.09 0-.126.072-.126.216s.024.216.126.216h1l.006.953a1.565 1.565 0 0 1-1 .312 1.387 1.387 0 0 1-1.338-1.607 1.411 1.411 0 0 1 1.4-1.565 1.377 1.377 0 0 1 .917.288c.126.09.2.03.27-.108a.189.189 0 0 0-.06-.3 1.819 1.819 0 0 0-1.145-.336 1.893 1.893 0 0 0-1.332.528 2.119 2.119 0 0 0-.593 1.547 2.1 2.1 0 0 0 .581 1.535 1.711 1.711 0 0 0 1.251.481zm2.538-.1a.807.807 0 0 0 .294 0 .119.119 0 0 0 .126-.126v-1.4a3.9 3.9 0 0 0 .576.03 3.913 3.913 0 0 0 1.325 1.469.333.333 0 0 0 .426-.018c.1-.078.156-.174.036-.252a3.608 3.608 0 0 1-1.241-1.259 1.173 1.173 0 0 0 1.031-1.181c0-.749-.654-1.187-1.607-1.187a7.653 7.653 0 0 0-.906.036.2.2 0 0 0-.179.222v3.544a.114.114 0 0 0 .118.127zm1.014-1.931a3.99 3.99 0 0 1-.594-.03v-1.524c.138-.012.306-.018.54-.018a.865.865 0 0 1 1.049.773.84.84 0 0 1-.996.805zm2.6 1.913h2.045c.12 0 .126-.108.126-.228s-.006-.21-.114-.21h-1.727v-1.32h1.451c.1 0 .114-.1.114-.222s0-.216-.12-.216h-1.445V89.4h1.709c.1 0 .114-.1.114-.222s0-.216-.12-.216h-2.033a.186.186 0 0 0-.209.21v3.478a.186.186 0 0 0 .212.206zm3.792.048a2.5 2.5 0 0 0 1.547-.432 1.961 1.961 0 0 0 .66-1.613c0-1.277-.684-1.9-2.117-1.9a5.866 5.866 0 0 0-.786.048.184.184 0 0 0-.167.2v3.43a.189.189 0 0 0 .179.222 5.568 5.568 0 0 0 .687.046zm.126-.444c-.156 0-.294-.006-.456-.018v-3.023a3.835 3.835 0 0 1 .486-.03 1.312 1.312 0 0 1 1.511 1.481 1.655 1.655 0 0 1-.4 1.211 1.507 1.507 0 0 1-1.138.385zm2.952.414a.807.807 0 0 0 .294 0 .119.119 0 0 0 .126-.126v-3.688a.117.117 0 0 0-.126-.126.807.807 0 0 0-.294 0 .112.112 0 0 0-.12.126v3.694a.115.115 0 0 0 .123.125zm1.59-.018h2.05c.12 0 .126-.108.126-.228s-.006-.21-.114-.21h-1.727v-1.32h1.451c.1 0 .114-.1.114-.222s0-.216-.12-.216h-1.445V89.4h1.709c.1 0 .114-.1.114-.222s0-.216-.12-.216h-2.033a.187.187 0 0 0-.21.21v3.478a.187.187 0 0 0 .208.206zm3.054.012a.612.612 0 0 0 .276 0 .119.119 0 0 0 .126-.126v-2.165c0-.276-.012-.588-.024-.84h.018c.114.2.294.528.45.761l1.451 2.225a.3.3 0 0 0 .27.138h.108a.2.2 0 0 0 .222-.222v-3.567a.114.114 0 0 0-.126-.126.613.613 0 0 0-.275-.006.124.124 0 0 0-.126.132l.006 2.231c0 .264.012.54.018.774h-.012c-.1-.168-.264-.5-.414-.726l-1.467-2.246a.294.294 0 0 0-.264-.144h-.141a.2.2 0 0 0-.222.222v3.562a.116.116 0 0 0 .129.128zm4.992.006a.84.84 0 0 0 .3 0 .115.115 0 0 0 .12-.126V89.4h1.139c.1 0 .126-.084.126-.234s-.024-.21-.126-.21H196.2c-.089 0-.125.09-.125.234s.03.21.125.21h1.182v3.346a.115.115 0 0 0 .118.128zm2.586-.018h2.045c.12 0 .126-.108.126-.228s-.006-.21-.114-.21h-1.727v-1.32h1.451c.1 0 .114-.1.114-.222s0-.216-.12-.216h-1.445V89.4h1.709c.1 0 .114-.1.114-.222s0-.216-.12-.216h-2.033a.187.187 0 0 0-.21.21v3.478a.187.187 0 0 0 .213.206zm4.164.078a1.311 1.311 0 0 0 1.475-1.265.886.886 0 0 0-.564-.84c-.4-.2-1.031-.252-1.385-.408a.5.5 0 0 1-.4-.486c-.006-.372.312-.606.876-.606a1.649 1.649 0 0 1 .935.234c.138.078.2.042.258-.12a.2.2 0 0 0-.06-.288 2.027 2.027 0 0 0-1.157-.282 1.179 1.179 0 0 0-1.392 1.115.879.879 0 0 0 .534.828 11.047 11.047 0 0 0 1.373.432.568.568 0 0 1 .456.534.772.772 0 0 1-.947.7 1.517 1.517 0 0 1-1.1-.426c-.126-.108-.192-.054-.282.126a.216.216 0 0 0 .042.306 2.007 2.007 0 0 0 1.341.451zm3.378-.024a.135.135 0 0 0 .144-.138c.054-.27.114-.564.2-.863h1.823c.078.3.144.588.2.863a.135.135 0 0 0 .144.138.58.58 0 0 0 .2-.03c.156-.036.2-.1.168-.222a13.723 13.723 0 0 0-1.248-3.472.4.4 0 0 0-.389-.24.392.392 0 0 0-.384.246 12.606 12.606 0 0 0-1.242 3.466c-.03.12.012.186.168.222a.555.555 0 0 0 .219.035zm.45-1.439a10.513 10.513 0 0 1 .786-1.991h.018a10.581 10.581 0 0 1 .785 1.991h-1.589zm4.649 1.5a1.723 1.723 0 0 0 1.224-.426.2.2 0 0 0 .018-.306.169.169 0 0 0-.276-.072 1.311 1.311 0 0 1-.918.336 1.375 1.375 0 0 1-1.289-1.6 1.355 1.355 0 0 1 1.283-1.565 1.324 1.324 0 0 1 .78.222c.144.072.2.006.252-.138a.193.193 0 0 0-.09-.294 1.793 1.793 0 0 0-.972-.246 1.863 1.863 0 0 0-1.8 2.051 1.8 1.8 0 0 0 1.791 2.042zm3.139-.1a.835.835 0 0 0 .3 0 .115.115 0 0 0 .12-.126V89.4h1.14c.1 0 .126-.084.126-.234s-.024-.21-.126-.21h-2.861c-.09 0-.126.09-.126.234s.03.21.126.21h1.182v3.346a.115.115 0 0 0 .122.128zm2.5 0a.807.807 0 0 0 .294 0 .119.119 0 0 0 .126-.126v-3.685a.117.117 0 0 0-.126-.126.807.807 0 0 0-.294 0 .112.112 0 0 0-.12.126v3.694a.115.115 0 0 0 .119.125zm2.765.048a.364.364 0 0 0 .378-.246 12.237 12.237 0 0 0 1.247-3.46.173.173 0 0 0-.167-.228.738.738 0 0 0-.21-.03.132.132 0 0 0-.144.138c-.1.474-.222 1.019-.39 1.547a10.906 10.906 0 0 1-.7 1.727h-.024a10.594 10.594 0 0 1-.695-1.721 14.5 14.5 0 0 1-.4-1.553.131.131 0 0 0-.138-.138.722.722 0 0 0-.228.03.174.174 0 0 0-.168.228 13.231 13.231 0 0 0 1.254 3.472.362.362 0 0 0 .384.242zm3.72.054a1.79 1.79 0 0 0 1.763-2.069 1.738 1.738 0 0 0-1.733-2.033 1.787 1.787 0 0 0-1.763 2.069 1.742 1.742 0 0 0 1.732 2.041zm.012-.42c-.8 0-1.181-.69-1.193-1.631-.012-.984.4-1.625 1.205-1.625.792 0 1.182.678 1.194 1.613.005.986-.409 1.652-1.207 1.652zm3.762.378a1.312 1.312 0 0 0 1.476-1.265.886.886 0 0 0-.564-.84c-.4-.2-1.031-.252-1.385-.408a.5.5 0 0 1-.4-.486c-.006-.372.312-.606.875-.606a1.651 1.651 0 0 1 .936.234c.138.078.2.042.258-.12a.2.2 0 0 0-.06-.288 2.028 2.028 0 0 0-1.158-.282 1.179 1.179 0 0 0-1.391 1.115.879.879 0 0 0 .534.828 10.994 10.994 0 0 0 1.373.432.568.568 0 0 1 .456.534.773.773 0 0 1-.948.7 1.516 1.516 0 0 1-1.1-.426c-.126-.108-.192-.054-.282.126a.216.216 0 0 0 .042.306 2.006 2.006 0 0 0 1.337.454zM232 92.91a.135.135 0 0 0 .144-.138c.054-.27.114-.564.2-.863h1.823c.078.3.144.588.2.863a.135.135 0 0 0 .144.138.58.58 0 0 0 .2-.03c.155-.036.2-.1.167-.222a13.682 13.682 0 0 0-1.247-3.472.4.4 0 0 0-.39-.24.39.39 0 0 0-.383.246 12.606 12.606 0 0 0-1.242 3.466c-.03.12.012.186.168.222a.555.555 0 0 0 .216.03zm.45-1.439a10.514 10.514 0 0 1 .785-1.991h.018a10.513 10.513 0 0 1 .786 1.991h-1.589zm3.264 1.4a.612.612 0 0 0 .276 0 .119.119 0 0 0 .126-.126v-2.173c0-.276-.012-.588-.024-.84h.008c.114.2.294.528.449.761L238 92.719a.3.3 0 0 0 .27.138h.107a.2.2 0 0 0 .222-.222v-3.568a.114.114 0 0 0-.126-.126.608.608 0 0 0-.275-.006.124.124 0 0 0-.126.132l.006 2.231c0 .264.012.54.018.774h-.012c-.1-.168-.264-.5-.414-.726l-1.459-2.246a.294.294 0 0 0-.264-.144h-.138a.2.2 0 0 0-.222.222v3.562a.116.116 0 0 0 .126.128zm4.991.006a.84.84 0 0 0 .3 0 .115.115 0 0 0 .12-.126V89.4h1.139c.1 0 .126-.084.126-.234s-.024-.21-.126-.21H239.4c-.09 0-.126.09-.126.234s.03.21.126.21h1.181v3.346a.115.115 0 0 0 .119.128zm2.5 0a.807.807 0 0 0 .294 0 .119.119 0 0 0 .126-.126v-3.696a.117.117 0 0 0-.126-.126.807.807 0 0 0-.294 0 .112.112 0 0 0-.12.126v3.694a.115.115 0 0 0 .115.125zm2.285.036c1.032 0 1.65-.348 1.65-1.211a.856.856 0 0 0-.612-.852v-.014a.947.947 0 0 0 .486-.876 1.178 1.178 0 0 0-1.428-1.007 5.372 5.372 0 0 0-.833.048.185.185 0 0 0-.168.2v3.448a.189.189 0 0 0 .18.222 5.819 5.819 0 0 0 .721.039zm-.377-2.255V89.39c.168-.018.335-.018.5-.024a.7.7 0 0 1 .864.648.565.565 0 0 1-.6.642h-.761zm.455 1.829a3.864 3.864 0 0 1-.455-.024v-1.382h.779a.58.58 0 0 1 .708.606.847.847 0 0 1-1.036.798zm2.449.426a.135.135 0 0 0 .144-.138c.054-.27.114-.564.2-.863h1.823c.078.3.144.588.2.863a.135.135 0 0 0 .143.138.58.58 0 0 0 .2-.03c.156-.036.2-.1.168-.222a13.72 13.72 0 0 0-1.247-3.472.4.4 0 0 0-.39-.24.392.392 0 0 0-.384.246 12.636 12.636 0 0 0-1.241 3.466c-.03.12.012.186.168.222a.555.555 0 0 0 .212.027zm.45-1.439a10.514 10.514 0 0 1 .785-1.991h.018a10.513 10.513 0 0 1 .786 1.991h-1.589zm4.649 1.5a1.72 1.72 0 0 0 1.223-.426.2.2 0 0 0 .018-.306.169.169 0 0 0-.276-.072 1.307 1.307 0 0 1-.917.336 1.375 1.375 0 0 1-1.289-1.6 1.354 1.354 0 0 1 1.283-1.565 1.324 1.324 0 0 1 .78.222c.143.072.2.006.251-.138a.193.193 0 0 0-.09-.294 1.786 1.786 0 0 0-.971-.246 1.863 1.863 0 0 0-1.8 2.051 1.8 1.8 0 0 0 1.784 2.034zm3.138-.1a.84.84 0 0 0 .3 0 .115.115 0 0 0 .12-.126V89.4h1.139c.1 0 .126-.084.126-.234s-.024-.21-.126-.21h-2.86c-.09 0-.126.09-.126.234s.03.21.126.21h1.181v3.346a.115.115 0 0 0 .116.128zm2.587-.018h2.045c.119 0 .125-.108.125-.228s-.006-.21-.113-.21h-1.727v-1.325h1.451c.1 0 .114-.1.114-.222s0-.216-.12-.216h-1.445V89.4h1.709c.1 0 .114-.1.114-.222s0-.216-.12-.216h-2.033a.187.187 0 0 0-.21.21v3.478a.187.187 0 0 0 .206.206zm3.048.018a.807.807 0 0 0 .294 0 .119.119 0 0 0 .125-.126v-1.4a3.9 3.9 0 0 0 .576.03 3.913 3.913 0 0 0 1.325 1.469.333.333 0 0 0 .426-.018c.1-.078.156-.174.036-.252a3.616 3.616 0 0 1-1.241-1.259 1.172 1.172 0 0 0 1.031-1.181c0-.749-.653-1.187-1.607-1.187a7.633 7.633 0 0 0-.905.036.2.2 0 0 0-.18.222v3.544a.115.115 0 0 0 .116.122zm1.013-1.931a3.99 3.99 0 0 1-.594-.03v-1.529c.138-.012.306-.018.54-.018a.866.866 0 0 1 1.05.773.841.841 0 0 1-.998.805zm2.515 1.931a.807.807 0 0 0 .294 0 .119.119 0 0 0 .125-.126v-3.693a.116.116 0 0 0-.125-.126.807.807 0 0 0-.294 0 .112.112 0 0 0-.12.126v3.694a.115.115 0 0 0 .116.125zm1.506.036a.135.135 0 0 0 .144-.138c.054-.27.114-.564.2-.863h1.823c.078.3.144.588.2.863a.135.135 0 0 0 .144.138.58.58 0 0 0 .2-.03c.156-.036.2-.1.168-.222a13.72 13.72 0 0 0-1.247-3.472.4.4 0 0 0-.39-.24.392.392 0 0 0-.384.246 12.636 12.636 0 0 0-1.241 3.466c-.03.12.012.186.168.222a.555.555 0 0 0 .211.03zm.449-1.439a10.513 10.513 0 0 1 .786-1.991h.018a10.513 10.513 0 0 1 .786 1.991h-1.59zm3.349 1.385h2.038c.126 0 .132-.1.132-.228s-.006-.216-.12-.216h-1.721v-3.345a.119.119 0 0 0-.126-.126.8.8 0 0 0-.293 0 .115.115 0 0 0-.12.126v3.58a.187.187 0 0 0 .206.209zm3.041 0h2.038c.12 0 .126-.108.126-.228s-.006-.21-.114-.21h-1.727v-1.325h1.452c.1 0 .113-.1.113-.222s0-.216-.119-.216h-1.446V89.4h1.715c.1 0 .114-.1.114-.222s0-.216-.12-.216h-2.033a.187.187 0 0 0-.209.21v3.478a.187.187 0 0 0 .206.206zm4.164.078a1.311 1.311 0 0 0 1.475-1.265.886.886 0 0 0-.564-.84c-.4-.2-1.031-.252-1.385-.408a.5.5 0 0 1-.4-.486c-.006-.372.312-.606.876-.606a1.645 1.645 0 0 1 .935.234c.138.078.2.042.258-.12a.2.2 0 0 0-.06-.288 2.024 2.024 0 0 0-1.157-.282 1.178 1.178 0 0 0-1.391 1.115.879.879 0 0 0 .533.828 11.008 11.008 0 0 0 1.374.432.568.568 0 0 1 .455.534.772.772 0 0 1-.947.7 1.513 1.513 0 0 1-1.1-.426c-.126-.108-.192-.054-.282.126a.216.216 0 0 0 .042.306 2 2 0 0 0 1.334.446z" transform="translate(-19.906 -79.719)" style="fill:#001f53;fill-rule:evenodd"/></svg><svg width="260.69" height="19.66" viewBox="-1 -1 260.69 19.66" y="15.25" xmlns="http://www.w3.org/2000/svg"><path data-name="NUEVAS TOALLITAS HÚMEDAS" d="M20.879 88.137a3.11 3.11 0 0 0 1.278 0 .514.514 0 0 0 .492-.511v-6.135c0-.944-.059-2.064-.118-2.93h.039a28.527 28.527 0 0 0 1.573 2.753l4.188 6.233a1.2 1.2 0 0 0 1.081.55h.472a.813.813 0 0 0 .9-.885V75.77a.464.464 0 0 0-.492-.492 2.282 2.282 0 0 0-1.258 0 .459.459 0 0 0-.472.492l.02 6.193c0 1 .039 2.005.079 2.831h-.036c-.295-.55-.944-1.848-1.514-2.694l-4.168-6.213a1.163 1.163 0 0 0-1.062-.57h-.57a.8.8 0 0 0-.9.885v11.443a.469.469 0 0 0 .468.492zm17.5.256c3.146 0 4.876-1.691 4.876-4.8V75.77a.486.486 0 0 0-.492-.492 2.806 2.806 0 0 0-1.278 0 .482.482 0 0 0-.472.492v8.179a2.408 2.408 0 0 1-2.6 2.635 2.412 2.412 0 0 1-2.674-2.635V75.77a.469.469 0 0 0-.472-.492 3.067 3.067 0 0 0-1.337 0 .469.469 0 0 0-.472.492v7.825c.003 3.105 1.714 4.797 4.919 4.797zm8.415-.295h6.744c.413 0 .472-.452.472-.924 0-.491-.02-.865-.452-.865h-5.351v-3.815h4.443c.373 0 .452-.433.452-.924s-.02-.865-.472-.865h-4.423v-3.6H53.5c.374 0 .452-.452.452-.924s-.039-.865-.472-.865h-6.689a.778.778 0 0 0-.865.865v11.05a.778.778 0 0 0 .865.869zm14.195.236a1.487 1.487 0 0 0 1.593-1A41.171 41.171 0 0 0 66.531 76.4c.1-.511-.059-.806-.767-.963a2.969 2.969 0 0 0-.885-.1.522.522 0 0 0-.57.57 34.73 34.73 0 0 1-1 4.581 35.206 35.206 0 0 1-2.222 5.721h-.081a32.751 32.751 0 0 1-2.222-5.662 46.247 46.247 0 0 1-1.062-4.64.52.52 0 0 0-.57-.57 3.974 3.974 0 0 0-.983.1c-.708.157-.865.452-.747.963a43.681 43.681 0 0 0 3.952 10.95 1.491 1.491 0 0 0 1.612.983zm7.235-.039a.559.559 0 0 0 .59-.59c.157-.747.334-1.632.59-2.556h5.485a22.191 22.191 0 0 1 .59 2.556.55.55 0 0 0 .59.59 3.3 3.3 0 0 0 .885-.1c.708-.157.865-.452.747-.983a47.326 47.326 0 0 0-3.952-10.951 1.654 1.654 0 0 0-1.632-.963 1.6 1.6 0 0 0-1.593 1 45 45 0 0 0-3.934 10.915c-.118.531.059.806.747.983a3.048 3.048 0 0 0 .884.098zm1.671-4.935a32.317 32.317 0 0 1 2.222-5.78h.079a35.667 35.667 0 0 1 2.2 5.78h-4.5zm14.035 4.993c2.635 0 4.994-1.553 4.935-4.267a2.937 2.937 0 0 0-1.927-2.772 36.672 36.672 0 0 0-4.109-1.239 1.678 1.678 0 0 1-1.416-1.494c0-1.022.865-1.71 2.5-1.71a5.725 5.725 0 0 1 2.988.747c.551.256.806.138 1.022-.531a.837.837 0 0 0-.236-1.14 6.931 6.931 0 0 0-3.834-.9c-2.929 0-4.7 1.435-4.66 3.834a2.97 2.97 0 0 0 1.868 2.831 27.007 27.007 0 0 0 3.972 1.2 1.809 1.809 0 0 1 1.611 1.688c0 1.1-.885 1.907-2.713 1.927a5.545 5.545 0 0 1-3.539-1.317c-.492-.374-.767-.216-1.1.492a.906.906 0 0 0 .1 1.219 7.091 7.091 0 0 0 4.538 1.432zm14.215-.2a4.041 4.041 0 0 0 1.376 0 .482.482 0 0 0 .452-.511V77.126h3.52c.373 0 .491-.354.491-.944 0-.57-.078-.865-.491-.865h-9.438c-.374 0-.472.374-.472.963 0 .55.059.845.472.845h3.637v10.52a.469.469 0 0 0 .453.511zm12.426.334c3.617 0 5.918-2.536 5.937-6.783.02-4.031-2.025-6.665-5.8-6.665-3.617 0-5.937 2.536-5.937 6.783 0 4.078 2.029 6.669 5.8 6.669zm.039-1.75c-2.438 0-3.421-2.123-3.48-4.994-.059-2.969 1.14-4.915 3.559-4.915 2.4-.02 3.44 2.025 3.48 4.876.059 2.996-1.16 5.017-3.559 5.037zm8.69 1.553a.559.559 0 0 0 .59-.59c.157-.747.334-1.632.59-2.556h5.485a22.132 22.132 0 0 1 .59 2.556.551.551 0 0 0 .59.59 3.31 3.31 0 0 0 .885-.1c.707-.157.865-.452.747-.983a47.331 47.331 0 0 0-3.952-10.951 1.653 1.653 0 0 0-1.632-.963 1.6 1.6 0 0 0-1.593 1 45.045 45.045 0 0 0-3.932 10.912c-.118.531.059.806.747.983a3.053 3.053 0 0 0 .885.106zm1.671-4.935a32.362 32.362 0 0 1 2.222-5.78h.079a35.788 35.788 0 0 1 2.2 5.78h-4.5zm10.715 4.745h6.7c.472 0 .511-.433.511-.944s-.02-.885-.472-.885H133.1V75.789a.46.46 0 0 0-.452-.511 4.05 4.05 0 0 0-1.377 0 .45.45 0 0 0-.452.511v11.443a.778.778 0 0 0 .867.868zm9.988 0h6.7c.472 0 .512-.433.512-.944s-.02-.885-.472-.885h-5.324V75.789a.461.461 0 0 0-.453-.511 4.044 4.044 0 0 0-1.376 0 .45.45 0 0 0-.452.511v11.443a.778.778 0 0 0 .865.868zm9.575.059a4.039 4.039 0 0 0 1.376 0 .482.482 0 0 0 .452-.511V75.711a.482.482 0 0 0-.452-.511 4.044 4.044 0 0 0-1.376 0 .469.469 0 0 0-.452.511v11.934a.469.469 0 0 0 .452.511zm8.356 0a4.039 4.039 0 0 0 1.376 0 .482.482 0 0 0 .452-.511V77.126h3.519c.374 0 .492-.354.492-.944 0-.57-.079-.865-.492-.865h-9.437c-.374 0-.472.374-.472.963 0 .55.059.845.472.845h3.637v10.52a.47.47 0 0 0 .448.511zm7.078.138a.56.56 0 0 0 .59-.59c.157-.747.334-1.632.589-2.556h5.486a22.342 22.342 0 0 1 .59 2.556.55.55 0 0 0 .589.59 3.305 3.305 0 0 0 .885-.1c.708-.157.865-.452.747-.983a47.285 47.285 0 0 0-3.952-10.951 1.653 1.653 0 0 0-1.631-.963 1.6 1.6 0 0 0-1.593 1 45 45 0 0 0-3.932 10.912c-.118.531.059.806.747.983a3.049 3.049 0 0 0 .885.099zm1.671-4.935a32.286 32.286 0 0 1 2.222-5.78h.078a35.6 35.6 0 0 1 2.2 5.78h-4.5zm14.038 4.994c2.634 0 4.994-1.553 4.935-4.267a2.939 2.939 0 0 0-1.927-2.772 36.694 36.694 0 0 0-4.109-1.239 1.678 1.678 0 0 1-1.416-1.494c0-1.022.865-1.71 2.5-1.71a5.722 5.722 0 0 1 2.988.747c.551.256.807.138 1.023-.531a.838.838 0 0 0-.236-1.14 6.933 6.933 0 0 0-3.834-.9c-2.93 0-4.7 1.435-4.66 3.834a2.97 2.97 0 0 0 1.868 2.831 27 27 0 0 0 3.972 1.2 1.81 1.81 0 0 1 1.612 1.691c0 1.1-.885 1.907-2.713 1.927a5.544 5.544 0 0 1-3.539-1.317c-.492-.374-.767-.216-1.1.492a.9.9 0 0 0 .1 1.219 7.091 7.091 0 0 0 4.536 1.426zM202.721 75.2a4.044 4.044 0 0 0-1.376 0 .47.47 0 0 0-.453.511V80.7h-5.662v-4.989a.482.482 0 0 0-.452-.511 4.05 4.05 0 0 0-1.377 0 .47.47 0 0 0-.452.511v11.934a.469.469 0 0 0 .452.511 4.045 4.045 0 0 0 1.377 0 .482.482 0 0 0 .452-.511v-5.151h5.662v5.151a.47.47 0 0 0 .453.511 4.039 4.039 0 0 0 1.376 0 .482.482 0 0 0 .452-.511V75.711a.482.482 0 0 0-.452-.511zm6.389-.826 3.932-1.75a.4.4 0 0 0 .217-.57 3.849 3.849 0 0 0-.472-.944.4.4 0 0 0-.61-.177l-3.7 2.163c-.354.216-.255.492-.1.826.223.452.458.57.733.452zm1.652 14.018c3.146 0 4.876-1.691 4.876-4.8V75.77a.486.486 0 0 0-.492-.492 2.806 2.806 0 0 0-1.278 0 .482.482 0 0 0-.472.492v8.179a2.635 2.635 0 1 1-5.269 0V75.77a.469.469 0 0 0-.472-.492 3.067 3.067 0 0 0-1.337 0 .469.469 0 0 0-.471.492v7.825c0 3.105 1.71 4.797 4.915 4.797zm8.631-.2a.612.612 0 0 0 .629-.649c.118-2.3.275-4.109.511-5.82.177-1.18.315-2.635.551-3.755h.039c.393.944.826 2.34 1.219 3.441.531 1.534 1.062 3.224 1.711 5.485a.929.929 0 0 0 1.081.865.955.955 0 0 0 1.121-.865c.629-2.32 1.16-4.011 1.69-5.525.394-1.081.846-2.418 1.239-3.4h.039c.236 1.121.394 2.6.551 3.795.236 1.691.413 3.6.511 5.78a.612.612 0 0 0 .629.649 3.5 3.5 0 0 0 1.2-.059.555.555 0 0 0 .491-.708 74.264 74.264 0 0 0-1.592-10.873 1.37 1.37 0 0 0-1.5-1.239 1.489 1.489 0 0 0-1.573 1.062 67.308 67.308 0 0 0-2.752 7.648h-.039a74.542 74.542 0 0 0-2.733-7.648 1.5 1.5 0 0 0-1.573-1.062 1.359 1.359 0 0 0-1.494 1.239 68.214 68.214 0 0 0-1.613 10.873.576.576 0 0 0 .492.708 3.321 3.321 0 0 0 1.165.066zm16.535-.1h6.743c.413 0 .472-.452.472-.924 0-.491-.019-.865-.452-.865h-5.348v-3.809h4.444c.373 0 .452-.433.452-.924s-.02-.865-.472-.865h-4.424v-3.6h5.289c.374 0 .452-.452.452-.924s-.039-.865-.471-.865h-6.685a.778.778 0 0 0-.865.865v11.05a.778.778 0 0 0 .865.869zm12.347.157a8.555 8.555 0 0 0 5.131-1.317 6.431 6.431 0 0 0 2.359-5.426c0-4.208-2.28-6.213-7.019-6.213a17.368 17.368 0 0 0-2.713.177.755.755 0 0 0-.668.826v10.897a.806.806 0 0 0 .747.944 14.323 14.323 0 0 0 2.163.118zm.648-1.789c-.432 0-.845 0-1.3-.039v-9.28a9.667 9.667 0 0 1 1.435-.1c2.949 0 4.345 1.475 4.384 4.542a5.263 5.263 0 0 1-1.16 3.716 4.275 4.275 0 0 1-3.359 1.166zm9.536 1.828a.56.56 0 0 0 .59-.59c.157-.747.334-1.632.589-2.556h5.486a22.342 22.342 0 0 1 .59 2.556.55.55 0 0 0 .59.59 3.3 3.3 0 0 0 .884-.1c.708-.157.865-.452.747-.983a47.328 47.328 0 0 0-3.951-10.951 1.655 1.655 0 0 0-1.632-.963 1.6 1.6 0 0 0-1.593 1 45 45 0 0 0-3.932 10.912c-.118.531.059.806.747.983a3.053 3.053 0 0 0 .885.108zm1.671-4.935a32.286 32.286 0 0 1 2.222-5.78h.078a35.6 35.6 0 0 1 2.2 5.78h-4.5zm14.038 4.994c2.634 0 4.994-1.553 4.935-4.267a2.939 2.939 0 0 0-1.927-2.772 36.694 36.694 0 0 0-4.109-1.239 1.678 1.678 0 0 1-1.416-1.494c0-1.022.865-1.71 2.5-1.71a5.729 5.729 0 0 1 2.989.747c.55.256.806.138 1.022-.531a.837.837 0 0 0-.236-1.14 6.933 6.933 0 0 0-3.834-.9c-2.929 0-4.7 1.435-4.66 3.834a2.971 2.971 0 0 0 1.868 2.831 27 27 0 0 0 3.972 1.2 1.81 1.81 0 0 1 1.612 1.691c0 1.1-.885 1.907-2.713 1.927a5.544 5.544 0 0 1-3.539-1.317c-.492-.374-.767-.216-1.1.492a.9.9 0 0 0 .1 1.219 7.091 7.091 0 0 0 4.536 1.435z" transform="translate(-20.406 -70.844)" style="fill:#001f53;fill-rule:evenodd"/></svg><svg width="131.78" height="14.28" viewBox="-1 -1 131.78 14.28" y="34.91" xmlns="http://www.w3.org/2000/svg"><path data-name="proactive care™" d="M11.4 78.469a2.273 2.273 0 0 0 .824 0 .334.334 0 0 0 .353-.351v-3.581a14.282 14.282 0 0 0 1.715.067c2.725 0 4.491-1.188 4.491-3.581 0-2.326-1.833-3.514-4.676-3.514a21.546 21.546 0 0 0-2.54.1.567.567 0 0 0-.5.619v9.89a.321.321 0 0 0 .333.351zm2.842-5.02a10.881 10.881 0 0 1-1.665-.1v-4.636c.387-.034.858-.05 1.514-.05 1.884-.017 3.128.7 3.128 2.359s-1.096 2.427-2.98 2.427zm6.831 5.02a2.273 2.273 0 0 0 .824 0 .334.334 0 0 0 .353-.351V74.2a10.99 10.99 0 0 0 1.615.084 10.916 10.916 0 0 0 3.717 4.1.935.935 0 0 0 1.194-.05c.286-.218.437-.485.1-.7a10.12 10.12 0 0 1-3.481-3.514 3.278 3.278 0 0 0 2.893-3.3c0-2.092-1.833-3.313-4.507-3.313a21.545 21.545 0 0 0-2.54.1.567.567 0 0 0-.5.619v9.89a.321.321 0 0 0 .329.353zm2.842-5.388A11.246 11.246 0 0 1 22.247 73v-4.27c.387-.033.858-.05 1.514-.05 1.716-.034 2.943.736 2.943 2.159-.004 1.439-1.093 2.242-2.792 2.242zM34.8 78.754c3.078 0 4.928-2.209 4.945-5.773.017-3.447-1.7-5.673-4.861-5.673-3.078 0-4.945 2.209-4.945 5.773-.003 3.447 1.696 5.673 4.861 5.673zm.034-1.171c-2.254 0-3.313-1.924-3.347-4.551-.034-2.744 1.11-4.535 3.381-4.535 2.22 0 3.313 1.891 3.347 4.5.012 2.728-1.148 4.585-3.385 4.585zm7.185.987a.378.378 0 0 0 .4-.385c.151-.753.32-1.573.555-2.41h5.113c.219.837.4 1.64.572 2.41a.378.378 0 0 0 .4.385 1.631 1.631 0 0 0 .572-.084c.437-.1.555-.284.471-.619a38.186 38.186 0 0 0-3.5-9.689 1.115 1.115 0 0 0-1.093-.669 1.1 1.1 0 0 0-1.076.686 35.077 35.077 0 0 0-3.481 9.672c-.084.335.034.519.471.619a1.559 1.559 0 0 0 .592.083zm1.261-4.016A29.258 29.258 0 0 1 45.479 69h.05a29.258 29.258 0 0 1 2.2 5.555h-4.453zm13.037 4.184a4.844 4.844 0 0 0 3.431-1.188.548.548 0 0 0 .05-.853.476.476 0 0 0-.774-.2 3.686 3.686 0 0 1-2.573.937c-2.22 0-3.616-1.774-3.616-4.468 0-2.661 1.43-4.367 3.6-4.367a3.725 3.725 0 0 1 2.186.619c.4.2.555.017.706-.385a.538.538 0 0 0-.252-.82 5.041 5.041 0 0 0-2.725-.686c-2.977 0-5.046 2.41-5.046 5.723-.004 3.511 2.015 5.687 5.009 5.687zm8.8-.268a2.366 2.366 0 0 0 .841 0 .321.321 0 0 0 .336-.351V68.78h3.2c.269 0 .353-.234.353-.653 0-.4-.067-.586-.353-.586h-8.032c-.252 0-.353.251-.353.653s.084.586.353.586h3.313v9.337a.321.321 0 0 0 .336.352zm7 0a2.273 2.273 0 0 0 .824 0 .334.334 0 0 0 .353-.351V67.81a.326.326 0 0 0-.353-.351 2.273 2.273 0 0 0-.824 0 .313.313 0 0 0-.336.351v10.308a.321.321 0 0 0 .33.351zm7.748.13a1.021 1.021 0 0 0 1.06-.686 34.141 34.141 0 0 0 3.5-9.655.486.486 0 0 0-.471-.636 2.079 2.079 0 0 0-.589-.084.368.368 0 0 0-.4.385c-.286 1.322-.622 2.845-1.093 4.317a30.365 30.365 0 0 1-1.972 4.822h-.069a29.242 29.242 0 0 1-1.951-4.8 40.308 40.308 0 0 1-1.127-4.334.366.366 0 0 0-.387-.385 2.034 2.034 0 0 0-.639.084.485.485 0 0 0-.471.636 36.813 36.813 0 0 0 3.515 9.689 1.018 1.018 0 0 0 1.094.647zm7.1-.184H92.7c.336 0 .353-.3.353-.636 0-.318-.017-.586-.32-.586H87.89V73.5h4.07c.286 0 .32-.284.32-.619 0-.318 0-.6-.336-.6H87.89v-3.517h4.793c.286 0 .319-.284.319-.619 0-.318 0-.6-.336-.6h-5.7a.524.524 0 0 0-.589.586v9.706a.524.524 0 0 0 .588.582zm15.728.318a4.843 4.843 0 0 0 3.431-1.188.548.548 0 0 0 .051-.853.476.476 0 0 0-.774-.2 3.686 3.686 0 0 1-2.573.937c-2.22 0-3.616-1.774-3.616-4.468 0-2.661 1.429-4.367 3.6-4.367a3.722 3.722 0 0 1 2.186.619c.4.2.555.017.707-.385a.538.538 0 0 0-.252-.82 5.044 5.044 0 0 0-2.725-.686c-2.977 0-5.046 2.41-5.046 5.723-.001 3.515 2.018 5.691 5.011 5.691zm5.957-.167a.378.378 0 0 0 .4-.385c.152-.753.32-1.573.555-2.41h5.113c.219.837.4 1.64.572 2.41a.378.378 0 0 0 .4.385 1.625 1.625 0 0 0 .571-.084c.438-.1.555-.284.471-.619a38.166 38.166 0 0 0-3.5-9.689 1.115 1.115 0 0 0-1.093-.669 1.1 1.1 0 0 0-1.077.686 35.1 35.1 0 0 0-3.481 9.672c-.084.335.034.519.471.619a1.558 1.558 0 0 0 .598.086zm1.261-4.016a29.278 29.278 0 0 1 2.2-5.555h.051a29.278 29.278 0 0 1 2.2 5.555h-4.457zm9.135 3.916a2.273 2.273 0 0 0 .824 0 .334.334 0 0 0 .353-.351V74.2a10.994 10.994 0 0 0 1.615.084 10.919 10.919 0 0 0 3.717 4.1.935.935 0 0 0 1.194-.05c.286-.218.437-.485.1-.7a10.123 10.123 0 0 1-3.482-3.514 3.278 3.278 0 0 0 2.893-3.3c0-2.092-1.833-3.313-4.507-3.313a21.555 21.555 0 0 0-2.54.1.567.567 0 0 0-.5.619v9.89a.321.321 0 0 0 .333.353zm2.842-5.388a11.252 11.252 0 0 1-1.665-.079v-4.27c.387-.033.858-.05 1.514-.05 1.715-.034 2.943.736 2.943 2.159 0 1.439-1.093 2.242-2.792 2.242zm7.3 5.338h5.735c.337 0 .353-.3.353-.636 0-.318-.016-.586-.319-.586h-4.844V73.5h4.07c.286 0 .32-.284.32-.619 0-.318 0-.6-.337-.6h-4.053v-3.517h4.793c.286 0 .32-.284.32-.619 0-.318 0-.6-.336-.6h-5.7a.524.524 0 0 0-.589.586v9.706a.524.524 0 0 0 .589.582zm7.747-9.5a.524.524 0 0 0 .246 0 .122.122 0 0 0 .108-.147v-1.89h.611c.1 0 .147-.078.147-.215a.156.156 0 0 0-.147-.2h-1.7c-.108 0-.148.088-.148.215s.04.2.148.2h.618v1.894a.128.128 0 0 0 .119.147zm1.482.01a.149.149 0 0 0 .157-.156 9.2 9.2 0 0 1 .118-1.132l.059-.449h.019c.039.127.1.283.147.429.108.3.206.625.324 1.044a.2.2 0 0 0 .236.186.219.219 0 0 0 .245-.186c.108-.42.206-.732.3-1.035l.157-.449h.02c.029.146.049.322.068.469a9.529 9.529 0 0 1 .108 1.123.161.161 0 0 0 .157.156.4.4 0 0 0 .187-.01.139.139 0 0 0 .127-.176 12.75 12.75 0 0 0-.294-2.04.28.28 0 0 0-.294-.234.286.286 0 0 0-.3.2 12.2 12.2 0 0 0-.481 1.328c-.147-.459-.3-.9-.49-1.328a.286.286 0 0 0-.295-.2.268.268 0 0 0-.284.234 10.714 10.714 0 0 0-.3 2.04.144.144 0 0 0 .127.176.369.369 0 0 0 .184.013z" transform="translate(-11.063 -66.469)" style="fill:#001f53;fill-rule:evenodd"/></svg></svg>