<svg width="264" height="117" xmlns="http://www.w3.org/2000/svg" xmlns:xlink="http://www.w3.org/1999/xlink"><svg width="126.56" height="21.12" viewBox="-1 -1 126.56 21.12" y="95.15" xmlns="http://www.w3.org/2000/svg"><path data-name="COMPRA AQUÍ" d="M94.147 181.614a5.744 5.744 0 0 0 4.081-1.42.657.657 0 0 0 .06-1.02.565.565 0 0 0-.92-.24 4.372 4.372 0 0 1-3.061 1.12c-2.641 0-4.3-2.12-4.3-5.341 0-3.181 1.7-5.221 4.281-5.221a4.414 4.414 0 0 1 2.6.74c.48.24.66.02.84-.46a.644.644 0 0 0-.3-.98 5.974 5.974 0 0 0-3.241-.82c-3.541 0-6 2.88-6 6.841-.001 4.201 2.399 6.801 5.96 6.801zm11.62.02c3.661 0 5.861-2.64 5.881-6.9.02-4.121-2.02-6.781-5.781-6.781-3.661 0-5.881 2.64-5.881 6.9 0 4.121 2.02 6.781 5.781 6.781zm.04-1.4c-2.681 0-3.941-2.3-3.981-5.441-.04-3.281 1.32-5.421 4.021-5.421 2.641 0 3.941 2.26 3.981 5.381.02 3.261-1.36 5.481-4.021 5.481zm9.039 1.08a.476.476 0 0 0 .52-.5c.12-2.48.32-4.421.6-6.421.2-1.32.42-2.8.68-4.061h.04c.481 1.12.981 2.6 1.421 3.861.64 1.8 1.18 3.621 1.8 5.881a.838.838 0 0 0 .94.82.856.856 0 0 0 .981-.82c.58-2.3 1.14-4.121 1.76-5.881.44-1.26.96-2.681 1.46-3.861h.04c.26 1.26.5 2.781.7 4.1.28 1.98.48 4.081.6 6.381a.452.452 0 0 0 .5.5 2.7 2.7 0 0 0 .9-.04.468.468 0 0 0 .42-.56 72.133 72.133 0 0 0-1.68-11.482 1.156 1.156 0 0 0-1.241-1.02 1.229 1.229 0 0 0-1.3.86 73.7 73.7 0 0 0-3.081 8.862h-.04a68.145 68.145 0 0 0-3.1-8.862 1.21 1.21 0 0 0-1.261-.86 1.12 1.12 0 0 0-1.24 1.04 64.528 64.528 0 0 0-1.7 11.462.446.446 0 0 0 .4.56 2.608 2.608 0 0 0 .881.041zm16.5-.02a2.69 2.69 0 0 0 .98 0 .4.4 0 0 0 .42-.42v-4.281a16.9 16.9 0 0 0 2.041.08c3.24 0 5.341-1.42 5.341-4.281 0-2.78-2.181-4.2-5.561-4.2a25.518 25.518 0 0 0-3.021.12.677.677 0 0 0-.6.74v11.822a.382.382 0 0 0 .4.42zm3.381-6a12.877 12.877 0 0 1-1.981-.12v-5.541c.46-.04 1.02-.06 1.8-.06 2.24-.02 3.72.84 3.72 2.82s-1.299 2.9-3.539 2.9zm8.119 6a2.69 2.69 0 0 0 .98 0 .4.4 0 0 0 .42-.42v-4.681a13.012 13.012 0 0 0 1.921.1 13.021 13.021 0 0 0 4.42 4.9 1.11 1.11 0 0 0 1.421-.06c.34-.26.52-.58.12-.84a12.056 12.056 0 0 1-4.141-4.2 3.912 3.912 0 0 0 3.441-3.941c0-2.5-2.181-3.96-5.361-3.96a25.518 25.518 0 0 0-3.021.12.677.677 0 0 0-.6.74v11.822a.382.382 0 0 0 .4.42zm3.381-6.441a13.308 13.308 0 0 1-1.981-.1v-5.1c.46-.04 1.02-.06 1.8-.06 2.04-.04 3.5.88 3.5 2.58.001 1.72-1.299 2.68-3.319 2.68zm8.8 6.561a.451.451 0 0 0 .48-.46c.18-.9.38-1.88.66-2.88h6.081c.26 1 .48 1.96.68 2.88a.451.451 0 0 0 .48.46 1.934 1.934 0 0 0 .68-.1c.521-.12.661-.34.561-.74a45.828 45.828 0 0 0-4.161-11.582 1.326 1.326 0 0 0-1.3-.8 1.306 1.306 0 0 0-1.28.82 42.062 42.062 0 0 0-4.141 11.562c-.1.4.04.62.56.74a1.851 1.851 0 0 0 .699.1zm1.5-4.8a35.085 35.085 0 0 1 2.62-6.641h.06a35.018 35.018 0 0 1 2.621 6.641h-5.3zm14.479 4.8a.451.451 0 0 0 .48-.46c.18-.9.38-1.88.66-2.88h6.082c.26 1 .48 1.96.68 2.88a.451.451 0 0 0 .48.46 1.934 1.934 0 0 0 .68-.1c.52-.12.66-.34.56-.74a45.751 45.751 0 0 0-4.161-11.582 1.326 1.326 0 0 0-1.3-.8 1.306 1.306 0 0 0-1.28.82 42.03 42.03 0 0 0-4.141 11.562c-.1.4.04.62.56.74a1.849 1.849 0 0 0 .699.1zm1.5-4.8a35.152 35.152 0 0 1 2.621-6.641h.06a35.152 35.152 0 0 1 2.621 6.641h-5.3zm21.642 6.1a23.252 23.252 0 0 1-3.56-1.7c1.98-1.02 3.1-3.24 3.12-6.281.02-4.121-2.02-6.781-5.781-6.781-3.661 0-5.881 2.64-5.881 6.9 0 4.121 2.02 6.781 5.781 6.781a6.291 6.291 0 0 0 .88-.06 24.023 24.023 0 0 0 3.921 2.141 1.333 1.333 0 0 0 1.38-.24c.399-.274.599-.574.139-.759zm-10.262-7.922c-.04-3.281 1.32-5.421 4.021-5.421 2.641 0 3.941 2.26 3.981 5.381.02 3.261-1.36 5.481-4.021 5.481-2.682.001-3.942-2.299-3.982-5.44zm17.4 6.741c3.08 0 4.761-1.64 4.761-4.681v-8.261a.389.389 0 0 0-.42-.42 2.482 2.482 0 0 0-.941 0 .373.373 0 0 0-.4.42v8.461a3 3 0 1 1-6 0v-8.461a.389.389 0 0 0-.42-.42 2.582 2.582 0 0 0-.96 0 .389.389 0 0 0-.42.42v8.261c-.001 3.042 1.679 4.682 4.8 4.682zm7.679-13.783v13.483h1.74v-13.482h-1.74zm1.66-3.06-1.84 2.34h1.42l2.56-2.34h-2.14z" transform="translate(-88.188 -164.688)" style="fill:#fff;fill-rule:evenodd"/></svg><svg width="263.88" height="33.06" viewBox="-1 -1 263.88 33.06" xmlns="http://www.w3.org/2000/svg"><path data-name="*Remoción mecánica por medio del arrastre de las bacterias Esch" d="M31.745 210.143a.141.141 0 0 0 .22-.055l.386-.669.394.661a.143.143 0 0 0 .228.047l.126-.087a.14.14 0 0 0 .024-.228l-.535-.575.748-.181a.145.145 0 0 0 .118-.2l-.055-.134a.135.135 0 0 0-.2-.095l-.693.347.079-.764a.146.146 0 0 0-.157-.173h-.15a.14.14 0 0 0-.157.173l.079.764-.709-.339a.136.136 0 0 0-.2.095l-.047.134a.138.138 0 0 0 .118.2l.756.189-.52.575a.134.134 0 0 0 .024.228zm2.993 3.416a1.042 1.042 0 0 0 .386 0 .157.157 0 0 0 .165-.165v-1.842a5.224 5.224 0 0 0 .756.039 5.126 5.126 0 0 0 1.74 1.929.437.437 0 0 0 .559-.024c.134-.1.2-.228.047-.33a4.748 4.748 0 0 1-1.63-1.654 1.539 1.539 0 0 0 1.354-1.55c0-.984-.858-1.559-2.11-1.559a10.164 10.164 0 0 0-1.189.047.267.267 0 0 0-.236.292v4.652a.151.151 0 0 0 .158.165zm1.33-2.535a5.174 5.174 0 0 1-.779-.039v-2.007c.181-.016.4-.024.709-.024a1.135 1.135 0 0 1 1.377 1.016 1.1 1.1 0 0 1-1.307 1.054zm3.419 2.512h2.684c.157 0 .165-.142.165-.3s-.008-.275-.149-.275H39.92v-1.74h1.905c.134 0 .149-.134.149-.291s0-.283-.157-.283h-1.9v-1.654h2.243c.134 0 .15-.133.15-.291s0-.283-.157-.283h-2.666a.245.245 0 0 0-.276.275v4.566a.246.246 0 0 0 .276.276zm4.206.031a.187.187 0 0 0 .2-.2c.047-.976.126-1.739.236-2.527.079-.519.165-1.1.268-1.6h.016c.189.441.386 1.024.559 1.52.252.708.464 1.424.708 2.314a.33.33 0 0 0 .37.323.336.336 0 0 0 .386-.323c.228-.905.449-1.622.693-2.314.173-.5.378-1.055.575-1.52h.016c.1.5.2 1.095.276 1.614.11.779.189 1.606.236 2.511a.178.178 0 0 0 .2.2 1.047 1.047 0 0 0 .354-.016.184.184 0 0 0 .165-.22 28.383 28.383 0 0 0-.661-4.519.454.454 0 0 0-.488-.4.484.484 0 0 0-.512.338 28.934 28.934 0 0 0-1.212 3.488h-.016a26.852 26.852 0 0 0-1.22-3.488.476.476 0 0 0-.5-.338.441.441 0 0 0-.488.409 25.407 25.407 0 0 0-.669 4.511.175.175 0 0 0 .157.22 1.011 1.011 0 0 0 .351.017zm8.253.126c1.441 0 2.307-1.039 2.314-2.716.008-1.621-.8-2.668-2.275-2.668-1.441 0-2.314 1.039-2.314 2.715 0 1.622.795 2.669 2.275 2.669zm.016-.551c-1.055 0-1.551-.905-1.566-2.141-.016-1.291.52-2.133 1.582-2.133 1.039 0 1.551.889 1.566 2.117.008 1.283-.535 2.157-1.582 2.157zm5.5.543a2.259 2.259 0 0 0 1.606-.559.258.258 0 0 0 .024-.4.222.222 0 0 0-.362-.095 1.717 1.717 0 0 1-1.2.441c-1.039 0-1.692-.834-1.692-2.1a1.778 1.778 0 0 1 1.685-2.054 1.738 1.738 0 0 1 1.023.291c.189.094.26.008.331-.181a.254.254 0 0 0-.118-.386 2.357 2.357 0 0 0-1.275-.323 2.446 2.446 0 0 0-2.361 2.693c-.009 1.65.935 2.673 2.336 2.673zm2.781-.126a1.042 1.042 0 0 0 .386 0 .157.157 0 0 0 .165-.165v-4.849a.153.153 0 0 0-.165-.166 1.086 1.086 0 0 0-.386 0 .147.147 0 0 0-.157.166v4.849a.151.151 0 0 0 .155.165zm3.229-5.5 1.5-.732a.126.126 0 0 0 .063-.189 1.054 1.054 0 0 0-.15-.3.137.137 0 0 0-.2-.048l-1.409.874c-.118.071-.079.158-.031.26.055.141.13.176.224.133zm.614 5.636c1.441 0 2.307-1.039 2.314-2.716.008-1.621-.795-2.668-2.275-2.668-1.441 0-2.314 1.039-2.314 2.715-.003 1.62.789 2.667 2.272 2.667zm.016-.551c-1.055 0-1.551-.905-1.567-2.141-.016-1.291.52-2.133 1.582-2.133 1.039 0 1.551.889 1.567 2.117.005 1.281-.538 2.155-1.584 2.155zm3.482.409a.791.791 0 0 0 .362 0 .156.156 0 0 0 .165-.165v-2.85c0-.362-.016-.771-.031-1.1h.016c.15.26.386.693.59 1l1.905 2.92a.393.393 0 0 0 .354.182h.142a.262.262 0 0 0 .291-.292v-4.683a.15.15 0 0 0-.165-.166.82.82 0 0 0-.362-.008.163.163 0 0 0-.165.174l.008 2.928c0 .346.016.708.024 1.015H70.7c-.126-.22-.346-.653-.543-.952l-1.921-2.944a.386.386 0 0 0-.346-.189h-.183a.262.262 0 0 0-.291.291v4.676a.152.152 0 0 0 .165.161zm6.836.016a.187.187 0 0 0 .2-.2c.047-.976.126-1.739.236-2.527.079-.519.165-1.1.268-1.6h.016c.189.441.386 1.024.559 1.52.252.708.464 1.424.709 2.314a.33.33 0 0 0 .37.323.336.336 0 0 0 .386-.323c.228-.905.449-1.622.693-2.314.173-.5.378-1.055.575-1.52h.016c.1.5.2 1.095.276 1.614.11.779.189 1.606.236 2.511a.178.178 0 0 0 .2.2 1.047 1.047 0 0 0 .354-.016.184.184 0 0 0 .165-.22 28.4 28.4 0 0 0-.661-4.519.454.454 0 0 0-.488-.4.484.484 0 0 0-.512.338 28.951 28.951 0 0 0-1.212 3.488h-.019a26.882 26.882 0 0 0-1.22-3.488.476.476 0 0 0-.5-.338.441.441 0 0 0-.488.409 25.4 25.4 0 0 0-.669 4.511.175.175 0 0 0 .157.22 1.011 1.011 0 0 0 .351.015zm6.616-.031h2.684c.157 0 .165-.142.165-.3s-.008-.275-.15-.275h-2.268v-1.74h1.905c.134 0 .15-.134.15-.291s0-.283-.157-.283h-1.9v-1.654h2.245c.134 0 .15-.133.15-.291s0-.283-.157-.283h-2.669a.245.245 0 0 0-.276.275v4.566a.246.246 0 0 0 .276.274zm5.827.149a2.259 2.259 0 0 0 1.606-.559.258.258 0 0 0 .024-.4.222.222 0 0 0-.362-.095 1.717 1.717 0 0 1-1.2.441c-1.039 0-1.692-.834-1.692-2.1a1.778 1.778 0 0 1 1.685-2.054 1.738 1.738 0 0 1 1.023.291c.189.094.26.008.331-.181a.254.254 0 0 0-.118-.386 2.356 2.356 0 0 0-1.275-.323 2.446 2.446 0 0 0-2.362 2.693c-.008 1.648.937 2.671 2.338 2.671zm3.836-5.628 1.5-.732a.127.127 0 0 0 .063-.189 1.057 1.057 0 0 0-.15-.3.136.136 0 0 0-.2-.048l-1.409.874c-.118.071-.079.158-.032.26.061.141.129.176.229.133zm-1.047 5.549a.177.177 0 0 0 .189-.181c.071-.354.15-.74.26-1.133h2.393c.1.393.189.771.268 1.133a.177.177 0 0 0 .189.181.75.75 0 0 0 .268-.039c.2-.047.26-.134.22-.291a18.028 18.028 0 0 0-1.637-4.558.522.522 0 0 0-.512-.315.514.514 0 0 0-.5.323 16.549 16.549 0 0 0-1.629 4.55c-.039.157.016.244.22.291a.718.718 0 0 0 .269.037zm.59-1.889a13.81 13.81 0 0 1 1.031-2.613h.027a13.816 13.816 0 0 1 1.031 2.613h-2.09zm4.285 1.834a.791.791 0 0 0 .362 0 .156.156 0 0 0 .165-.165v-2.85c0-.362-.016-.771-.032-1.1h.016c.15.26.386.693.59 1l1.9 2.92a.393.393 0 0 0 .354.182h.142a.262.262 0 0 0 .291-.292v-4.683a.15.15 0 0 0-.165-.166.82.82 0 0 0-.362-.008.163.163 0 0 0-.165.174l.008 2.928c0 .346.016.708.024 1.015h-.012c-.126-.22-.346-.653-.543-.952l-1.921-2.944a.386.386 0 0 0-.346-.189h-.182a.262.262 0 0 0-.291.291v4.676a.152.152 0 0 0 .165.161zm5.214.008a1.041 1.041 0 0 0 .386 0 .157.157 0 0 0 .165-.165v-4.849a.153.153 0 0 0-.165-.166 1.086 1.086 0 0 0-.386 0 .147.147 0 0 0-.157.166v4.849a.151.151 0 0 0 .155.163zm3.914.126a2.261 2.261 0 0 0 1.606-.559.259.259 0 0 0 .023-.4.222.222 0 0 0-.362-.095 1.715 1.715 0 0 1-1.2.441c-1.039 0-1.693-.834-1.693-2.1a1.778 1.778 0 0 1 1.685-2.054 1.739 1.739 0 0 1 1.023.291c.189.094.26.008.331-.181a.254.254 0 0 0-.118-.386 2.357 2.357 0 0 0-1.275-.323 2.446 2.446 0 0 0-2.362 2.693c-.006 1.648.939 2.671 2.34 2.671zm2.789-.079a.177.177 0 0 0 .189-.181c.071-.354.149-.74.26-1.133h2.393c.1.393.189.771.267 1.133a.177.177 0 0 0 .189.181.751.751 0 0 0 .268-.039c.2-.047.26-.134.22-.291a18.043 18.043 0 0 0-1.637-4.558.523.523 0 0 0-.512-.315.515.515 0 0 0-.5.323 16.571 16.571 0 0 0-1.629 4.55c-.039.157.016.244.22.291a.722.722 0 0 0 .27.037zm.59-1.889a13.816 13.816 0 0 1 1.032-2.613h.023a13.75 13.75 0 0 1 1.031 2.613h-2.086zm5.7 1.842a1.043 1.043 0 0 0 .386 0 .157.157 0 0 0 .165-.165v-1.685a6.541 6.541 0 0 0 .8.032c1.275 0 2.1-.559 2.1-1.685 0-1.094-.858-1.653-2.189-1.653a10.157 10.157 0 0 0-1.188.047.267.267 0 0 0-.236.292v4.652a.15.15 0 0 0 .155.163zm1.33-2.361a4.989 4.989 0 0 1-.779-.048v-2.18a8.1 8.1 0 0 1 .708-.024c.882-.008 1.465.331 1.465 1.11a1.146 1.146 0 0 1-1.401 1.142zm5.151 2.5c1.441 0 2.306-1.039 2.314-2.716.008-1.621-.8-2.668-2.275-2.668-1.44 0-2.314 1.039-2.314 2.715-.007 1.615.788 2.662 2.268 2.662zm.016-.551c-1.055 0-1.551-.905-1.567-2.141-.015-1.291.52-2.133 1.582-2.133 1.04 0 1.551.889 1.567 2.117.001 1.276-.542 2.15-1.589 2.15zm3.474.417a1.043 1.043 0 0 0 .386 0 .157.157 0 0 0 .165-.165v-1.842a5.222 5.222 0 0 0 .756.039 5.126 5.126 0 0 0 1.74 1.929.437.437 0 0 0 .559-.024c.133-.1.2-.228.047-.33a4.747 4.747 0 0 1-1.63-1.654 1.539 1.539 0 0 0 1.354-1.55c0-.984-.858-1.559-2.109-1.559a10.166 10.166 0 0 0-1.189.047.267.267 0 0 0-.236.292v4.652a.15.15 0 0 0 .152.158zm1.331-2.535a5.183 5.183 0 0 1-.78-.039v-2.007c.181-.016.4-.024.709-.024a1.135 1.135 0 0 1 1.377 1.016 1.1 1.1 0 0 1-1.313 1.047zm4.923 2.543a.186.186 0 0 0 .2-.2c.048-.976.126-1.739.237-2.527.078-.519.165-1.1.267-1.6h.016c.189.441.386 1.024.559 1.52.252.708.464 1.424.708 2.314a.33.33 0 0 0 .37.323.336.336 0 0 0 .386-.323c.228-.905.449-1.622.693-2.314.173-.5.378-1.055.574-1.52h.016c.1.5.2 1.095.276 1.614.11.779.189 1.606.236 2.511a.178.178 0 0 0 .2.2 1.046 1.046 0 0 0 .354-.016.184.184 0 0 0 .165-.22 28.3 28.3 0 0 0-.661-4.519.454.454 0 0 0-.488-.4.484.484 0 0 0-.512.338 28.9 28.9 0 0 0-1.212 3.488h-.016a26.807 26.807 0 0 0-1.22-3.488.476.476 0 0 0-.5-.338.441.441 0 0 0-.488.409 25.389 25.389 0 0 0-.669 4.511.175.175 0 0 0 .157.22 1.014 1.014 0 0 0 .345.01zm6.616-.031h2.684c.157 0 .165-.142.165-.3s-.008-.275-.149-.275H136v-1.74h1.905c.133 0 .149-.134.149-.291s0-.283-.157-.283H136V209h2.243c.134 0 .15-.133.15-.291s0-.283-.158-.283h-2.668a.246.246 0 0 0-.276.275v4.566a.246.246 0 0 0 .277.269zm4.977.063a3.292 3.292 0 0 0 2.031-.567 2.577 2.577 0 0 0 .866-2.118c0-1.677-.9-2.495-2.779-2.495a7.578 7.578 0 0 0-1.031.063.242.242 0 0 0-.221.267v4.5a.248.248 0 0 0 .237.291 7.178 7.178 0 0 0 .89.053zm.165-.583c-.2 0-.385-.008-.6-.024v-3.975a4.96 4.96 0 0 1 .638-.039 1.722 1.722 0 0 1 1.983 1.944 2.172 2.172 0 0 1-.519 1.59 1.982 1.982 0 0 1-1.509.497zm3.876.543a1.043 1.043 0 0 0 .386 0 .157.157 0 0 0 .165-.165v-4.849a.153.153 0 0 0-.165-.166 1.088 1.088 0 0 0-.386 0 .148.148 0 0 0-.158.166v4.849a.151.151 0 0 0 .151.158zm3.842.134c1.441 0 2.307-1.039 2.315-2.716.008-1.621-.795-2.668-2.275-2.668-1.441 0-2.314 1.039-2.314 2.715-.007 1.615.788 2.662 2.267 2.662zm.016-.551c-1.055 0-1.551-.905-1.566-2.141-.016-1.291.519-2.133 1.582-2.133 1.039 0 1.551.889 1.566 2.117.001 1.276-.542 2.15-1.589 2.15zm5.868.457a3.292 3.292 0 0 0 2.031-.567 2.574 2.574 0 0 0 .866-2.118c0-1.677-.9-2.495-2.778-2.495a7.6 7.6 0 0 0-1.032.063.242.242 0 0 0-.22.267v4.5a.248.248 0 0 0 .236.291 7.191 7.191 0 0 0 .89.053zm.166-.583c-.205 0-.386-.008-.6-.024v-3.975a4.984 4.984 0 0 1 .638-.039 1.723 1.723 0 0 1 1.984 1.944 2.168 2.168 0 0 1-.52 1.59 1.979 1.979 0 0 1-1.509.497zm3.993.52h2.685c.157 0 .165-.142.165-.3s-.008-.275-.149-.275H158.9v-1.74h1.905c.134 0 .15-.134.15-.291s0-.283-.157-.283h-1.9V209h2.244c.134 0 .149-.133.149-.291s0-.283-.157-.283h-2.669a.245.245 0 0 0-.275.275v4.566a.246.246 0 0 0 .281.269zm4.12 0h2.676c.165 0 .173-.134.173-.3s-.008-.283-.157-.283h-2.259v-4.392a.157.157 0 0 0-.166-.166 1.083 1.083 0 0 0-.385 0 .151.151 0 0 0-.158.166v4.7a.246.246 0 0 0 .269.268zm5.3.07a.176.176 0 0 0 .189-.181c.071-.354.15-.74.26-1.133h2.393c.1.393.189.771.268 1.133a.176.176 0 0 0 .189.181.746.746 0 0 0 .267-.039c.205-.047.26-.134.221-.291a18.007 18.007 0 0 0-1.638-4.558.521.521 0 0 0-.511-.315.515.515 0 0 0-.5.323 16.573 16.573 0 0 0-1.63 4.55c-.039.157.016.244.221.291a.714.714 0 0 0 .264.032zm.591-1.889a13.75 13.75 0 0 1 1.031-2.613h.023a13.816 13.816 0 0 1 1.032 2.613h-2.086zm4.277 1.842a1.038 1.038 0 0 0 .385 0 .157.157 0 0 0 .166-.165v-1.842a5.216 5.216 0 0 0 .755.039 5.126 5.126 0 0 0 1.74 1.929.437.437 0 0 0 .559-.024c.134-.1.2-.228.047-.33a4.744 4.744 0 0 1-1.629-1.654 1.539 1.539 0 0 0 1.354-1.55c0-.984-.858-1.559-2.11-1.559a10.178 10.178 0 0 0-1.189.047.267.267 0 0 0-.236.292v4.652a.151.151 0 0 0 .151.158zm1.33-2.535a5.168 5.168 0 0 1-.779-.039v-2.007a8.1 8.1 0 0 1 .708-.024 1.136 1.136 0 0 1 1.378 1.016 1.1 1.1 0 0 1-1.314 1.047zm3.3 2.535a1.043 1.043 0 0 0 .386 0 .157.157 0 0 0 .165-.165v-1.842a5.222 5.222 0 0 0 .756.039 5.123 5.123 0 0 0 1.739 1.929.437.437 0 0 0 .558-.027c.134-.1.2-.228.047-.33a4.744 4.744 0 0 1-1.629-1.654 1.539 1.539 0 0 0 1.354-1.55c0-.984-.858-1.559-2.11-1.559a10.157 10.157 0 0 0-1.188.047.267.267 0 0 0-.237.292v4.652a.151.151 0 0 0 .153.161zm1.33-2.535a5.176 5.176 0 0 1-.779-.039v-2.007a8.1 8.1 0 0 1 .708-.024 1.136 1.136 0 0 1 1.378 1.016 1.1 1.1 0 0 1-1.313 1.047zm3.466 2.582a.176.176 0 0 0 .189-.181c.071-.354.15-.74.26-1.133h2.393c.1.393.189.771.268 1.133a.176.176 0 0 0 .189.181.746.746 0 0 0 .267-.039c.2-.047.26-.134.221-.291a18.007 18.007 0 0 0-1.638-4.558.521.521 0 0 0-.511-.315.515.515 0 0 0-.5.323 16.573 16.573 0 0 0-1.63 4.55c-.039.157.016.244.221.291a.717.717 0 0 0 .265.032zm.591-1.889a13.75 13.75 0 0 1 1.031-2.613h.024a13.884 13.884 0 0 1 1.031 2.613h-2.086zm5.741 1.921a1.721 1.721 0 0 0 1.936-1.661 1.161 1.161 0 0 0-.74-1.1c-.527-.26-1.354-.331-1.818-.535a.66.66 0 0 1-.527-.638c-.008-.488.409-.795 1.149-.795a2.168 2.168 0 0 1 1.228.307c.181.1.268.055.338-.158a.258.258 0 0 0-.078-.377 2.658 2.658 0 0 0-1.52-.37c-1.133.007-1.834.559-1.826 1.464a1.152 1.152 0 0 0 .7 1.086 14.515 14.515 0 0 0 1.8.567.745.745 0 0 1 .6.7 1.015 1.015 0 0 1-1.244.914 1.992 1.992 0 0 1-1.441-.559c-.165-.142-.252-.071-.37.165a.284.284 0 0 0 .055.4 2.633 2.633 0 0 0 1.752.583zm4.19-.079a1.087 1.087 0 0 0 .394 0 .15.15 0 0 0 .157-.165V209h1.5c.126 0 .165-.11.165-.307s-.031-.275-.165-.275H191c-.118 0-.165.118-.165.307s.039.275.165.275h1.551v4.393a.15.15 0 0 0 .157.166zm3.277 0a1.043 1.043 0 0 0 .386 0 .157.157 0 0 0 .165-.165v-1.842a5.243 5.243 0 0 0 .756.039 5.126 5.126 0 0 0 1.74 1.929.437.437 0 0 0 .559-.024c.133-.1.2-.228.047-.33a4.755 4.755 0 0 1-1.63-1.654 1.539 1.539 0 0 0 1.354-1.55c0-.984-.858-1.559-2.109-1.559a10.166 10.166 0 0 0-1.189.047.267.267 0 0 0-.236.292v4.652a.15.15 0 0 0 .151.158zm1.331-2.535a5.183 5.183 0 0 1-.78-.039v-2.007c.181-.016.4-.024.709-.024a1.135 1.135 0 0 1 1.377 1.016 1.1 1.1 0 0 1-1.312 1.047zm3.419 2.512h2.684c.157 0 .165-.142.165-.3s-.008-.275-.149-.275h-2.267v-1.74h1.905c.133 0 .149-.134.149-.291s0-.283-.157-.283h-1.9V209h2.243c.134 0 .15-.133.15-.291s0-.283-.158-.283h-2.668a.246.246 0 0 0-.276.275v4.566a.246.246 0 0 0 .273.269zm6.395.063a3.29 3.29 0 0 0 2.03-.567 2.574 2.574 0 0 0 .866-2.118c0-1.677-.9-2.495-2.778-2.495a7.6 7.6 0 0 0-1.032.063.242.242 0 0 0-.22.267v4.5a.248.248 0 0 0 .236.291 7.2 7.2 0 0 0 .892.053zm.165-.583c-.2 0-.386-.008-.6-.024v-3.975a4.956 4.956 0 0 1 .637-.039 1.723 1.723 0 0 1 1.984 1.944 2.168 2.168 0 0 1-.52 1.59 1.979 1.979 0 0 1-1.502.497zm3.994.52h2.684c.157 0 .165-.142.165-.3s-.008-.275-.149-.275h-2.267v-1.74h1.9c.134 0 .15-.134.15-.291s0-.283-.157-.283h-1.9V209h2.243c.134 0 .15-.133.15-.291s0-.283-.158-.283h-2.668a.245.245 0 0 0-.276.275v4.566a.246.246 0 0 0 .277.269zm5.536 0h2.669c.165 0 .173-.134.173-.3s-.008-.283-.157-.283h-2.26v-4.392a.157.157 0 0 0-.165-.166 1.088 1.088 0 0 0-.386 0 .151.151 0 0 0-.157.166v4.7a.246.246 0 0 0 .277.268zm3.962.07a.177.177 0 0 0 .189-.181c.071-.354.15-.74.26-1.133h2.393c.1.393.189.771.267 1.133a.177.177 0 0 0 .189.181.748.748 0 0 0 .268-.039c.2-.047.26-.134.22-.291a18.043 18.043 0 0 0-1.637-4.558.523.523 0 0 0-.512-.315.514.514 0 0 0-.5.323 16.541 16.541 0 0 0-1.63 4.55c-.039.157.016.244.221.291a.714.714 0 0 0 .266.032zm.59-1.889a13.816 13.816 0 0 1 1.032-2.613h.023a13.75 13.75 0 0 1 1.031 2.613h-2.086zm5.742 1.921a1.721 1.721 0 0 0 1.936-1.661 1.162 1.162 0 0 0-.74-1.1c-.527-.26-1.354-.331-1.818-.535a.661.661 0 0 1-.528-.638c-.008-.488.41-.795 1.15-.795a2.168 2.168 0 0 1 1.228.307c.181.1.267.055.338-.158a.257.257 0 0 0-.079-.377 2.655 2.655 0 0 0-1.519-.37c-1.133.007-1.834.559-1.826 1.464a1.153 1.153 0 0 0 .7 1.086 14.528 14.528 0 0 0 1.8.567.744.744 0 0 1 .6.7 1.014 1.014 0 0 1-1.243.914 1.992 1.992 0 0 1-1.441-.559c-.165-.142-.252-.071-.37.165a.283.283 0 0 0 .055.4 2.631 2.631 0 0 0 1.751.583zm5.458-.032c1.354 0 2.165-.456 2.165-1.59a1.124 1.124 0 0 0-.8-1.118v-.015a1.244 1.244 0 0 0 .637-1.15c0-.913-.834-1.322-1.873-1.322a7.077 7.077 0 0 0-1.094.063.243.243 0 0 0-.221.268v4.526a.248.248 0 0 0 .236.291 7.538 7.538 0 0 0 .944.04zm-.5-2.959v-1.661c.22-.024.441-.024.653-.032a.915.915 0 0 1 1.134.85.742.742 0 0 1-.787.843h-1zm.6 2.4a4.991 4.991 0 0 1-.6-.031v-1.811h1.017a.762.762 0 0 1 .929.8 1.111 1.111 0 0 1-1.35 1.035zm3.214.559a.176.176 0 0 0 .189-.181c.071-.354.15-.74.26-1.133h2.393c.1.393.189.771.268 1.133a.176.176 0 0 0 .189.181.746.746 0 0 0 .267-.039c.2-.047.26-.134.221-.291a18.007 18.007 0 0 0-1.638-4.558.521.521 0 0 0-.511-.315.515.515 0 0 0-.5.323 16.573 16.573 0 0 0-1.63 4.55c-.039.157.016.244.221.291a.717.717 0 0 0 .267.032zm.591-1.889a13.75 13.75 0 0 1 1.031-2.613h.024a13.884 13.884 0 0 1 1.031 2.613h-2.086zm6.1 1.968a2.261 2.261 0 0 0 1.606-.559.257.257 0 0 0 .023-.4.222.222 0 0 0-.362-.095 1.715 1.715 0 0 1-1.2.441c-1.039 0-1.693-.834-1.693-2.1a1.778 1.778 0 0 1 1.685-2.054 1.734 1.734 0 0 1 1.023.291c.189.094.26.008.331-.181a.254.254 0 0 0-.118-.386 2.357 2.357 0 0 0-1.275-.323 2.446 2.446 0 0 0-2.362 2.693c-.005 1.643.94 2.666 2.341 2.666zm4.119-.126a1.087 1.087 0 0 0 .394 0 .15.15 0 0 0 .157-.165V209h1.5c.126 0 .165-.11.165-.307s-.031-.275-.165-.275H245c-.118 0-.165.118-.165.307s.037.275.165.275h1.551v4.393a.15.15 0 0 0 .155.166zm3.4-.023h2.684c.158 0 .165-.142.165-.3s-.007-.275-.149-.275h-2.267v-1.74h1.905c.134 0 .149-.134.149-.291s0-.283-.157-.283h-1.9V209h2.243c.134 0 .15-.133.15-.291s0-.283-.158-.283H250.1a.246.246 0 0 0-.276.275v4.566a.246.246 0 0 0 .276.269zm4 .023a1.043 1.043 0 0 0 .386 0 .157.157 0 0 0 .165-.165v-1.842a5.222 5.222 0 0 0 .756.039 5.123 5.123 0 0 0 1.739 1.929.437.437 0 0 0 .559-.024c.134-.1.2-.228.047-.33a4.744 4.744 0 0 1-1.629-1.654 1.539 1.539 0 0 0 1.354-1.55c0-.984-.858-1.559-2.11-1.559a10.157 10.157 0 0 0-1.188.047.267.267 0 0 0-.237.292v4.652a.151.151 0 0 0 .151.158zm1.33-2.535a5.176 5.176 0 0 1-.779-.039v-2.007a8.1 8.1 0 0 1 .708-.024 1.136 1.136 0 0 1 1.378 1.016 1.1 1.1 0 0 1-1.311 1.047zm3.3 2.535a1.043 1.043 0 0 0 .386 0 .157.157 0 0 0 .165-.165v-4.849a.153.153 0 0 0-.165-.166 1.088 1.088 0 0 0-.386 0 .147.147 0 0 0-.157.166v4.849a.15.15 0 0 0 .154.158zm1.977.047a.177.177 0 0 0 .189-.181c.071-.354.149-.74.26-1.133h2.393c.1.393.189.771.267 1.133a.177.177 0 0 0 .189.181.748.748 0 0 0 .268-.039c.205-.047.26-.134.22-.291a18.043 18.043 0 0 0-1.637-4.558.523.523 0 0 0-.512-.315.513.513 0 0 0-.5.323 16.541 16.541 0 0 0-1.63 4.55c-.039.157.016.244.22.291a.722.722 0 0 0 .27.032zm.59-1.889a13.816 13.816 0 0 1 1.032-2.613h.023a13.75 13.75 0 0 1 1.031 2.613h-2.09zm5.742 1.921a1.721 1.721 0 0 0 1.936-1.661 1.162 1.162 0 0 0-.74-1.1c-.527-.26-1.354-.331-1.818-.535a.661.661 0 0 1-.528-.638c-.008-.488.41-.795 1.15-.795a2.168 2.168 0 0 1 1.228.307c.181.1.267.055.338-.158a.257.257 0 0 0-.079-.377 2.655 2.655 0 0 0-1.519-.37c-1.133.007-1.834.559-1.826 1.464a1.153 1.153 0 0 0 .7 1.086 14.528 14.528 0 0 0 1.8.567.744.744 0 0 1 .6.7 1.014 1.014 0 0 1-1.243.914 1.992 1.992 0 0 1-1.441-.559c-.165-.142-.252-.071-.37.165a.283.283 0 0 0 .055.4 2.631 2.631 0 0 0 1.754.583zM19.352 225.6h2.684c.158 0 .165-.142.165-.3s-.008-.276-.149-.276h-2.267v-1.739h1.9c.134 0 .149-.134.149-.292s0-.283-.157-.283h-1.9v-1.653h2.243c.134 0 .15-.134.15-.291s0-.284-.157-.284h-2.661a.246.246 0 0 0-.276.276v4.565a.246.246 0 0 0 .276.277zm5.465.1a1.721 1.721 0 0 0 1.936-1.661 1.164 1.164 0 0 0-.74-1.1c-.527-.259-1.354-.33-1.818-.535a.659.659 0 0 1-.527-.638c-.008-.488.409-.795 1.149-.795a2.167 2.167 0 0 1 1.228.307c.181.1.268.055.338-.157a.259.259 0 0 0-.079-.378 2.656 2.656 0 0 0-1.519-.37c-1.133.008-1.834.559-1.826 1.464a1.155 1.155 0 0 0 .7 1.087 14.351 14.351 0 0 0 1.8.566.746.746 0 0 1 .6.7 1.014 1.014 0 0 1-1.244.913 1.987 1.987 0 0 1-1.44-.559c-.165-.142-.252-.071-.37.165a.284.284 0 0 0 .055.4 2.629 2.629 0 0 0 1.757.591zm4.954.048a2.263 2.263 0 0 0 1.606-.559.259.259 0 0 0 .024-.4.222.222 0 0 0-.362-.094 1.721 1.721 0 0 1-1.2.441c-1.039 0-1.692-.835-1.692-2.1a1.778 1.778 0 0 1 1.685-2.055 1.738 1.738 0 0 1 1.023.291c.189.095.26.008.331-.181a.253.253 0 0 0-.118-.385 2.348 2.348 0 0 0-1.275-.323 2.445 2.445 0 0 0-2.362 2.692c-.006 1.651.938 2.675 2.34 2.675zm6.387-5.306a1.085 1.085 0 0 0-.394 0 .141.141 0 0 0-.149.165v2.1H33.1v-2.1a.153.153 0 0 0-.165-.165 1.042 1.042 0 0 0-.386 0 .147.147 0 0 0-.157.165v4.849a.151.151 0 0 0 .157.166 1.086 1.086 0 0 0 .386 0 .157.157 0 0 0 .165-.166v-2.172h2.511v2.172a.145.145 0 0 0 .149.166 1.131 1.131 0 0 0 .394 0 .151.151 0 0 0 .157-.166v-4.849a.147.147 0 0 0-.154-.163zm1.7 5.156h2.684c.157 0 .165-.142.165-.3s-.008-.276-.149-.276h-2.273v-1.739h1.9c.134 0 .15-.134.15-.292s0-.283-.157-.283h-1.9v-1.653h2.243c.134 0 .15-.134.15-.291s0-.284-.157-.284h-2.662a.246.246 0 0 0-.276.276v4.565a.246.246 0 0 0 .276.279zm4 .024a1.086 1.086 0 0 0 .386 0 .157.157 0 0 0 .165-.166v-1.842a5.038 5.038 0 0 0 .756.04 5.13 5.13 0 0 0 1.74 1.928.436.436 0 0 0 .559-.023c.134-.1.2-.229.047-.331a4.753 4.753 0 0 1-1.63-1.653 1.539 1.539 0 0 0 1.354-1.551c0-.984-.858-1.558-2.11-1.558a9.94 9.94 0 0 0-1.189.047.266.266 0 0 0-.236.291v4.652a.151.151 0 0 0 .154.168zm1.33-2.535a5.311 5.311 0 0 1-.779-.039v-2.008c.181-.016.4-.023.709-.023a1.135 1.135 0 0 1 1.377 1.015 1.1 1.1 0 0 1-1.311 1.057zm3.3 2.535a1.087 1.087 0 0 0 .386 0 .157.157 0 0 0 .165-.166v-4.849a.153.153 0 0 0-.165-.165 1.042 1.042 0 0 0-.386 0 .147.147 0 0 0-.157.165v4.849a.151.151 0 0 0 .154.168zm3.912.128a2.263 2.263 0 0 0 1.6-.559.259.259 0 0 0 .024-.4.222.222 0 0 0-.362-.094 1.721 1.721 0 0 1-1.2.441c-1.039 0-1.692-.835-1.692-2.1a1.778 1.778 0 0 1 1.685-2.055 1.738 1.738 0 0 1 1.023.291c.189.095.26.008.331-.181a.253.253 0 0 0-.118-.385 2.348 2.348 0 0 0-1.275-.323 2.445 2.445 0 0 0-2.362 2.692c-.002 1.649.946 2.673 2.346 2.673zm6.387-5.306a1.085 1.085 0 0 0-.394 0 .141.141 0 0 0-.15.165v2.1h-2.512v-2.1a.153.153 0 0 0-.165-.165 1.042 1.042 0 0 0-.386 0 .147.147 0 0 0-.157.165v4.849a.151.151 0 0 0 .157.166 1.086 1.086 0 0 0 .386 0 .157.157 0 0 0 .165-.166v-2.172h2.511v2.172a.145.145 0 0 0 .15.166 1.131 1.131 0 0 0 .394 0 .151.151 0 0 0 .157-.166v-4.849a.147.147 0 0 0-.158-.165zm1.577 5.18a1.086 1.086 0 0 0 .386 0 .157.157 0 0 0 .165-.166v-4.849a.153.153 0 0 0-.165-.165 1.042 1.042 0 0 0-.386 0 .147.147 0 0 0-.157.165v4.849a.151.151 0 0 0 .155.166zm1.977.047a.178.178 0 0 0 .189-.181c.071-.354.15-.74.26-1.134h2.393c.1.394.189.772.268 1.134a.178.178 0 0 0 .189.181.75.75 0 0 0 .268-.04c.2-.047.26-.133.221-.291a18.028 18.028 0 0 0-1.637-4.558.522.522 0 0 0-.512-.314.514.514 0 0 0-.5.322 16.561 16.561 0 0 0-1.629 4.55c-.039.158.016.244.22.291a.717.717 0 0 0 .268.04zm.59-1.889a13.794 13.794 0 0 1 1.031-2.614h.024a13.794 13.794 0 0 1 1.031 2.614h-2.088zm7.639 1.968a2.263 2.263 0 0 0 1.606-.559.259.259 0 0 0 .024-.4.222.222 0 0 0-.362-.094 1.721 1.721 0 0 1-1.2.441c-1.039 0-1.693-.835-1.693-2.1a1.778 1.778 0 0 1 1.685-2.055 1.738 1.738 0 0 1 1.023.291c.189.095.26.008.331-.181a.253.253 0 0 0-.118-.385 2.348 2.348 0 0 0-1.275-.323 2.445 2.445 0 0 0-2.362 2.692c-.007 1.649.938 2.673 2.339 2.673zm4.576.007c1.441 0 2.306-1.039 2.314-2.715.008-1.622-.8-2.669-2.275-2.669-1.44 0-2.314 1.039-2.314 2.716-.002 1.621.793 2.668 2.273 2.668zm.016-.551c-1.055 0-1.551-.905-1.566-2.141-.016-1.291.52-2.133 1.582-2.133 1.039 0 1.551.889 1.567 2.118.005 1.283-.538 2.156-1.585 2.156zm3.593.394h2.677c.165 0 .173-.134.173-.3s-.008-.284-.157-.284h-2.262v-4.392a.156.156 0 0 0-.165-.165 1.042 1.042 0 0 0-.386 0 .15.15 0 0 0-.157.165v4.7a.246.246 0 0 0 .275.276zm3.875.024a1.086 1.086 0 0 0 .386 0 .157.157 0 0 0 .165-.166v-4.849a.153.153 0 0 0-.165-.165 1.042 1.042 0 0 0-.386 0 .147.147 0 0 0-.157.165v4.849a.151.151 0 0 0 .155.166zm4.67 0a1.086 1.086 0 0 0 .386 0 .157.157 0 0 0 .165-.166v-1.9a8.51 8.51 0 0 0 1.622-2.739c.055-.142-.016-.244-.244-.307s-.37-.04-.433.149A7.256 7.256 0 0 1 85.5 223a7.319 7.319 0 0 1-1.307-2.338c-.055-.2-.189-.212-.433-.157-.173.039-.323.126-.26.315a8.77 8.77 0 0 0 1.637 2.747v1.889a.151.151 0 0 0 .163.168zm6.127.078a1.721 1.721 0 0 0 1.937-1.661 1.164 1.164 0 0 0-.74-1.1c-.527-.259-1.354-.33-1.818-.535a.659.659 0 0 1-.527-.638c-.008-.488.409-.795 1.149-.795a2.167 2.167 0 0 1 1.228.307c.181.1.268.055.338-.157a.259.259 0 0 0-.079-.378 2.656 2.656 0 0 0-1.519-.37c-1.133.008-1.834.559-1.826 1.464a1.155 1.155 0 0 0 .7 1.087 14.351 14.351 0 0 0 1.8.566.746.746 0 0 1 .6.7 1.014 1.014 0 0 1-1.244.913 1.988 1.988 0 0 1-1.441-.559c-.165-.142-.252-.071-.37.165a.284.284 0 0 0 .055.4 2.629 2.629 0 0 0 1.755.589zm4.19-.078a1.131 1.131 0 0 0 .394 0 .151.151 0 0 0 .157-.166v-4.392h1.5c.126 0 .165-.11.165-.307s-.032-.276-.165-.276h-3.761c-.118 0-.165.118-.165.307s.039.276.165.276h1.551v4.392a.151.151 0 0 0 .157.166zm2.655.047a.178.178 0 0 0 .189-.181c.071-.354.15-.74.26-1.134h2.393c.1.394.189.772.268 1.134a.177.177 0 0 0 .189.181.746.746 0 0 0 .267-.04c.2-.047.26-.133.221-.291a18.007 18.007 0 0 0-1.638-4.558.522.522 0 0 0-.511-.314.514.514 0 0 0-.5.322 16.561 16.561 0 0 0-1.63 4.55c-.039.158.016.244.22.291a.717.717 0 0 0 .27.04zm.59-1.889a13.794 13.794 0 0 1 1.031-2.614h.024a13.834 13.834 0 0 1 1.032 2.614h-2.088zm4.277 1.842a1.083 1.083 0 0 0 .385 0 .157.157 0 0 0 .166-.166v-1.684a6.75 6.75 0 0 0 .8.031c1.275 0 2.1-.559 2.1-1.684 0-1.095-.858-1.653-2.188-1.653a9.943 9.943 0 0 0-1.189.047.266.266 0 0 0-.236.291v4.652a.151.151 0 0 0 .161.166zm1.33-2.362a5.119 5.119 0 0 1-.779-.047v-2.181c.181-.015.4-.023.708-.023.882-.008 1.464.33 1.464 1.11a1.145 1.145 0 0 1-1.394 1.141zm6.8-2.818a1.087 1.087 0 0 0-.394 0 .141.141 0 0 0-.149.165v2.1h-2.512v-2.1a.153.153 0 0 0-.165-.165 1.043 1.043 0 0 0-.386 0 .147.147 0 0 0-.157.165v4.849a.151.151 0 0 0 .157.166 1.088 1.088 0 0 0 .386 0 .157.157 0 0 0 .165-.166v-2.172h2.512v2.172a.145.145 0 0 0 .149.166 1.134 1.134 0 0 0 .394 0 .151.151 0 0 0 .157-.166v-4.849a.147.147 0 0 0-.154-.165zm2.86 5.18a1.088 1.088 0 0 0 .386 0 .157.157 0 0 0 .165-.166v-1.9a8.526 8.526 0 0 0 1.622-2.739c.055-.142-.016-.244-.244-.307s-.37-.04-.433.149a7.277 7.277 0 0 1-1.288 2.339 7.3 7.3 0 0 1-1.307-2.338c-.055-.2-.189-.212-.433-.157-.173.039-.323.126-.26.315a8.768 8.768 0 0 0 1.638 2.747v1.889a.151.151 0 0 0 .157.168zm3.364-.024h2.676c.165 0 .173-.134.173-.3s-.008-.284-.157-.284h-2.259v-4.392a.156.156 0 0 0-.166-.165 1.038 1.038 0 0 0-.385 0 .15.15 0 0 0-.158.165v4.7a.246.246 0 0 0 .283.276zm5.63.157c1.441 0 2.307-1.039 2.314-2.715.008-1.622-.8-2.669-2.274-2.669-1.441 0-2.315 1.039-2.315 2.716.003 1.621.798 2.668 2.278 2.668zm.016-.551c-1.055 0-1.551-.905-1.567-2.141-.015-1.291.52-2.133 1.583-2.133 1.039 0 1.55.889 1.566 2.118.011 1.283-.532 2.156-1.579 2.156zm5.5.544a2.262 2.262 0 0 0 1.606-.559.259.259 0 0 0 .024-.4.222.222 0 0 0-.362-.094 1.724 1.724 0 0 1-1.205.441c-1.039 0-1.692-.835-1.692-2.1a1.778 1.778 0 0 1 1.685-2.055 1.739 1.739 0 0 1 1.023.291c.189.095.26.008.33-.181a.252.252 0 0 0-.118-.385 2.344 2.344 0 0 0-1.275-.323 2.445 2.445 0 0 0-2.361 2.692c0 1.649.944 2.673 2.345 2.673zm4.576.007c1.441 0 2.307-1.039 2.315-2.715.008-1.622-.795-2.669-2.275-2.669-1.441 0-2.314 1.039-2.314 2.716 0 1.621.795 2.668 2.274 2.668zm.016-.551c-1.055 0-1.551-.905-1.566-2.141-.016-1.291.519-2.133 1.582-2.133 1.039 0 1.551.889 1.566 2.118.008 1.283-.535 2.156-1.582 2.156zm5.5.544a2.266 2.266 0 0 0 1.606-.559.26.26 0 0 0 .023-.4.222.222 0 0 0-.36-.091 1.721 1.721 0 0 1-1.2.441c-1.039 0-1.693-.835-1.693-2.1a1.778 1.778 0 0 1 1.685-2.055 1.739 1.739 0 0 1 1.023.291c.189.095.26.008.331-.181a.253.253 0 0 0-.118-.385 2.35 2.35 0 0 0-1.276-.323 2.445 2.445 0 0 0-2.361 2.692c-.008 1.646.937 2.67 2.338 2.67zm4.647 0a2.266 2.266 0 0 0 1.606-.559.26.26 0 0 0 .023-.4.222.222 0 0 0-.362-.094 1.721 1.721 0 0 1-1.2.441c-1.039 0-1.693-.835-1.693-2.1a1.778 1.778 0 0 1 1.685-2.055 1.739 1.739 0 0 1 1.023.291c.189.095.26.008.331-.181a.253.253 0 0 0-.118-.385 2.35 2.35 0 0 0-1.276-.323 2.445 2.445 0 0 0-2.361 2.692c-.006 1.649.938 2.673 2.34 2.673zm4.434-.032a1.671 1.671 0 0 0 1.874-1.842v-3.251a.153.153 0 0 0-.166-.165.959.959 0 0 0-.37 0 .146.146 0 0 0-.157.165v3.33a1.181 1.181 0 1 1-2.362 0v-3.33a.152.152 0 0 0-.165-.165 1 1 0 0 0-.378 0 .152.152 0 0 0-.165.165v3.251a1.675 1.675 0 0 0 1.887 1.842zm4.679-.016a1.721 1.721 0 0 0 1.936-1.661 1.163 1.163 0 0 0-.74-1.1c-.527-.259-1.354-.33-1.818-.535a.659.659 0 0 1-.528-.638c-.008-.488.41-.795 1.15-.795a2.168 2.168 0 0 1 1.228.307c.181.1.267.055.338-.157a.258.258 0 0 0-.079-.378 2.655 2.655 0 0 0-1.519-.37c-1.133.008-1.834.559-1.826 1.464a1.155 1.155 0 0 0 .7 1.087 14.355 14.355 0 0 0 1.8.566.745.745 0 0 1 .6.7 1.014 1.014 0 0 1-1.243.913 1.988 1.988 0 0 1-1.441-.559c-.165-.142-.252-.071-.37.165a.284.284 0 0 0 .055.4 2.63 2.63 0 0 0 1.755.589zm4.545-.1h2.684c.157 0 .165-.142.165-.3s-.008-.276-.149-.276h-2.267v-1.739h1.905c.134 0 .149-.134.149-.292s0-.283-.157-.283h-1.9v-1.653h2.243c.134 0 .15-.134.15-.291s0-.284-.158-.284h-2.668a.246.246 0 0 0-.276.276v4.565a.246.246 0 0 0 .277.275zm4 .024a1.088 1.088 0 0 0 .386 0 .157.157 0 0 0 .165-.166v-1.684a6.75 6.75 0 0 0 .8.031c1.275 0 2.1-.559 2.1-1.684 0-1.095-.858-1.653-2.189-1.653a9.934 9.934 0 0 0-1.188.047.266.266 0 0 0-.237.291v4.652a.151.151 0 0 0 .162.164zm1.33-2.362a5.137 5.137 0 0 1-.779-.047v-2.181c.181-.015.4-.023.708-.023.882-.008 1.465.33 1.465 1.11a1.146 1.146 0 0 1-1.395 1.139zm3.2 2.362a1.083 1.083 0 0 0 .385 0 .157.157 0 0 0 .166-.166v-4.849a.153.153 0 0 0-.166-.165 1.038 1.038 0 0 0-.385 0 .147.147 0 0 0-.158.165v4.849a.151.151 0 0 0 .156.164zm2.945.039a3.287 3.287 0 0 0 2.031-.567 2.574 2.574 0 0 0 .866-2.117c0-1.677-.9-2.5-2.779-2.5a7.743 7.743 0 0 0-1.031.063.243.243 0 0 0-.221.268v4.5a.248.248 0 0 0 .236.291 7.424 7.424 0 0 0 .896.06zm.165-.583c-.205 0-.386-.007-.6-.023v-3.975a4.942 4.942 0 0 1 .637-.04 1.723 1.723 0 0 1 1.984 1.945 2.176 2.176 0 0 1-.519 1.59 1.982 1.982 0 0 1-1.504.501zm3.994.52h2.684c.158 0 .165-.142.165-.3s-.007-.276-.149-.276h-2.27v-1.739h1.905c.134 0 .149-.134.149-.292s0-.283-.157-.283h-1.9v-1.653h2.243c.134 0 .15-.134.15-.291s0-.284-.158-.284h-2.668a.246.246 0 0 0-.276.276v4.565a.246.246 0 0 0 .28.275zm4 .024a1.088 1.088 0 0 0 .386 0 .157.157 0 0 0 .165-.166v-1.842a5.036 5.036 0 0 0 .756.04 5.128 5.128 0 0 0 1.739 1.928.436.436 0 0 0 .559-.023c.134-.1.205-.229.048-.331a4.752 4.752 0 0 1-1.63-1.653 1.539 1.539 0 0 0 1.354-1.551c0-.984-.858-1.558-2.11-1.558a9.934 9.934 0 0 0-1.188.047.266.266 0 0 0-.236.291v4.652a.151.151 0 0 0 .156.164zm1.33-2.535a5.313 5.313 0 0 1-.779-.039v-2.008c.181-.016.4-.023.708-.023a1.136 1.136 0 0 1 1.378 1.015 1.1 1.1 0 0 1-1.307 1.053zm3.506 2.542a.187.187 0 0 0 .205-.2c.047-.976.125-1.74.236-2.527.078-.52.165-1.1.267-1.6h.016c.189.441.386 1.023.559 1.519.252.709.464 1.425.708 2.314a.33.33 0 0 0 .37.323.336.336 0 0 0 .386-.323c.228-.905.449-1.621.693-2.314.173-.5.378-1.055.574-1.519h.016c.1.5.2 1.094.276 1.614.11.779.189 1.6.236 2.511a.178.178 0 0 0 .2.2 1.072 1.072 0 0 0 .354-.015.185.185 0 0 0 .165-.221 28.291 28.291 0 0 0-.661-4.518.455.455 0 0 0-.488-.4.484.484 0 0 0-.512.339 29.057 29.057 0 0 0-1.212 3.487h-.016a26.741 26.741 0 0 0-1.22-3.487.475.475 0 0 0-.5-.339.442.442 0 0 0-.488.41 25.469 25.469 0 0 0-.67 4.513.176.176 0 0 0 .157.221 1.04 1.04 0 0 0 .348.01zm6.5-.007a1.088 1.088 0 0 0 .386 0 .157.157 0 0 0 .165-.166v-4.849a.153.153 0 0 0-.165-.165 1.043 1.043 0 0 0-.386 0 .147.147 0 0 0-.158.165v4.849a.151.151 0 0 0 .152.164zm3.433.078a1.721 1.721 0 0 0 1.936-1.661 1.162 1.162 0 0 0-.739-1.1c-.528-.259-1.354-.33-1.819-.535a.658.658 0 0 1-.527-.638c-.008-.488.409-.795 1.149-.795a2.168 2.168 0 0 1 1.228.307c.181.1.268.055.339-.157a.26.26 0 0 0-.079-.378 2.655 2.655 0 0 0-1.519-.37c-1.134.008-1.835.559-1.827 1.464a1.155 1.155 0 0 0 .7 1.087 14.355 14.355 0 0 0 1.8.566.746.746 0 0 1 .6.7 1.014 1.014 0 0 1-1.244.913 1.989 1.989 0 0 1-1.441-.559c-.165-.142-.251-.071-.37.165a.284.284 0 0 0 .056.4 2.628 2.628 0 0 0 1.754.587zm5.4-.039a3.285 3.285 0 0 0 2.031-.567 2.574 2.574 0 0 0 .866-2.117c0-1.677-.9-2.5-2.779-2.5a7.765 7.765 0 0 0-1.031.063.242.242 0 0 0-.22.268v4.5a.248.248 0 0 0 .236.291 7.406 7.406 0 0 0 .897.06zm.166-.583c-.2 0-.386-.007-.6-.023v-3.975a4.958 4.958 0 0 1 .638-.04 1.723 1.723 0 0 1 1.984 1.945 2.176 2.176 0 0 1-.52 1.59 1.978 1.978 0 0 1-1.502.501zm3.995.518h2.685c.157 0 .165-.142.165-.3s-.008-.276-.15-.276h-2.267v-1.739h1.905c.134 0 .15-.134.15-.292s0-.283-.158-.283h-1.9v-1.653h2.244c.134 0 .149-.134.149-.291s0-.284-.157-.284H201a.246.246 0 0 0-.275.276v4.565a.245.245 0 0 0 .275.277zm5.537 0h2.677c.165 0 .173-.134.173-.3s-.008-.284-.158-.284h-2.259v-4.392a.156.156 0 0 0-.165-.165 1.043 1.043 0 0 0-.386 0 .15.15 0 0 0-.157.165v4.7a.245.245 0 0 0 .273.276zm3.962.071a.178.178 0 0 0 .189-.181c.071-.354.149-.74.259-1.134h2.394c.1.394.188.772.267 1.134a.178.178 0 0 0 .189.181.755.755 0 0 0 .268-.04c.2-.047.26-.133.22-.291a18.043 18.043 0 0 0-1.637-4.558.522.522 0 0 0-.512-.314.514.514 0 0 0-.5.322 16.55 16.55 0 0 0-1.636 4.55c-.039.158.016.244.22.291a.721.721 0 0 0 .28.04zm.59-1.889a13.868 13.868 0 0 1 1.031-2.614h.024a13.734 13.734 0 0 1 1.031 2.614h-2.086zm5.7 1.842a1.088 1.088 0 0 0 .386 0 .157.157 0 0 0 .165-.166v-1.684a6.75 6.75 0 0 0 .8.031c1.275 0 2.1-.559 2.1-1.684 0-1.095-.858-1.653-2.189-1.653a9.934 9.934 0 0 0-1.188.047.266.266 0 0 0-.237.291v4.652a.151.151 0 0 0 .156.166zm1.33-2.362a5.137 5.137 0 0 1-.779-.047v-2.181c.181-.015.4-.023.708-.023.882-.008 1.465.33 1.465 1.11a1.146 1.146 0 0 1-1.401 1.141zm3.2 2.362a1.083 1.083 0 0 0 .385 0 .157.157 0 0 0 .166-.166v-4.849a.153.153 0 0 0-.166-.165 1.038 1.038 0 0 0-.385 0 .147.147 0 0 0-.158.165v4.849a.151.151 0 0 0 .15.166zm2.087-.024h2.684c.157 0 .165-.142.165-.3s-.008-.276-.149-.276h-2.267v-1.739h1.905c.134 0 .149-.134.149-.292s0-.283-.157-.283h-1.9v-1.653h2.243c.134 0 .15-.134.15-.291s0-.284-.158-.284H223.4a.246.246 0 0 0-.276.276v4.565a.246.246 0 0 0 .276.277zm4.119 0h2.676c.166 0 .174-.134.174-.3s-.008-.284-.158-.284h-2.267v-4.392a.156.156 0 0 0-.165-.165 1.043 1.043 0 0 0-.386 0 .151.151 0 0 0-.158.165v4.7a.246.246 0 0 0 .276.276zm4.143.047a.439.439 0 0 0 .488-.417v-.047a.43.43 0 0 0-.488-.41.436.436 0 0 0-.5.41v.047a.446.446 0 0 0 .492.417zm3.253-.023a1.083 1.083 0 0 0 .385 0 .157.157 0 0 0 .166-.166v-2.172h1.928c.126 0 .15-.118.15-.292 0-.149 0-.283-.158-.283h-1.928v-1.653h2.267c.134 0 .157-.118.157-.291 0-.15 0-.284-.157-.284h-2.7a.246.246 0 0 0-.276.276v4.7a.151.151 0 0 0 .158.165zm5.174-5.5 1.5-.732a.126.126 0 0 0 .063-.189 1.059 1.059 0 0 0-.149-.3.137.137 0 0 0-.205-.047l-1.409.874c-.118.07-.079.157-.032.259.058.14.129.179.224.132zm.614 5.636c1.44 0 2.306-1.039 2.314-2.715.008-1.622-.795-2.669-2.275-2.669-1.441 0-2.314 1.039-2.314 2.716-.008 1.618.787 2.665 2.266 2.665zm.015-.551c-1.055 0-1.55-.905-1.566-2.141-.016-1.291.519-2.133 1.582-2.133 1.039 0 1.551.889 1.567 2.118-.001 1.28-.544 2.153-1.591 2.153zm3.475.418a1.082 1.082 0 0 0 .385 0 .157.157 0 0 0 .166-.166v-1.842a5.029 5.029 0 0 0 .755.04 5.138 5.138 0 0 0 1.74 1.928.436.436 0 0 0 .559-.023c.134-.1.205-.229.047-.331a4.749 4.749 0 0 1-1.629-1.653 1.54 1.54 0 0 0 1.354-1.551c0-.984-.858-1.558-2.11-1.558a9.954 9.954 0 0 0-1.189.047.266.266 0 0 0-.236.291v4.652a.151.151 0 0 0 .15.163zm1.33-2.535a5.3 5.3 0 0 1-.779-.039v-2.008c.181-.016.4-.023.708-.023a1.136 1.136 0 0 1 1.378 1.015 1.1 1.1 0 0 1-1.315 1.052zm3.506 2.542a.186.186 0 0 0 .2-.2c.047-.976.126-1.74.236-2.527.079-.52.166-1.1.268-1.6h.016c.189.441.385 1.023.559 1.519.252.709.464 1.425.708 2.314a.33.33 0 0 0 .37.323.337.337 0 0 0 .386-.323c.228-.905.449-1.621.693-2.314.173-.5.377-1.055.574-1.519h.016a28.2 28.2 0 0 1 .512 4.125.176.176 0 0 0 .2.2 1.079 1.079 0 0 0 .355-.015.185.185 0 0 0 .165-.221 28.52 28.52 0 0 0-.661-4.518.455.455 0 0 0-.488-.4.484.484 0 0 0-.512.339 28.883 28.883 0 0 0-1.212 3.487h-.02a26.89 26.89 0 0 0-1.22-3.487.476.476 0 0 0-.5-.339.441.441 0 0 0-.488.41 25.377 25.377 0 0 0-.669 4.51.176.176 0 0 0 .157.221 1.038 1.038 0 0 0 .347.012zm8.072.087a1.67 1.67 0 0 0 1.873-1.842v-3.251a.152.152 0 0 0-.165-.165.959.959 0 0 0-.37 0 .146.146 0 0 0-.157.165v3.33a1.181 1.181 0 1 1-2.362 0v-3.33a.152.152 0 0 0-.165-.165 1 1 0 0 0-.378 0 .152.152 0 0 0-.165.165v3.251a1.675 1.675 0 0 0 1.882 1.839zm3.332-.118h2.677c.165 0 .173-.134.173-.3s-.008-.284-.157-.284h-2.26v-4.392a.156.156 0 0 0-.165-.165 1.043 1.043 0 0 0-.386 0 .15.15 0 0 0-.157.165v4.7a.245.245 0 0 0 .267.273zm3.962.071a.178.178 0 0 0 .189-.181c.071-.354.149-.74.26-1.134h2.393c.1.394.189.772.267 1.134a.178.178 0 0 0 .189.181.752.752 0 0 0 .268-.04c.2-.047.26-.133.22-.291a18.043 18.043 0 0 0-1.637-4.558.522.522 0 0 0-.512-.314.512.512 0 0 0-.5.322 16.552 16.552 0 0 0-1.63 4.55c-.039.158.016.244.22.291a.721.721 0 0 0 .265.037zm.59-1.889a13.8 13.8 0 0 1 1.032-2.614h.023a13.734 13.734 0 0 1 1.031 2.614h-2.086zm7.159 1.92a1.722 1.722 0 0 0 1.937-1.661 1.165 1.165 0 0 0-.74-1.1c-.528-.259-1.354-.33-1.819-.535a.659.659 0 0 1-.527-.638c-.008-.488.409-.795 1.149-.795a2.166 2.166 0 0 1 1.228.307c.181.1.268.055.339-.157a.259.259 0 0 0-.079-.378 2.655 2.655 0 0 0-1.519-.37c-1.134.008-1.834.559-1.827 1.464a1.155 1.155 0 0 0 .7 1.087 14.355 14.355 0 0 0 1.8.566.746.746 0 0 1 .6.7 1.014 1.014 0 0 1-1.244.913 1.987 1.987 0 0 1-1.44-.559c-.166-.142-.252-.071-.37.165a.283.283 0 0 0 .055.4 2.629 2.629 0 0 0 1.749.586zm3.01-.078a1.083 1.083 0 0 0 .385 0 .157.157 0 0 0 .166-.166v-4.849a.153.153 0 0 0-.166-.165 1.038 1.038 0 0 0-.385 0 .147.147 0 0 0-.158.165v4.849a.151.151 0 0 0 .15.163zm1.977-.008a.819.819 0 0 0 .362 0 .157.157 0 0 0 .165-.166V222.6c0-.362-.016-.772-.032-1.1h.016c.15.26.386.692.591 1l1.905 2.921a.391.391 0 0 0 .354.181h.142a.262.262 0 0 0 .291-.291v-4.684a.149.149 0 0 0-.166-.165.791.791 0 0 0-.362-.008.162.162 0 0 0-.165.173l.008 2.928c0 .347.016.709.024 1.016h-.016c-.126-.221-.347-.654-.543-.953l-1.921-2.944a.386.386 0 0 0-.346-.189h-.181a.263.263 0 0 0-.292.292v4.675a.153.153 0 0 0 .158.164zm-200.1 12.072a1.042 1.042 0 0 0 .386 0 .157.157 0 0 0 .165-.165v-4.849a.153.153 0 0 0-.165-.166 1.086 1.086 0 0 0-.386 0 .147.147 0 0 0-.157.166v4.849a.151.151 0 0 0 .151.162zm1.977-.008a.791.791 0 0 0 .362 0 .156.156 0 0 0 .165-.165v-2.85c0-.362-.016-.771-.031-1.1h.01c.15.26.386.693.59 1l1.905 2.92a.392.392 0 0 0 .354.181h.142a.262.262 0 0 0 .291-.291v-4.684a.149.149 0 0 0-.165-.165.82.82 0 0 0-.362-.008.163.163 0 0 0-.165.173l.008 2.929c0 .346.016.708.024 1.015h-.016c-.126-.22-.346-.653-.543-.952l-1.921-2.944a.386.386 0 0 0-.346-.189h-.182a.262.262 0 0 0-.291.291v4.676a.153.153 0 0 0 .165.16zm7.206.134a2.877 2.877 0 0 0 1.858-.6.4.4 0 0 0 .165-.37l-.008-1.653a.193.193 0 0 0-.2-.213h-1.766c-.118 0-.165.095-.165.284s.031.283.165.283h1.315l.008 1.252a2.055 2.055 0 0 1-1.307.409c-1.094 0-1.755-.835-1.755-2.11a1.852 1.852 0 0 1 1.842-2.054 1.8 1.8 0 0 1 1.2.378c.165.118.26.039.354-.142a.249.249 0 0 0-.079-.394 2.387 2.387 0 0 0-1.5-.441 2.483 2.483 0 0 0-1.748.693 2.778 2.778 0 0 0-.779 2.031 2.746 2.746 0 0 0 .764 2.015 2.246 2.246 0 0 0 1.63.629zm3.333-.126a1.042 1.042 0 0 0 .386 0 .157.157 0 0 0 .165-.165v-1.842a5.225 5.225 0 0 0 .756.039 5.126 5.126 0 0 0 1.74 1.929.437.437 0 0 0 .559-.024c.134-.1.2-.228.047-.331a4.735 4.735 0 0 1-1.629-1.653 1.539 1.539 0 0 0 1.354-1.55c0-.984-.858-1.559-2.11-1.559a10.165 10.165 0 0 0-1.189.047.267.267 0 0 0-.236.291v4.653a.151.151 0 0 0 .151.162zm1.33-2.535a5.311 5.311 0 0 1-.779-.039v-2.007c.181-.016.4-.024.709-.024a1.135 1.135 0 0 1 1.378 1.015 1.1 1.1 0 0 1-1.314 1.052zm3.419 2.511h2.678c.157 0 .165-.141.165-.3s-.008-.275-.15-.275h-2.266v-1.74h1.9c.134 0 .15-.134.15-.291s0-.284-.157-.284h-1.9v-1.653h2.243c.134 0 .149-.133.149-.291s0-.283-.157-.283H94.3a.245.245 0 0 0-.275.275v4.566a.245.245 0 0 0 .275.273zm4.977.063a3.291 3.291 0 0 0 2.031-.566 2.577 2.577 0 0 0 .866-2.118c0-1.677-.9-2.5-2.779-2.5a7.589 7.589 0 0 0-1.031.063.242.242 0 0 0-.221.267v4.5a.248.248 0 0 0 .236.291 7.019 7.019 0 0 0 .892.06zm.165-.582c-.2 0-.386-.008-.6-.024v-3.975a4.966 4.966 0 0 1 .638-.039 1.722 1.722 0 0 1 1.983 1.944 2.174 2.174 0 0 1-.519 1.59 1.979 1.979 0 0 1-1.508.501zm3.876.543a1.043 1.043 0 0 0 .386 0 .157.157 0 0 0 .165-.165v-4.849a.153.153 0 0 0-.165-.166 1.088 1.088 0 0 0-.386 0 .147.147 0 0 0-.157.166v4.849a.15.15 0 0 0 .151.162zm2.087-.024h2.684c.158 0 .166-.141.166-.3s-.008-.275-.15-.275h-2.267v-1.74h1.905c.134 0 .15-.134.15-.291s0-.284-.158-.284h-1.9v-1.653h2.244c.133 0 .149-.133.149-.291s0-.283-.157-.283H105.4a.245.245 0 0 0-.275.275v4.566a.245.245 0 0 0 .275.273zm4.009.016a.791.791 0 0 0 .362 0 .157.157 0 0 0 .166-.165v-2.85c0-.362-.016-.771-.032-1.1h.016c.149.26.386.693.59 1l1.905 2.92a.393.393 0 0 0 .354.181h.142a.261.261 0 0 0 .291-.291v-4.684a.149.149 0 0 0-.165-.165.82.82 0 0 0-.362-.008.163.163 0 0 0-.165.173l.008 2.929c0 .346.015.708.023 1.015h-.016c-.126-.22-.346-.653-.543-.952l-1.92-2.944a.387.387 0 0 0-.347-.189h-.181a.261.261 0 0 0-.291.291v4.676a.153.153 0 0 0 .159.16zm6.552.008a1.087 1.087 0 0 0 .394 0 .15.15 0 0 0 .157-.165v-4.396h1.5c.126 0 .165-.11.165-.307s-.031-.275-.165-.275h-3.755c-.118 0-.165.118-.165.307s.039.275.165.275h1.551v4.393a.15.15 0 0 0 .147.165zm3.4-.024h2.684c.157 0 .165-.141.165-.3s-.008-.275-.149-.275h-2.267v-1.74h1.899c.133 0 .149-.134.149-.291s0-.284-.157-.284h-1.9v-1.653h2.243c.134 0 .15-.133.15-.291s0-.283-.158-.283h-2.668a.246.246 0 0 0-.276.275v4.566a.246.246 0 0 0 .275.273zm5.465.1a1.721 1.721 0 0 0 1.936-1.661 1.161 1.161 0 0 0-.739-1.1c-.528-.26-1.354-.331-1.819-.536a.658.658 0 0 1-.527-.637c-.008-.488.409-.795 1.149-.795a2.168 2.168 0 0 1 1.228.307c.181.1.268.055.338-.158a.258.258 0 0 0-.078-.377 2.655 2.655 0 0 0-1.519-.37c-1.134.007-1.835.558-1.827 1.464a1.153 1.153 0 0 0 .7 1.086 14.568 14.568 0 0 0 1.8.567.745.745 0 0 1 .6.7 1.015 1.015 0 0 1-1.244.914 2 2 0 0 1-1.441-.559c-.165-.142-.251-.071-.37.165a.283.283 0 0 0 .056.4 2.628 2.628 0 0 0 1.747.59zm4.435-.032a.178.178 0 0 0 .189-.181c.071-.354.149-.74.26-1.133h2.383c.1.393.189.771.267 1.133a.178.178 0 0 0 .189.181.751.751 0 0 0 .268-.039c.2-.047.26-.134.22-.291a18.029 18.029 0 0 0-1.637-4.558.521.521 0 0 0-.512-.315.511.511 0 0 0-.5.323 16.541 16.541 0 0 0-1.63 4.55c-.039.157.016.244.22.291a.722.722 0 0 0 .273.039zm.59-1.889a13.79 13.79 0 0 1 1.032-2.613h.01a13.723 13.723 0 0 1 1.031 2.613h-2.086zm6.1 1.968a2.257 2.257 0 0 0 1.6-.559.258.258 0 0 0 .024-.4.222.222 0 0 0-.362-.1 1.723 1.723 0 0 1-1.2.441c-1.04 0-1.693-.834-1.693-2.1a1.778 1.778 0 0 1 1.685-2.054 1.739 1.739 0 0 1 1.023.291c.189.094.26.008.331-.181a.254.254 0 0 0-.118-.386 2.35 2.35 0 0 0-1.276-.323 2.445 2.445 0 0 0-2.361 2.693c-.005 1.655.939 2.678 2.341 2.678zm4.119-.126a1.087 1.087 0 0 0 .394 0 .15.15 0 0 0 .157-.165v-4.393h1.5c.126 0 .165-.11.165-.307s-.031-.275-.165-.275h-3.755c-.118 0-.165.118-.165.307s.039.275.165.275h1.551v4.393a.15.15 0 0 0 .147.165zm3.277 0a1.043 1.043 0 0 0 .386 0 .157.157 0 0 0 .165-.165v-4.849a.153.153 0 0 0-.165-.166 1.088 1.088 0 0 0-.386 0 .147.147 0 0 0-.157.166v4.849a.15.15 0 0 0 .151.165zm3.63.063a.477.477 0 0 0 .5-.323 16.113 16.113 0 0 0 1.638-4.542.229.229 0 0 0-.221-.3.95.95 0 0 0-.275-.039.172.172 0 0 0-.189.181c-.134.622-.292 1.338-.512 2.031a14.391 14.391 0 0 1-.921 2.267h-.031a13.765 13.765 0 0 1-.914-2.259 19.2 19.2 0 0 1-.527-2.039.171.171 0 0 0-.181-.181.931.931 0 0 0-.3.039.229.229 0 0 0-.221.3 17.361 17.361 0 0 0 1.646 4.558.475.475 0 0 0 .502.307zm4.883.071c1.441 0 2.307-1.039 2.315-2.716.008-1.622-.795-2.668-2.275-2.668-1.441 0-2.315 1.039-2.315 2.715-.006 1.622.79 2.669 2.269 2.669zm.016-.551c-1.055 0-1.551-.9-1.566-2.141-.016-1.291.519-2.134 1.582-2.134 1.039 0 1.551.89 1.566 2.118.002 1.286-.541 2.157-1.588 2.157zm4.939.5a1.721 1.721 0 0 0 1.936-1.661 1.162 1.162 0 0 0-.74-1.1c-.527-.26-1.354-.331-1.818-.536a.658.658 0 0 1-.527-.637c-.008-.488.409-.795 1.149-.795a2.168 2.168 0 0 1 1.228.307c.181.1.267.055.338-.158a.258.258 0 0 0-.078-.377 2.66 2.66 0 0 0-1.52-.37c-1.133.007-1.834.558-1.826 1.464a1.153 1.153 0 0 0 .7 1.086 14.515 14.515 0 0 0 1.8.567.745.745 0 0 1 .6.7 1.016 1.016 0 0 1-1.244.914 2 2 0 0 1-1.441-.559c-.165-.142-.252-.071-.37.165a.283.283 0 0 0 .055.4 2.631 2.631 0 0 0 1.752.586zm4.435-.032a.178.178 0 0 0 .189-.181c.071-.354.149-.74.259-1.133h2.394c.1.393.188.771.267 1.133a.178.178 0 0 0 .189.181.754.754 0 0 0 .268-.039c.2-.047.26-.134.22-.291a18.029 18.029 0 0 0-1.637-4.558.521.521 0 0 0-.512-.315.513.513 0 0 0-.5.323 16.538 16.538 0 0 0-1.629 4.55c-.04.157.016.244.22.291a.722.722 0 0 0 .266.035zm.59-1.889a13.857 13.857 0 0 1 1.031-2.613h.022a13.723 13.723 0 0 1 1.031 2.613h-2.086zm4.285 1.834a.791.791 0 0 0 .362 0 .156.156 0 0 0 .165-.165v-2.85c0-.362-.015-.771-.031-1.1h.016c.149.26.385.693.59 1l1.905 2.92a.393.393 0 0 0 .354.181h.142a.261.261 0 0 0 .291-.291v-4.684a.149.149 0 0 0-.165-.165.82.82 0 0 0-.362-.008.163.163 0 0 0-.165.173l.007 2.929c0 .346.016.708.024 1.015h-.016c-.126-.22-.346-.653-.543-.952l-1.921-2.944a.385.385 0 0 0-.346-.189h-.181a.261.261 0 0 0-.291.291v4.676a.153.153 0 0 0 .159.159zm6.552.008a1.087 1.087 0 0 0 .394 0 .15.15 0 0 0 .157-.165v-4.397h1.5c.126 0 .165-.11.165-.307s-.031-.275-.165-.275h-3.765c-.118 0-.165.118-.165.307s.039.275.165.275h1.551v4.393a.15.15 0 0 0 .157.165zm3.277 0a1.043 1.043 0 0 0 .386 0 .158.158 0 0 0 .166-.165v-4.849a.154.154 0 0 0-.166-.166 1.088 1.088 0 0 0-.386 0 .147.147 0 0 0-.157.166v4.849a.15.15 0 0 0 .151.161zm3 .047c1.354 0 2.165-.456 2.165-1.59a1.124 1.124 0 0 0-.8-1.118v-.015a1.244 1.244 0 0 0 .637-1.15c0-.913-.834-1.322-1.873-1.322a7.077 7.077 0 0 0-1.094.063.242.242 0 0 0-.221.267v4.526a.248.248 0 0 0 .236.291 7.72 7.72 0 0 0 .945.044zm-.5-2.96v-1.66c.22-.024.441-.024.653-.032a.915.915 0 0 1 1.134.85.741.741 0 0 1-.787.842h-1zm.6 2.4a4.991 4.991 0 0 1-.6-.031v-1.811h1.023a.762.762 0 0 1 .929.795 1.112 1.112 0 0 1-1.355 1.044zm3.214.559a.177.177 0 0 0 .189-.181c.071-.354.15-.74.26-1.133h2.393c.1.393.189.771.268 1.133a.176.176 0 0 0 .188.181.748.748 0 0 0 .268-.039c.205-.047.26-.134.221-.291a17.993 17.993 0 0 0-1.638-4.558.521.521 0 0 0-.512-.315.512.512 0 0 0-.5.323 16.541 16.541 0 0 0-1.63 4.55c-.039.157.016.244.221.291a.714.714 0 0 0 .269.036zm.591-1.889a13.723 13.723 0 0 1 1.031-2.613h.023a13.79 13.79 0 0 1 1.032 2.613h-2.086zm6.1 1.968a2.261 2.261 0 0 0 1.606-.559.259.259 0 0 0 .023-.4.222.222 0 0 0-.362-.1 1.719 1.719 0 0 1-1.2.441c-1.039 0-1.693-.834-1.693-2.1a1.778 1.778 0 0 1 1.685-2.054 1.739 1.739 0 0 1 1.023.291c.189.094.26.008.331-.181a.254.254 0 0 0-.118-.386 2.35 2.35 0 0 0-1.276-.323 2.445 2.445 0 0 0-2.361 2.693c-.004 1.652.941 2.675 2.342 2.675zm4.119-.126a1.087 1.087 0 0 0 .394 0 .15.15 0 0 0 .157-.165v-4.396h1.5c.126 0 .165-.11.165-.307s-.031-.275-.165-.275h-3.755c-.118 0-.165.118-.165.307s.039.275.165.275h1.551v4.393a.15.15 0 0 0 .153.165zm3.4-.024h2.684c.157 0 .165-.141.165-.3s-.008-.275-.149-.275h-2.267v-1.74h1.9c.134 0 .15-.134.15-.291s0-.284-.157-.284h-1.9v-1.653h2.243c.134 0 .15-.133.15-.291s0-.283-.158-.283h-2.668a.246.246 0 0 0-.276.275v4.566a.246.246 0 0 0 .279.273zm4 .024a1.038 1.038 0 0 0 .385 0 .157.157 0 0 0 .166-.165v-1.842a5.216 5.216 0 0 0 .755.039 5.126 5.126 0 0 0 1.74 1.929.437.437 0 0 0 .559-.024c.134-.1.205-.228.047-.331a4.732 4.732 0 0 1-1.629-1.653 1.539 1.539 0 0 0 1.354-1.55c0-.984-.858-1.559-2.11-1.559a10.178 10.178 0 0 0-1.189.047.267.267 0 0 0-.236.291v4.653a.151.151 0 0 0 .155.162zm1.33-2.535a5.3 5.3 0 0 1-.779-.039v-2.007a8.1 8.1 0 0 1 .708-.024 1.136 1.136 0 0 1 1.378 1.015 1.1 1.1 0 0 1-1.31 1.052zm3.3 2.535a1.043 1.043 0 0 0 .386 0 .157.157 0 0 0 .165-.165v-4.849a.153.153 0 0 0-.165-.166 1.088 1.088 0 0 0-.386 0 .148.148 0 0 0-.158.166v4.849a.151.151 0 0 0 .156.162zm1.977.047a.178.178 0 0 0 .189-.181c.071-.354.149-.74.259-1.133h2.394c.1.393.188.771.267 1.133a.178.178 0 0 0 .189.181.754.754 0 0 0 .268-.039c.2-.047.26-.134.22-.291a18.029 18.029 0 0 0-1.637-4.558.521.521 0 0 0-.512-.315.513.513 0 0 0-.5.323 16.538 16.538 0 0 0-1.629 4.55c-.04.157.016.244.22.291a.722.722 0 0 0 .27.036zm.59-1.889a13.857 13.857 0 0 1 1.031-2.613h.024a13.723 13.723 0 0 1 1.031 2.613h-2.088zm4.395 1.818h2.677c.165 0 .173-.133.173-.3s-.008-.283-.158-.283h-2.259v-4.393a.157.157 0 0 0-.165-.165 1.088 1.088 0 0 0-.386 0 .15.15 0 0 0-.157.165v4.7a.245.245 0 0 0 .273.273zm3.993 0h2.685c.157 0 .165-.141.165-.3s-.008-.275-.15-.275h-2.27v-1.74h1.905c.134 0 .15-.134.15-.291s0-.284-.158-.284h-1.9v-1.653h2.244c.134 0 .149-.133.149-.291s0-.283-.157-.283h-2.669a.245.245 0 0 0-.275.275v4.566a.245.245 0 0 0 .279.273zm5.466.1a1.721 1.721 0 0 0 1.936-1.661 1.162 1.162 0 0 0-.74-1.1c-.527-.26-1.354-.331-1.818-.536a.659.659 0 0 1-.528-.637c-.007-.488.41-.795 1.15-.795a2.168 2.168 0 0 1 1.228.307c.181.1.267.055.338-.158a.257.257 0 0 0-.079-.377 2.655 2.655 0 0 0-1.519-.37c-1.133.007-1.834.558-1.826 1.464a1.153 1.153 0 0 0 .7 1.086 14.462 14.462 0 0 0 1.8.567.744.744 0 0 1 .6.7 1.014 1.014 0 0 1-1.243.914 2 2 0 0 1-1.441-.559c-.165-.142-.252-.071-.37.165a.283.283 0 0 0 .055.4 2.631 2.631 0 0 0 1.755.59z" transform="translate(-19.063 -206.75)" style="fill:#0e2959;fill-rule:evenodd"/></svg><svg width="203.88" height="40.28" viewBox="-1 -1 203.88 40.28" y="54.87" xmlns="http://www.w3.org/2000/svg"><path data-name="NUEVAS TOALLITAS HÚMEDAS" d="M49.816 199.282a2.45 2.45 0 0 0 1.1 0 .478.478 0 0 0 .5-.5v-8.692c0-1.1-.048-2.353-.1-3.361h.048c.456.792 1.176 2.112 1.8 3.049l5.809 8.9a1.2 1.2 0 0 0 1.08.552h.447a.8.8 0 0 0 .888-.888v-14.277a.455.455 0 0 0-.5-.5 2.452 2.452 0 0 0-1.1-.024.5.5 0 0 0-.5.528l.024 8.929c0 1.056.048 2.16.072 3.1h-.063c-.384-.672-1.056-1.992-1.656-2.9l-5.857-8.977a1.177 1.177 0 0 0-1.056-.576H50.2a.8.8 0 0 0-.888.888v14.257a.466.466 0 0 0 .504.492zm20.928.312c3.7 0 5.712-1.968 5.712-5.616v-9.913a.466.466 0 0 0-.5-.5 2.972 2.972 0 0 0-1.128 0 .448.448 0 0 0-.48.5v10.153a3.255 3.255 0 0 1-3.576 3.6c-2.3 0-3.624-1.224-3.624-3.6v-10.153a.466.466 0 0 0-.5-.5 3.1 3.1 0 0 0-1.152 0 .466.466 0 0 0-.5.5v9.913c-.012 3.648 2.004 5.616 5.748 5.616zm10.151-.36h8.185c.48 0 .5-.432.5-.912 0-.456-.024-.84-.456-.84h-6.908v-5.3h5.809c.408 0 .456-.408.456-.888 0-.456 0-.864-.48-.864h-5.785v-5.041h6.841c.408 0 .456-.408.456-.888 0-.456 0-.864-.48-.864H80.9a.749.749 0 0 0-.84.84v13.921a.749.749 0 0 0 .84.836zm17.257.266a1.457 1.457 0 0 0 1.512-.984 49.144 49.144 0 0 0 4.993-13.849.7.7 0 0 0-.672-.912 2.953 2.953 0 0 0-.84-.12.526.526 0 0 0-.576.552c-.409 1.9-.889 4.08-1.561 6.193a43.648 43.648 0 0 1-2.808 6.91h-.1a42.056 42.056 0 0 1-2.78-6.89 58.1 58.1 0 0 1-1.608-6.217.523.523 0 0 0-.552-.552 2.888 2.888 0 0 0-.912.12.7.7 0 0 0-.672.912 52.978 52.978 0 0 0 5.016 13.9 1.452 1.452 0 0 0 1.56.937zm8.352-.048a.541.541 0 0 0 .576-.552c.216-1.08.456-2.256.792-3.456h7.3c.312 1.2.576 2.352.816 3.456a.542.542 0 0 0 .577.552 2.321 2.321 0 0 0 .816-.12c.624-.144.792-.408.672-.888a54.954 54.954 0 0 0-4.993-13.9 1.591 1.591 0 0 0-1.56-.96 1.567 1.567 0 0 0-1.536.984 50.477 50.477 0 0 0-4.968 13.873c-.12.48.048.744.672.888a2.219 2.219 0 0 0 .832.121zm1.8-5.76a42.1 42.1 0 0 1 3.144-7.969h.072a42.1 42.1 0 0 1 3.144 7.969H108.3zm17.5 5.856c3.336-.024 5.976-1.92 5.9-5.064a3.546 3.546 0 0 0-2.256-3.36c-1.608-.792-4.128-1.008-5.544-1.632a2.011 2.011 0 0 1-1.609-1.945c-.024-1.488 1.249-2.424 3.5-2.424a6.6 6.6 0 0 1 3.744.936c.552.312.816.168 1.032-.48a.788.788 0 0 0-.24-1.152 8.108 8.108 0 0 0-4.631-1.127c-3.457.024-5.593 1.7-5.569 4.464a3.517 3.517 0 0 0 2.136 3.313c1.7.912 3.793 1.08 5.5 1.728 1.2.456 1.824 1.1 1.824 2.136.024 1.68-1.3 2.76-3.792 2.784a6.067 6.067 0 0 1-4.393-1.7c-.5-.432-.768-.216-1.128.5a.863.863 0 0 0 .168 1.224 8.029 8.029 0 0 0 5.354 1.797zm17.567-.24a3.366 3.366 0 0 0 1.2 0 .459.459 0 0 0 .48-.5v-13.399h4.56c.384 0 .5-.336.5-.936 0-.576-.1-.84-.5-.84h-11.452c-.36 0-.5.36-.5.936s.12.84.5.84h4.728V198.8a.459.459 0 0 0 .48.506zm14.977.408c4.392 0 7.032-3.168 7.056-8.28.024-4.945-2.424-8.137-6.936-8.137-4.393 0-7.057 3.168-7.057 8.281-.004 4.942 2.42 8.134 6.933 8.134zm.048-1.68c-3.217 0-4.729-2.76-4.777-6.528-.048-3.937 1.584-6.5 4.825-6.5 3.168 0 4.728 2.712 4.776 6.457.02 3.905-1.636 6.569-4.828 6.569zm10.247 1.416a.541.541 0 0 0 .576-.552c.216-1.08.456-2.256.792-3.456h7.3c.312 1.2.576 2.352.816 3.456a.541.541 0 0 0 .576.552 2.321 2.321 0 0 0 .816-.12c.624-.144.792-.408.672-.888a54.952 54.952 0 0 0-4.992-13.9 1.591 1.591 0 0 0-1.561-.96 1.567 1.567 0 0 0-1.536.984 50.477 50.477 0 0 0-4.968 13.873c-.12.48.048.744.672.888a2.219 2.219 0 0 0 .833.121zm1.8-5.76a42.1 42.1 0 0 1 3.144-7.969h.072a42.033 42.033 0 0 1 3.145 7.969h-6.361zm13.392 5.544h8.161c.5 0 .528-.408.528-.912 0-.48-.024-.864-.48-.864h-6.889v-13.395a.478.478 0 0 0-.5-.5 3.228 3.228 0 0 0-1.176 0 .459.459 0 0 0-.48.5v14.329a.749.749 0 0 0 .832.84zm12.168 0h8.16c.5 0 .528-.408.528-.912 0-.48-.024-.864-.48-.864h-6.888v-13.395a.478.478 0 0 0-.5-.5 3.233 3.233 0 0 0-1.177 0 .459.459 0 0 0-.48.5v14.329a.749.749 0 0 0 .834.84zm11.807.072a3.228 3.228 0 0 0 1.176 0 .478.478 0 0 0 .5-.5v-14.791a.466.466 0 0 0-.5-.5 3.228 3.228 0 0 0-1.176 0 .448.448 0 0 0-.48.5V198.8a.459.459 0 0 0 .476.506zm10.081 0a3.36 3.36 0 0 0 1.2 0 .459.459 0 0 0 .48-.5v-13.399h4.56c.384 0 .5-.336.5-.936 0-.576-.1-.84-.5-.84h-11.453c-.36 0-.5.36-.5.936s.12.84.5.84h4.729V198.8a.459.459 0 0 0 .48.506zm8.088.144a.541.541 0 0 0 .576-.552c.216-1.08.456-2.256.792-3.456h7.3c.312 1.2.576 2.352.816 3.456a.541.541 0 0 0 .576.552 2.321 2.321 0 0 0 .816-.12c.624-.144.793-.408.673-.888a54.993 54.993 0 0 0-4.993-13.9 1.591 1.591 0 0 0-1.56-.96 1.567 1.567 0 0 0-1.536.984 50.479 50.479 0 0 0-4.969 13.873c-.12.48.048.744.672.888a2.221 2.221 0 0 0 .833.121zm1.8-5.76a42.1 42.1 0 0 1 3.144-7.969h.072a42.1 42.1 0 0 1 3.144 7.969h-6.36zm17.5 5.856c3.336-.024 5.976-1.92 5.9-5.064a3.546 3.546 0 0 0-2.256-3.36c-1.608-.792-4.128-1.008-5.545-1.632a2.01 2.01 0 0 1-1.608-1.945c-.024-1.488 1.248-2.424 3.5-2.424a6.6 6.6 0 0 1 3.744.936c.552.312.816.168 1.032-.48a.788.788 0 0 0-.24-1.152 8.108 8.108 0 0 0-4.632-1.128c-3.457.024-5.593 1.7-5.569 4.464a3.517 3.517 0 0 0 2.136 3.313c1.7.912 3.793 1.08 5.5 1.728 1.2.456 1.824 1.1 1.824 2.136.024 1.68-1.3 2.76-3.792 2.784a6.064 6.064 0 0 1-4.393-1.7c-.5-.432-.768-.216-1.128.5a.863.863 0 0 0 .168 1.224 8.027 8.027 0 0 0 5.351 1.798zm-135.55 5.967a3.366 3.366 0 0 0-1.2 0 .431.431 0 0 0-.456.5v6.409h-7.656v-6.409a.466.466 0 0 0-.5-.5 3.228 3.228 0 0 0-1.176 0 .448.448 0 0 0-.48.5V220.8a.459.459 0 0 0 .48.5 3.228 3.228 0 0 0 1.176 0 .478.478 0 0 0 .5-.5v-6.624h7.656v6.624a.441.441 0 0 0 .456.5 3.366 3.366 0 0 0 1.2 0 .459.459 0 0 0 .48-.5v-14.783a.448.448 0 0 0-.488-.504zm7.871-.984 4.56-2.232a.385.385 0 0 0 .192-.576 3.244 3.244 0 0 0-.456-.912.416.416 0 0 0-.624-.144l-4.3 2.664c-.36.216-.24.48-.1.792.216.43.428.55.72.406zm1.968 17.065c3.7 0 5.712-1.968 5.712-5.616v-9.913a.466.466 0 0 0-.5-.5 2.972 2.972 0 0 0-1.128 0 .448.448 0 0 0-.48.5v10.153a3.255 3.255 0 0 1-3.576 3.6c-2.3 0-3.625-1.224-3.625-3.6v-10.155a.466.466 0 0 0-.5-.5 3.1 3.1 0 0 0-1.152 0 .466.466 0 0 0-.5.5v9.913c-.019 3.648 1.996 5.616 5.741 5.616zm10.175-.264a.571.571 0 0 0 .624-.6c.145-2.976.385-5.3.721-7.7.24-1.584.5-3.361.816-4.873h.048c.576 1.344 1.176 3.121 1.7 4.633.768 2.16 1.416 4.344 2.16 7.056a1.006 1.006 0 0 0 1.128.984 1.025 1.025 0 0 0 1.176-.984c.7-2.76 1.368-4.944 2.112-7.056.528-1.512 1.152-3.217 1.753-4.633h.048c.312 1.512.6 3.337.84 4.921.336 2.376.576 4.9.72 7.656a.543.543 0 0 0 .6.6 3.243 3.243 0 0 0 1.08-.048.562.562 0 0 0 .5-.672 86.559 86.559 0 0 0-2.016-13.777 1.386 1.386 0 0 0-1.488-1.224 1.475 1.475 0 0 0-1.561 1.032 88.278 88.278 0 0 0-3.7 10.633h-.044a81.816 81.816 0 0 0-3.72-10.633 1.451 1.451 0 0 0-1.512-1.032 1.346 1.346 0 0 0-1.489 1.248 77.417 77.417 0 0 0-2.04 13.753.535.535 0 0 0 .48.672 3.13 3.13 0 0 0 1.056.042zm20.16-.1h8.185c.48 0 .5-.432.5-.912 0-.456-.024-.84-.456-.84h-6.913v-5.3h5.809c.408 0 .456-.408.456-.888 0-.456 0-.864-.48-.864h-5.785v-5.041h6.841c.408 0 .456-.408.456-.888 0-.456 0-.864-.48-.864H149.9a.749.749 0 0 0-.84.84v13.921a.749.749 0 0 0 .84.838zm15.168.192a10.024 10.024 0 0 0 6.193-1.728c1.656-1.32 2.64-3.48 2.64-6.456 0-5.113-2.736-7.609-8.472-7.609a23.467 23.467 0 0 0-3.145.192.739.739 0 0 0-.672.816v13.731a.757.757 0 0 0 .72.888 22.273 22.273 0 0 0 2.728.168zm.505-1.776c-.625 0-1.177-.024-1.825-.072v-12.119a15.34 15.34 0 0 1 1.945-.12c4.128 0 6 1.92 6.048 5.929a6.624 6.624 0 0 1-1.584 4.848 6.034 6.034 0 0 1-4.592 1.536zm11.471 1.8a.541.541 0 0 0 .576-.552c.216-1.08.456-2.256.792-3.456h7.3c.312 1.2.576 2.352.816 3.456a.541.541 0 0 0 .576.552 2.321 2.321 0 0 0 .816-.12c.624-.144.792-.408.672-.888a54.952 54.952 0 0 0-4.992-13.9 1.591 1.591 0 0 0-1.56-.96 1.567 1.567 0 0 0-1.537.984 50.477 50.477 0 0 0-4.968 13.873c-.12.48.048.744.672.888a2.219 2.219 0 0 0 .829.125zm1.8-5.76a42.033 42.033 0 0 1 3.145-7.969h.072a42.1 42.1 0 0 1 3.144 7.969h-6.361zm17.5 5.856c3.336-.024 5.977-1.92 5.905-5.064a3.546 3.546 0 0 0-2.257-3.36c-1.608-.792-4.128-1.008-5.544-1.632a2.01 2.01 0 0 1-1.608-1.945c-.024-1.488 1.248-2.424 3.5-2.424a6.6 6.6 0 0 1 3.744.936c.553.312.817.168 1.033-.48a.788.788 0 0 0-.24-1.152 8.114 8.114 0 0 0-4.633-1.128c-3.456.024-5.592 1.7-5.568 4.464a3.517 3.517 0 0 0 2.136 3.313c1.7.912 3.792 1.08 5.5 1.728 1.2.456 1.825 1.1 1.825 2.136.024 1.68-1.3 2.76-3.793 2.784a6.063 6.063 0 0 1-4.392-1.7c-.5-.432-.768-.216-1.128.5a.863.863 0 0 0 .168 1.224 8.026 8.026 0 0 0 5.34 1.802z" transform="translate(-49.313 -183.312)" style="fill:#001f53;fill-rule:evenodd"/></svg><svg width="210.28" height="21.81" viewBox="-1 -1 210.28 21.81" y="33.06" xmlns="http://www.w3.org/2000/svg"><path data-name="proactive care™" d="M46.245 136.315a3.629 3.629 0 0 0 1.323 0 .537.537 0 0 0 .567-.566v-5.777a22.792 22.792 0 0 0 2.753.108c4.373 0 7.207-1.916 7.207-5.776 0-3.752-2.942-5.669-7.5-5.669a34.418 34.418 0 0 0-4.076.162.914.914 0 0 0-.81 1v15.953a.516.516 0 0 0 .536.565zm4.562-8.1a17.367 17.367 0 0 1-2.672-.162v-7.477c.621-.054 1.377-.081 2.429-.081 3.023-.027 5.021 1.133 5.021 3.806s-1.755 3.917-4.778 3.917zm10.963 8.1a3.629 3.629 0 0 0 1.323 0 .537.537 0 0 0 .567-.566v-6.317a17.548 17.548 0 0 0 2.591.135 17.575 17.575 0 0 0 5.966 6.613 1.5 1.5 0 0 0 1.916-.081c.459-.35.7-.782.162-1.133a16.285 16.285 0 0 1-5.588-5.669c2.834-.594 4.643-2.483 4.643-5.317 0-3.374-2.942-5.345-7.234-5.345a34.418 34.418 0 0 0-4.076.162.914.914 0 0 0-.81 1v15.953a.516.516 0 0 0 .54.565zm4.562-8.691a17.947 17.947 0 0 1-2.672-.135v-6.883c.621-.054 1.377-.081 2.429-.081 2.753-.054 4.724 1.187 4.724 3.482 0 2.321-1.755 3.617-4.481 3.617zm17.469 9.15c4.94 0 7.909-3.563 7.936-9.312.027-5.561-2.726-9.151-7.8-9.151-4.94 0-7.936 3.563-7.936 9.313-.001 5.56 2.725 9.15 7.799 9.15zm.054-1.889c-3.617 0-5.318-3.1-5.372-7.342-.054-4.427 1.782-7.315 5.426-7.315 3.563 0 5.318 3.05 5.371 7.261.027 4.4-1.835 7.396-5.425 7.396zm11.531 1.592a.608.608 0 0 0 .648-.621c.243-1.214.513-2.537.891-3.886h8.206c.351 1.349.648 2.645.918 3.886a.608.608 0 0 0 .647.621 2.611 2.611 0 0 0 .918-.135c.7-.162.891-.459.756-1a61.782 61.782 0 0 0-5.615-15.629 1.787 1.787 0 0 0-1.754-1.08 1.762 1.762 0 0 0-1.728 1.107 56.763 56.763 0 0 0-5.588 15.6c-.135.539.054.836.756 1a2.5 2.5 0 0 0 .944.137zM97.41 130a47.356 47.356 0 0 1 3.536-8.962h.081a47.356 47.356 0 0 1 3.536 8.962H97.41zm20.923 6.748a7.753 7.753 0 0 0 5.507-1.916.887.887 0 0 0 .081-1.377.762.762 0 0 0-1.242-.324 5.9 5.9 0 0 1-4.13 1.512c-3.563 0-5.8-2.861-5.8-7.207 0-4.292 2.294-7.045 5.776-7.045a5.952 5.952 0 0 1 3.509 1c.648.324.891.027 1.134-.62a.87.87 0 0 0-.405-1.323 8.059 8.059 0 0 0-4.373-1.107c-4.777 0-8.1 3.887-8.1 9.232-.001 5.665 3.239 9.174 8.043 9.174zm14.122-.432a3.775 3.775 0 0 0 1.349 0 .516.516 0 0 0 .54-.566v-15.063h5.129c.432 0 .567-.378.567-1.053 0-.648-.108-.945-.567-.945H126.6c-.405 0-.567.405-.567 1.053s.135.945.567.945h5.318v15.062a.516.516 0 0 0 .537.566zm11.233 0a3.626 3.626 0 0 0 1.322 0 .537.537 0 0 0 .567-.566v-16.629a.524.524 0 0 0-.567-.567 3.626 3.626 0 0 0-1.322 0 .5.5 0 0 0-.54.567v16.628a.516.516 0 0 0 .54.566zm12.445.216a1.639 1.639 0 0 0 1.7-1.106 55.249 55.249 0 0 0 5.614-15.575.783.783 0 0 0-.755-1.026 3.322 3.322 0 0 0-.945-.135.592.592 0 0 0-.648.621c-.459 2.132-1 4.589-1.755 6.964a49 49 0 0 1-3.158 7.774h-.108a47.377 47.377 0 0 1-3.131-7.747 65.255 65.255 0 0 1-1.808-6.991.588.588 0 0 0-.621-.621 3.248 3.248 0 0 0-1.026.135.783.783 0 0 0-.756 1.026 59.579 59.579 0 0 0 5.642 15.629 1.634 1.634 0 0 0 1.755 1.051zm11.4-.3h9.2c.54 0 .567-.485.567-1.025 0-.513-.027-.945-.513-.945h-7.774V128.3h6.532c.459 0 .513-.458.513-1 0-.513 0-.972-.54-.972h-6.5v-5.668h7.693c.459 0 .513-.459.513-1 0-.513 0-.972-.54-.972h-9.15a.843.843 0 0 0-.945.945v15.657a.842.842 0 0 0 .94.944zm25.243.513a7.751 7.751 0 0 0 5.506-1.916.887.887 0 0 0 .081-1.377.762.762 0 0 0-1.242-.324 5.9 5.9 0 0 1-4.129 1.512c-3.563 0-5.8-2.861-5.8-7.207 0-4.292 2.3-7.045 5.777-7.045a5.956 5.956 0 0 1 3.509 1c.647.324.89.027 1.133-.62a.87.87 0 0 0-.405-1.323 8.055 8.055 0 0 0-4.372-1.107c-4.778 0-8.1 3.887-8.1 9.232-.006 5.668 3.233 9.177 8.038 9.177zm9.559-.27a.608.608 0 0 0 .648-.621c.243-1.214.513-2.537.891-3.886h8.206c.35 1.349.647 2.645.917 3.886a.608.608 0 0 0 .648.621 2.611 2.611 0 0 0 .918-.135c.7-.162.891-.459.756-1a61.782 61.782 0 0 0-5.615-15.629 1.789 1.789 0 0 0-1.754-1.08 1.763 1.763 0 0 0-1.728 1.107 56.749 56.749 0 0 0-5.587 15.6c-.135.539.054.836.755 1a2.5 2.5 0 0 0 .941.139zm2.021-6.475a47.289 47.289 0 0 1 3.536-8.962h.081a47.423 47.423 0 0 1 3.536 8.962h-7.153zm14.661 6.316a3.626 3.626 0 0 0 1.322 0 .537.537 0 0 0 .567-.566v-6.317a17.557 17.557 0 0 0 2.592.135 17.573 17.573 0 0 0 5.965 6.613 1.5 1.5 0 0 0 1.917-.081c.458-.35.7-.782.161-1.133a16.291 16.291 0 0 1-5.587-5.669c2.834-.594 4.643-2.483 4.643-5.317 0-3.374-2.942-5.345-7.234-5.345a34.418 34.418 0 0 0-4.076.162.914.914 0 0 0-.81 1v15.953a.516.516 0 0 0 .54.564zm4.562-8.691a17.957 17.957 0 0 1-2.673-.135v-6.883c.621-.054 1.377-.081 2.43-.081 2.753-.054 4.723 1.187 4.723 3.482 0 2.32-1.754 3.616-4.48 3.616zm11.719 8.61h9.2c.54 0 .567-.485.567-1.025 0-.513-.027-.945-.513-.945h-7.774V128.3h6.533c.458 0 .512-.458.512-1 0-.513 0-.972-.539-.972h-6.506v-5.668h7.693c.459 0 .513-.459.513-1 0-.513 0-.972-.54-.972H235.3a.843.843 0 0 0-.945.945v15.657a.842.842 0 0 0 .945.944zm12.434-15.321a.816.816 0 0 0 .393 0 .2.2 0 0 0 .173-.236v-3.055h.977c.157 0 .236-.126.236-.347a.252.252 0 0 0-.236-.314h-2.724c-.174 0-.237.141-.237.346s.063.315.237.315h.992v3.055a.206.206 0 0 0 .189.235zm2.377.016a.24.24 0 0 0 .252-.252 15.046 15.046 0 0 1 .189-1.827l.095-.724h.031c.063.2.158.456.236.693.174.488.331 1.008.52 1.685a.329.329 0 0 0 .378.3.352.352 0 0 0 .394-.3c.173-.677.33-1.181.488-1.67l.252-.724h.031c.048.236.079.52.111.756a15.934 15.934 0 0 1 .173 1.811.26.26 0 0 0 .252.252.622.622 0 0 0 .3-.016.225.225 0 0 0 .2-.283 20.741 20.741 0 0 0-.473-3.292.448.448 0 0 0-.472-.377.46.46 0 0 0-.473.314 19.622 19.622 0 0 0-.771 2.142 22.773 22.773 0 0 0-.788-2.142.458.458 0 0 0-.472-.314.431.431 0 0 0-.457.377 17.409 17.409 0 0 0-.488 3.292.232.232 0 0 0 .2.283.577.577 0 0 0 .292.015z" transform="translate(-45.719 -116.969)" style="fill:#001f53;fill-rule:evenodd"/></svg></svg>