<svg width="269" height="51" xmlns="http://www.w3.org/2000/svg" xmlns:xlink="http://www.w3.org/1999/xlink"><svg width="91.88" height="15.72" viewBox="-1 -1 91.88 15.72" y="35" xmlns="http://www.w3.org/2000/svg"><path data-name="COMPRA AQUÍ" d="M186.957 54.466a4.347 4.347 0 0 0 3.008-1 .576.576 0 0 0 .028-.874.5.5 0 0 0-.816-.243 2.853 2.853 0 0 1-2.034.688c-1.761 0-2.835-1.432-2.835-3.552s1.088-3.423 2.807-3.423a3.2 3.2 0 0 1 1.761.458c.416.2.588.014.745-.43a.546.546 0 0 0-.243-.845A4.431 4.431 0 0 0 187 44.7c-2.606 0-4.382 2.091-4.382 4.9 0 2.975 1.747 4.866 4.339 4.866zm8.319 0c2.636 0 4.311-1.847 4.326-4.941.014-2.936-1.476-4.855-4.225-4.855-2.636 0-4.325 1.848-4.325 4.941 0 2.964 1.475 4.855 4.224 4.855zm.029-1.275c-1.776 0-2.492-1.547-2.535-3.638-.043-2.163.831-3.58 2.592-3.58s2.507 1.475 2.535 3.552c.043 2.175-.845 3.652-2.592 3.666zm6.658 1.06a.446.446 0 0 0 .458-.473c.086-1.676.2-2.993.372-4.239.129-.859.229-1.919.4-2.735h.029c.286.687.6 1.7.888 2.506a75.59 75.59 0 0 1 1.246 4 .676.676 0 0 0 .788.63.7.7 0 0 0 .816-.63c.458-1.69.845-2.922 1.232-4.024.286-.788.615-1.762.9-2.478h.028c.172.816.287 1.89.4 2.764.172 1.232.3 2.621.373 4.211a.446.446 0 0 0 .458.473 2.552 2.552 0 0 0 .874-.043.4.4 0 0 0 .358-.516 54.126 54.126 0 0 0-1.16-7.92 1 1 0 0 0-1.089-.9 1.083 1.083 0 0 0-1.145.773 48.744 48.744 0 0 0-2.005 5.571h-.029a53.974 53.974 0 0 0-1.991-5.571 1.1 1.1 0 0 0-1.146-.773.99.99 0 0 0-1.088.9 49.729 49.729 0 0 0-1.174 7.92.419.419 0 0 0 .358.516 2.418 2.418 0 0 0 .849.038zm11.741-.029a2.942 2.942 0 0 0 1 0 .352.352 0 0 0 .33-.372v-2.922a12.37 12.37 0 0 0 1.289.057c2.32 0 3.866-1.017 3.866-3.122 0-2.019-1.589-3.036-4.038-3.036a15.033 15.033 0 0 0-2.263.114.572.572 0 0 0-.516.63v8.279a.342.342 0 0 0 .328.372zm2.535-4.468a9.5 9.5 0 0 1-1.2-.057v-3.609c.286-.029.63-.043 1.1-.043 1.375-.014 2.364.487 2.364 1.833-.003 1.322-.846 1.876-2.264 1.876zm5.712 4.468a2.948 2.948 0 0 0 1 0 .352.352 0 0 0 .329-.372v-3.208a8.3 8.3 0 0 0 1.046.057 9.969 9.969 0 0 0 2.964 3.423.977.977 0 0 0 1.289-.029c.272-.215.473-.516.143-.745a9.958 9.958 0 0 1-2.75-2.821 2.793 2.793 0 0 0 2.321-2.821c0-1.847-1.59-2.879-3.9-2.879a15.033 15.033 0 0 0-2.263.114.571.571 0 0 0-.515.63v8.279a.342.342 0 0 0 .336.372zm2.549-4.769a7.416 7.416 0 0 1-1.217-.072V46.1c.3-.029.63-.029 1.1-.043 1.217-.029 2.205.5 2.205 1.661s-.827 1.735-2.088 1.735zm6.529 4.869a.407.407 0 0 0 .429-.43c.115-.544.244-1.189.43-1.862h4a16.005 16.005 0 0 1 .429 1.862.4.4 0 0 0 .43.43 2.411 2.411 0 0 0 .645-.072c.515-.115.63-.329.544-.716a34.434 34.434 0 0 0-2.879-7.977 1.2 1.2 0 0 0-1.189-.7 1.167 1.167 0 0 0-1.16.73 32.823 32.823 0 0 0-2.864 7.948c-.086.387.043.587.544.716a2.224 2.224 0 0 0 .641.072zm1.217-3.595a23.556 23.556 0 0 1 1.618-4.211h.058a25.94 25.94 0 0 1 1.6 4.211h-3.28zm10.354 3.596a.408.408 0 0 0 .43-.43c.114-.544.243-1.189.429-1.862h4a16.23 16.23 0 0 1 .43 1.862.4.4 0 0 0 .429.43 2.411 2.411 0 0 0 .645-.072c.515-.115.63-.329.544-.716a34.434 34.434 0 0 0-2.879-7.977 1.2 1.2 0 0 0-1.188-.7 1.165 1.165 0 0 0-1.16.73 32.785 32.785 0 0 0-2.865 7.948c-.086.387.043.587.545.716a2.217 2.217 0 0 0 .64.071zm1.217-3.595a23.554 23.554 0 0 1 1.619-4.211h.057a25.94 25.94 0 0 1 1.6 4.211h-3.28zm15.351 4.34a20.043 20.043 0 0 1-2.449-1.117c1.361-.759 2.148-2.291 2.163-4.425.014-2.936-1.475-4.855-4.225-4.855-2.635 0-4.325 1.848-4.325 4.941 0 2.965 1.475 4.855 4.225 4.855.157 0 .3 0 .444-.014a20.865 20.865 0 0 0 2.821 1.532 1.151 1.151 0 0 0 1.189-.229c.389-.245.556-.545.155-.689zm-7.118-5.514c-.043-2.163.831-3.58 2.593-3.58 1.747-.014 2.506 1.475 2.534 3.552.043 2.177-.845 3.652-2.592 3.666-1.778-.001-2.494-1.548-2.537-3.639zm12.186 4.841c2.291 0 3.552-1.232 3.552-3.495v-5.7a.354.354 0 0 0-.358-.358 2.044 2.044 0 0 0-.931 0 .351.351 0 0 0-.344.358v5.958a1.919 1.919 0 1 1-3.838 0V45.2a.342.342 0 0 0-.344-.358 2.235 2.235 0 0 0-.974 0 .342.342 0 0 0-.344.358v5.7c-.002 2.263 1.245 3.494 3.579 3.494zm5.54-9.868v9.653h1.246v-9.653h-1.246zm1.189-2.191-1.318 1.676h1.017l1.833-1.676h-1.532z" transform="translate(-182.625 -42.344)" style="fill:#fff;fill-rule:evenodd"/></svg><svg width="179.81" height="9.16" viewBox="-1 -1 179.81 9.16" y="11.56" xmlns="http://www.w3.org/2000/svg"><path data-name="*vs. una toalla de mano regular de algodón" d="M61.926 89.094a.181.181 0 0 0 .288-.064l.368-.664.384.656a.174.174 0 0 0 .288.056l.136-.1a.18.18 0 0 0 .024-.3l-.5-.552.728-.16a.178.178 0 0 0 .152-.256l-.056-.16a.173.173 0 0 0-.272-.112l-.68.328.08-.752a.177.177 0 0 0-.2-.224h-.172a.183.183 0 0 0-.2.224l.088.752-.7-.32a.169.169 0 0 0-.264.112l-.056.16a.182.182 0 0 0 .152.256l.744.16-.512.552a.18.18 0 0 0 .032.3zm4.841 3.394a.605.605 0 0 0 .648-.408 16.756 16.756 0 0 0 1.609-4.45c.04-.208-.024-.328-.312-.392a1.208 1.208 0 0 0-.36-.04.213.213 0 0 0-.232.232 14.126 14.126 0 0 1-.408 1.865 14.326 14.326 0 0 1-.9 2.329h-.037a13.336 13.336 0 0 1-.9-2.305 18.832 18.832 0 0 1-.432-1.889.212.212 0 0 0-.232-.232 1.618 1.618 0 0 0-.4.04c-.288.064-.352.184-.3.392a17.78 17.78 0 0 0 1.609 4.458.607.607 0 0 0 .647.4zm4.752.012a1.8 1.8 0 0 0 2.009-1.737 1.2 1.2 0 0 0-.784-1.128 14.925 14.925 0 0 0-1.673-.5.683.683 0 0 1-.576-.608.822.822 0 0 1 1.016-.7 2.33 2.33 0 0 1 1.216.3c.224.1.328.056.416-.216a.341.341 0 0 0-.1-.464 2.822 2.822 0 0 0-1.561-.368c-1.192 0-1.913.584-1.9 1.561a1.209 1.209 0 0 0 .76 1.153 10.987 10.987 0 0 0 1.617.488.736.736 0 0 1 .656.688.9.9 0 0 1-1.1.784 2.257 2.257 0 0 1-1.441-.536c-.2-.152-.312-.088-.448.2a.369.369 0 0 0 .04.5 2.886 2.886 0 0 0 1.853.583zm3.232-.048a.537.537 0 0 0 .592-.512v-.052a.606.606 0 0 0-1.192 0v.048a.54.54 0 0 0 .599.512zm5.049.06a1.774 1.774 0 0 0 1.985-1.953v-3.185a.2.2 0 0 0-.2-.2 1.142 1.142 0 0 0-.52 0 .2.2 0 0 0-.192.2V90.7a1.072 1.072 0 1 1-2.145 0v-3.326a.191.191 0 0 0-.192-.2 1.249 1.249 0 0 0-.544 0 .191.191 0 0 0-.192.2v3.185a1.775 1.775 0 0 0 2 1.953zm3.263-.1a1.263 1.263 0 0 0 .52 0 .209.209 0 0 0 .2-.208V89.7c0-.384-.024-.84-.048-1.192h.015a11.606 11.606 0 0 0 .64 1.121l1.7 2.537a.488.488 0 0 0 .44.224h.192a.331.331 0 0 0 .368-.36v-4.656a.189.189 0 0 0-.2-.2.929.929 0 0 0-.512 0 .187.187 0 0 0-.192.2l.014 2.521c0 .408.016.816.032 1.153h-.017c-.12-.224-.384-.752-.616-1.1l-1.7-2.529a.473.473 0 0 0-.432-.232h-.229a.327.327 0 0 0-.368.36v4.658a.191.191 0 0 0 .192.203zm5.537.06a.228.228 0 0 0 .24-.24c.064-.3.136-.664.24-1.041h2.233a9.064 9.064 0 0 1 .24 1.041.224.224 0 0 0 .24.24 1.345 1.345 0 0 0 .36-.04c.288-.064.352-.184.3-.4a19.263 19.263 0 0 0-1.609-4.458.673.673 0 0 0-.664-.392.652.652 0 0 0-.648.408 18.316 18.316 0 0 0-1.6 4.442c-.048.216.024.328.3.4a1.241 1.241 0 0 0 .368.04zm.68-2.009a13.15 13.15 0 0 1 .9-2.353h.032a14.522 14.522 0 0 1 .9 2.353h-1.834zm6.936 1.953a1.641 1.641 0 0 0 .56 0 .2.2 0 0 0 .184-.208v-4.282h1.433c.152 0 .2-.144.2-.384s-.032-.352-.2-.352H94.55c-.152 0-.192.152-.192.392 0 .224.024.344.192.344h1.48v4.282a.191.191 0 0 0 .184.208zm5.057.136c1.472 0 2.409-1.032 2.417-2.761.008-1.641-.825-2.713-2.361-2.713-1.473 0-2.418 1.032-2.418 2.761-.001 1.661.823 2.713 2.36 2.713zm.016-.712c-.993 0-1.393-.864-1.417-2.033-.024-1.209.464-2 1.449-2s1.4.824 1.416 1.985c.022 1.215-.474 2.04-1.45 2.048zm3.535.632a.228.228 0 0 0 .24-.24c.064-.3.136-.664.24-1.041h2.233a9.041 9.041 0 0 1 .24 1.041.224.224 0 0 0 .24.24 1.344 1.344 0 0 0 .36-.04c.288-.064.352-.184.3-.4a19.27 19.27 0 0 0-1.608-4.458.673.673 0 0 0-.665-.392.651.651 0 0 0-.648.408 18.368 18.368 0 0 0-1.6 4.442c-.048.216.024.328.305.4a1.24 1.24 0 0 0 .361.04zm.68-2.009a13.158 13.158 0 0 1 .9-2.353h.032a14.427 14.427 0 0 1 .9 2.353H105.5zm4.36 1.929h2.729c.192 0 .208-.176.208-.384s-.008-.36-.192-.36h-2.169v-4.266a.187.187 0 0 0-.184-.208 1.645 1.645 0 0 0-.56 0 .183.183 0 0 0-.184.208v4.658a.317.317 0 0 0 .35.352zm4.064 0h2.729c.192 0 .208-.176.208-.384s-.008-.36-.192-.36H114.5v-4.266a.187.187 0 0 0-.184-.208 1.645 1.645 0 0 0-.56 0 .183.183 0 0 0-.184.208v4.658a.317.317 0 0 0 .354.352zm4.128.08a.228.228 0 0 0 .24-.24c.064-.3.136-.664.24-1.041h2.233a9.041 9.041 0 0 1 .24 1.041.224.224 0 0 0 .24.24 1.344 1.344 0 0 0 .36-.04c.288-.064.352-.184.3-.4a19.27 19.27 0 0 0-1.608-4.458.675.675 0 0 0-.665-.392.651.651 0 0 0-.648.408 18.326 18.326 0 0 0-1.6 4.442c-.048.216.024.328.3.4a1.243 1.243 0 0 0 .366.04zm.68-2.009a13.158 13.158 0 0 1 .9-2.353h.032a14.52 14.52 0 0 1 .9 2.353h-1.833zm6.632 1.993a3.485 3.485 0 0 0 2.089-.536 2.619 2.619 0 0 0 .96-2.209c0-1.713-.928-2.529-2.857-2.529a7.093 7.093 0 0 0-1.105.072.308.308 0 0 0-.272.336v4.434a.328.328 0 0 0 .3.384 5.835 5.835 0 0 0 .883.048zm.264-.728c-.176 0-.344 0-.528-.016v-3.778a3.931 3.931 0 0 1 .584-.04 1.6 1.6 0 0 1 1.785 1.849 2.139 2.139 0 0 1-.473 1.512 1.739 1.739 0 0 1-1.37.473zm4.015.664h2.746c.168 0 .192-.184.192-.376s-.008-.352-.184-.352h-2.177v-1.553h1.808c.152 0 .184-.176.184-.376s-.008-.352-.192-.352h-1.8v-1.465h2.153c.152 0 .184-.184.184-.376s-.016-.352-.192-.352h-2.722a.317.317 0 0 0-.352.352v4.5a.317.317 0 0 0 .35.35zm5.8.04a.249.249 0 0 0 .256-.264 27.26 27.26 0 0 1 .208-2.369c.072-.48.129-1.072.225-1.529h.016c.16.384.336.952.5 1.4.216.624.432 1.313.7 2.233a.378.378 0 0 0 .44.352.389.389 0 0 0 .456-.352c.257-.944.473-1.633.689-2.249.16-.44.344-.985.5-1.385h.016c.1.456.16 1.056.224 1.545.1.688.168 1.465.208 2.353a.249.249 0 0 0 .256.264 1.421 1.421 0 0 0 .488-.024.226.226 0 0 0 .2-.288 30.233 30.233 0 0 0-.649-4.426.557.557 0 0 0-.608-.5.606.606 0 0 0-.64.432 27.444 27.444 0 0 0-1.121 3.113h-.021a30.235 30.235 0 0 0-1.112-3.113.611.611 0 0 0-.64-.432.553.553 0 0 0-.609.5 27.8 27.8 0 0 0-.656 4.426.234.234 0 0 0 .2.288 1.349 1.349 0 0 0 .472.025zm6.712.04a.228.228 0 0 0 .24-.24c.064-.3.136-.664.24-1.041h2.233a9.041 9.041 0 0 1 .24 1.041.224.224 0 0 0 .241.24 1.344 1.344 0 0 0 .36-.04c.288-.064.352-.184.3-.4a19.274 19.274 0 0 0-1.609-4.458.673.673 0 0 0-.664-.392.651.651 0 0 0-.648.408 18.284 18.284 0 0 0-1.6 4.442c-.048.216.024.328.3.4a1.24 1.24 0 0 0 .365.04zm.68-2.009a13.232 13.232 0 0 1 .905-2.353h.032a14.523 14.523 0 0 1 .9 2.353h-1.833zm4.2 1.945a1.262 1.262 0 0 0 .52 0 .209.209 0 0 0 .2-.208v-2.5c0-.384-.024-.84-.048-1.192h.016a11.648 11.648 0 0 0 .641 1.121l1.7 2.537a.488.488 0 0 0 .441.224h.191a.331.331 0 0 0 .368-.36v-4.656a.189.189 0 0 0-.2-.2.932.932 0 0 0-.513 0 .187.187 0 0 0-.192.2l.008 2.521c0 .408.016.816.032 1.153h-.013c-.12-.224-.384-.752-.616-1.1l-1.7-2.529a.473.473 0 0 0-.432-.232h-.232a.327.327 0 0 0-.368.36v4.658a.191.191 0 0 0 .195.203zm7.313.144c1.472 0 2.409-1.032 2.417-2.761.008-1.641-.825-2.713-2.361-2.713-1.473 0-2.417 1.032-2.417 2.761-.002 1.661.822 2.713 2.359 2.713zm.016-.712c-.993 0-1.393-.864-1.417-2.033-.024-1.209.464-2 1.449-2s1.4.824 1.416 1.985c.022 1.215-.474 2.04-1.45 2.048zm4.943.576a1.64 1.64 0 0 0 .56 0 .2.2 0 0 0 .184-.208v-1.793a4.624 4.624 0 0 0 .584.032 5.591 5.591 0 0 0 1.657 1.913.547.547 0 0 0 .721-.016c.152-.12.264-.288.08-.416a5.542 5.542 0 0 1-1.537-1.577 1.56 1.56 0 0 0 1.3-1.577c0-1.032-.888-1.609-2.176-1.609a8.4 8.4 0 0 0-1.265.064.319.319 0 0 0-.288.352v4.626a.191.191 0 0 0 .178.209zm1.425-2.665a4.143 4.143 0 0 1-.681-.04v-1.833c.168-.016.352-.016.617-.024a1.018 1.018 0 0 1 1.232.928.989.989 0 0 1-1.17.969zm3.5 2.641h2.745c.168 0 .192-.184.192-.376s-.008-.352-.184-.352h-2.177v-1.553h1.809c.152 0 .184-.176.184-.376s-.008-.352-.192-.352h-1.8v-1.465h2.153c.152 0 .184-.184.184-.376s-.016-.352-.192-.352h-2.721a.317.317 0 0 0-.352.352v4.5a.317.317 0 0 0 .352.35zm5.977.16a3.261 3.261 0 0 0 1.88-.56.471.471 0 0 0 .208-.456v-1.7a.2.2 0 0 0-.224-.216h-1.807c-.16 0-.2.12-.2.352s.04.352.2.352h1.208v1.12a2.052 2.052 0 0 1-1.152.32c-1.073 0-1.681-.784-1.681-2.009a1.724 1.724 0 0 1 1.761-1.913 1.828 1.828 0 0 1 1.136.336c.208.144.328.056.44-.184a.3.3 0 0 0-.088-.488 2.524 2.524 0 0 0-1.528-.416 2.662 2.662 0 0 0-1.857.712 2.849 2.849 0 0 0-.8 2.081 2.705 2.705 0 0 0 .8 2.025 2.37 2.37 0 0 0 1.705.644zm5.071-.04a1.773 1.773 0 0 0 1.985-1.953v-3.185a.2.2 0 0 0-.2-.2 1.142 1.142 0 0 0-.52 0 .2.2 0 0 0-.192.2V90.7a1.073 1.073 0 1 1-2.145 0v-3.326a.191.191 0 0 0-.192-.2 1.248 1.248 0 0 0-.544 0 .191.191 0 0 0-.192.2v3.185a1.775 1.775 0 0 0 2.001 1.953zm3.424-.12h2.729c.192 0 .208-.176.208-.384s-.008-.36-.192-.36h-2.169v-4.266a.187.187 0 0 0-.184-.208 1.645 1.645 0 0 0-.56 0 .183.183 0 0 0-.184.208v4.658a.317.317 0 0 0 .353.352zm4.128.08a.228.228 0 0 0 .24-.24c.064-.3.136-.664.24-1.041h2.233a9.041 9.041 0 0 1 .24 1.041.224.224 0 0 0 .24.24 1.344 1.344 0 0 0 .36-.04c.288-.064.352-.184.3-.4a19.27 19.27 0 0 0-1.608-4.458.675.675 0 0 0-.665-.392.651.651 0 0 0-.648.408 18.326 18.326 0 0 0-1.6 4.442c-.048.216.024.328.3.4a1.247 1.247 0 0 0 .369.04zm.68-2.009a13.158 13.158 0 0 1 .9-2.353h.032a14.52 14.52 0 0 1 .9 2.353h-1.833zm4.191 1.953a1.646 1.646 0 0 0 .561 0 .2.2 0 0 0 .184-.208v-1.793a4.624 4.624 0 0 0 .584.032 5.57 5.57 0 0 0 1.657 1.913.545.545 0 0 0 .72-.016c.152-.12.264-.288.08-.416a5.568 5.568 0 0 1-1.537-1.577 1.56 1.56 0 0 0 1.3-1.577c0-1.032-.888-1.609-2.177-1.609a8.419 8.419 0 0 0-1.265.064.319.319 0 0 0-.288.352v4.626a.191.191 0 0 0 .182.209zm1.425-2.665a4.137 4.137 0 0 1-.68-.04v-1.833c.168-.016.352-.016.616-.024a1.019 1.019 0 0 1 1.233.928.99.99 0 0 1-1.168.969zm5.776 2.705A3.485 3.485 0 0 0 197 91.92a2.619 2.619 0 0 0 .96-2.209c0-1.713-.928-2.529-2.857-2.529a7.084 7.084 0 0 0-1.1.072.308.308 0 0 0-.272.336v4.434a.328.328 0 0 0 .3.384 5.827 5.827 0 0 0 .878.048zm.264-.728c-.176 0-.344 0-.528-.016v-3.778a3.931 3.931 0 0 1 .584-.04 1.6 1.6 0 0 1 1.785 1.849 2.139 2.139 0 0 1-.473 1.513 1.739 1.739 0 0 1-1.367.472zm4.015.664h2.745c.169 0 .193-.184.193-.376s-.008-.352-.185-.352h-2.176v-1.553h1.808c.152 0 .184-.176.184-.376s-.008-.352-.192-.352h-1.8v-1.465h2.152c.152 0 .185-.184.185-.376s-.016-.352-.193-.352h-2.721a.317.317 0 0 0-.352.352v4.5a.317.317 0 0 0 .353.35zm5.616.08a.228.228 0 0 0 .24-.24c.064-.3.136-.664.24-1.041h2.233a9.041 9.041 0 0 1 .24 1.041.224.224 0 0 0 .24.24 1.347 1.347 0 0 0 .361-.04c.288-.064.352-.184.3-.4a19.274 19.274 0 0 0-1.609-4.458.673.673 0 0 0-.664-.392.654.654 0 0 0-.649.408 18.322 18.322 0 0 0-1.6 4.442c-.048.216.024.328.3.4a1.24 1.24 0 0 0 .365.04zm.68-2.009a13.156 13.156 0 0 1 .905-2.353h.032a14.523 14.523 0 0 1 .9 2.353h-1.833zm4.36 1.929h2.729c.192 0 .208-.176.208-.384s-.008-.36-.192-.36h-2.168v-4.266a.187.187 0 0 0-.184-.208 1.645 1.645 0 0 0-.56 0 .183.183 0 0 0-.184.208v4.658a.317.317 0 0 0 .352.352zm5.849.16a3.267 3.267 0 0 0 1.881-.56.471.471 0 0 0 .208-.456v-1.7a.2.2 0 0 0-.224-.216h-1.809c-.16 0-.2.12-.2.352s.04.352.2.352h1.208v1.12a2.052 2.052 0 0 1-1.152.32c-1.073 0-1.681-.784-1.681-2.009a1.724 1.724 0 0 1 1.761-1.913 1.828 1.828 0 0 1 1.136.336c.208.144.329.056.441-.184a.3.3 0 0 0-.088-.488 2.529 2.529 0 0 0-1.529-.416 2.664 2.664 0 0 0-1.857.712 2.849 2.849 0 0 0-.8 2.081 2.705 2.705 0 0 0 .8 2.025 2.37 2.37 0 0 0 1.706.644zm5.264 0c1.472 0 2.409-1.032 2.417-2.761.008-1.641-.825-2.713-2.361-2.713-1.473 0-2.417 1.032-2.417 2.761.005 1.661.825 2.713 2.362 2.713zm.016-.712c-.993 0-1.393-.864-1.417-2.033-.024-1.209.464-2 1.449-2s1.4.824 1.416 1.985c.025 1.215-.471 2.04-1.447 2.048zm4.5.616a3.481 3.481 0 0 0 2.089-.536 2.619 2.619 0 0 0 .961-2.209c0-1.713-.929-2.529-2.858-2.529a7.07 7.07 0 0 0-1.1.072.308.308 0 0 0-.272.336v4.434a.328.328 0 0 0 .3.384 5.813 5.813 0 0 0 .884.048zm.264-.728c-.176 0-.344 0-.528-.016v-3.778a3.931 3.931 0 0 1 .584-.04 1.6 1.6 0 0 1 1.785 1.849 2.144 2.144 0 0 1-.472 1.513 1.74 1.74 0 0 1-1.365.472zm5.232-4.922 1.6-.712a.163.163 0 0 0 .088-.232 1.566 1.566 0 0 0-.192-.384.161.161 0 0 0-.248-.072l-1.5.88c-.144.088-.1.2-.04.336.088.184.184.232.296.184zm.625 5.746c1.472 0 2.409-1.032 2.417-2.761.008-1.641-.825-2.713-2.361-2.713-1.473 0-2.417 1.032-2.417 2.761.004 1.661.828 2.713 2.368 2.713zm.016-.712c-.993 0-1.393-.864-1.417-2.033-.024-1.209.464-2 1.449-2s1.4.824 1.416 1.985c.028 1.215-.468 2.04-1.444 2.048zm3.511.568a1.262 1.262 0 0 0 .52 0 .209.209 0 0 0 .2-.208v-2.5c0-.384-.024-.84-.048-1.192h.016a11.621 11.621 0 0 0 .64 1.121l1.705 2.537a.488.488 0 0 0 .44.224h.192a.331.331 0 0 0 .368-.36v-4.656a.189.189 0 0 0-.2-.2.928.928 0 0 0-.512 0 .187.187 0 0 0-.192.2l.008 2.521c0 .408.016.816.032 1.153h-.016c-.12-.224-.384-.752-.616-1.1l-1.7-2.529a.473.473 0 0 0-.432-.232h-.225a.327.327 0 0 0-.368.36v4.658a.191.191 0 0 0 .192.203z" transform="translate(-61.344 -85.406)" style="fill:#001f53;fill-rule:evenodd"/></svg><svg width="268.13" height="11.56" viewBox="-1 -1 268.13 11.56" xmlns="http://www.w3.org/2000/svg"><path data-name="NUEVAS TOALLAS de manos DESECHABLES" d="M17.9 89.125a1.429 1.429 0 0 0 .644 0 .279.279 0 0 0 .294-.294v-5.069a43.3 43.3 0 0 0-.056-1.96h.028c.266.462.686 1.232 1.05 1.778l3.389 5.2a.7.7 0 0 0 .63.322h.252a.466.466 0 0 0 .518-.518v-8.337a.266.266 0 0 0-.294-.294 1.43 1.43 0 0 0-.644-.014.29.29 0 0 0-.294.308l.014 5.209c0 .616.028 1.26.042 1.806h-.025c-.224-.392-.616-1.162-.966-1.694l-3.417-5.237a.687.687 0 0 0-.616-.331h-.322a.466.466 0 0 0-.518.518v8.318a.272.272 0 0 0 .291.289zm12.209.182c2.156 0 3.333-1.148 3.333-3.277v-5.783a.272.272 0 0 0-.294-.294 1.734 1.734 0 0 0-.658 0 .261.261 0 0 0-.28.294v5.923a1.9 1.9 0 0 1-2.086 2.1 1.9 1.9 0 0 1-2.114-2.1v-5.923a.272.272 0 0 0-.294-.294 1.809 1.809 0 0 0-.672 0 .272.272 0 0 0-.294.294v5.783c0 2.129 1.177 3.277 3.361 3.277zm5.921-.21h4.775c.28 0 .294-.252.294-.532s-.014-.49-.266-.49H36.8V84.98h3.389c.238 0 .266-.238.266-.518s0-.5-.28-.5H36.8v-2.944h3.991c.238 0 .266-.238.266-.518s0-.5-.28-.5h-4.745a.437.437 0 0 0-.49.49v8.122a.437.437 0 0 0 .49.488zm10.07.154a.85.85 0 0 0 .882-.574 28.663 28.663 0 0 0 2.913-8.08.406.406 0 0 0-.392-.532 1.723 1.723 0 0 0-.49-.07.307.307 0 0 0-.336.322c-.238 1.106-.518 2.38-.91 3.613a25.463 25.463 0 0 1-1.638 4.033h-.058a24.539 24.539 0 0 1-1.624-4.019 33.854 33.854 0 0 1-.938-3.627.305.305 0 0 0-.323-.317 1.685 1.685 0 0 0-.532.07.406.406 0 0 0-.392.532 30.914 30.914 0 0 0 2.927 8.108.847.847 0 0 0 .911.541zm4.871-.028a.316.316 0 0 0 .336-.322c.126-.63.266-1.316.462-2.016h4.257c.182.7.336 1.372.476 2.016a.316.316 0 0 0 .336.322 1.354 1.354 0 0 0 .476-.07c.364-.084.462-.238.392-.518a32.055 32.055 0 0 0-2.913-8.108.928.928 0 0 0-.91-.56.914.914 0 0 0-.9.574 29.446 29.446 0 0 0-2.9 8.094c-.07.28.028.434.392.518a1.3 1.3 0 0 0 .495.07zm1.05-3.361a24.563 24.563 0 0 1 1.834-4.649h.045a24.556 24.556 0 0 1 1.834 4.649H52.02zm10.206 3.417c1.946-.014 3.487-1.12 3.445-2.955a2.069 2.069 0 0 0-1.316-1.96c-.938-.462-2.409-.588-3.235-.952a1.172 1.172 0 0 1-.938-1.134c-.014-.868.728-1.414 2.044-1.414a3.852 3.852 0 0 1 2.184.546c.322.182.476.1.6-.28a.46.46 0 0 0-.14-.672 4.731 4.731 0 0 0-2.7-.658c-2.016.014-3.263.994-3.249 2.6a2.052 2.052 0 0 0 1.246 1.932 25.663 25.663 0 0 0 3.207 1.008 1.325 1.325 0 0 1 1.064 1.246c.014.98-.756 1.61-2.212 1.624a3.538 3.538 0 0 1-2.563-.994c-.294-.252-.448-.126-.658.294a.5.5 0 0 0 .1.714 4.683 4.683 0 0 0 3.121 1.055zm10.248-.14a1.961 1.961 0 0 0 .7 0 .268.268 0 0 0 .28-.294v-7.813h2.661c.224 0 .294-.2.294-.546S76.353 80 76.115 80h-6.679c-.21 0-.294.21-.294.546s.07.49.294.49h2.758v7.814a.268.268 0 0 0 .28.289zm8.736.238c2.563 0 4.1-1.848 4.117-4.831.014-2.885-1.414-4.747-4.047-4.747-2.562 0-4.117 1.848-4.117 4.831 0 2.885 1.414 4.747 4.047 4.747zm.028-.98c-1.876 0-2.759-1.61-2.787-3.809-.028-2.3.924-3.795 2.815-3.795 1.848 0 2.759 1.582 2.787 3.767.013 2.283-.954 3.84-2.815 3.84zm5.977.826a.316.316 0 0 0 .336-.322c.126-.63.266-1.316.462-2.016h4.257c.182.7.336 1.372.476 2.016a.316.316 0 0 0 .336.322 1.354 1.354 0 0 0 .476-.07c.364-.084.462-.238.392-.518a32.055 32.055 0 0 0-2.913-8.108.928.928 0 0 0-.91-.56.914.914 0 0 0-.9.574 29.446 29.446 0 0 0-2.9 8.094c-.07.28.028.434.392.518a1.3 1.3 0 0 0 .496.07zm1.05-3.361a24.563 24.563 0 0 1 1.834-4.648h.042a24.563 24.563 0 0 1 1.834 4.649h-3.71zm7.812 3.238h4.761c.294 0 .308-.238.308-.532s-.014-.5-.28-.5h-4.019v-7.821a.279.279 0 0 0-.294-.294 1.884 1.884 0 0 0-.686 0 .268.268 0 0 0-.28.294v8.36a.437.437 0 0 0 .49.493zm7.1 0h4.761c.295 0 .309-.238.309-.532s-.014-.5-.281-.5h-4.018v-7.821a.279.279 0 0 0-.294-.294 1.888 1.888 0 0 0-.687 0 .268.268 0 0 0-.28.294v8.36a.437.437 0 0 0 .487.493zm7.042.126a.315.315 0 0 0 .336-.322c.126-.63.266-1.316.462-2.016h4.257c.182.7.336 1.372.476 2.016a.315.315 0 0 0 .336.322 1.354 1.354 0 0 0 .476-.07c.365-.084.463-.238.393-.518a32.1 32.1 0 0 0-2.913-8.108.928.928 0 0 0-.91-.56.914.914 0 0 0-.9.574 29.421 29.421 0 0 0-2.9 8.094c-.07.28.028.434.392.518a1.294 1.294 0 0 0 .492.067zm1.05-3.361a24.63 24.63 0 0 1 1.835-4.649h.042a24.563 24.563 0 0 1 1.834 4.649h-3.711zm10.207 3.417c1.946-.014 3.486-1.12 3.444-2.955a2.069 2.069 0 0 0-1.316-1.96c-.938-.462-2.409-.588-3.235-.952a1.172 1.172 0 0 1-.938-1.134c-.014-.868.728-1.414 2.045-1.414a3.851 3.851 0 0 1 2.184.546c.322.182.476.1.6-.28a.46.46 0 0 0-.14-.672 4.729 4.729 0 0 0-2.7-.658c-2.017.014-3.263.994-3.249 2.6a2.052 2.052 0 0 0 1.246 1.932 25.667 25.667 0 0 0 3.207 1.008 1.325 1.325 0 0 1 1.064 1.246c.014.98-.756 1.61-2.212 1.624a3.537 3.537 0 0 1-2.563-.994c-.294-.252-.448-.126-.658.294a.5.5 0 0 0 .1.714 4.682 4.682 0 0 0 3.118 1.052zm9.6-.07a5.849 5.849 0 0 0 3.613-1.012 4.581 4.581 0 0 0 1.54-3.767c0-2.983-1.6-4.439-4.943-4.439a13.686 13.686 0 0 0-1.834.112.431.431 0 0 0-.392.476v8.01a.442.442 0 0 0 .42.518 12.993 12.993 0 0 0 1.596.099zm.294-1.036c-.364 0-.686-.014-1.064-.042V81.06a8.946 8.946 0 0 1 1.134-.07c2.409 0 3.5 1.12 3.529 3.459a3.865 3.865 0 0 1-.924 2.829 3.522 3.522 0 0 1-2.675.895zm7.1.924h4.775c.28 0 .294-.252.294-.532s-.014-.49-.266-.49h-4.033V84.98h3.389c.238 0 .266-.238.266-.518s0-.5-.28-.5h-3.375v-2.944h3.991c.238 0 .266-.238.266-.518s0-.5-.28-.5h-4.747a.437.437 0 0 0-.49.49v8.122a.437.437 0 0 0 .488.488zm10 .056a.333.333 0 0 0 .364-.35c.084-1.736.224-3.095.42-4.495.14-.924.294-1.96.476-2.843h.028c.336.784.686 1.82.994 2.7.448 1.26.826 2.535 1.26 4.117a.587.587 0 0 0 .658.574.6.6 0 0 0 .687-.574c.406-1.61.8-2.885 1.232-4.117.308-.882.672-1.876 1.022-2.7h.028c.182.882.35 1.946.49 2.871.2 1.386.336 2.857.42 4.467a.317.317 0 0 0 .35.35 1.892 1.892 0 0 0 .63-.028.327.327 0 0 0 .294-.392 50.5 50.5 0 0 0-1.176-8.038.808.808 0 0 0-.868-.714.86.86 0 0 0-.91.6 51.679 51.679 0 0 0-2.157 6.2h-.028a47.731 47.731 0 0 0-2.17-6.2.846.846 0 0 0-.882-.6.784.784 0 0 0-.868.728 45.171 45.171 0 0 0-1.191 8.024.312.312 0 0 0 .28.392 1.831 1.831 0 0 0 .611.025zm11.563.07a.316.316 0 0 0 .337-.322c.126-.63.266-1.316.462-2.016h4.256c.183.7.337 1.372.477 2.016a.315.315 0 0 0 .336.322 1.354 1.354 0 0 0 .476-.07c.364-.084.462-.238.392-.518a32.064 32.064 0 0 0-2.913-8.108.928.928 0 0 0-.91-.56.914.914 0 0 0-.9.574 29.453 29.453 0 0 0-2.9 8.094c-.07.28.028.434.392.518a1.294 1.294 0 0 0 .489.067zm1.051-3.361a24.563 24.563 0 0 1 1.834-4.649h.042a24.563 24.563 0 0 1 1.834 4.649h-3.71zm7.615 3.263a1.429 1.429 0 0 0 .644 0 .279.279 0 0 0 .294-.294v-5.072a43.3 43.3 0 0 0-.056-1.96h.018c.267.462.687 1.232 1.051 1.778l3.388 5.2a.7.7 0 0 0 .631.322h.252a.466.466 0 0 0 .518-.518v-8.337a.266.266 0 0 0-.294-.294 1.434 1.434 0 0 0-.645-.014.29.29 0 0 0-.294.308l.014 5.209c0 .616.028 1.26.042 1.806h-.028c-.224-.392-.616-1.162-.966-1.694l-3.416-5.237a.689.689 0 0 0-.613-.331h-.322a.466.466 0 0 0-.518.518v8.318a.272.272 0 0 0 .294.289zm12.6.252c2.562 0 4.1-1.848 4.117-4.831.014-2.885-1.415-4.747-4.047-4.747-2.563 0-4.117 1.848-4.117 4.831-.005 2.882 1.409 4.744 4.047 4.744zm.028-.98c-1.877 0-2.759-1.61-2.787-3.809-.028-2.3.924-3.795 2.815-3.795 1.848 0 2.758 1.582 2.786 3.767.009 2.28-.957 3.837-2.819 3.837zm8.778.882c1.946-.014 3.486-1.12 3.444-2.955a2.069 2.069 0 0 0-1.316-1.96c-.938-.462-2.408-.588-3.235-.952a1.172 1.172 0 0 1-.938-1.134c-.014-.868.728-1.414 2.045-1.414a3.851 3.851 0 0 1 2.184.546c.322.182.476.1.6-.28a.46.46 0 0 0-.14-.672 4.729 4.729 0 0 0-2.7-.658c-2.017.014-3.263.994-3.249 2.6a2.052 2.052 0 0 0 1.246 1.932 25.667 25.667 0 0 0 3.207 1.008 1.325 1.325 0 0 1 1.064 1.246c.014.98-.756 1.61-2.212 1.624a3.537 3.537 0 0 1-2.563-.994c-.294-.252-.448-.126-.658.294a.5.5 0 0 0 .1.714 4.682 4.682 0 0 0 3.115 1.052zm9.6-.07a5.847 5.847 0 0 0 3.613-1.008 4.581 4.581 0 0 0 1.54-3.767c0-2.983-1.6-4.439-4.943-4.439a13.686 13.686 0 0 0-1.834.112.431.431 0 0 0-.392.476v8.01a.442.442 0 0 0 .42.518 12.993 12.993 0 0 0 1.59.095zm.294-1.039c-.364 0-.686-.014-1.064-.042V81.06a8.946 8.946 0 0 1 1.134-.07c2.409 0 3.5 1.12 3.529 3.459a3.865 3.865 0 0 1-.924 2.829 3.521 3.521 0 0 1-2.675.895zm7.1.924h4.775c.28 0 .294-.252.294-.532s-.014-.49-.266-.49h-4.033V84.98h3.389c.238 0 .266-.238.266-.518s0-.5-.28-.5h-3.375v-2.944h3.991c.238 0 .266-.238.266-.518s0-.5-.28-.5H207.1a.437.437 0 0 0-.49.49v8.122a.437.437 0 0 0 .49.488zm9.716.182c1.947-.014 3.487-1.12 3.445-2.955a2.069 2.069 0 0 0-1.316-1.96c-.938-.462-2.409-.588-3.235-.952a1.172 1.172 0 0 1-.938-1.134c-.014-.868.728-1.414 2.044-1.414a3.854 3.854 0 0 1 2.184.546c.322.182.476.1.6-.28a.46.46 0 0 0-.14-.672 4.73 4.73 0 0 0-2.7-.658c-2.016.014-3.262.994-3.248 2.6a2.052 2.052 0 0 0 1.246 1.932 25.615 25.615 0 0 0 3.207 1.008 1.325 1.325 0 0 1 1.064 1.246c.014.98-.756 1.61-2.213 1.624a3.537 3.537 0 0 1-2.562-.994c-.294-.252-.448-.126-.658.294a.5.5 0 0 0 .1.714 4.682 4.682 0 0 0 3.116 1.055zm5.558-.182h4.775c.28 0 .294-.252.294-.532s-.014-.49-.266-.49h-4.037V84.98h3.389c.238 0 .266-.238.266-.518s0-.5-.28-.5h-3.375v-2.944h3.991c.238 0 .266-.238.266-.518s0-.5-.28-.5h-4.747a.437.437 0 0 0-.49.49v8.122a.437.437 0 0 0 .49.488zm10.36.266a4.019 4.019 0 0 0 2.857-.994.46.46 0 0 0 .042-.714.4.4 0 0 0-.644-.168 3.06 3.06 0 0 1-2.143.784c-1.848 0-3.01-1.484-3.01-3.739 0-2.226 1.19-3.655 3-3.655a3.092 3.092 0 0 1 1.821.518c.336.168.462.014.588-.322a.451.451 0 0 0-.21-.686 4.181 4.181 0 0 0-2.269-.574c-2.478 0-4.2 2.017-4.2 4.789-.009 2.941 1.672 4.761 4.164 4.761zm11.355-9.438a1.96 1.96 0 0 0-.7 0 .251.251 0 0 0-.266.294v3.739h-4.467v-3.739a.272.272 0 0 0-.294-.294 1.888 1.888 0 0 0-.687 0 .261.261 0 0 0-.28.294v8.626a.268.268 0 0 0 .28.294 1.888 1.888 0 0 0 .687 0 .279.279 0 0 0 .294-.294V84.98h4.467v3.865a.257.257 0 0 0 .266.294 1.96 1.96 0 0 0 .7 0 .268.268 0 0 0 .28-.294v-8.626a.261.261 0 0 0-.284-.294zm2.812 9.3a.315.315 0 0 0 .336-.322c.126-.63.266-1.316.462-2.016h4.257c.182.7.336 1.372.476 2.016a.316.316 0 0 0 .337.322 1.354 1.354 0 0 0 .476-.07c.364-.084.462-.238.392-.518a32.064 32.064 0 0 0-2.913-8.108.928.928 0 0 0-.91-.56.914.914 0 0 0-.9.574 29.421 29.421 0 0 0-2.9 8.094c-.07.28.028.434.392.518a1.294 1.294 0 0 0 .494.068zm1.051-3.361a24.563 24.563 0 0 1 1.834-4.649h.042a24.563 24.563 0 0 1 1.834 4.649h-3.71zm9.435 3.361c2.409 0 3.851-.812 3.851-2.829a2 2 0 0 0-1.428-1.988v-.03a2.212 2.212 0 0 0 1.134-2.044c0-1.624-1.484-2.353-3.332-2.353a12.555 12.555 0 0 0-1.947.112.431.431 0 0 0-.392.476v8.052a.442.442 0 0 0 .42.518 13.594 13.594 0 0 0 1.69.084zm-.887-5.267V81c.392-.042.784-.042 1.163-.056 1.232-.028 2.016.49 2.016 1.512a1.318 1.318 0 0 1-1.4 1.5H256.5zm1.065 4.271a9.036 9.036 0 0 1-1.065-.056v-3.221h1.821c1.33 0 1.652.686 1.652 1.414.001 1.191-.867 1.863-2.407 1.863zm5.907.868h4.761c.294 0 .308-.238.308-.532s-.014-.5-.28-.5h-4.019v-7.818a.279.279 0 0 0-.294-.294 1.883 1.883 0 0 0-.686 0 .268.268 0 0 0-.28.294v8.36a.437.437 0 0 0 .491.493zm7.1 0h4.775c.28 0 .294-.252.294-.532s-.014-.49-.266-.49h-4.033V84.98h3.389c.238 0 .266-.238.266-.518s0-.5-.28-.5h-3.375v-2.944h3.991c.238 0 .266-.238.266-.518s0-.5-.28-.5h-4.747a.437.437 0 0 0-.49.49v8.122a.437.437 0 0 0 .489.488zm9.716.182c1.947-.014 3.487-1.12 3.445-2.955a2.069 2.069 0 0 0-1.316-1.96c-.938-.462-2.409-.588-3.235-.952a1.172 1.172 0 0 1-.938-1.134c-.014-.868.728-1.414 2.044-1.414a3.854 3.854 0 0 1 2.185.546c.322.182.476.1.6-.28a.46.46 0 0 0-.14-.672 4.73 4.73 0 0 0-2.7-.658c-2.016.014-3.262.994-3.248 2.6a2.052 2.052 0 0 0 1.246 1.932 25.615 25.615 0 0 0 3.207 1.008 1.325 1.325 0 0 1 1.064 1.246c.014.98-.756 1.61-2.213 1.624a3.537 3.537 0 0 1-2.562-.994c-.294-.252-.448-.126-.658.294a.5.5 0 0 0 .1.714 4.682 4.682 0 0 0 3.118 1.055z" transform="translate(-17.594 -79.813)" style="fill:#001f53;fill-rule:evenodd"/></svg><svg width="131.78" height="14.28" viewBox="-1 -1 131.78 14.28" y="20.72" xmlns="http://www.w3.org/2000/svg"><path data-name="proactive care™" d="M11.4 78.469a2.273 2.273 0 0 0 .824 0 .334.334 0 0 0 .353-.351v-3.581a14.282 14.282 0 0 0 1.715.067c2.725 0 4.491-1.188 4.491-3.581 0-2.326-1.833-3.514-4.676-3.514a21.546 21.546 0 0 0-2.54.1.567.567 0 0 0-.5.619v9.89a.321.321 0 0 0 .333.351zm2.842-5.02a10.881 10.881 0 0 1-1.665-.1v-4.636c.387-.034.858-.05 1.514-.05 1.884-.017 3.128.7 3.128 2.359s-1.096 2.427-2.98 2.427zm6.831 5.02a2.273 2.273 0 0 0 .824 0 .334.334 0 0 0 .353-.351V74.2a10.99 10.99 0 0 0 1.615.084 10.916 10.916 0 0 0 3.717 4.1.935.935 0 0 0 1.194-.05c.286-.218.437-.485.1-.7a10.12 10.12 0 0 1-3.481-3.514 3.278 3.278 0 0 0 2.893-3.3c0-2.092-1.833-3.313-4.507-3.313a21.545 21.545 0 0 0-2.54.1.567.567 0 0 0-.5.619v9.89a.321.321 0 0 0 .329.353zm2.842-5.388A11.246 11.246 0 0 1 22.247 73v-4.27c.387-.033.858-.05 1.514-.05 1.716-.034 2.943.736 2.943 2.159-.004 1.439-1.093 2.242-2.792 2.242zM34.8 78.754c3.078 0 4.928-2.209 4.945-5.773.017-3.447-1.7-5.673-4.861-5.673-3.078 0-4.945 2.209-4.945 5.773-.003 3.447 1.696 5.673 4.861 5.673zm.034-1.171c-2.254 0-3.313-1.924-3.347-4.551-.034-2.744 1.11-4.535 3.381-4.535 2.22 0 3.313 1.891 3.347 4.5.012 2.728-1.148 4.585-3.385 4.585zm7.185.987a.378.378 0 0 0 .4-.385c.151-.753.32-1.573.555-2.41h5.113c.219.837.4 1.64.572 2.41a.378.378 0 0 0 .4.385 1.631 1.631 0 0 0 .572-.084c.437-.1.555-.284.471-.619a38.186 38.186 0 0 0-3.5-9.689 1.115 1.115 0 0 0-1.093-.669 1.1 1.1 0 0 0-1.076.686 35.077 35.077 0 0 0-3.481 9.672c-.084.335.034.519.471.619a1.559 1.559 0 0 0 .592.083zm1.261-4.016A29.258 29.258 0 0 1 45.479 69h.05a29.258 29.258 0 0 1 2.2 5.555h-4.453zm13.037 4.184a4.844 4.844 0 0 0 3.431-1.188.548.548 0 0 0 .05-.853.476.476 0 0 0-.774-.2 3.686 3.686 0 0 1-2.573.937c-2.22 0-3.616-1.774-3.616-4.468 0-2.661 1.43-4.367 3.6-4.367a3.725 3.725 0 0 1 2.186.619c.4.2.555.017.706-.385a.538.538 0 0 0-.252-.82 5.041 5.041 0 0 0-2.725-.686c-2.977 0-5.046 2.41-5.046 5.723-.004 3.511 2.015 5.687 5.009 5.687zm8.8-.268a2.366 2.366 0 0 0 .841 0 .321.321 0 0 0 .336-.351V68.78h3.2c.269 0 .353-.234.353-.653 0-.4-.067-.586-.353-.586h-8.032c-.252 0-.353.251-.353.653s.084.586.353.586h3.313v9.337a.321.321 0 0 0 .336.352zm7 0a2.273 2.273 0 0 0 .824 0 .334.334 0 0 0 .353-.351V67.81a.326.326 0 0 0-.353-.351 2.273 2.273 0 0 0-.824 0 .313.313 0 0 0-.336.351v10.308a.321.321 0 0 0 .33.351zm7.748.13a1.021 1.021 0 0 0 1.06-.686 34.141 34.141 0 0 0 3.5-9.655.486.486 0 0 0-.471-.636 2.079 2.079 0 0 0-.589-.084.368.368 0 0 0-.4.385c-.286 1.322-.622 2.845-1.093 4.317a30.365 30.365 0 0 1-1.972 4.822h-.069a29.242 29.242 0 0 1-1.951-4.8 40.308 40.308 0 0 1-1.127-4.334.366.366 0 0 0-.387-.385 2.034 2.034 0 0 0-.639.084.485.485 0 0 0-.471.636 36.813 36.813 0 0 0 3.515 9.689 1.018 1.018 0 0 0 1.094.647zm7.1-.184H92.7c.336 0 .353-.3.353-.636 0-.318-.017-.586-.32-.586H87.89V73.5h4.07c.286 0 .32-.284.32-.619 0-.318 0-.6-.336-.6H87.89v-3.517h4.793c.286 0 .319-.284.319-.619 0-.318 0-.6-.336-.6h-5.7a.524.524 0 0 0-.589.586v9.706a.524.524 0 0 0 .588.582zm15.728.318a4.843 4.843 0 0 0 3.431-1.188.548.548 0 0 0 .051-.853.476.476 0 0 0-.774-.2 3.686 3.686 0 0 1-2.573.937c-2.22 0-3.616-1.774-3.616-4.468 0-2.661 1.429-4.367 3.6-4.367a3.722 3.722 0 0 1 2.186.619c.4.2.555.017.707-.385a.538.538 0 0 0-.252-.82 5.044 5.044 0 0 0-2.725-.686c-2.977 0-5.046 2.41-5.046 5.723-.001 3.515 2.018 5.691 5.011 5.691zm5.957-.167a.378.378 0 0 0 .4-.385c.152-.753.32-1.573.555-2.41h5.113c.219.837.4 1.64.572 2.41a.378.378 0 0 0 .4.385 1.625 1.625 0 0 0 .571-.084c.438-.1.555-.284.471-.619a38.166 38.166 0 0 0-3.5-9.689 1.115 1.115 0 0 0-1.093-.669 1.1 1.1 0 0 0-1.077.686 35.1 35.1 0 0 0-3.481 9.672c-.084.335.034.519.471.619a1.558 1.558 0 0 0 .598.086zm1.261-4.016a29.278 29.278 0 0 1 2.2-5.555h.051a29.278 29.278 0 0 1 2.2 5.555h-4.457zm9.135 3.916a2.273 2.273 0 0 0 .824 0 .334.334 0 0 0 .353-.351V74.2a10.994 10.994 0 0 0 1.615.084 10.919 10.919 0 0 0 3.717 4.1.935.935 0 0 0 1.194-.05c.286-.218.437-.485.1-.7a10.123 10.123 0 0 1-3.482-3.514 3.278 3.278 0 0 0 2.893-3.3c0-2.092-1.833-3.313-4.507-3.313a21.555 21.555 0 0 0-2.54.1.567.567 0 0 0-.5.619v9.89a.321.321 0 0 0 .333.353zm2.842-5.388a11.252 11.252 0 0 1-1.665-.079v-4.27c.387-.033.858-.05 1.514-.05 1.715-.034 2.943.736 2.943 2.159 0 1.439-1.093 2.242-2.792 2.242zm7.3 5.338h5.735c.337 0 .353-.3.353-.636 0-.318-.016-.586-.319-.586h-4.844V73.5h4.07c.286 0 .32-.284.32-.619 0-.318 0-.6-.337-.6h-4.053v-3.517h4.793c.286 0 .32-.284.32-.619 0-.318 0-.6-.336-.6h-5.7a.524.524 0 0 0-.589.586v9.706a.524.524 0 0 0 .589.582zm7.747-9.5a.524.524 0 0 0 .246 0 .122.122 0 0 0 .108-.147v-1.89h.611c.1 0 .147-.078.147-.215a.156.156 0 0 0-.147-.2h-1.7c-.108 0-.148.088-.148.215s.04.2.148.2h.618v1.894a.128.128 0 0 0 .119.147zm1.482.01a.149.149 0 0 0 .157-.156 9.2 9.2 0 0 1 .118-1.132l.059-.449h.019c.039.127.1.283.147.429.108.3.206.625.324 1.044a.2.2 0 0 0 .236.186.219.219 0 0 0 .245-.186c.108-.42.206-.732.3-1.035l.157-.449h.02c.029.146.049.322.068.469a9.529 9.529 0 0 1 .108 1.123.161.161 0 0 0 .157.156.4.4 0 0 0 .187-.01.139.139 0 0 0 .127-.176 12.75 12.75 0 0 0-.294-2.04.28.28 0 0 0-.294-.234.286.286 0 0 0-.3.2 12.2 12.2 0 0 0-.481 1.328c-.147-.459-.3-.9-.49-1.328a.286.286 0 0 0-.295-.2.268.268 0 0 0-.284.234 10.714 10.714 0 0 0-.3 2.04.144.144 0 0 0 .127.176.369.369 0 0 0 .184.013z" transform="translate(-11.063 -66.469)" style="fill:#001f53;fill-rule:evenodd"/></svg></svg>